<svg xmlns="http://www.w3.org/2000/svg" viewBox="0 0 100 100">
	<title>Mantenan</title>
	<path fill="#FFFFFF" d="M100,27.8c0-15.4-12.5-27.9-27.9-27.9H27.9C12.5-0.1,0,12.4,0,27.8v44.1c0,15.5,12.5,28,27.9,28H72 c15.4,0,27.9-12.5,27.9-27.9L100,27.8L100,27.8z"/>
	<path fill="#4F84A3" d="M66.1,16.2c-0.3,0.4-0.7,0.8-1,1.2c-3.6,4.6-6.8,9.3-9.8,14.2C51,38.7,47.5,46.1,44,53.5 c-0.1,0.2-0.2,0.5-0.4,0.6c-0.2-0.2,0.1-0.4,0.1-0.5c0.4-1.5,1-3,1.4-4.5c2-6.4,4.1-12.9,5.6-19.5c0.6-2.9,1.3-6,1-9.1 c-0.1-2-0.8-3.7-2.9-4.4c-1.4-0.5-2.7-0.6-4.1-0.3c-2,0.5-3.7,1.4-5.3,2.6C36,21,33.2,23.8,30.6,27c-5.2,6.4-9.1,13.2-11.3,20.9 c-0.8,2.8-1.3,5.6-1,8.6c0.2,2.3,1.7,3.7,4.1,4c0.8,0.1,1.5,0.1,2.3,0.1c0.2-0.1,0.5,0,0.6-0.2c0.1-0.3-0.2-0.4-0.4-0.5 c-0.6-0.2-1.3-0.1-1.9-0.2c-1-0.1-1.3-0.2-1.6-1.1c-0.3-1-0.4-1.8-0.2-2.8c0.2-2.3,0.6-4.6,1.4-6.8c3.2-10.2,9.2-18.9,17.2-26.4 c1.9-1.7,4-3,5.3-3.5c0.8-0.2,1.6-0.1,1.7,0.7c0.4,1-0.1,2.9-0.2,4.8c-0.5,4.3-1.7,8.2-2.9,12.4c-2.3,8.1-5.1,16-7.4,24.1 c-2,7.1-4,13.7-4.9,21c-0.1,1,0,1.2,1,1.6c0.5,0.2,1.8,0.6,2.4,0.6c1-0.1,1.3-0.2,1.4-1.1c1.2-4.2,2.5-8.4,4.1-12.5 c3.3-8.6,7.1-17,11-25.3c3.4-7.3,7.1-14.5,11.9-21.2c1.2-1.7,1.5-2.1,2.9-3.7c-0.2,0.6-0.2,1.3-0.4,1.8c-1.4,7.9-3.6,14-6,21.6 c-2.2,7-3.8,14.1-6,21.3c-0.7,2.5-1.3,4.9-1.7,7.5c-0.1,0.7,1,2,1.7,2.2c1.9,0.7,3,0,3.8-1.4c1.7-3.1,3.3-6.2,5-9.4 C65,60,71.6,45.4,74.8,41.7c0.2-0.2,0.4-0.4,0.6-0.7c0.2,0.4,0.1,0.6,0,0.9c-1.1,6.5-6.8,28.2-7.2,30.5c-0.2,1,2,1.5,2.3,0.7 c0.4-1,7-22.3,8-27c0.6-2.2,1-4.5,1-6.8c0-0.6-0.1-1.2-0.6-1.6c-1-0.9-2.8-1-3.9-0.2s-2.2,1.6-2.9,2.7c-4.1,6.4-9.8,18.3-12.2,22.6 c-0.2,0.2-0.2,0.6-0.6,0.7c0.1-0.3,0.2-0.6,0.2-0.8c1.3-4.3,2.5-8.5,3.7-12.7c2.8-9.5,5.6-18.8,7-28.5c0.2-1.3,0.4-2.5,0.4-3.8 c-0.1-0.7-0.2-1.4-0.8-1.8C68.8,15,67.1,15.1,66.1,16.2z"/>
</svg>