<svg xmlns="http://www.w3.org/2000/svg" viewBox="0 0 300 240">
	<style type="text/css">
		.st0{opacity:0.1;fill:#AAAAAA;enable-background:new;}
		.st1{fill:#140779;}
		.st2{fill:#CEF4FF;}
		.st3{fill:#F15A29;}
		.st4{fill:#D84B25;}
		.st5{fill:#3BFB83;}
		.st6{fill:#F46767;}
	</style>
	<g>
		<ellipse class="st0" cx="148.8" cy="120.7" rx="113.7" ry="113.7"/>
		<g>
			<path class="st1" d="M141,114.3c0,0-3.3,19.1,11.9,29s-1.3,29-14.5,23.7C125.2,161.8,116.6,112.3,141,114.3z"/>
			<path class="st2" d="M62.5,76c0,0,83.8-39.6,132.6-32.3c0,0,33,17.8,21.1,49.5l-84.4,31.7l26.4,91.7c0,0-15.8,33-60,13.9 C98.1,230.4,11.1,95.8,62.5,76z"/>
			<path class="st3" d="M101.4,85.2c-10-11.7-26.2-11.7-39.7-8.9c-26.1,11-14.8,52.7,1.8,90.1C108.7,185.9,120.2,107.1,101.4,85.2z"/>
			<path class="st4" d="M101.4,85.2c-10-11.7-26.2-11.7-39.7-8.9c-1.6,0.7-3.1,1.5-4.5,2.4c11.9-1.5,24.8,0,33.3,9.9 c14.4,16.8,11,67-11.8,80.7C111.1,167.2,117.9,104.4,101.4,85.2z"/>
			<path class="st1" d="M95.1,225.5c1.9,3.1,3,4.9,3,4.9c44.2,19.1,60-13.9,60-13.9l-3.6-12.3C135.1,225.2,110.6,227.1,95.1,225.5z"/>
			<path class="st1" d="M195.1,43.7c-5.7-0.8-11.8-1-18.2-0.7c12.7,9.3,30.1,27.2,28.8,54.2l10.6-4C228.1,61.5,195.1,43.7,195.1,43.7z"/>
			<polygon class="st5" points="49.9,100.5 83.6,94 92.6,142.5 60.4,148.5"/>
		</g>
		<g>
			<path class="st2" d="M244.5,153.8V67.3c0-4.8-3.9-8.7-8.7-8.7s-8.7,3.9-8.7,8.7v86.4c-7.3,3.3-12.3,10.6-12.3,19.1 c0,11.6,9.4,21,21,21s21-9.4,21-21C256.9,164.4,251.8,157.1,244.5,153.8z"/>
			<circle class="st6" cx="235.9" cy="174" r="14.7"/>
			<path class="st6" d="M236.3,176.8L236.3,176.8c-2.4,0-4.4-2-4.4-4.4V97.8c0-2.4,2-4.4,4.4-4.4l0,0c2.4,0,4.4,2,4.4,4.4v74.6 C240.7,174.8,238.7,176.8,236.3,176.8z"/>
		</g>
		<polygon class="st6" points="217.4,43.5 235.8,15.9 251.4,29.2"/>
		<polygon class="st6" points="222.9,49 261.8,43.8 262.4,57.7"/>
	</g>
</svg>