<svg xmlns="http://www.w3.org/2000/svg" viewBox="0 0 300 240">
	<style type="text/css">
		.st0{opacity:0.1;fill:#AAAAAA;enable-background:new;}
		.st1{fill:#257BF8;}
		.st2{fill:none;stroke:#257BF8;stroke-width:1.784;stroke-miterlimit:10;}
		.st3{fill:#1265C6;}
		.st4{fill:none;stroke:#15497C;stroke-width:1.0114;stroke-linecap:round;stroke-linejoin:round;stroke-miterlimit:10;}
	</style>
	<g>
		<ellipse class="st0" transform="matrix(0.7071 -0.7071 0.7071 0.7071 -41.8095 140.5592)" cx="148.8" cy="120.7" rx="113.7" ry="113.7"/>
		<path class="st1" d="M55.9,109.7c0,0,52.6-64.5,168-39.9c0,0,24.6,30.5,22.9,64.5c0,0-92.5,42.4-172.2,35.6 C74.6,170,58.5,140.3,55.9,109.7z"/>
		<path class="st2" d="M68.4,108.2c-9.6,6.3-21.2,8.5-31.5,13.5C24,128,13.4,138.9,7.6,151.9c-1.6,3.6-2.9,7.6-2.1,11.5 c0.8,4,3.7,7.3,7.2,9.4c10.2,6.2,23.4,2.9,34.5-1.4c11.1-4.3,23-9.5,34.6-6.5"/>
		<path class="st2" d="M205.6,74.8c13.4,3.2,26.4-5.3,39.7-8.8c9.3-2.4,19.4-2.4,28.3,1.1c8.9,3.5,16.6,10.6,19.8,19.7 c1.5,4.3,2.1,8.9,1.2,13.4c-2.5,13.3-16.2,21.3-29.1,25.2c-12.9,3.9-27.1,5.8-37.6,14.2"/>
		<path class="st3" d="M73,111.6c0,0,14-17.4,47.7-23.3c0,0-39,17.4-43,29.1c0,0,2.9,30.2,11,41.3C88.7,158.7,73.6,140.7,73,111.6z"/>
		<path class="st4" d="M84.2,118.1c0,0,52-31,123.3-27.4"/>
		<path class="st4" d="M89.9,131.9c0,0,52-31,123.3-27.4"/>
		<path class="st4" d="M95.6,145.8c0,0,52-31,123.3-27.4"/>
	</g>
</svg>