<svg xmlns="http://www.w3.org/2000/svg" viewBox="0 0 300 240">
	<style type="text/css">
		.st0{opacity:0.1;fill:#AAAAAA;enable-background:new;}
		.st1{fill:#EDB399;}
		.st2{fill:none;stroke:#A85433;stroke-width:1.784;stroke-linecap:round;stroke-linejoin:round;stroke-miterlimit:10;}
		.st3{opacity:0.8;fill:#CEF4FF;}
		.st4{fill:#140779;}
		.st5{fill:#F15A29;}
		.st6{fill:#C6C3FC;}
		.st7{fill:#FFFFFF;}
		.st8{opacity:0.5;fill:#FFFFFF;}
	</style>
	<g>
		<ellipse class="st0" transform="matrix(0.7071 -0.7071 0.7071 0.7071 -41.8095 140.5592)" cx="148.8" cy="120.7" rx="113.7" ry="113.7"/>
		<g>
			<path class="st1" d="M248.9,155.6c-3.2-2.9-6.4-5.9-8.5-9.7c-3.3-5.8-3.8-12.7-5.2-19.2c-1.8-8.9-5.5-17.4-10.6-24.9 c-2-2.9-5.3-6-8.6-4.6c-2.7,1.2-3.3,4.6-3.6,7.5c-0.5,6-1.1,11.9-1.6,17.9c-0.1,1.6-0.4,3.3-1.6,4.2c-2.2,1.7-5.2-0.6-7.1-2.7 c-10.7-11.9-22.9-22.4-36.1-31.3c-2.1-1.4-10.2-7.2-12.6-4.3c-0.6,0.7-0.7,1.6-0.8,2.4c-0.2,4.1,1.4,7.7,3.4,11.2 c4.3,7.6,8.5,15.3,12.8,22.9c-7.5-3.7-15.1-7.3-22.6-11c-2.9-1.4-6-2.9-9.2-2.6c-3.2,0.3-6.5,3-6.1,6.2c0.3,2.1,1.9,3.7,3.4,5.1 c3.8,3.5,8,6.9,11.9,10.2c3.8,3.1,8.2,6.1,10.2,10.7c-7-1.6-14.6-2.5-21.8-3.3c-2.9-0.3-8.3-1.7-11.1-0.5 c-11.3,4.6,19.4,19.6,22.5,20.8c4.1,1.6,8.7,3.2,11.1,6.9c-7.3,0.5-14.7-0.1-21.9-1.7c-3.9-0.9-8-2-11.8-1.4 c-2.6,0.4-3.9,3.3-2.5,5.5c2.3,3.8,7.3,6.3,11.8,7.8c13.7,4.8,27.8,8.5,42.1,11c12.3,2.2,25.2,3.5,36.2,9.5 c3.9,2.1,7.5,4.7,11,7.4c8.9,6.5,19.3,12.3,27.5,19.6c7.5,6.7,13,12.5,24.3,11.9c1.1-0.1,2.3-0.2,3.3-0.6c1.9-0.7,3.3-2.2,4.6-3.6 c5.2-5.6,9.9-11.8,12.2-19.1c2-6.4,1.7-16.1-1.6-22.2c-3.3-6-10.2-7.3-15.6-11.1C266.5,173.6,257.8,163.9,248.9,155.6z"/>
			<path class="st2" d="M180.2,120.7c0,0-21.5,13.7-18.9,56.1"/>
			<path class="st2" d="M210.3,127.1c0,0-22.5,19.3-14,43"/>
		</g>
		<g>
			<path class="st3" d="M51.6,63C58.4,54,68,48.6,77.7,48.2l29.6-1.1l0-0.1l0.1,0.1l0.2,0l0,0.1l21.8,20.1 c7.1,6.6,10.9,16.9,10.3,28.1l-1.5,26.3c-0.2,4.3-1.1,8.6-2.7,12.6l-23.1,62.5c-3.8,10.4-13.9,16.2-22.4,13l-37.3-13.8l-0.3-0.1 L15,182.2c-8.6-3.2-12.4-14.1-8.6-24.5l23.1-62.5c1.5-4.1,3.6-7.9,6.2-11.3L51.6,63z"/>
			<path class="st4" d="M95.2,36.8c0,0,5-22,16-34.1l29.8,11l10.1,12l-5.5,0.7l-8.1-7.8l-4.9-1.8c0,0,0.1,14.6-7.3,30.1L95.2,36.8z"/>
			<rect class="st5" x="77.7" y="37.8" transform="matrix(-0.9381 -0.3464 0.3464 -0.9381 190.9801 130.1702)" width="58.8" height="20.5"/>
			<path class="st6" d="M129.4,130.9c-0.2,0.7-13.1,35.4-21.2,57.4c-3.6,9.7-14.4,14.7-24.2,11.1l-57-21 c-9.8-3.6-14.7-14.4-11.1-24.2l22.3-60.3c0,0,22.2,1.4,37.5,18.1c15.3,16.7,29.1,5.8,35.9,5.9 C118.3,117.9,133.6,118.7,129.4,130.9z"/>
			<path class="st7" d="M90.1,174.3c-1.1,3.1,0.4,6.6,3.6,7.7c3.1,1.1,6.6-0.4,7.7-3.6c1.1-3.1-0.4-6.6-3.6-7.7 C94.7,169.6,91.2,171.1,90.1,174.3z"/>
			<path class="st7" d="M71.9,145c-1.1,3.1,0.4,6.6,3.6,7.7c3.1,1.2,6.6-0.4,7.7-3.6c1.1-3.1-0.4-6.6-3.6-7.7 C76.5,140.3,73.1,141.8,71.9,145z"/>
			<path class="st7" d="M102,143.7c-1.2,3.1,0.4,6.6,3.6,7.7c3.1,1.1,6.6-0.4,7.7-3.6c1.1-3.1-0.4-6.6-3.6-7.7 C106.6,139,103.1,140.6,102,143.7z"/>
			<path class="st7" d="M69,126.3c-1.1,3.1,0.4,6.6,3.6,7.7c3.1,1.1,6.6-0.4,7.7-3.6c1.1-3.1-0.4-6.6-3.6-7.7 C73.6,121.6,70.2,123.2,69,126.3z"/>
			<path class="st7" d="M76.8,185.5c-1.1,3.1,0.4,6.6,3.6,7.7c3.1,1.1,6.6-0.4,7.7-3.6c1.1-3.1-0.4-6.6-3.6-7.7 C81.4,180.8,77.9,182.4,76.8,185.5z"/>
			<path class="st7" d="M23.1,156.2c-1.1,3.1,0.4,6.6,3.6,7.7c3.1,1.2,6.6-0.4,7.7-3.6c1.1-3.1-0.4-6.6-3.6-7.7 C27.7,151.5,24.2,153.1,23.1,156.2z"/>
			<path class="st7" d="M28.6,139.9c-1.2,3.1,0.4,6.6,3.6,7.7c3.1,1.2,6.6-0.4,7.7-3.6c1.1-3.1-0.4-6.6-3.6-7.7 C33.2,135.2,29.8,136.8,28.6,139.9z"/>
			<path class="st7" d="M52.8,140.6c-1.1,3.1,0.4,6.6,3.6,7.7c3.1,1.1,6.6-0.4,7.7-3.6c1.1-3.1-0.4-6.6-3.6-7.7 C57.4,135.9,54,137.5,52.8,140.6z"/>
			<path class="st7" d="M107.6,125.9c-1.2,3.1,0.4,6.6,3.6,7.7c3.1,1.1,6.6-0.4,7.7-3.6c1.1-3.1-0.4-6.6-3.6-7.7 C112.2,121.2,108.8,122.8,107.6,125.9z"/>
			<path class="st7" d="M52,164.1c-2.7,7.2,1,15.3,8.3,17.9c7.2,2.7,15.3-1,17.9-8.3c2.7-7.2-1-15.3-8.3-17.9 C62.8,153.1,54.7,156.8,52,164.1z"/>
			<path class="st7" d="M38.5,114c-2.7,7.2,1,15.3,8.3,17.9c7.2,2.7,15.3-1,17.9-8.3c2.7-7.2-1-15.3-8.3-17.9 C49.2,103.1,41.2,106.8,38.5,114z"/>
			<path class="st7" d="M87.7,152.5c-0.5,1.5,0.2,3.1,1.7,3.7c1.5,0.5,3.1-0.2,3.7-1.7c0.5-1.5-0.2-3.1-1.7-3.7 C89.9,150.3,88.2,151.1,87.7,152.5z"/>
			<path class="st7" d="M100.9,161.9c-0.5,1.5,0.2,3.1,1.7,3.7c1.5,0.5,3.1-0.2,3.7-1.7c0.5-1.5-0.2-3.1-1.7-3.7 C103.1,159.7,101.4,160.4,100.9,161.9z"/>
			<path class="st7" d="M30.4,126.8c-0.5,1.5,0.2,3.1,1.7,3.7c1.5,0.5,3.1-0.2,3.7-1.7c0.5-1.5-0.2-3.1-1.7-3.7 C32.6,124.5,31,125.3,30.4,126.8z"/>
			<path class="st7" d="M39.8,98.8c-0.5,1.5,0.2,3.1,1.7,3.7c1.5,0.5,3.1-0.2,3.7-1.7c0.5-1.5-0.2-3.1-1.7-3.7 C42,96.6,40.3,97.3,39.8,98.8z"/>
			<path class="st7" d="M88.8,133.4c-0.5,1.5,0.2,3.1,1.7,3.7c1.5,0.5,3.1-0.2,3.7-1.7c0.5-1.5-0.2-3.1-1.7-3.7 C91,131.2,89.4,131.9,88.8,133.4z"/>
			<path class="st7" d="M44.8,151.6c-0.5,1.5,0.2,3.1,1.7,3.7c1.5,0.5,3.1-0.2,3.7-1.7c0.5-1.5-0.2-3.1-1.7-3.7 C47,149.4,45.3,150.1,44.8,151.6z"/>
			<path class="st8" d="M126.7,69.6c0,0,9,48.5-33.3,129.1c0,0-11.7,5.2-19.2-7.7c0,0,44.4-74,37.1-127.7L126.7,69.6z"/>
		</g>
		<path class="st6" d="M150.3,36.9c0,0-21.5,57.9,13.4,48.8C197.9,76.8,150.3,36.9,150.3,36.9z"/>
	</g>
</svg>