<svg xmlns="http://www.w3.org/2000/svg" xmlns:xlink="http://www.w3.org/1999/xlink" viewBox="0 0 50 50" style="opacity:.15">
	<path fill="#EAEAEA" d="M1.5,1.4c0.3-0.5,0.7-0.9,1-1.4h0.8c0.1,1-0.4,2-0.8,2.8c-0.6,1-1.2,1.9-1.7,3C0.6,6.2,0.4,6.5,0.2,6.9 c0-0.6,0-1.3,0-1.9C0.5,3.8,0.8,2.5,1.5,1.4z M0.5,0H0.2c0,0.1,0,0.3,0,0.4C0.3,0.3,0.4,0.1,0.5,0z M0.2,3.3 c0.3-0.9,0.7-1.8,1.3-2.6C1.7,0.4,1.9,0.2,2,0H1C0.7,0.5,0.4,0.9,0.2,1.4C0.2,2,0.2,2.7,0.2,3.3z M8.6,5c0,0.6,0,1.3,0,1.9 c0.2-0.4,0.3-0.8,0.5-1.1c0.5-1,1.1-2,1.7-3C11.2,2,11.7,1,11.6,0h-0.8c-0.3,0.5-0.7,0.9-1,1.4C9.2,2.5,8.8,3.8,8.6,5z M8.6,3.3 c0.3-0.9,0.7-1.8,1.3-2.6C10,0.4,10.2,0.2,10.4,0H9.3C9,0.5,8.7,0.9,8.6,1.4C8.6,2,8.6,2.7,8.6,3.3z M8.8,0H8.6c0,0.1,0,0.3,0,0.4 C8.6,0.3,8.7,0.1,8.8,0z M8.1,0H7.9C7.9,0.1,8,0.3,8.1,0.4C8.1,0.3,8.1,0.1,8.1,0z M8.3,7.5C8.3,7.5,8.3,7.5,8.3,7.5 C8.3,7.5,8.3,7.5,8.3,7.5C8.3,7.5,8.3,7.5,8.3,7.5C8.3,7.5,8.3,7.5,8.3,7.5z M8.1,3.3c0-0.6,0-1.3,0-1.9C7.9,0.9,7.6,0.5,7.4,0H6.3 c0.2,0.2,0.3,0.4,0.5,0.7C7.4,1.5,7.8,2.4,8.1,3.3z M5.1,0.9C5.2,1.7,5.6,2.4,6,3.1c0.3,0.5,0.6,1,0.9,1.5c0.4,0.8,0.8,1.5,1.1,2.3 c0-0.6,0-1.3,0-1.9C7.9,4.3,7.8,3.6,7.5,3C7.3,2.3,7,1.7,6.7,1.2C6.4,0.8,6,0.4,5.8,0H5C5,0.3,5,0.6,5.1,0.9z M13.4,0.9 c0.2,0.8,0.5,1.5,0.9,2.2c0.3,0.5,0.6,1,0.9,1.5c0.4,0.8,0.8,1.5,1.1,2.3c0-0.6,0-1.3,0-1.9c-0.1-0.7-0.3-1.4-0.5-2.1 c-0.2-0.6-0.5-1.2-0.9-1.8c-0.3-0.4-0.6-0.8-0.9-1.2h-0.7C13.4,0.3,13.4,0.6,13.4,0.9z M16.4,3.3c0-0.6,0-1.3,0-1.9 c-0.2-0.5-0.5-1-0.7-1.4h-1.1c0.2,0.2,0.3,0.4,0.5,0.7C15.7,1.5,16.1,2.4,16.4,3.3z M16.4,0h-0.3c0.1,0.1,0.2,0.3,0.2,0.4 C16.4,0.3,16.4,0.1,16.4,0z M17.1,0h-0.3c0,0.1,0,0.3,0,0.4C17,0.3,17.1,0.1,17.1,0z M16.9,5c0,0.6,0,1.3,0,1.9 c0.2-0.4,0.3-0.8,0.5-1.1c0.5-1,1.1-2,1.7-3C19.6,2,20,1,20,0h-0.8c-0.3,0.5-0.7,0.9-1,1.4C17.5,2.5,17.2,3.8,16.9,5z M16.7,7.5 C16.7,7.5,16.7,7.5,16.7,7.5C16.7,7.5,16.7,7.5,16.7,7.5C16.7,7.5,16.7,7.5,16.7,7.5C16.7,7.5,16.7,7.5,16.7,7.5z M16.9,3.3 c0.3-0.9,0.7-1.8,1.3-2.6c0.2-0.2,0.3-0.4,0.5-0.7h-1.1c-0.3,0.5-0.5,0.9-0.7,1.4C16.9,2,16.9,2.7,16.9,3.3z M25.2,3.3 c0.3-0.9,0.7-1.8,1.3-2.6C26.7,0.4,26.9,0.2,27,0H26c-0.3,0.5-0.5,0.9-0.7,1.4C25.2,2,25.2,2.7,25.2,3.3z M25.2,5c0,0.6,0,1.3,0,1.9 c0.2-0.4,0.3-0.8,0.5-1.1c0.5-1,1.1-2,1.7-3C27.9,2,28.4,1,28.3,0h-0.8c-0.3,0.5-0.7,0.9-1,1.4C25.8,2.5,25.5,3.8,25.2,5z M25.5,0 h-0.3c0,0.1,0,0.3,0,0.4C25.3,0.3,25.4,0.1,25.5,0z M24.8,0h-0.3c0.1,0.1,0.2,0.3,0.2,0.4C24.8,0.3,24.8,0.1,24.8,0z M24.8,3.3 c0-0.6,0-1.3,0-1.9c-0.2-0.5-0.5-1-0.7-1.4H23c0.2,0.2,0.3,0.4,0.5,0.7C24.1,1.5,24.5,2.4,24.8,3.3z M25,7.5C25,7.5,25,7.5,25,7.5 C25,7.5,25,7.5,25,7.5C25,7.5,25,7.5,25,7.5C25,7.5,25,7.5,25,7.5z M21.8,0.9c0.2,0.8,0.5,1.5,0.9,2.2c0.3,0.5,0.6,1,0.9,1.5 c0.4,0.8,0.8,1.5,1.1,2.3c0-0.6,0-1.3,0-1.9c-0.1-0.7-0.3-1.4-0.5-2.1c-0.2-0.6-0.5-1.2-0.9-1.8c-0.3-0.4-0.6-0.8-0.9-1.2h-0.7 C21.7,0.3,21.7,0.6,21.8,0.9z M33.1,3.3c0-0.6,0-1.3,0-1.9c-0.2-0.5-0.5-1-0.7-1.4h-1.1c0.2,0.2,0.3,0.4,0.5,0.7 C32.4,1.5,32.8,2.4,33.1,3.3z M33.1,0h-0.3c0.1,0.1,0.2,0.3,0.2,0.4C33.1,0.3,33.1,0.1,33.1,0z M33.3,7.5 C33.3,7.5,33.3,7.5,33.3,7.5C33.3,7.5,33.3,7.5,33.3,7.5C33.3,7.5,33.3,7.5,33.3,7.5C33.3,7.5,33.3,7.5,33.3,7.5z M30.1,0.9 c0.2,0.8,0.5,1.5,0.9,2.2c0.3,0.5,0.6,1,0.9,1.5c0.4,0.8,0.8,1.5,1.1,2.3c0-0.6,0-1.3,0-1.9c-0.1-0.7-0.3-1.4-0.5-2.1 c-0.2-0.6-0.5-1.2-0.9-1.8C31.4,0.8,31,0.4,30.8,0H30C30,0.3,30,0.6,30.1,0.9z M33.8,0h-0.3c0,0.1,0,0.3,0,0.4 C33.6,0.3,33.7,0.1,33.8,0z M33.6,5c0,0.6,0,1.3,0,1.9c0.2-0.4,0.3-0.8,0.5-1.1c0.5-1,1.1-2,1.7-3C36.2,2,36.7,1,36.6,0h-0.8 c-0.3,0.5-0.7,0.9-1,1.4C34.2,2.5,33.8,3.8,33.6,5z M33.6,3.3c0.3-0.9,0.7-1.8,1.3-2.6C35,0.4,35.2,0.2,35.4,0h-1.1 c-0.3,0.5-0.5,0.9-0.7,1.4C33.6,2,33.6,2.7,33.6,3.3z M41.9,5c0,0.6,0,1.3,0,1.9c0.2-0.4,0.3-0.8,0.5-1.1c0.5-1,1.1-2,1.7-3 C44.6,2,45,1,45,0h-0.8c-0.3,0.5-0.7,0.9-1,1.4C42.5,2.5,42.2,3.8,41.9,5z M38.4,0.9c0.2,0.8,0.5,1.5,0.9,2.2c0.3,0.5,0.6,1,0.9,1.5 c0.4,0.8,0.8,1.5,1.1,2.3c0-0.6,0-1.3,0-1.9c-0.1-0.7-0.3-1.4-0.5-2.1c-0.2-0.6-0.5-1.2-0.9-1.8c-0.3-0.4-0.6-0.8-0.9-1.2h-0.7 C38.4,0.3,38.4,0.6,38.4,0.9z M42.1,0h-0.3c0,0.1,0,0.3,0,0.4C42,0.3,42.1,0.1,42.1,0z M41.4,0h-0.3c0.1,0.1,0.2,0.3,0.2,0.4 C41.4,0.3,41.4,0.1,41.4,0z M41.9,3.3c0.3-0.9,0.7-1.8,1.3-2.6c0.2-0.2,0.3-0.4,0.5-0.7h-1.1c-0.3,0.5-0.5,0.9-0.7,1.4 C41.9,2,41.9,2.7,41.9,3.3z M41.4,3.3c0-0.6,0-1.3,0-1.9c-0.2-0.5-0.5-1-0.7-1.4h-1.1c0.2,0.2,0.3,0.4,0.5,0.7 C40.7,1.5,41.1,2.4,41.4,3.3z M41.7,7.5C41.7,7.5,41.7,7.5,41.7,7.5C41.7,7.5,41.7,7.5,41.7,7.5C41.7,7.5,41.7,7.5,41.7,7.5 C41.7,7.5,41.7,7.5,41.7,7.5z M50,7.5C50,7.5,50,7.5,50,7.5C50,7.5,50,7.5,50,7.5C50,7.5,50,7.5,50,7.5C50,7.5,50,7.5,50,7.5z  M49.8,3.3c0-0.6,0-1.3,0-1.9c-0.2-0.5-0.5-1-0.7-1.4H48c0.2,0.2,0.3,0.4,0.5,0.7C49.1,1.5,49.5,2.4,49.8,3.3z M49.8,0h-0.3 c0.1,0.1,0.2,0.3,0.2,0.4C49.8,0.3,49.8,0.1,49.8,0z M46.8,0.9c0.2,0.8,0.5,1.5,0.9,2.2c0.3,0.5,0.6,1,0.9,1.5 c0.4,0.8,0.8,1.5,1.1,2.3c0-0.6,0-1.3,0-1.9c-0.1-0.7-0.3-1.4-0.5-2.1c-0.2-0.6-0.5-1.2-0.9-1.8c-0.3-0.4-0.6-0.8-0.9-1.2h-0.7 C46.7,0.3,46.7,0.6,46.8,0.9z M48.1,38.6c-0.3-0.5-0.6-1-0.9-1.5c-0.4-0.8-0.8-1.5-1.1-2.3c0,0.6,0,1.3,0,1.9 c0.1,0.7,0.3,1.4,0.5,2.1c0.2,0.6,0.5,1.2,0.9,1.8c0.4,0.5,0.8,1,1.1,1.6c0.1,0.2,0.2,0.5,0.2,0.7c0.4-0.6,0.4-1.3,0.3-2 C48.9,40,48.5,39.3,48.1,38.6z M45.1,47.1c0,0.9,0.4,1.7,0.8,2.4c0.4-0.7,0.8-1.5,0.8-2.4c0-0.9-0.4-1.7-0.8-2.5 C45.5,45.4,45.1,46.2,45.1,47.1z M47.4,41c-0.6-0.8-1-1.7-1.3-2.6c0,0.6,0,1.3,0,1.9c0.2,0.6,0.6,1.1,0.9,1.7 c0.3,0.5,0.6,1.1,0.7,1.7c0.1,0.4,0.1,0.9,0.1,1.3c0.4-0.5,0.7-1.2,0.7-1.9C48.4,42.2,47.8,41.6,47.4,41z M45.6,41.7 c0-0.2,0-0.3,0-0.5c-0.4,0.7-0.9,1.4-1.1,2.2c-0.2,1-0.2,2,0.2,2.9c0.2-0.8,0.5-1.5,0.9-2.2C45.6,43.3,45.6,42.5,45.6,41.7z  M45.6,36.6c0-0.6,0-1.3,0-1.9c-0.2,0.4-0.3,0.8-0.5,1.1c-0.5,1-1.1,2-1.7,3c-0.6,1.1-1.3,2.7-0.5,3.9c0-0.3,0.2-0.7,0.3-1 c0.3-0.6,0.8-1,1.1-1.6C45,39.2,45.3,37.9,45.6,36.6z M45.6,40.3c0-0.6,0-1.3,0-1.9c-0.3,0.9-0.7,1.8-1.3,2.6c-0.5,0.6-1,1.2-1,2.1 c0,0.7,0.2,1.4,0.7,1.9c0-0.4,0-0.9,0.1-1.3c0.1-0.6,0.4-1.1,0.7-1.7C45,41.4,45.4,40.9,45.6,40.3z M46.1,41.3c0,0.2,0,0.3,0,0.5 c0,0.8,0,1.6,0,2.4c0.3,0.7,0.7,1.5,0.9,2.2c0.4-0.9,0.5-1.9,0.2-2.9C47,42.7,46.5,42,46.1,41.3z M45.8,34.2 C45.8,34.2,45.8,34.2,45.8,34.2C45.8,34.2,45.8,34.2,45.8,34.2C45.8,34.2,45.8,34.2,45.8,34.2C45.8,34.2,45.8,34.2,45.8,34.2z  M37.5,34.2C37.5,34.2,37.5,34.2,37.5,34.2C37.5,34.2,37.5,34.2,37.5,34.2C37.5,34.2,37.5,34.2,37.5,34.2 C37.5,34.2,37.5,34.2,37.5,34.2z M36.7,47.1c0,0.9,0.4,1.7,0.8,2.4c0.4-0.7,0.8-1.5,0.8-2.4c0-0.9-0.4-1.7-0.8-2.5 C37.1,45.4,36.7,46.2,36.7,47.1z M39.8,38.6c-0.3-0.5-0.6-1-0.9-1.5c-0.4-0.8-0.8-1.5-1.1-2.3c0,0.6,0,1.3,0,1.9 c0.1,0.7,0.3,1.4,0.5,2.1c0.2,0.6,0.5,1.2,0.9,1.8c0.4,0.5,0.8,1,1.1,1.6c0.1,0.2,0.2,0.5,0.2,0.7c0.4-0.6,0.4-1.3,0.3-2 C40.6,40,40.2,39.3,39.8,38.6z M37.3,40.3c0-0.6,0-1.3,0-1.9C37,39.3,36.6,40.2,36,41c-0.5,0.6-1,1.2-1,2.1c0,0.7,0.2,1.4,0.7,1.9 c0-0.4,0-0.9,0.1-1.3c0.1-0.6,0.4-1.1,0.7-1.7C36.7,41.4,37.1,40.9,37.3,40.3z M37.3,41.7c0-0.2,0-0.3,0-0.5 c-0.4,0.7-0.9,1.4-1.1,2.2c-0.2,1-0.2,2,0.2,2.9c0.2-0.8,0.5-1.5,0.9-2.2C37.3,43.3,37.3,42.5,37.3,41.7z M37.3,36.6 c0-0.6,0-1.3,0-1.9c-0.2,0.4-0.3,0.8-0.5,1.1c-0.5,1-1.1,2-1.7,3c-0.6,1.1-1.3,2.7-0.5,3.9c0-0.3,0.2-0.7,0.3-1 c0.3-0.6,0.8-1,1.1-1.6C36.7,39.2,37,37.9,37.3,36.6z M37.7,41.3c0,0.2,0,0.3,0,0.5c0,0.8,0,1.6,0,2.4c0.3,0.7,0.7,1.5,0.9,2.2 c0.4-0.9,0.5-1.9,0.2-2.9C38.6,42.7,38.1,42,37.7,41.3z M39,41c-0.6-0.8-1-1.7-1.3-2.6c0,0.6,0,1.3,0,1.9c0.2,0.6,0.6,1.1,0.9,1.7 c0.3,0.5,0.6,1.1,0.7,1.7c0.1,0.4,0.1,0.9,0.1,1.3c0.4-0.5,0.7-1.2,0.7-1.9C40,42.2,39.5,41.6,39,41z M29,41.7c0-0.2,0-0.3,0-0.5 c-0.4,0.7-0.9,1.4-1.1,2.2c-0.2,1-0.2,2,0.2,2.9c0.2-0.8,0.5-1.5,0.9-2.2C29,43.3,28.9,42.5,29,41.7z M28.9,40.3c0-0.6,0-1.3,0-1.9 c-0.3,0.9-0.7,1.8-1.3,2.6c-0.5,0.6-1,1.2-1,2.1c0,0.7,0.2,1.4,0.7,1.9c0-0.4,0-0.9,0.1-1.3c0.1-0.6,0.4-1.1,0.7-1.7 C28.4,41.4,28.7,40.9,28.9,40.3z M29.2,34.2C29.2,34.2,29.2,34.2,29.2,34.2C29.2,34.2,29.2,34.2,29.2,34.2 C29.2,34.2,29.2,34.2,29.2,34.2C29.2,34.2,29.2,34.2,29.2,34.2z M29.4,41.3c0,0.2,0,0.3,0,0.5c0,0.8,0,1.6,0,2.4 c0.3,0.7,0.7,1.5,0.9,2.2c0.4-0.9,0.5-1.9,0.2-2.9C30.3,42.7,29.8,42,29.4,41.3z M30.7,41c-0.6-0.8-1-1.7-1.3-2.6c0,0.6,0,1.3,0,1.9 c0.2,0.6,0.6,1.1,0.9,1.7c0.3,0.5,0.6,1.1,0.7,1.7c0.1,0.4,0.1,0.9,0.1,1.3c0.4-0.5,0.7-1.2,0.7-1.9C31.7,42.2,31.2,41.6,30.7,41z  M28.9,36.6c0-0.6,0-1.3,0-1.9c-0.2,0.4-0.3,0.8-0.5,1.1c-0.5,1-1.1,2-1.7,3c-0.6,1.1-1.3,2.7-0.5,3.9c0-0.3,0.2-0.7,0.3-1 c0.3-0.6,0.8-1,1.1-1.6C28.3,39.2,28.7,37.9,28.9,36.6z M31.5,38.6c-0.3-0.5-0.6-1-0.9-1.5c-0.4-0.8-0.8-1.5-1.1-2.3 c0,0.6,0,1.3,0,1.9c0.1,0.7,0.3,1.4,0.5,2.1c0.2,0.6,0.5,1.2,0.9,1.8c0.4,0.5,0.8,1,1.1,1.6c0.1,0.2,0.2,0.5,0.2,0.7 c0.4-0.6,0.4-1.3,0.3-2C32.3,40,31.9,39.3,31.5,38.6z M28.4,47.1c0,0.9,0.4,1.7,0.8,2.4c0.4-0.7,0.8-1.5,0.8-2.4 c0-0.9-0.4-1.7-0.8-2.5C28.8,45.4,28.4,46.2,28.4,47.1z M22.4,41c-0.6-0.8-1-1.7-1.3-2.6c0,0.6,0,1.3,0,1.9c0.2,0.6,0.6,1.1,0.9,1.7 c0.3,0.5,0.6,1.1,0.7,1.7c0.1,0.4,0.1,0.9,0.1,1.3c0.4-0.5,0.7-1.2,0.7-1.9C23.4,42.2,22.8,41.6,22.4,41z M21.1,41.3 c0,0.2,0,0.3,0,0.5c0,0.8,0,1.6,0,2.4c0.3,0.7,0.7,1.5,0.9,2.2c0.4-0.9,0.5-1.9,0.2-2.9C22,42.7,21.5,42,21.1,41.3z M20.6,40.3 c0-0.6,0-1.3,0-1.9c-0.3,0.9-0.7,1.8-1.3,2.6c-0.5,0.6-1,1.2-1,2.1c0,0.7,0.2,1.4,0.7,1.9c0-0.4,0-0.9,0.1-1.3 c0.1-0.6,0.4-1.1,0.7-1.7C20,41.4,20.4,40.9,20.6,40.3z M20.8,34.2C20.8,34.2,20.8,34.2,20.8,34.2C20.8,34.2,20.8,34.2,20.8,34.2 C20.8,34.2,20.8,34.2,20.8,34.2C20.8,34.2,20.8,34.2,20.8,34.2z M20.6,36.6c0-0.6,0-1.3,0-1.9c-0.2,0.4-0.3,0.8-0.5,1.1 c-0.5,1-1.1,2-1.7,3c-0.6,1.1-1.3,2.7-0.5,3.9c0-0.3,0.2-0.7,0.3-1c0.3-0.6,0.8-1,1.1-1.6C20,39.2,20.3,37.9,20.6,36.6z M23.1,38.6 c-0.3-0.5-0.6-1-0.9-1.5c-0.4-0.8-0.8-1.5-1.1-2.3c0,0.6,0,1.3,0,1.9c0.1,0.7,0.3,1.4,0.5,2.1c0.2,0.6,0.5,1.2,0.9,1.8 c0.4,0.5,0.8,1,1.1,1.6c0.1,0.2,0.2,0.5,0.2,0.7c0.4-0.6,0.4-1.3,0.3-2C23.9,40,23.5,39.3,23.1,38.6z M20.1,47.1 c0,0.9,0.4,1.7,0.8,2.4c0.4-0.7,0.8-1.5,0.8-2.4c0-0.9-0.4-1.7-0.8-2.5C20.5,45.4,20.1,46.2,20.1,47.1z M20.6,41.7 c0-0.2,0-0.3,0-0.5c-0.4,0.7-0.9,1.4-1.1,2.2c-0.2,1-0.2,2,0.2,2.9c0.2-0.8,0.5-1.5,0.9-2.2C20.6,43.3,20.6,42.5,20.6,41.7z  M12.5,34.2C12.5,34.2,12.5,34.2,12.5,34.2C12.5,34.2,12.5,34.2,12.5,34.2C12.5,34.2,12.5,34.2,12.5,34.2 C12.5,34.2,12.5,34.2,12.5,34.2z M12.3,36.6c0-0.6,0-1.3,0-1.9c-0.2,0.4-0.3,0.8-0.5,1.1c-0.5,1-1.1,2-1.7,3 c-0.6,1.1-1.3,2.7-0.5,3.9c0-0.3,0.2-0.7,0.3-1c0.3-0.6,0.8-1,1.1-1.6C11.7,39.2,12,37.9,12.3,36.6z M12.3,40.3c0-0.6,0-1.3,0-1.9 C12,39.3,11.6,40.2,11,41c-0.5,0.6-1,1.2-1,2.1c0,0.7,0.2,1.4,0.7,1.9c0-0.4,0-0.9,0.1-1.3c0.1-0.6,0.4-1.1,0.7-1.7 C11.7,41.4,12.1,40.9,12.3,40.3z M12.7,41.3c0,0.2,0,0.3,0,0.5c0,0.8,0,1.6,0,2.4c0.3,0.7,0.7,1.5,0.9,2.2c0.4-0.9,0.5-1.9,0.2-2.9 C13.6,42.7,13.1,42,12.7,41.3z M14.8,38.6c-0.3-0.5-0.6-1-0.9-1.5c-0.4-0.8-0.8-1.5-1.1-2.3c0,0.6,0,1.3,0,1.9 c0.1,0.7,0.3,1.4,0.5,2.1c0.2,0.6,0.5,1.2,0.9,1.8c0.4,0.5,0.8,1,1.1,1.6c0.1,0.2,0.2,0.5,0.2,0.7c0.4-0.6,0.4-1.3,0.3-2 C15.6,40,15.2,39.3,14.8,38.6z M12.3,41.7c0-0.2,0-0.3,0-0.5c-0.4,0.7-0.9,1.4-1.1,2.2c-0.2,1-0.2,2,0.2,2.9 c0.2-0.8,0.5-1.5,0.9-2.2C12.3,43.3,12.3,42.5,12.3,41.7z M11.7,47.1c0,0.9,0.4,1.7,0.8,2.4c0.4-0.7,0.8-1.5,0.8-2.4 c0-0.9-0.4-1.7-0.8-2.5C12.1,45.4,11.7,46.2,11.7,47.1z M14,41c-0.6-0.8-1-1.7-1.3-2.6c0,0.6,0,1.3,0,1.9c0.2,0.6,0.6,1.1,0.9,1.7 c0.3,0.5,0.6,1.1,0.7,1.7c0.1,0.4,0.1,0.9,0.1,1.3c0.4-0.5,0.7-1.2,0.7-1.9C15,42.2,14.5,41.6,14,41z M5.7,41 c-0.6-0.8-1-1.7-1.3-2.6c0,0.6,0,1.3,0,1.9c0.2,0.6,0.6,1.1,0.9,1.7C5.6,42.4,5.8,43,6,43.6c0.1,0.4,0.1,0.9,0.1,1.3 c0.4-0.5,0.7-1.2,0.7-1.9C6.7,42.2,6.2,41.6,5.7,41z M6.5,38.6c-0.3-0.5-0.6-1-0.9-1.5c-0.4-0.8-0.8-1.5-1.1-2.3c0,0.6,0,1.3,0,1.9 C4.6,37.3,4.7,38,5,38.7c0.2,0.6,0.5,1.2,0.9,1.8c0.4,0.5,0.8,1,1.1,1.6c0.1,0.2,0.2,0.5,0.2,0.7c0.4-0.6,0.4-1.3,0.3-2 C7.3,40,6.9,39.3,6.5,38.6z M3.9,36.6c0-0.6,0-1.3,0-1.9c-0.2,0.4-0.3,0.8-0.5,1.1c-0.5,1-1.1,2-1.7,3c-0.6,1.1-1.3,2.7-0.5,3.9 c0-0.3,0.2-0.7,0.3-1c0.3-0.6,0.8-1,1.1-1.6C3.3,39.2,3.7,37.9,3.9,36.6z M3.9,40.3c0-0.6,0-1.3,0-1.9c-0.3,0.9-0.7,1.8-1.3,2.6 c-0.5,0.6-1,1.2-1,2.1c0,0.7,0.2,1.4,0.7,1.9c0-0.4,0-0.9,0.1-1.3c0.1-0.6,0.4-1.1,0.7-1.7C3.4,41.4,3.7,40.9,3.9,40.3z M3.4,47.1 c0,0.9,0.4,1.7,0.8,2.4C4.6,48.7,5,47.9,5,47.1c0-0.9-0.4-1.7-0.8-2.5C3.8,45.4,3.4,46.2,3.4,47.1z M4.4,41.3c0,0.2,0,0.3,0,0.5 c0,0.8,0,1.6,0,2.4c0.3,0.7,0.7,1.5,0.9,2.2c0.4-0.9,0.5-1.9,0.2-2.9C5.3,42.7,4.8,42,4.4,41.3z M4,41.7c0-0.2,0-0.3,0-0.5 C3.5,42,3,42.7,2.8,43.5c-0.2,1-0.2,2,0.2,2.9c0.2-0.8,0.5-1.5,0.9-2.2C4,43.3,3.9,42.5,4,41.7z M4.2,34.2 C4.2,34.2,4.2,34.2,4.2,34.2C4.2,34.2,4.2,34.2,4.2,34.2C4.2,34.2,4.2,34.2,4.2,34.2C4.2,34.2,4.2,34.2,4.2,34.2z M1.1,16.4 c-0.3,0.5-0.7,1.1-0.9,1.7c0,0.6,0,1.3,0,1.9c0.3-0.9,0.7-1.8,1.3-2.6c0.5-0.6,1-1.2,1-2.1c0-0.7-0.2-1.4-0.7-1.9 c0,0.4,0,0.9-0.1,1.3C1.7,15.3,1.4,15.9,1.1,16.4z M2.9,15.6c0,0.3-0.2,0.7-0.3,1c-0.3,0.6-0.8,1-1.1,1.6c-0.7,1.1-1,2.3-1.3,3.6 c0,0.6,0,1.3,0,1.9c0.2-0.4,0.3-0.8,0.5-1.1c0.5-1,1.1-2,1.7-3C3.1,18.4,3.7,16.8,2.9,15.6z M1.3,14.8c0.2-1,0.2-2-0.2-2.9 c-0.2,0.8-0.5,1.5-0.9,2.2c-0.1,0.8,0,1.6,0,2.4c0,0.2,0,0.3,0,0.5C0.6,16.3,1.1,15.7,1.3,14.8z M0,8.9v4.9c0.4-0.8,0.8-1.6,0.8-2.5 C0.8,10.4,0.4,9.6,0,8.9z M8.6,14.2c-0.1,0.8,0,1.6,0,2.4c0,0.2,0,0.3,0,0.5c0.4-0.7,0.9-1.4,1.1-2.2c0.2-1,0.2-2-0.2-2.9 C9.3,12.7,8.9,13.5,8.6,14.2z M8.3,24.2C8.3,24.2,8.3,24.2,8.3,24.2C8.3,24.2,8.3,24.2,8.3,24.2C8.3,24.2,8.3,24.2,8.3,24.2 C8.3,24.2,8.3,24.2,8.3,24.2z M11,16.5c-0.3,0.6-0.8,1-1.1,1.6c-0.7,1.1-1,2.3-1.3,3.6c0,0.6,0,1.3,0,1.9c0.2-0.4,0.3-0.8,0.5-1.1 c0.5-1,1.1-2,1.7-3c0.6-1.1,1.3-2.7,0.5-3.9C11.2,15.9,11.1,16.2,11,16.5z M8.6,18.1c0,0.6,0,1.3,0,1.9c0.3-0.9,0.7-1.8,1.3-2.6 c0.5-0.6,1-1.2,1-2.1c0-0.7-0.2-1.4-0.7-1.9c0,0.4,0,0.9-0.1,1.3c-0.1,0.6-0.4,1.1-0.7,1.7C9.1,17,8.8,17.5,8.6,18.1z M9.1,11.3 c0-0.9-0.4-1.7-0.8-2.4c-0.4,0.7-0.8,1.5-0.8,2.4c0,0.9,0.4,1.7,0.8,2.5C8.7,13,9.1,12.1,9.1,11.3z M5.4,15.6 c-0.4,0.6-0.4,1.3-0.3,2c0.2,0.8,0.5,1.5,0.9,2.2c0.3,0.5,0.6,1,0.9,1.5c0.4,0.8,0.8,1.5,1.1,2.3c0-0.6,0-1.3,0-1.9 c-0.1-0.7-0.3-1.4-0.5-2.1C7.3,19,7,18.4,6.7,17.9c-0.4-0.5-0.8-1-1.1-1.6C5.5,16.1,5.4,15.8,5.4,15.6z M8.1,16.6c0-0.8,0-1.6,0-2.4 c-0.3-0.7-0.7-1.5-0.9-2.2c-0.4,0.9-0.5,1.9-0.2,2.9c0.2,0.8,0.7,1.5,1.1,2.2C8.1,16.9,8.1,16.8,8.1,16.6z M5.8,15.3 c0,0.8,0.6,1.4,1,2.1c0.6,0.8,1,1.7,1.3,2.6c0-0.6,0-1.3,0-1.9c-0.2-0.6-0.6-1.1-0.9-1.7c-0.3-0.5-0.6-1.1-0.7-1.7 c-0.1-0.4-0.1-0.9-0.1-1.3C6,13.9,5.7,14.6,5.8,15.3z M16.7,24.2C16.7,24.2,16.7,24.2,16.7,24.2C16.7,24.2,16.7,24.2,16.7,24.2 C16.7,24.2,16.7,24.2,16.7,24.2C16.7,24.2,16.7,24.2,16.7,24.2z M17.4,11.3c0-0.9-0.4-1.7-0.8-2.4c-0.4,0.7-0.8,1.5-0.8,2.4 c0,0.9,0.4,1.7,0.8,2.5C17,13,17.4,12.1,17.4,11.3z M16.9,14.2c-0.1,0.8,0,1.6,0,2.4c0,0.2,0,0.3,0,0.5c0.4-0.7,0.9-1.4,1.1-2.2 c0.2-1,0.2-2-0.2-2.9C17.6,12.7,17.2,13.5,16.9,14.2z M13.7,15.6c-0.4,0.6-0.4,1.3-0.3,2c0.2,0.8,0.5,1.5,0.9,2.2 c0.3,0.5,0.6,1,0.9,1.5c0.4,0.8,0.8,1.5,1.1,2.3c0-0.6,0-1.3,0-1.9c-0.1-0.7-0.3-1.4-0.5-2.1c-0.2-0.6-0.5-1.2-0.9-1.8 c-0.4-0.5-0.8-1-1.1-1.6C13.8,16.1,13.7,15.8,13.7,15.6z M16.4,16.6c0-0.8,0-1.6,0-2.4c-0.3-0.7-0.7-1.5-0.9-2.2 c-0.4,0.9-0.5,1.9-0.2,2.9c0.2,0.8,0.7,1.5,1.1,2.2C16.4,16.9,16.4,16.8,16.4,16.6z M16.9,18.1c0,0.6,0,1.3,0,1.9 c0.3-0.9,0.7-1.8,1.3-2.6c0.5-0.6,1-1.2,1-2.1c0-0.7-0.2-1.4-0.7-1.9c0,0.4,0,0.9-0.1,1.3c-0.1,0.6-0.4,1.1-0.7,1.7 C17.5,17,17.1,17.5,16.9,18.1z M14.1,15.3c0,0.8,0.6,1.4,1,2.1c0.6,0.8,1,1.7,1.3,2.6c0-0.6,0-1.3,0-1.9c-0.2-0.6-0.6-1.1-0.9-1.7 c-0.3-0.5-0.6-1.1-0.7-1.7c-0.1-0.4-0.1-0.9-0.1-1.3C14.4,13.9,14.1,14.6,14.1,15.3z M19.3,16.5c-0.3,0.6-0.8,1-1.1,1.6 c-0.7,1.1-1,2.3-1.3,3.6c0,0.6,0,1.3,0,1.9c0.2-0.4,0.3-0.8,0.5-1.1c0.5-1,1.1-2,1.7-3c0.6-1.1,1.3-2.7,0.5-3.9 C19.6,15.9,19.5,16.2,19.3,16.5z M22.4,15.3c0,0.8,0.6,1.4,1,2.1c0.6,0.8,1,1.7,1.3,2.6c0-0.6,0-1.3,0-1.9c-0.2-0.6-0.6-1.1-0.9-1.7 c-0.3-0.5-0.6-1.1-0.7-1.7c-0.1-0.4-0.1-0.9-0.1-1.3C22.7,13.9,22.4,14.6,22.4,15.3z M25,24.2C25,24.2,25,24.2,25,24.2 C25,24.2,25,24.2,25,24.2C25,24.2,25,24.2,25,24.2C25,24.2,25,24.2,25,24.2z M24.8,16.6c0-0.8,0-1.6,0-2.4c-0.3-0.7-0.7-1.5-0.9-2.2 c-0.4,0.9-0.5,1.9-0.2,2.9c0.2,0.8,0.7,1.5,1.1,2.2C24.8,16.9,24.8,16.8,24.8,16.6z M22,15.6c-0.4,0.6-0.4,1.3-0.3,2 c0.2,0.8,0.5,1.5,0.9,2.2c0.3,0.5,0.6,1,0.9,1.5c0.4,0.8,0.8,1.5,1.1,2.3c0-0.6,0-1.3,0-1.9c-0.1-0.7-0.3-1.4-0.5-2.1 c-0.2-0.6-0.5-1.2-0.9-1.8c-0.4-0.5-0.8-1-1.1-1.6C22.1,16.1,22.1,15.8,22,15.6z M25.3,14.2c-0.1,0.8,0,1.6,0,2.4c0,0.2,0,0.3,0,0.5 c0.4-0.7,0.9-1.4,1.1-2.2c0.2-1,0.2-2-0.2-2.9C26,12.7,25.6,13.5,25.3,14.2z M27.6,16.5c-0.3,0.6-0.8,1-1.1,1.6 c-0.7,1.1-1,2.3-1.3,3.6c0,0.6,0,1.3,0,1.9c0.2-0.4,0.3-0.8,0.5-1.1c0.5-1,1.1-2,1.7-3c0.6-1.1,1.3-2.7,0.5-3.9 C27.9,15.9,27.8,16.2,27.6,16.5z M25.2,18.1c0,0.6,0,1.3,0,1.9c0.3-0.9,0.7-1.8,1.3-2.6c0.5-0.6,1-1.2,1-2.1c0-0.7-0.2-1.4-0.7-1.9 c0,0.4,0,0.9-0.1,1.3c-0.1,0.6-0.4,1.1-0.7,1.7C25.8,17,25.4,17.5,25.2,18.1z M25.8,11.3c0-0.9-0.4-1.7-0.8-2.4 c-0.4,0.7-0.8,1.5-0.8,2.4c0,0.9,0.4,1.7,0.8,2.5C25.4,13,25.8,12.1,25.8,11.3z M36,16.5c-0.3,0.6-0.8,1-1.1,1.6 c-0.7,1.1-1,2.3-1.3,3.6c0,0.6,0,1.3,0,1.9c0.2-0.4,0.3-0.8,0.5-1.1c0.5-1,1.1-2,1.7-3c0.6-1.1,1.3-2.7,0.5-3.9 C36.2,15.9,36.1,16.2,36,16.5z M33.3,24.2C33.3,24.2,33.3,24.2,33.3,24.2C33.3,24.2,33.3,24.2,33.3,24.2 C33.3,24.2,33.3,24.2,33.3,24.2C33.3,24.2,33.3,24.2,33.3,24.2z M33.1,16.6c0-0.8,0-1.6,0-2.4c-0.3-0.7-0.7-1.5-0.9-2.2 c-0.4,0.9-0.5,1.9-0.2,2.9c0.2,0.8,0.7,1.5,1.1,2.2C33.1,16.9,33.1,16.8,33.1,16.6z M33.6,18.1c0,0.6,0,1.3,0,1.9 c0.3-0.9,0.7-1.8,1.3-2.6c0.5-0.6,1-1.2,1-2.1c0-0.7-0.2-1.4-0.7-1.9c0,0.4,0,0.9-0.1,1.3c-0.1,0.6-0.4,1.1-0.7,1.7 C34.1,17,33.8,17.5,33.6,18.1z M30.8,15.3c0,0.8,0.6,1.4,1,2.1c0.6,0.8,1,1.7,1.3,2.6c0-0.6,0-1.3,0-1.9c-0.2-0.6-0.6-1.1-0.9-1.7 c-0.3-0.5-0.6-1.1-0.7-1.7c-0.1-0.4-0.1-0.9-0.1-1.3C31,13.9,30.7,14.6,30.8,15.3z M33.6,14.2c-0.1,0.8,0,1.6,0,2.4 c0,0.2,0,0.3,0,0.5c0.4-0.7,0.9-1.4,1.1-2.2c0.2-1,0.2-2-0.2-2.9C34.3,12.7,33.9,13.5,33.6,14.2z M30.4,15.6c-0.4,0.6-0.4,1.3-0.3,2 c0.2,0.8,0.5,1.5,0.9,2.2c0.3,0.5,0.6,1,0.9,1.5c0.4,0.8,0.8,1.5,1.1,2.3c0-0.6,0-1.3,0-1.9c-0.1-0.7-0.3-1.4-0.5-2.1 c-0.2-0.6-0.5-1.2-0.9-1.8c-0.4-0.5-0.8-1-1.1-1.6C30.5,16.1,30.4,15.8,30.4,15.6z M34.1,11.3c0-0.9-0.4-1.7-0.8-2.4 c-0.4,0.7-0.8,1.5-0.8,2.4c0,0.9,0.4,1.7,0.8,2.5C33.7,13,34.1,12.1,34.1,11.3z M39.1,15.3c0,0.8,0.6,1.4,1,2.1 c0.6,0.8,1,1.7,1.3,2.6c0-0.6,0-1.3,0-1.9c-0.2-0.6-0.6-1.1-0.9-1.7c-0.3-0.5-0.6-1.1-0.7-1.7c-0.1-0.4-0.1-0.9-0.1-1.3 C39.4,13.9,39.1,14.6,39.1,15.3z M38.7,15.6c-0.4,0.6-0.4,1.3-0.3,2c0.2,0.8,0.5,1.5,0.9,2.2c0.3,0.5,0.6,1,0.9,1.5 c0.4,0.8,0.8,1.5,1.1,2.3c0-0.6,0-1.3,0-1.9c-0.1-0.7-0.3-1.4-0.5-2.1c-0.2-0.6-0.5-1.2-0.9-1.8c-0.4-0.5-0.8-1-1.1-1.6 C38.8,16.1,38.7,15.8,38.7,15.6z M41.4,16.6c0-0.8,0-1.6,0-2.4c-0.3-0.7-0.7-1.5-0.9-2.2c-0.4,0.9-0.5,1.9-0.2,2.9 c0.2,0.8,0.7,1.5,1.1,2.2C41.4,16.9,41.4,16.8,41.4,16.6z M41.9,18.1c0,0.6,0,1.3,0,1.9c0.3-0.9,0.7-1.8,1.3-2.6 c0.5-0.6,1-1.2,1-2.1c0-0.7-0.2-1.4-0.7-1.9c0,0.4,0,0.9-0.1,1.3c-0.1,0.6-0.4,1.1-0.7,1.7C42.5,17,42.1,17.5,41.9,18.1z M41.7,24.2 C41.7,24.2,41.7,24.2,41.7,24.2C41.7,24.2,41.7,24.2,41.7,24.2C41.7,24.2,41.7,24.2,41.7,24.2C41.7,24.2,41.7,24.2,41.7,24.2z  M42.4,11.3c0-0.9-0.4-1.7-0.8-2.4c-0.4,0.7-0.8,1.5-0.8,2.4c0,0.9,0.4,1.7,0.8,2.5C42,13,42.4,12.1,42.4,11.3z M41.9,14.2 c-0.1,0.8,0,1.6,0,2.4c0,0.2,0,0.3,0,0.5c0.4-0.7,0.9-1.4,1.1-2.2c0.2-1,0.2-2-0.2-2.9C42.6,12.7,42.2,13.5,41.9,14.2z M44.3,16.5 c-0.3,0.6-0.8,1-1.1,1.6c-0.7,1.1-1,2.3-1.3,3.6c0,0.6,0,1.3,0,1.9c0.2-0.4,0.3-0.8,0.5-1.1c0.5-1,1.1-2,1.7-3 c0.6-1.1,1.3-2.7,0.5-3.9C44.6,15.9,44.5,16.2,44.3,16.5z M48.3,17.9c-0.4-0.5-0.8-1-1.1-1.6c-0.1-0.2-0.2-0.5-0.2-0.7 c-0.4,0.6-0.4,1.3-0.3,2c0.2,0.8,0.5,1.5,0.9,2.2c0.3,0.5,0.6,1,0.9,1.5c0.4,0.8,0.8,1.5,1.1,2.3c0-0.6,0-1.3,0-1.9 c-0.1-0.7-0.3-1.4-0.5-2.1C49,19,48.7,18.4,48.3,17.9z M48.2,14.7c-0.1-0.4-0.1-0.9-0.1-1.3c-0.4,0.5-0.7,1.2-0.7,1.9 c0,0.8,0.6,1.4,1,2.1c0.6,0.8,1,1.7,1.3,2.6c0-0.6,0-1.3,0-1.9c-0.2-0.6-0.6-1.1-0.9-1.7C48.6,15.9,48.3,15.3,48.2,14.7z M48.7,14.8 c0.2,0.8,0.7,1.5,1.1,2.2c0-0.2,0-0.3,0-0.5c0-0.8,0-1.6,0-2.4c-0.3-0.7-0.7-1.5-0.9-2.2C48.5,12.9,48.4,13.9,48.7,14.8z M50,24.2 C50,24.2,50,24.2,50,24.2C50,24.2,50,24.2,50,24.2C50,24.2,50,24.2,50,24.2C50,24.2,50,24.2,50,24.2z M49.2,11.3 c0,0.9,0.4,1.7,0.8,2.5c0,0,0,0,0,0V8.9c0,0,0,0,0,0C49.6,9.6,49.2,10.4,49.2,11.3z M45.8,17.5C45.8,17.5,45.8,17.5,45.8,17.5 C45.8,17.5,45.8,17.5,45.8,17.5C45.8,17.5,45.8,17.5,45.8,17.5C45.8,17.5,45.8,17.5,45.8,17.5z M42.9,26.1c0-0.3,0.2-0.7,0.3-1 c0.3-0.6,0.8-1,1.1-1.6c0.7-1.1,1-2.3,1.3-3.6c0-0.6,0-1.3,0-1.9c-0.2,0.4-0.3,0.8-0.5,1.1c-0.5,1-1.1,2-1.7,3 C42.7,23.3,42.1,24.9,42.9,26.1z M48.4,26.4c0-0.8-0.6-1.4-1-2.1c-0.6-0.8-1-1.7-1.3-2.6c0,0.6,0,1.3,0,1.9c0.2,0.6,0.6,1.1,0.9,1.7 c0.3,0.5,0.6,1.1,0.7,1.7c0.1,0.4,0.1,0.9,0.1,1.3C48.1,27.7,48.4,27.1,48.4,26.4z M48.8,26.1c0.4-0.6,0.4-1.3,0.3-2 c-0.2-0.8-0.5-1.5-0.9-2.2c-0.3-0.5-0.6-1-0.9-1.5c-0.4-0.8-0.8-1.5-1.1-2.3c0,0.6,0,1.3,0,1.9c0.1,0.7,0.3,1.4,0.5,2.1 c0.2,0.6,0.5,1.2,0.9,1.8c0.4,0.5,0.8,1,1.1,1.6C48.7,25.6,48.8,25.8,48.8,26.1z M45.6,23.6c0-0.6,0-1.3,0-1.9 c-0.3,0.9-0.7,1.8-1.3,2.6c-0.5,0.6-1,1.2-1,2.1c0,0.7,0.2,1.4,0.7,1.9c0-0.4,0-0.9,0.1-1.3c0.1-0.6,0.4-1.1,0.7-1.7 C45,24.7,45.4,24.2,45.6,23.6z M45.8,27.9c-0.4,0.8-0.8,1.6-0.8,2.5c0,0.9,0.4,1.7,0.8,2.4c0.4-0.7,0.8-1.5,0.8-2.4 C46.6,29.5,46.2,28.7,45.8,27.9z M47.2,26.8c-0.2-0.8-0.7-1.5-1.1-2.2c0,0.2,0,0.3,0,0.5c0,0.8,0,1.6,0,2.4c0.3,0.7,0.7,1.5,0.9,2.2 C47.3,28.8,47.4,27.8,47.2,26.8z M45.6,25.1c0-0.2,0-0.3,0-0.5c-0.4,0.7-0.9,1.4-1.1,2.2c-0.2,1-0.2,2,0.2,2.9 c0.2-0.8,0.5-1.5,0.9-2.2C45.6,26.7,45.6,25.9,45.6,25.1z M37.5,27.9c-0.4,0.8-0.8,1.6-0.8,2.5c0,0.9,0.4,1.7,0.8,2.4 c0.4-0.7,0.8-1.5,0.8-2.4C38.3,29.5,37.9,28.7,37.5,27.9z M38.8,26.8c-0.2-0.8-0.7-1.5-1.1-2.2c0,0.2,0,0.3,0,0.5c0,0.8,0,1.6,0,2.4 c0.3,0.7,0.7,1.5,0.9,2.2C39,28.8,39.1,27.8,38.8,26.8z M40.1,26.4c0-0.8-0.6-1.4-1-2.1c-0.6-0.8-1-1.7-1.3-2.6c0,0.6,0,1.3,0,1.9 c0.2,0.6,0.6,1.1,0.9,1.7c0.3,0.5,0.6,1.1,0.7,1.7c0.1,0.4,0.1,0.9,0.1,1.3C39.8,27.7,40.1,27.1,40.1,26.4z M37.5,17.5 C37.5,17.5,37.5,17.5,37.5,17.5C37.5,17.5,37.5,17.5,37.5,17.5C37.5,17.5,37.5,17.5,37.5,17.5C37.5,17.5,37.5,17.5,37.5,17.5z  M37.7,20c0.1,0.7,0.3,1.4,0.5,2.1c0.2,0.6,0.5,1.2,0.9,1.8c0.4,0.5,0.8,1,1.1,1.6c0.1,0.2,0.2,0.5,0.2,0.7c0.4-0.6,0.4-1.3,0.3-2 c-0.2-0.8-0.5-1.5-0.9-2.2c-0.3-0.5-0.6-1-0.9-1.5c-0.4-0.8-0.8-1.5-1.1-2.3C37.7,18.7,37.7,19.3,37.7,20z M37.3,25.1 c0-0.2,0-0.3,0-0.5c-0.4,0.7-0.9,1.4-1.1,2.2c-0.2,1-0.2,2,0.2,2.9c0.2-0.8,0.5-1.5,0.9-2.2C37.3,26.7,37.3,25.9,37.3,25.1z  M37.3,23.6c0-0.6,0-1.3,0-1.9c-0.3,0.9-0.7,1.8-1.3,2.6c-0.5,0.6-1,1.2-1,2.1c0,0.7,0.2,1.4,0.7,1.9c0-0.4,0-0.9,0.1-1.3 c0.1-0.6,0.4-1.1,0.7-1.7C36.7,24.7,37.1,24.2,37.3,23.6z M34.6,26.1c0-0.3,0.2-0.7,0.3-1c0.3-0.6,0.8-1,1.1-1.6 c0.7-1.1,1-2.3,1.3-3.6c0-0.6,0-1.3,0-1.9c-0.2,0.4-0.3,0.8-0.5,1.1c-0.5,1-1.1,2-1.7,3C34.4,23.3,33.8,24.9,34.6,26.1z M29.2,17.5 C29.2,17.5,29.2,17.5,29.2,17.5C29.2,17.5,29.2,17.5,29.2,17.5C29.2,17.5,29.2,17.5,29.2,17.5C29.2,17.5,29.2,17.5,29.2,17.5z  M29.4,20c0.1,0.7,0.3,1.4,0.5,2.1c0.2,0.6,0.5,1.2,0.9,1.8c0.4,0.5,0.8,1,1.1,1.6c0.1,0.2,0.2,0.5,0.2,0.7c0.4-0.6,0.4-1.3,0.3-2 c-0.2-0.8-0.5-1.5-0.9-2.2c-0.3-0.5-0.6-1-0.9-1.5c-0.4-0.8-0.8-1.5-1.1-2.3C29.4,18.7,29.4,19.3,29.4,20z M31.7,26.4 c0-0.8-0.6-1.4-1-2.1c-0.6-0.8-1-1.7-1.3-2.6c0,0.6,0,1.3,0,1.9c0.2,0.6,0.6,1.1,0.9,1.7c0.3,0.5,0.6,1.1,0.7,1.7 c0.1,0.4,0.1,0.9,0.1,1.3C31.5,27.7,31.8,27.1,31.7,26.4z M29.2,27.9c-0.4,0.8-0.8,1.6-0.8,2.5c0,0.9,0.4,1.7,0.8,2.4 c0.4-0.7,0.8-1.5,0.8-2.4C29.9,29.5,29.5,28.7,29.2,27.9z M30.5,26.8c-0.2-0.8-0.7-1.5-1.1-2.2c0,0.2,0,0.3,0,0.5c0,0.8,0,1.6,0,2.4 c0.3,0.7,0.7,1.5,0.9,2.2C30.7,28.8,30.8,27.8,30.5,26.8z M26.2,26.1c0-0.3,0.2-0.7,0.3-1c0.3-0.6,0.8-1,1.1-1.6 c0.7-1.1,1-2.3,1.3-3.6c0-0.6,0-1.3,0-1.9c-0.2,0.4-0.3,0.8-0.5,1.1c-0.5,1-1.1,2-1.7,3C26.1,23.3,25.5,24.9,26.2,26.1z M29,25.1 c0-0.2,0-0.3,0-0.5c-0.4,0.7-0.9,1.4-1.1,2.2c-0.2,1-0.2,2,0.2,2.9c0.2-0.8,0.5-1.5,0.9-2.2C29,26.7,28.9,25.9,29,25.1z M28.9,23.6 c0-0.6,0-1.3,0-1.9c-0.3,0.9-0.7,1.8-1.3,2.6c-0.5,0.6-1,1.2-1,2.1c0,0.7,0.2,1.4,0.7,1.9c0-0.4,0-0.9,0.1-1.3 c0.1-0.6,0.4-1.1,0.7-1.7C28.4,24.7,28.7,24.2,28.9,23.6z M20.6,25.1c0-0.2,0-0.3,0-0.5c-0.4,0.7-0.9,1.4-1.1,2.2 c-0.2,1-0.2,2,0.2,2.9c0.2-0.8,0.5-1.5,0.9-2.2C20.6,26.7,20.6,25.9,20.6,25.1z M21.1,20c0.1,0.7,0.3,1.4,0.5,2.1 c0.2,0.6,0.5,1.2,0.9,1.8c0.4,0.5,0.8,1,1.1,1.6c0.1,0.2,0.2,0.5,0.2,0.7c0.4-0.6,0.4-1.3,0.3-2c-0.2-0.8-0.5-1.5-0.9-2.2 c-0.3-0.5-0.6-1-0.9-1.5c-0.4-0.8-0.8-1.5-1.1-2.3C21.1,18.7,21.1,19.3,21.1,20z M23.4,26.4c0-0.8-0.6-1.4-1-2.1 c-0.6-0.8-1-1.7-1.3-2.6c0,0.6,0,1.3,0,1.9c0.2,0.6,0.6,1.1,0.9,1.7c0.3,0.5,0.6,1.1,0.7,1.7c0.1,0.4,0.1,0.9,0.1,1.3 C23.1,27.7,23.4,27.1,23.4,26.4z M22.2,26.8c-0.2-0.8-0.7-1.5-1.1-2.2c0,0.2,0,0.3,0,0.5c0,0.8,0,1.6,0,2.4c0.3,0.7,0.7,1.5,0.9,2.2 C22.3,28.8,22.4,27.8,22.2,26.8z M20.8,27.9c-0.4,0.8-0.8,1.6-0.8,2.5c0,0.9,0.4,1.7,0.8,2.4c0.4-0.7,0.8-1.5,0.8-2.4 C21.6,29.5,21.2,28.7,20.8,27.9z M20.8,17.5C20.8,17.5,20.8,17.5,20.8,17.5C20.8,17.5,20.8,17.5,20.8,17.5 C20.8,17.5,20.8,17.5,20.8,17.5C20.8,17.5,20.8,17.5,20.8,17.5z M17.9,26.1c0-0.3,0.2-0.7,0.3-1c0.3-0.6,0.8-1,1.1-1.6 c0.7-1.1,1-2.3,1.3-3.6c0-0.6,0-1.3,0-1.9c-0.2,0.4-0.3,0.8-0.5,1.1c-0.5,1-1.1,2-1.7,3C17.7,23.3,17.1,24.9,17.9,26.1z M20.6,23.6 c0-0.6,0-1.3,0-1.9c-0.3,0.9-0.7,1.8-1.3,2.6c-0.5,0.6-1,1.2-1,2.1c0,0.7,0.2,1.4,0.7,1.9c0-0.4,0-0.9,0.1-1.3 c0.1-0.6,0.4-1.1,0.7-1.7C20,24.7,20.4,24.2,20.6,23.6z M12.5,17.5C12.5,17.5,12.5,17.5,12.5,17.5C12.5,17.5,12.5,17.5,12.5,17.5 C12.5,17.5,12.5,17.5,12.5,17.5C12.5,17.5,12.5,17.5,12.5,17.5z M15.1,26.4c0-0.8-0.6-1.4-1-2.1c-0.6-0.8-1-1.7-1.3-2.6 c0,0.6,0,1.3,0,1.9c0.2,0.6,0.6,1.1,0.9,1.7c0.3,0.5,0.6,1.1,0.7,1.7c0.1,0.4,0.1,0.9,0.1,1.3C14.8,27.7,15.1,27.1,15.1,26.4z  M12.7,20c0.1,0.7,0.3,1.4,0.5,2.1c0.2,0.6,0.5,1.2,0.9,1.8c0.4,0.5,0.8,1,1.1,1.6c0.1,0.2,0.2,0.5,0.2,0.7c0.4-0.6,0.4-1.3,0.3-2 c-0.2-0.8-0.5-1.5-0.9-2.2c-0.3-0.5-0.6-1-0.9-1.5c-0.4-0.8-0.8-1.5-1.1-2.3C12.7,18.7,12.7,19.3,12.7,20z M12.5,27.9 c-0.4,0.8-0.8,1.6-0.8,2.5c0,0.9,0.4,1.7,0.8,2.4c0.4-0.7,0.8-1.5,0.8-2.4C13.3,29.5,12.9,28.7,12.5,27.9z M12.3,23.6 c0-0.6,0-1.3,0-1.9c-0.3,0.9-0.7,1.8-1.3,2.6c-0.5,0.6-1,1.2-1,2.1c0,0.7,0.2,1.4,0.7,1.9c0-0.4,0-0.9,0.1-1.3 c0.1-0.6,0.4-1.1,0.7-1.7C11.7,24.7,12.1,24.2,12.3,23.6z M13.8,26.8c-0.2-0.8-0.7-1.5-1.1-2.2c0,0.2,0,0.3,0,0.5c0,0.8,0,1.6,0,2.4 c0.3,0.7,0.7,1.5,0.9,2.2C14,28.8,14.1,27.8,13.8,26.8z M12.3,25.1c0-0.2,0-0.3,0-0.5c-0.4,0.7-0.9,1.4-1.1,2.2 c-0.2,1-0.2,2,0.2,2.9c0.2-0.8,0.5-1.5,0.9-2.2C12.3,26.7,12.3,25.9,12.3,25.1z M9.6,26.1c0-0.3,0.2-0.7,0.3-1 c0.3-0.6,0.8-1,1.1-1.6c0.7-1.1,1-2.3,1.3-3.6c0-0.6,0-1.3,0-1.9c-0.2,0.4-0.3,0.8-0.5,1.1c-0.5,1-1.1,2-1.7,3 C9.4,23.3,8.8,24.9,9.6,26.1z M4.2,27.9c-0.4,0.8-0.8,1.6-0.8,2.5c0,0.9,0.4,1.7,0.8,2.4C4.6,32.1,5,31.3,5,30.4 C4.9,29.5,4.5,28.7,4.2,27.9z M4.4,20C4.6,20.7,4.7,21.4,5,22c0.2,0.6,0.5,1.2,0.9,1.8c0.4,0.5,0.8,1,1.1,1.6 c0.1,0.2,0.2,0.5,0.2,0.7c0.4-0.6,0.4-1.3,0.3-2c-0.2-0.8-0.5-1.5-0.9-2.2c-0.3-0.5-0.6-1-0.9-1.5c-0.4-0.8-0.8-1.5-1.1-2.3 C4.4,18.7,4.4,19.3,4.4,20z M4.2,17.5C4.2,17.5,4.2,17.5,4.2,17.5C4.2,17.5,4.2,17.5,4.2,17.5C4.2,17.5,4.2,17.5,4.2,17.5 C4.2,17.5,4.2,17.5,4.2,17.5z M5.5,26.8c-0.2-0.8-0.7-1.5-1.1-2.2c0,0.2,0,0.3,0,0.5c0,0.8,0,1.6,0,2.4c0.3,0.7,0.7,1.5,0.9,2.2 C5.7,28.8,5.8,27.8,5.5,26.8z M3.9,27.5c0.1-0.8,0-1.6,0-2.4c0-0.2,0-0.3,0-0.5C3.5,25.3,3,26,2.8,26.8c-0.2,1-0.2,2,0.2,2.9 C3.2,28.9,3.6,28.2,3.9,27.5z M1.2,26.1c0-0.3,0.2-0.7,0.3-1c0.3-0.6,0.8-1,1.1-1.6c0.7-1.1,1-2.3,1.3-3.6c0-0.6,0-1.3,0-1.9 c-0.2,0.4-0.3,0.8-0.5,1.1c-0.5,1-1.1,2-1.7,3C1.1,23.3,0.5,24.9,1.2,26.1z M3.9,23.6c0-0.6,0-1.3,0-1.9c-0.3,0.9-0.7,1.8-1.3,2.6 c-0.5,0.6-1,1.2-1,2.1c0,0.7,0.2,1.4,0.7,1.9c0-0.4,0-0.9,0.1-1.3c0.1-0.6,0.4-1.1,0.7-1.7C3.4,24.7,3.7,24.2,3.9,23.6z M6.7,26.4 c0-0.8-0.6-1.4-1-2.1c-0.6-0.8-1-1.7-1.3-2.6c0,0.6,0,1.3,0,1.9c0.2,0.6,0.6,1.1,0.9,1.7c0.3,0.5,0.6,1.1,0.7,1.7 c0.1,0.4,0.1,0.9,0.1,1.3C6.5,27.7,6.8,27.1,6.7,26.4z M2.9,32.2c0,0.3-0.2,0.7-0.3,1c-0.3,0.6-0.8,1-1.1,1.6 c-0.7,1.1-1,2.3-1.3,3.6c0,0.6,0,1.3,0,1.9c0.2-0.4,0.3-0.8,0.5-1.1c0.5-1,1.1-2,1.7-3C3.1,35,3.7,33.4,2.9,32.2z M0,25.5v4.9 c0.4-0.8,0.8-1.6,0.8-2.5C0.8,27.1,0.4,26.3,0,25.5z M1.3,31.5c0.2-1,0.2-2-0.2-2.9c-0.2,0.8-0.5,1.5-0.9,2.2c-0.1,0.8,0,1.6,0,2.4 c0,0.2,0,0.3,0,0.5C0.6,33,1.1,32.3,1.3,31.5z M1.1,33.1c-0.3,0.5-0.7,1.1-0.9,1.7c0,0.6,0,1.3,0,1.9c0.3-0.9,0.7-1.8,1.3-2.6 c0.5-0.6,1-1.2,1-2.1c0-0.7-0.2-1.4-0.7-1.9c0,0.4,0,0.9-0.1,1.3C1.7,32,1.4,32.6,1.1,33.1z M10.8,36.1c0.6-1.1,1.3-2.7,0.5-3.9 c0,0.3-0.2,0.7-0.3,1c-0.3,0.6-0.8,1-1.1,1.6c-0.7,1.1-1,2.3-1.3,3.6c0,0.6,0,1.3,0,1.9c0.2-0.4,0.3-0.8,0.5-1.1 C9.6,38.1,10.2,37.1,10.8,36.1z M6,36.4c0.3,0.5,0.6,1,0.9,1.5c0.4,0.8,0.8,1.5,1.1,2.3c0-0.6,0-1.3,0-1.9c-0.1-0.7-0.3-1.4-0.5-2.1 c-0.2-0.6-0.5-1.2-0.9-1.8c-0.4-0.5-0.8-1-1.1-1.6c-0.1-0.2-0.2-0.5-0.2-0.7c-0.4,0.6-0.4,1.3-0.3,2C5.2,35,5.6,35.7,6,36.4z  M8.3,40.8C8.3,40.8,8.3,40.8,8.3,40.8C8.3,40.8,8.3,40.8,8.3,40.8C8.3,40.8,8.3,40.8,8.3,40.8C8.3,40.8,8.3,40.8,8.3,40.8z  M8.3,25.5c-0.4,0.7-0.8,1.5-0.8,2.4c0,0.9,0.4,1.7,0.8,2.5c0.4-0.8,0.8-1.6,0.8-2.5C9.1,27.1,8.7,26.3,8.3,25.5z M8.1,30.9 c-0.3-0.7-0.7-1.5-0.9-2.2c-0.4,0.9-0.5,1.9-0.2,2.9c0.2,0.8,0.7,1.5,1.1,2.2c0-0.2,0-0.3,0-0.5C8.1,32.5,8.1,31.7,8.1,30.9z  M9.7,31.5c0.2-1,0.2-2-0.2-2.9c-0.2,0.8-0.5,1.5-0.9,2.2c-0.1,0.8,0,1.6,0,2.4c0,0.2,0,0.3,0,0.5C9,33,9.5,32.3,9.7,31.5z  M9.4,33.1c-0.3,0.5-0.7,1.1-0.9,1.7c0,0.6,0,1.3,0,1.9c0.3-0.9,0.7-1.8,1.3-2.6c0.5-0.6,1-1.2,1-2.1c0-0.7-0.2-1.4-0.7-1.9 c0,0.4,0,0.9-0.1,1.3C10,32,9.7,32.6,9.4,33.1z M8.1,34.7c-0.2-0.6-0.6-1.1-0.9-1.7c-0.3-0.5-0.6-1.1-0.7-1.7 c-0.1-0.4-0.1-0.9-0.1-1.3c-0.4,0.5-0.7,1.2-0.7,1.9c0,0.8,0.6,1.4,1,2.1c0.6,0.8,1,1.7,1.3,2.6C8.1,36,8.1,35.4,8.1,34.7z  M16.7,40.8C16.7,40.8,16.7,40.8,16.7,40.8C16.7,40.8,16.7,40.8,16.7,40.8C16.7,40.8,16.7,40.8,16.7,40.8 C16.7,40.8,16.7,40.8,16.7,40.8z M16.4,34.7c-0.2-0.6-0.6-1.1-0.9-1.7c-0.3-0.5-0.6-1.1-0.7-1.7c-0.1-0.4-0.1-0.9-0.1-1.3 c-0.4,0.5-0.7,1.2-0.7,1.9c0,0.8,0.6,1.4,1,2.1c0.6,0.8,1,1.7,1.3,2.6C16.4,36,16.4,35.4,16.4,34.7z M14.4,36.4 c0.3,0.5,0.6,1,0.9,1.5c0.4,0.8,0.8,1.5,1.1,2.3c0-0.6,0-1.3,0-1.9c-0.1-0.7-0.3-1.4-0.5-2.1c-0.2-0.6-0.5-1.2-0.9-1.8 c-0.4-0.5-0.8-1-1.1-1.6c-0.1-0.2-0.2-0.5-0.2-0.7c-0.4,0.6-0.4,1.3-0.3,2C13.6,35,14,35.7,14.4,36.4z M16.7,25.5 c-0.4,0.7-0.8,1.5-0.8,2.4c0,0.9,0.4,1.7,0.8,2.5c0.4-0.8,0.8-1.6,0.8-2.5C17.5,27.1,17.1,26.3,16.7,25.5z M19.1,36.1 c0.6-1.1,1.3-2.7,0.5-3.9c0,0.3-0.2,0.7-0.3,1c-0.3,0.6-0.8,1-1.1,1.6c-0.7,1.1-1,2.3-1.3,3.6c0,0.6,0,1.3,0,1.9 c0.2-0.4,0.3-0.8,0.5-1.1C17.9,38.1,18.5,37.1,19.1,36.1z M17.8,33.1c-0.3,0.5-0.7,1.1-0.9,1.7c0,0.6,0,1.3,0,1.9 c0.3-0.9,0.7-1.8,1.3-2.6c0.5-0.6,1-1.2,1-2.1c0-0.7-0.2-1.4-0.7-1.9c0,0.4,0,0.9-0.1,1.3C18.3,32,18.1,32.6,17.8,33.1z M18,31.5 c0.2-1,0.2-2-0.2-2.9c-0.2,0.8-0.5,1.5-0.9,2.2c-0.1,0.8,0,1.6,0,2.4c0,0.2,0,0.3,0,0.5C17.3,33,17.8,32.3,18,31.5z M16.4,30.9 c-0.3-0.7-0.7-1.5-0.9-2.2c-0.4,0.9-0.5,1.9-0.2,2.9c0.2,0.8,0.7,1.5,1.1,2.2c0-0.2,0-0.3,0-0.5C16.4,32.5,16.5,31.7,16.4,30.9z  M26.1,33.1c-0.3,0.5-0.7,1.1-0.9,1.7c0,0.6,0,1.3,0,1.9c0.3-0.9,0.7-1.8,1.3-2.6c0.5-0.6,1-1.2,1-2.1c0-0.7-0.2-1.4-0.7-1.9 c0,0.4,0,0.9-0.1,1.3C26.7,32,26.4,32.6,26.1,33.1z M25,25.5c-0.4,0.7-0.8,1.5-0.8,2.4c0,0.9,0.4,1.7,0.8,2.5 c0.4-0.8,0.8-1.6,0.8-2.5C25.8,27.1,25.4,26.3,25,25.5z M26.3,31.5c0.2-1,0.2-2-0.2-2.9c-0.2,0.8-0.5,1.5-0.9,2.2 c-0.1,0.8,0,1.6,0,2.4c0,0.2,0,0.3,0,0.5C25.6,33,26.1,32.3,26.3,31.5z M24.8,34.7c-0.2-0.6-0.6-1.1-0.9-1.7 c-0.3-0.5-0.6-1.1-0.7-1.7c-0.1-0.4-0.1-0.9-0.1-1.3c-0.4,0.5-0.7,1.2-0.7,1.9c0,0.8,0.6,1.4,1,2.1c0.6,0.8,1,1.7,1.3,2.6 C24.8,36,24.8,35.4,24.8,34.7z M24.7,30.9c-0.3-0.7-0.7-1.5-0.9-2.2c-0.4,0.9-0.5,1.9-0.2,2.9c0.2,0.8,0.7,1.5,1.1,2.2 c0-0.2,0-0.3,0-0.5C24.8,32.5,24.8,31.7,24.7,30.9z M27.4,36.1c0.6-1.1,1.3-2.7,0.5-3.9c0,0.3-0.2,0.7-0.3,1c-0.3,0.6-0.8,1-1.1,1.6 c-0.7,1.1-1,2.3-1.3,3.6c0,0.6,0,1.3,0,1.9c0.2-0.4,0.3-0.8,0.5-1.1C26.2,38.1,26.9,37.1,27.4,36.1z M22.7,36.4 c0.3,0.5,0.6,1,0.9,1.5c0.4,0.8,0.8,1.5,1.1,2.3c0-0.6,0-1.3,0-1.9c-0.1-0.7-0.3-1.4-0.5-2.1c-0.2-0.6-0.5-1.2-0.9-1.8 c-0.4-0.5-0.8-1-1.1-1.6c-0.1-0.2-0.2-0.5-0.2-0.7c-0.4,0.6-0.4,1.3-0.3,2C21.9,35,22.3,35.7,22.7,36.4z M25,40.8 C25,40.8,25,40.8,25,40.8C25,40.8,25,40.8,25,40.8C25,40.8,25,40.8,25,40.8C25,40.8,25,40.8,25,40.8z M34.7,31.5 c0.2-1,0.2-2-0.2-2.9c-0.2,0.8-0.5,1.5-0.9,2.2c-0.1,0.8,0,1.6,0,2.4c0,0.2,0,0.3,0,0.5C34,33,34.5,32.3,34.7,31.5z M35.8,36.1 c0.6-1.1,1.3-2.7,0.5-3.9c0,0.3-0.2,0.7-0.3,1c-0.3,0.6-0.8,1-1.1,1.6c-0.7,1.1-1,2.3-1.3,3.6c0,0.6,0,1.3,0,1.9 c0.2-0.4,0.3-0.8,0.5-1.1C34.6,38.1,35.2,37.1,35.8,36.1z M34.4,33.1c-0.3,0.5-0.7,1.1-0.9,1.7c0,0.6,0,1.3,0,1.9 c0.3-0.9,0.7-1.8,1.3-2.6c0.5-0.6,1-1.2,1-2.1c0-0.7-0.2-1.4-0.7-1.9c0,0.4,0,0.9-0.1,1.3C35,32,34.7,32.6,34.4,33.1z M33.1,30.9 c-0.3-0.7-0.7-1.5-0.9-2.2c-0.4,0.9-0.5,1.9-0.2,2.9c0.2,0.8,0.7,1.5,1.1,2.2c0-0.2,0-0.3,0-0.5C33.1,32.5,33.1,31.7,33.1,30.9z  M31,36.4c0.3,0.5,0.6,1,0.9,1.5c0.4,0.8,0.8,1.5,1.1,2.3c0-0.6,0-1.3,0-1.9c-0.1-0.7-0.3-1.4-0.5-2.1c-0.2-0.6-0.5-1.2-0.9-1.8 c-0.4-0.5-0.8-1-1.1-1.6c-0.1-0.2-0.2-0.5-0.2-0.7c-0.4,0.6-0.4,1.3-0.3,2C30.2,35,30.6,35.7,31,36.4z M33.1,34.7 c-0.2-0.6-0.6-1.1-0.9-1.7c-0.3-0.5-0.6-1.1-0.7-1.7c-0.1-0.4-0.1-0.9-0.1-1.3c-0.4,0.5-0.7,1.2-0.7,1.9c0,0.8,0.6,1.4,1,2.1 c0.6,0.8,1,1.7,1.3,2.6C33.1,36,33.1,35.4,33.1,34.7z M33.3,25.5c-0.4,0.7-0.8,1.5-0.8,2.4c0,0.9,0.4,1.7,0.8,2.5 c0.4-0.8,0.8-1.6,0.8-2.5C34.1,27.1,33.7,26.3,33.3,25.5z M33.3,40.8C33.3,40.8,33.3,40.8,33.3,40.8C33.3,40.8,33.3,40.8,33.3,40.8 C33.3,40.8,33.3,40.8,33.3,40.8C33.3,40.8,33.3,40.8,33.3,40.8z M41.4,34.7c-0.2-0.6-0.6-1.1-0.9-1.7c-0.3-0.5-0.6-1.1-0.7-1.7 c-0.1-0.4-0.1-0.9-0.1-1.3c-0.4,0.5-0.7,1.2-0.7,1.9c0,0.8,0.6,1.4,1,2.1c0.6,0.8,1,1.7,1.3,2.6C41.4,36,41.4,35.4,41.4,34.7z  M39.4,36.4c0.3,0.5,0.6,1,0.9,1.5c0.4,0.8,0.8,1.5,1.1,2.3c0-0.6,0-1.3,0-1.9c-0.1-0.7-0.3-1.4-0.5-2.1c-0.2-0.6-0.5-1.2-0.9-1.8 c-0.4-0.5-0.8-1-1.1-1.6c-0.1-0.2-0.2-0.5-0.2-0.7c-0.4,0.6-0.4,1.3-0.3,2C38.6,35,39,35.7,39.4,36.4z M42.8,33.1 c-0.3,0.5-0.7,1.1-0.9,1.7c0,0.6,0,1.3,0,1.9c0.3-0.9,0.7-1.8,1.3-2.6c0.5-0.6,1-1.2,1-2.1c0-0.7-0.2-1.4-0.7-1.9 c0,0.4,0,0.9-0.1,1.3C43.3,32,43.1,32.6,42.8,33.1z M41.7,25.5c-0.4,0.7-0.8,1.5-0.8,2.4c0,0.9,0.4,1.7,0.8,2.5 c0.4-0.8,0.8-1.6,0.8-2.5C42.5,27.1,42.1,26.3,41.7,25.5z M43,31.5c0.2-1,0.2-2-0.2-2.9c-0.2,0.8-0.5,1.5-0.9,2.2 c-0.1,0.8,0,1.6,0,2.4c0,0.2,0,0.3,0,0.5C42.3,33,42.8,32.3,43,31.5z M41.4,30.9c-0.3-0.7-0.7-1.5-0.9-2.2c-0.4,0.9-0.5,1.9-0.2,2.9 c0.2,0.8,0.7,1.5,1.1,2.2c0-0.2,0-0.3,0-0.5C41.4,32.5,41.5,31.7,41.4,30.9z M41.7,40.8C41.7,40.8,41.7,40.8,41.7,40.8 C41.7,40.8,41.7,40.8,41.7,40.8C41.7,40.8,41.7,40.8,41.7,40.8C41.7,40.8,41.7,40.8,41.7,40.8z M44.1,36.1c0.6-1.1,1.3-2.7,0.5-3.9 c0,0.3-0.2,0.7-0.3,1c-0.3,0.6-0.8,1-1.1,1.6c-0.7,1.1-1,2.3-1.3,3.6c0,0.6,0,1.3,0,1.9c0.2-0.4,0.3-0.8,0.5-1.1 C42.9,38.1,43.5,37.1,44.1,36.1z M50,40.8C50,40.8,50,40.8,50,40.8C50,40.8,50,40.8,50,40.8C50,40.8,50,40.8,50,40.8 C50,40.8,50,40.8,50,40.8z M48.3,34.5c-0.4-0.5-0.8-1-1.1-1.6c-0.1-0.2-0.2-0.5-0.2-0.7c-0.4,0.6-0.4,1.3-0.3,2 c0.2,0.8,0.5,1.5,0.9,2.2c0.3,0.5,0.6,1,0.9,1.5c0.4,0.8,0.8,1.5,1.1,2.3c0-0.6,0-1.3,0-1.9c-0.1-0.7-0.3-1.4-0.5-2.1 C49,35.7,48.7,35.1,48.3,34.5z M49.2,27.9c0,0.9,0.4,1.7,0.8,2.5c0,0,0,0,0,0v-4.9c0,0,0,0,0,0C49.6,26.3,49.2,27.1,49.2,27.9z  M48.2,31.4c-0.1-0.4-0.1-0.9-0.1-1.3c-0.4,0.5-0.7,1.2-0.7,1.9c0,0.8,0.6,1.4,1,2.1c0.6,0.8,1,1.7,1.3,2.6c0-0.6,0-1.3,0-1.9 c-0.2-0.6-0.6-1.1-0.9-1.7C48.6,32.6,48.3,32,48.2,31.4z M48.7,31.5c0.2,0.8,0.7,1.5,1.1,2.2c0-0.2,0-0.3,0-0.5c0-0.8,0-1.6,0-2.4 c-0.3-0.7-0.7-1.5-0.9-2.2C48.5,29.5,48.4,30.6,48.7,31.5z M45.8,0.8C45.8,0.8,45.8,0.8,45.8,0.8C45.8,0.8,45.8,0.8,45.8,0.8 C45.8,0.8,45.8,0.8,45.8,0.8C45.8,0.8,45.8,0.8,45.8,0.8z M43.2,8.5c0.3-0.6,0.8-1,1.1-1.6c0.7-1.1,1-2.3,1.3-3.6c0-0.6,0-1.3,0-1.9 c-0.2,0.4-0.3,0.8-0.5,1.1c-0.5,1-1.1,2-1.7,3c-0.6,1.1-1.3,2.7-0.5,3.9C42.9,9.1,43,8.8,43.2,8.5z M44.5,10.2c-0.2,1-0.2,2,0.2,2.9 c0.2-0.8,0.5-1.5,0.9-2.2c0.1-0.8,0-1.6,0-2.4c0-0.2,0-0.3,0-0.5C45.2,8.7,44.7,9.3,44.5,10.2z M47.6,10.3c0.1,0.4,0.1,0.9,0.1,1.3 c0.4-0.5,0.7-1.2,0.7-1.9c0-0.8-0.6-1.4-1-2.1c-0.6-0.8-1-1.7-1.3-2.6c0,0.6,0,1.3,0,1.9c0.2,0.6,0.6,1.1,0.9,1.7 C47.3,9.1,47.5,9.7,47.6,10.3z M47,13c0.4-0.9,0.5-1.9,0.2-2.9c-0.2-0.8-0.7-1.5-1.1-2.2c0,0.2,0,0.3,0,0.5c0,0.8,0,1.6,0,2.4 C46.4,11.5,46.8,12.3,47,13z M44.7,8.6C45,8,45.4,7.5,45.6,6.9c0-0.6,0-1.3,0-1.9c-0.3,0.9-0.7,1.8-1.3,2.6c-0.5,0.6-1,1.2-1,2.1 c0,0.7,0.2,1.4,0.7,1.9c0-0.4,0-0.9,0.1-1.3C44.2,9.7,44.4,9.1,44.7,8.6z M45.1,13.7c0,0.9,0.4,1.7,0.8,2.4c0.4-0.7,0.8-1.5,0.8-2.4 c0-0.9-0.4-1.7-0.8-2.5C45.5,12,45.1,12.9,45.1,13.7z M47.5,7.1c0.4,0.5,0.8,1,1.1,1.6c0.1,0.2,0.2,0.5,0.2,0.7 c0.4-0.6,0.4-1.3,0.3-2c-0.2-0.8-0.5-1.5-0.9-2.2c-0.3-0.5-0.6-1-0.9-1.5c-0.4-0.8-0.8-1.5-1.1-2.3c0,0.6,0,1.3,0,1.9 c0.1,0.7,0.3,1.4,0.5,2.1C46.8,6,47.1,6.6,47.5,7.1z M36.2,10.2c-0.2,1-0.2,2,0.2,2.9c0.2-0.8,0.5-1.5,0.9-2.2c0.1-0.8,0-1.6,0-2.4 c0-0.2,0-0.3,0-0.5C36.9,8.7,36.4,9.3,36.2,10.2z M36.7,13.7c0,0.9,0.4,1.7,0.8,2.4c0.4-0.7,0.8-1.5,0.8-2.4c0-0.9-0.4-1.7-0.8-2.5 C37.1,12,36.7,12.9,36.7,13.7z M34.9,8.5c0.3-0.6,0.8-1,1.1-1.6c0.7-1.1,1-2.3,1.3-3.6c0-0.6,0-1.3,0-1.9c-0.2,0.4-0.3,0.8-0.5,1.1 c-0.5,1-1.1,2-1.7,3c-0.6,1.1-1.3,2.7-0.5,3.9C34.6,9.1,34.7,8.8,34.9,8.5z M37.5,0.8C37.5,0.8,37.5,0.8,37.5,0.8 C37.5,0.8,37.5,0.8,37.5,0.8C37.5,0.8,37.5,0.8,37.5,0.8C37.5,0.8,37.5,0.8,37.5,0.8z M38.6,13c0.4-0.9,0.5-1.9,0.2-2.9 c-0.2-0.8-0.7-1.5-1.1-2.2c0,0.2,0,0.3,0,0.5c0,0.8,0,1.6,0,2.4C38.1,11.5,38.5,12.3,38.6,13z M36.4,8.6c0.3-0.5,0.7-1.1,0.9-1.7 c0-0.6,0-1.3,0-1.9C37,6,36.6,6.9,36,7.7c-0.5,0.6-1,1.2-1,2.1c0,0.7,0.2,1.4,0.7,1.9c0-0.4,0-0.9,0.1-1.3 C35.8,9.7,36.1,9.1,36.4,8.6z M39.3,10.3c0.1,0.4,0.1,0.9,0.1,1.3c0.4-0.5,0.7-1.2,0.7-1.9c0-0.8-0.6-1.4-1-2.1 C38.4,6.9,38,6,37.7,5c0,0.6,0,1.3,0,1.9C38,7.5,38.3,8,38.6,8.6C38.9,9.1,39.2,9.7,39.3,10.3z M39.2,7.1c0.4,0.5,0.8,1,1.1,1.6 c0.1,0.2,0.2,0.5,0.2,0.7c0.4-0.6,0.4-1.3,0.3-2c-0.2-0.8-0.5-1.5-0.9-2.2c-0.3-0.5-0.6-1-0.9-1.5c-0.4-0.8-0.8-1.5-1.1-2.3 c0,0.6,0,1.3,0,1.9c0.1,0.7,0.3,1.4,0.5,2.1C38.5,6,38.8,6.6,39.2,7.1z M30.3,13c0.4-0.9,0.5-1.9,0.2-2.9c-0.2-0.8-0.7-1.5-1.1-2.2 c0,0.2,0,0.3,0,0.5c0,0.8,0,1.6,0,2.4C29.7,11.5,30.1,12.3,30.3,13z M28.4,13.7c0,0.9,0.4,1.7,0.8,2.4c0.4-0.7,0.8-1.5,0.8-2.4 c0-0.9-0.4-1.7-0.8-2.5C28.8,12,28.4,12.9,28.4,13.7z M28.1,8.6c0.3-0.5,0.7-1.1,0.9-1.7c0-0.6,0-1.3,0-1.9 c-0.3,0.9-0.7,1.8-1.3,2.6c-0.5,0.6-1,1.2-1,2.1c0,0.7,0.2,1.4,0.7,1.9c0-0.4,0-0.9,0.1-1.3C27.5,9.7,27.8,9.1,28.1,8.6z M30.8,7.1 c0.4,0.5,0.8,1,1.1,1.6c0.1,0.2,0.2,0.5,0.2,0.7c0.4-0.6,0.4-1.3,0.3-2c-0.2-0.8-0.5-1.5-0.9-2.2c-0.3-0.5-0.6-1-0.9-1.5 c-0.4-0.8-0.8-1.5-1.1-2.3c0,0.6,0,1.3,0,1.9C29.6,4,29.7,4.7,30,5.4C30.2,6,30.5,6.6,30.8,7.1z M31,10.3c0.1,0.4,0.1,0.9,0.1,1.3 c0.4-0.5,0.7-1.2,0.7-1.9c0-0.8-0.6-1.4-1-2.1c-0.6-0.8-1-1.7-1.3-2.6c0,0.6,0,1.3,0,1.9C29.6,7.5,30,8,30.3,8.6 C30.6,9.1,30.8,9.7,31,10.3z M29.2,0.8C29.2,0.8,29.2,0.8,29.2,0.8C29.2,0.8,29.2,0.8,29.2,0.8C29.2,0.8,29.2,0.8,29.2,0.8 C29.2,0.8,29.2,0.8,29.2,0.8z M26.5,8.5c0.3-0.6,0.8-1,1.1-1.6c0.7-1.1,1-2.3,1.3-3.6c0-0.6,0-1.3,0-1.9c-0.2,0.4-0.3,0.8-0.5,1.1 c-0.5,1-1.1,2-1.7,3c-0.6,1.1-1.3,2.7-0.5,3.9C26.3,9.1,26.4,8.8,26.5,8.5z M27.8,10.2c-0.2,1-0.2,2,0.2,2.9 c0.2-0.8,0.5-1.5,0.9-2.2c0.1-0.8,0-1.6,0-2.4c0-0.2,0-0.3,0-0.5C28.5,8.7,28,9.3,27.8,10.2z M22,13c0.4-0.9,0.5-1.9,0.2-2.9 c-0.2-0.8-0.7-1.5-1.1-2.2c0,0.2,0,0.3,0,0.5c0,0.8,0,1.6,0,2.4C21.4,11.5,21.8,12.3,22,13z M19.5,10.2c-0.2,1-0.2,2,0.2,2.9 c0.2-0.8,0.5-1.5,0.9-2.2c0.1-0.8,0-1.6,0-2.4c0-0.2,0-0.3,0-0.5C20.2,8.7,19.7,9.3,19.5,10.2z M20.8,0.8 C20.8,0.8,20.8,0.8,20.8,0.8C20.8,0.8,20.8,0.8,20.8,0.8C20.8,0.8,20.8,0.8,20.8,0.8C20.8,0.8,20.8,0.8,20.8,0.8z M18.2,8.5 c0.3-0.6,0.8-1,1.1-1.6c0.7-1.1,1-2.3,1.3-3.6c0-0.6,0-1.3,0-1.9c-0.2,0.4-0.3,0.8-0.5,1.1c-0.5,1-1.1,2-1.7,3 c-0.6,1.1-1.3,2.7-0.5,3.9C17.9,9.1,18,8.8,18.2,8.5z M22.5,7.1c0.4,0.5,0.8,1,1.1,1.6c0.1,0.2,0.2,0.5,0.2,0.7 c0.4-0.6,0.4-1.3,0.3-2c-0.2-0.8-0.5-1.5-0.9-2.2c-0.3-0.5-0.6-1-0.9-1.5c-0.4-0.8-0.8-1.5-1.1-2.3c0,0.6,0,1.3,0,1.9 c0.1,0.7,0.3,1.4,0.5,2.1C21.8,6,22.1,6.6,22.5,7.1z M22.6,10.3c0.1,0.4,0.1,0.9,0.1,1.3c0.4-0.5,0.7-1.2,0.7-1.9 c0-0.8-0.6-1.4-1-2.1c-0.6-0.8-1-1.7-1.3-2.6c0,0.6,0,1.3,0,1.9c0.2,0.6,0.6,1.1,0.9,1.7C22.3,9.1,22.5,9.7,22.6,10.3z M20.1,13.7 c0,0.9,0.4,1.7,0.8,2.4c0.4-0.7,0.8-1.5,0.8-2.4c0-0.9-0.4-1.7-0.8-2.5C20.5,12,20.1,12.9,20.1,13.7z M19.7,8.6 C20,8,20.4,7.5,20.6,6.9c0-0.6,0-1.3,0-1.9c-0.3,0.9-0.7,1.8-1.3,2.6c-0.5,0.6-1,1.2-1,2.1c0,0.7,0.2,1.4,0.7,1.9 c0-0.4,0-0.9,0.1-1.3C19.2,9.7,19.4,9.1,19.7,8.6z M11.2,10.2c-0.2,1-0.2,2,0.2,2.9c0.2-0.8,0.5-1.5,0.9-2.2c0.1-0.8,0-1.6,0-2.4 c0-0.2,0-0.3,0-0.5C11.9,8.7,11.4,9.3,11.2,10.2z M12.5,0.8C12.5,0.8,12.5,0.8,12.5,0.8C12.5,0.8,12.5,0.8,12.5,0.8 C12.5,0.8,12.5,0.8,12.5,0.8C12.5,0.8,12.5,0.8,12.5,0.8z M14.3,10.3c0.1,0.4,0.1,0.9,0.1,1.3c0.4-0.5,0.7-1.2,0.7-1.9 c0-0.8-0.6-1.4-1-2.1C13.4,6.9,13,6,12.7,5c0,0.6,0,1.3,0,1.9C13,7.5,13.3,8,13.6,8.6C13.9,9.1,14.2,9.7,14.3,10.3z M13.6,13 c0.4-0.9,0.5-1.9,0.2-2.9c-0.2-0.8-0.7-1.5-1.1-2.2c0,0.2,0,0.3,0,0.5c0,0.8,0,1.6,0,2.4C13.1,11.5,13.5,12.3,13.6,13z M11.7,13.7 c0,0.9,0.4,1.7,0.8,2.4c0.4-0.7,0.8-1.5,0.8-2.4c0-0.9-0.4-1.7-0.8-2.5C12.1,12,11.7,12.9,11.7,13.7z M14.2,7.1 c0.4,0.5,0.8,1,1.1,1.6c0.1,0.2,0.2,0.5,0.2,0.7c0.4-0.6,0.4-1.3,0.3-2c-0.2-0.8-0.5-1.5-0.9-2.2c-0.3-0.5-0.6-1-0.9-1.5 c-0.4-0.8-0.8-1.5-1.1-2.3c0,0.6,0,1.3,0,1.9c0.1,0.7,0.3,1.4,0.5,2.1C13.5,6,13.8,6.6,14.2,7.1z M11.4,8.6c0.3-0.5,0.7-1.1,0.9-1.7 c0-0.6,0-1.3,0-1.9C12,6,11.6,6.9,11,7.7c-0.5,0.6-1,1.2-1,2.1c0,0.7,0.2,1.4,0.7,1.9c0-0.4,0-0.9,0.1-1.3 C10.8,9.7,11.1,9.1,11.4,8.6z M9.9,8.5c0.3-0.6,0.8-1,1.1-1.6c0.7-1.1,1-2.3,1.3-3.6c0-0.6,0-1.3,0-1.9c-0.2,0.4-0.3,0.8-0.5,1.1 c-0.5,1-1.1,2-1.7,3C9.4,6.6,8.8,8.2,9.6,9.4C9.6,9.1,9.7,8.8,9.9,8.5z M2.8,10.2c-0.2,1-0.2,2,0.2,2.9c0.2-0.8,0.5-1.5,0.9-2.2 C4,10,3.9,9.2,4,8.4c0-0.2,0-0.3,0-0.5C3.5,8.7,3,9.3,2.8,10.2z M4.2,0.8C4.2,0.8,4.2,0.8,4.2,0.8C4.2,0.8,4.2,0.8,4.2,0.8 C4.2,0.8,4.2,0.8,4.2,0.8C4.2,0.8,4.2,0.8,4.2,0.8z M5.3,13c0.4-0.9,0.5-1.9,0.2-2.9C5.3,9.3,4.8,8.7,4.4,7.9c0,0.2,0,0.3,0,0.5 c0,0.8,0,1.6,0,2.4C4.7,11.5,5.1,12.3,5.3,13z M6,10.3c0.1,0.4,0.1,0.9,0.1,1.3c0.4-0.5,0.7-1.2,0.7-1.9c0-0.8-0.6-1.4-1-2.1 C5.1,6.9,4.7,6,4.4,5c0,0.6,0,1.3,0,1.9C4.6,7.5,5,8,5.3,8.6C5.6,9.1,5.8,9.7,6,10.3z M1.5,8.5c0.3-0.6,0.8-1,1.1-1.6 c0.7-1.1,1-2.3,1.3-3.6c0-0.6,0-1.3,0-1.9C3.8,1.8,3.6,2.2,3.4,2.5c-0.5,1-1.1,2-1.7,3C1.1,6.6,0.5,8.2,1.2,9.4 C1.3,9.1,1.4,8.8,1.5,8.5z M3.4,13.7c0,0.9,0.4,1.7,0.8,2.4C4.6,15.4,5,14.6,5,13.7c0-0.9-0.4-1.7-0.8-2.5C3.8,12,3.4,12.9,3.4,13.7 z M5.8,7.1c0.4,0.5,0.8,1,1.1,1.6C7,8.9,7.1,9.2,7.1,9.4c0.4-0.6,0.4-1.3,0.3-2C7.3,6.7,6.9,5.9,6.5,5.3c-0.3-0.5-0.6-1-0.9-1.5 C5.1,3,4.7,2.2,4.4,1.4c0,0.6,0,1.3,0,1.9C4.6,4,4.7,4.7,5,5.4C5.2,6,5.5,6.6,5.8,7.1z M3.9,6.9c0-0.6,0-1.3,0-1.9 C3.6,6,3.2,6.9,2.6,7.7c-0.5,0.6-1,1.2-1,2.1c0,0.7,0.2,1.4,0.7,1.9c0-0.4,0-0.9,0.1-1.3c0.1-0.6,0.4-1.1,0.7-1.7 C3.4,8,3.7,7.5,3.9,6.9z M2.6,49.9c0,0-0.1,0.1-0.1,0.1h0.8c0-0.4-0.1-0.8-0.3-1.1C2.9,49.2,2.8,49.6,2.6,49.9z M1.9,46.7 c0,0.4,0,0.9-0.1,1.3c-0.1,0.6-0.4,1.1-0.7,1.7C1.1,49.8,1,49.9,1,50H2c0.3-0.4,0.5-0.8,0.5-1.4C2.6,47.9,2.3,47.3,1.9,46.7z  M1.1,45.3c-0.2,0.8-0.5,1.5-0.9,2.2c-0.1,0.8,0,1.6,0,2.4c0,0,0,0,0,0.1h0.3c0.3-0.6,0.7-1.2,0.9-1.8C1.6,47.2,1.5,46.2,1.1,45.3z  M0,42.2v4.9c0.4-0.8,0.8-1.6,0.8-2.5C0.8,43.7,0.4,42.9,0,42.2z M10.2,46.7c0,0.4,0,0.9-0.1,1.3c-0.1,0.6-0.4,1.1-0.7,1.7 c0,0.1-0.1,0.2-0.1,0.3h1.1c0.3-0.4,0.5-0.8,0.5-1.4C10.9,47.9,10.6,47.3,10.2,46.7z M9.5,45.3c-0.2,0.8-0.5,1.5-0.9,2.2 c-0.1,0.8,0,1.6,0,2.4c0,0,0,0,0,0.1h0.3c0.3-0.6,0.7-1.2,0.9-1.8C9.9,47.2,9.8,46.2,9.5,45.3z M11,49.9c0,0-0.1,0.1-0.1,0.1h0.8 c0-0.4-0.1-0.8-0.3-1.1C11.2,49.2,11.1,49.6,11,49.9z M6.5,48.1c-0.1-0.4-0.1-0.9-0.1-1.3c-0.4,0.5-0.7,1.2-0.7,1.9 c0,0.5,0.2,1,0.5,1.4h1.1c-0.1-0.1-0.1-0.2-0.1-0.3C6.9,49.2,6.7,48.7,6.5,48.1z M5.4,48.9C5.2,49.2,5.1,49.6,5,50h0.7 c-0.1-0.1-0.1-0.2-0.2-0.4C5.5,49.4,5.4,49.2,5.4,48.9z M8.1,47.5c-0.3-0.7-0.7-1.5-0.9-2.2c-0.4,0.9-0.5,1.9-0.2,2.9 c0.2,0.7,0.5,1.2,0.9,1.8h0.3c0,0,0,0,0-0.1C8.1,49.1,8.1,48.3,8.1,47.5z M7.5,44.6c0,0.9,0.4,1.7,0.8,2.5c0.4-0.8,0.8-1.6,0.8-2.5 c0-0.9-0.4-1.7-0.8-2.4C7.9,42.9,7.5,43.7,7.5,44.6z M14.9,48.1c-0.1-0.4-0.1-0.9-0.1-1.3c-0.4,0.5-0.7,1.2-0.7,1.9 c0,0.5,0.2,1,0.5,1.4h1.1c-0.1-0.1-0.1-0.2-0.1-0.3C15.2,49.2,15,48.7,14.9,48.1z M18.5,46.7c0,0.4,0,0.9-0.1,1.3 c-0.1,0.6-0.4,1.1-0.7,1.7c0,0.1-0.1,0.2-0.1,0.3h1.1c0.3-0.4,0.5-0.8,0.5-1.4C19.2,47.9,19,47.3,18.5,46.7z M13.7,48.9 c-0.2,0.3-0.3,0.7-0.3,1.1h0.7c-0.1-0.1-0.1-0.2-0.2-0.4C13.8,49.4,13.7,49.2,13.7,48.9z M19.3,49.9c0,0-0.1,0.1-0.1,0.1H20 c0-0.4-0.1-0.8-0.3-1.1C19.6,49.2,19.5,49.6,19.3,49.9z M17.8,45.3c-0.2,0.8-0.5,1.5-0.9,2.2c-0.1,0.8,0,1.6,0,2.4c0,0,0,0,0,0.1 h0.3c0.3-0.6,0.7-1.2,0.9-1.8C18.2,47.2,18.2,46.2,17.8,45.3z M15.9,44.6c0,0.9,0.4,1.7,0.8,2.5c0.4-0.8,0.8-1.6,0.8-2.5 c0-0.9-0.4-1.7-0.8-2.4C16.2,42.9,15.9,43.7,15.9,44.6z M16.4,47.5c-0.3-0.7-0.7-1.5-0.9-2.2c-0.4,0.9-0.5,1.9-0.2,2.9 c0.2,0.7,0.5,1.2,0.9,1.8h0.3c0,0,0,0,0-0.1C16.4,49.1,16.5,48.3,16.4,47.5z M26.1,45.3c-0.2,0.8-0.5,1.5-0.9,2.2 c-0.1,0.8,0,1.6,0,2.4c0,0,0,0,0,0.1h0.3c0.3-0.6,0.7-1.2,0.9-1.8C26.6,47.2,26.5,46.2,26.1,45.3z M27.6,49.9c0,0-0.1,0.1-0.1,0.1 h0.8c0-0.4-0.1-0.8-0.3-1.1C27.9,49.2,27.8,49.6,27.6,49.9z M24.7,47.5c-0.3-0.7-0.7-1.5-0.9-2.2c-0.4,0.9-0.5,1.9-0.2,2.9 c0.2,0.7,0.5,1.2,0.9,1.8h0.3c0,0,0,0,0-0.1C24.8,49.1,24.8,48.3,24.7,47.5z M26.9,46.7c0,0.4,0,0.9-0.1,1.3 c-0.1,0.6-0.4,1.1-0.7,1.7c0,0.1-0.1,0.2-0.1,0.3H27c0.3-0.4,0.5-0.8,0.5-1.4C27.6,47.9,27.3,47.3,26.9,46.7z M22,48.9 c-0.2,0.3-0.3,0.7-0.3,1.1h0.7c-0.1-0.1-0.1-0.2-0.2-0.4C22.1,49.4,22.1,49.2,22,48.9z M24.2,44.6c0,0.9,0.4,1.7,0.8,2.5 c0.4-0.8,0.8-1.6,0.8-2.5c0-0.9-0.4-1.7-0.8-2.4C24.6,42.9,24.2,43.7,24.2,44.6z M23.2,48.1c-0.1-0.4-0.1-0.9-0.1-1.3 c-0.4,0.5-0.7,1.2-0.7,1.9c0,0.5,0.2,1,0.5,1.4H24c-0.1-0.1-0.1-0.2-0.1-0.3C23.6,49.2,23.3,48.7,23.2,48.1z M33.1,47.5 c-0.3-0.7-0.7-1.5-0.9-2.2c-0.4,0.9-0.5,1.9-0.2,2.9c0.2,0.7,0.5,1.2,0.9,1.8h0.3c0,0,0,0,0-0.1C33.1,49.1,33.1,48.3,33.1,47.5z  M34.5,45.3c-0.2,0.8-0.5,1.5-0.9,2.2c-0.1,0.8,0,1.6,0,2.4c0,0,0,0,0,0.1h0.3c0.3-0.6,0.7-1.2,0.9-1.8 C34.9,47.2,34.8,46.2,34.5,45.3z M32.5,44.6c0,0.9,0.4,1.7,0.8,2.5c0.4-0.8,0.8-1.6,0.8-2.5c0-0.9-0.4-1.7-0.8-2.4 C32.9,42.9,32.5,43.7,32.5,44.6z M30.4,48.9c-0.2,0.3-0.3,0.7-0.3,1.1h0.7c-0.1-0.1-0.1-0.2-0.2-0.4C30.5,49.4,30.4,49.2,30.4,48.9z  M31.5,48.1c-0.1-0.4-0.1-0.9-0.1-1.3c-0.4,0.5-0.7,1.2-0.7,1.9c0,0.5,0.2,1,0.5,1.4h1.1c-0.1-0.1-0.1-0.2-0.1-0.3 C31.9,49.2,31.7,48.7,31.5,48.1z M36,49.9c0,0-0.1,0.1-0.1,0.1h0.8c0-0.4-0.1-0.8-0.3-1.1C36.2,49.2,36.1,49.6,36,49.9z M35.2,46.7 c0,0.4,0,0.9-0.1,1.3c-0.1,0.6-0.4,1.1-0.7,1.7c0,0.1-0.1,0.2-0.1,0.3h1.1c0.3-0.4,0.5-0.8,0.5-1.4C35.9,47.9,35.6,47.3,35.2,46.7z  M38.7,48.9c-0.2,0.3-0.3,0.7-0.3,1.1h0.7c-0.1-0.1-0.1-0.2-0.2-0.4C38.8,49.4,38.7,49.2,38.7,48.9z M41.4,47.5 c-0.3-0.7-0.7-1.5-0.9-2.2c-0.4,0.9-0.5,1.9-0.2,2.9c0.2,0.7,0.5,1.2,0.9,1.8h0.3c0,0,0,0,0-0.1C41.4,49.1,41.5,48.3,41.4,47.5z  M42.8,45.3c-0.2,0.8-0.5,1.5-0.9,2.2c-0.1,0.8,0,1.6,0,2.4c0,0,0,0,0,0.1h0.3c0.3-0.6,0.7-1.2,0.9-1.8 C43.2,47.2,43.2,46.2,42.8,45.3z M40.9,44.6c0,0.9,0.4,1.7,0.8,2.5c0.4-0.8,0.8-1.6,0.8-2.5c0-0.9-0.4-1.7-0.8-2.4 C41.2,42.9,40.9,43.7,40.9,44.6z M39.9,48.1c-0.1-0.4-0.1-0.9-0.1-1.3c-0.4,0.5-0.7,1.2-0.7,1.9c0,0.5,0.2,1,0.5,1.4h1.1 c-0.1-0.1-0.1-0.2-0.1-0.3C40.2,49.2,40,48.7,39.9,48.1z M44.3,49.9c0,0-0.1,0.1-0.1,0.1H45c0-0.4-0.1-0.8-0.3-1.1 C44.6,49.2,44.5,49.6,44.3,49.9z M43.5,46.7c0,0.4,0,0.9-0.1,1.3c-0.1,0.6-0.4,1.1-0.7,1.7c0,0.1-0.1,0.2-0.1,0.3h1.1 c0.3-0.4,0.5-0.8,0.5-1.4C44.2,47.9,44,47.3,43.5,46.7z M49.2,44.6c0,0.9,0.4,1.7,0.8,2.5c0,0,0,0,0,0v-4.9c0,0,0,0,0,0 C49.6,42.9,49.2,43.7,49.2,44.6z M48.2,48.1c-0.1-0.4-0.1-0.9-0.1-1.3c-0.4,0.5-0.7,1.2-0.7,1.9c0,0.5,0.2,1,0.5,1.4H49 c-0.1-0.1-0.1-0.2-0.1-0.3C48.6,49.2,48.3,48.7,48.2,48.1z M47,48.9c-0.2,0.3-0.3,0.7-0.3,1.1h0.7c-0.1-0.1-0.1-0.2-0.2-0.4 C47.1,49.4,47.1,49.2,47,48.9z M49.7,47.5c-0.3-0.7-0.7-1.5-0.9-2.2c-0.4,0.9-0.5,1.9-0.2,2.9c0.2,0.7,0.5,1.2,0.9,1.8h0.3 c0,0,0,0,0-0.1C49.8,49.1,49.8,48.3,49.7,47.5z"/>
</svg>