<svg height="512pt" viewBox="0 0 512 512.002" width="512pt" xmlns="http://www.w3.org/2000/svg" fill="#fff"><path d="m400.578125 330.199219h-48.578125c-8.28125 0-15 6.714843-15 15 0 8.28125 6.71875 15 15 15h48.578125c15.949219 0 28.925781 12.972656 28.925781 28.925781v63.949219c0 15.949219-12.976562 28.925781-28.925781 28.925781h-298.707031c2.609375-3.492188 5.316406-7.253906 8.027344-11.234375 19.976562-29.324219 30.101562-55.328125 30.101562-77.285156 0-38.597657-31.402344-70-70-70s-70 31.402343-70 70c0 21.957031 10.128906 47.960937 30.105469 77.285156 14.265625 20.945313 28.417969 35.929687 29.015625 36.558594 2.570312 2.710937 6.054687 4.339843 9.753906 4.617187.324219.039063.6875.0625 1.125.0625h330.578125c32.492187 0 58.925781-26.4375 58.925781-58.925781v-63.953125c0-32.492188-26.433594-58.925781-58.925781-58.925781zm-370.578125 63.28125c0-22.058594 17.945312-40 40-40s40 17.941406 40 40c0 25.796875-23.359375 60.210937-40 80.671875-16.640625-20.464844-40-54.875-40-80.671875zm0 0"/><path d="m261.746094 107.414062c8.285156 0 15-6.714843 15-15v-40.914062c0-8.285156-6.714844-15-15-15s-15 6.714844-15 15v40.914062c0 8.285157 6.714844 15 15 15zm0 0"/><path d="m187.382812 30h40.914063c8.285156 0 15-6.714844 15-15s-6.714844-15-15-15h-40.914063c-8.285156 0-15 6.714844-15 15s6.714844 15 15 15zm0 0"/><path d="m171.703125 297.34375c-8.28125 0-14.996094 6.714844-14.996094 15v12.855469c0 17.148437 12.261719 31.660156 29.152344 34.507812.847656.144531 1.683594.210938 2.511719.210938 7.191406 0 13.539062-5.183594 14.773437-12.507813 1.378907-8.167968-4.125-15.90625-12.296875-17.285156-2.359375-.398438-4.144531-2.519531-4.144531-4.929688v-12.855468c0-8.28125-6.714844-14.996094-15-14.996094zm0 0"/><path d="m156.707031 212.542969v38.425781c0 8.285156 6.714844 15 14.996094 15 8.285156 0 15-6.714844 15-15v-38.425781c0-1.441407-.089844-2.894531-.265625-4.324219-1.015625-8.21875-8.496094-14.0625-16.726562-13.042969-8.222657 1.015625-14.0625 8.503907-13.042969 16.726563.023437.207031.039062.425781.039062.640625zm0 0"/><path d="m261.75 138.789062c-.066406 0-.132812 0-.199219 0-8.285156.109376-14.910156 6.910157-14.800781 15.195313.25 19.042969 15.949219 34.535156 34.996094 34.535156h9.753906c8.285156 0 15-6.714843 15-15 0-8.285156-6.714844-15-15-15h-9.753906c-2.722656 0-4.964844-2.210937-5-4.929687-.109375-8.214844-6.800782-14.800782-14.996094-14.800782zm0 0"/><path d="m290.628906 330.199219h-40.917968c-8.285157 0-15 6.714843-15 15 0 8.28125 6.714843 15 15 15h40.917968c8.28125 0 15-6.71875 15-15 0-8.285157-6.71875-15-15-15zm0 0"/><path d="m85.09375 30h40.914062c8.285157 0 15-6.714844 15-15s-6.714843-15-15-15h-40.914062c-8.285156 0-15 6.714844-15 15s6.714844 15 15 15zm0 0"/><path d="m28.949219 84.714844c8.28125 0 15-6.714844 15-15v-34.714844c0-.53125.078125-1.042969.230469-1.527344 2.527343-7.894531-1.824219-16.335937-9.714844-18.859375-7.894532-2.527343-16.332032 1.824219-18.855469 9.714844-1.101563 3.445313-1.660156 7.035156-1.660156 10.671875v34.714844c0 8.285156 6.714843 15 15 15zm0 0"/><path d="m78.355469 207.542969h40.914062c8.285157 0 15-6.714844 15-15 0-8.285157-6.714843-15-15-15h-40.914062c-8.285157 0-15 6.714843-15 15 0 8.285156 6.714843 15 15 15zm0 0"/><path d="m28.949219 187.003906c8.28125 0 15-6.714844 15-15v-40.914062c0-8.285156-6.71875-15-15-15-8.285157 0-15 6.714844-15 15v40.914062c0 8.285156 6.714843 15 15 15zm0 0"/><path d="m507.601562 103.996094-75-75c-5.855468-5.855469-15.355468-5.855469-21.210937 0l-75 75c-5.859375 5.859375-5.859375 15.355468 0 21.214844 5.855469 5.855468 15.355469 5.855468 21.210937 0l.394532-.394532v33.703125h-5c-8.28125 0-15 6.714844-15 15 0 8.285157 6.71875 15 15 15l118 .082031c8.285156 0 15-6.714843 15-15v-48.785156l.394531.394532c2.925781 2.929687 6.765625 4.394531 10.605469 4.394531s7.679687-1.464844 10.605468-4.394531c5.859376-5.859376 5.859376-15.355469 0-21.214844zm-51.605468 54.605468h-68v-63.785156l34-34 34 34zm0 0"/><path d="m80.601562 403.710938c2.800782-2.792969 4.398438-6.660157 4.398438-10.609376 0-3.953124-1.597656-7.820312-4.398438-10.613281-2.789062-2.789062-6.648437-4.386719-10.601562-4.386719-3.949219 0-7.820312 1.597657-10.609375 4.386719-2.789063 2.792969-4.390625 6.660157-4.390625 10.613281 0 3.949219 1.601562 7.816407 4.390625 10.609376 2.800781 2.789062 6.660156 4.386718 10.609375 4.386718 3.953125 0 7.8125-1.597656 10.601562-4.386718zm0 0"/></svg>