<?xml version="1.0" encoding="utf-8"?>
<!-- Generator: Adobe Illustrator 24.0.1, SVG Export Plug-In . SVG Version: 6.00 Build 0)  -->
<svg version="1.1" id="Layer_1" xmlns="http://www.w3.org/2000/svg" xmlns:xlink="http://www.w3.org/1999/xlink" x="0px" y="0px"
	 viewBox="0 0 50 50" style="enable-background:new 0 0 50 50;" xml:space="preserve">
<style type="text/css">
	.st0{opacity:0.25;fill-rule:evenodd;clip-rule:evenodd;fill:#FFFFFF;}
</style>
<path class="st0" d="M46.6,30.1c0.7,0,1.1,0.4,1,1C47.1,31.2,46.6,30.8,46.6,30.1z M46.8,30.3c0,0.5,0.3,0.7,0.7,0.7
	C47.5,30.5,47.3,30.3,46.8,30.3z M24.3,25.7c0.1,0.9-0.3,1.6-1,2c-0.3,0.2-0.6,0.2-0.9,0.2c-0.2,0-0.2-0.1-0.3-0.3
	c0-0.3,0-0.7,0.2-1C22.8,25.9,23.5,25.6,24.3,25.7z M22.5,27.5c0.8,0.3,1.8-0.9,1.6-1.6C23.1,25.8,22.2,26.8,22.5,27.5z M7.8,9.1
	c0.1,0.8-0.3,1.6-0.9,2c-0.3,0.2-0.6,0.2-0.9,0.2c-0.2,0-0.3-0.1-0.3-0.3c-0.1-0.6,0.2-1.1,0.7-1.4C6.7,9.2,7.2,9.1,7.8,9.1z
	 M5.9,11c0.8,0.3,1.8-0.9,1.6-1.6C6.6,9.3,5.7,10.3,5.9,11z M5.7,5.7c1.1-0.4,2.3,0.8,2.1,2.1C7.1,7.8,6.6,7.7,6.1,7.2
	C5.7,6.8,5.5,6.3,5.7,5.7z M5.9,5.9C5.6,6.7,6.7,7.7,7.5,7.5C7.6,6.6,6.6,5.7,5.9,5.9z M40.8,40.9c-1.1,0.2-2.5-0.9-2-2
	C40,38.4,41.1,39.8,40.8,40.9z M40.6,40.6c0.1-1-1-1.9-1.6-1.6C38.9,39.9,39.7,40.7,40.6,40.6z M24.3,24.3c-0.8,0-1.4-0.2-1.9-0.9
	c-0.2-0.3-0.3-0.6-0.2-0.9c0-0.3,0.1-0.3,0.4-0.4c0.4,0,0.7,0.1,1,0.3C24.2,23,24.4,23.6,24.3,24.3z M24.1,24.1
	c0.2-0.8-0.9-1.9-1.6-1.6C22.2,23.3,23.3,24.2,24.1,24.1z M40.8,9.1c0.2,1.1-0.9,2.5-2,2C38.4,10.1,39.7,8.9,40.8,9.1z M39,11
	c0.8,0.2,1.7-0.8,1.6-1.6C39.9,9.2,38.8,10.1,39,11z M7.8,42.2c0.1,0.8-0.3,1.6-0.9,1.9c-0.3,0.2-0.6,0.2-0.9,0.2
	c-0.2,0-0.3-0.1-0.3-0.3c0-0.4,0.1-0.8,0.3-1.1C6.4,42.4,7.1,42.1,7.8,42.2z M7.5,42.5c-1-0.1-1.9,1-1.6,1.6
	C6.7,44.3,7.6,43.4,7.5,42.5z M40.8,7.8c-1.1,0.2-2.5-0.9-2-2C40,5.3,41.1,6.7,40.8,7.8z M39,5.9c-0.2,0.9,0.8,1.7,1.6,1.6
	C40.8,6.8,39.9,5.7,39,5.9z M40.8,42.2c0.1,0.8-0.3,1.6-0.9,2c-0.3,0.1-0.6,0.2-0.9,0.2c-0.2,0-0.3-0.1-0.3-0.3
	c-0.1-0.6,0.2-1,0.6-1.4C39.8,42.3,40.3,42.2,40.8,42.2z M39,44.1c0.8,0.3,1.7-0.7,1.6-1.6C39.7,42.4,38.9,43.2,39,44.1z M5.7,38.8
	c1.2-0.4,2.3,0.9,2,2C6.6,41.1,5.3,39.9,5.7,38.8z M5.9,39c-0.2,0.9,0.9,1.7,1.6,1.6C7.6,39.8,6.7,38.8,5.9,39z M42.2,42.2
	c0.9-0.1,1.8,0.4,2,1.2c0.1,0.3,0.2,0.6,0,0.8c-0.2,0.2-0.5,0.1-0.8,0C42.6,44.1,42,43,42.2,42.2z M44.1,44.1
	c0.3-0.8-0.8-1.8-1.6-1.6C42.4,43.5,43.4,44.3,44.1,44.1z M25.7,25.7c0.8-0.1,1.6,0.3,2,1c0.1,0.3,0.2,0.5,0.2,0.8
	c0,0.2-0.1,0.3-0.3,0.3c-0.7,0.1-1.1-0.3-1.5-0.8C25.7,26.6,25.6,26.2,25.7,25.7z M27.5,27.5c0.3-0.8-0.8-1.8-1.6-1.6
	C25.8,26.9,26.8,27.8,27.5,27.5z M42.2,9.2c1.1-0.2,2.2,0.6,2.2,1.7c0,0.4-0.1,0.4-0.4,0.5c-0.4,0-0.7-0.1-1-0.3
	C42.4,10.5,42.2,9.9,42.2,9.2z M42.5,9.4c-0.2,0.8,0.8,1.9,1.6,1.6C44.3,10.3,43.5,9.3,42.5,9.4z M9.1,9.1c0.9,0,1.5,0.2,2,1
	c0.2,0.3,0.2,0.6,0.2,0.9c0,0.2-0.1,0.3-0.3,0.3c-0.4,0-0.8-0.1-1.1-0.4C9.3,10.4,9.1,9.8,9.1,9.1z M11,11c0.2-0.7-0.7-1.7-1.6-1.6
	C9.2,10.3,10.3,11.3,11,11z M9.1,42.2c1-0.2,2.1,0.6,2.1,1.5c0,0.5-0.1,0.6-0.6,0.6c-0.4,0-0.7-0.2-0.9-0.4
	C9.3,43.5,9.1,42.9,9.1,42.2z M11,44.1c0.3-0.8-0.9-1.8-1.6-1.6C9.3,43.5,10.3,44.3,11,44.1z M42.2,40.9c-0.2-0.9,0.5-2,1.4-2.1
	c0.7-0.1,0.8,0,0.7,0.7c-0.1,0.4-0.3,0.8-0.7,1C43.2,40.8,42.8,40.9,42.2,40.9z M44.1,39c-0.9-0.2-1.7,0.8-1.6,1.6
	C43.3,40.7,44.3,39.8,44.1,39z M9.1,7.8C9,6.9,9.6,5.9,10.4,5.7c0.3-0.1,0.6-0.2,0.8,0c0.2,0.2,0.1,0.5,0,0.8
	c-0.2,0.6-0.6,0.9-1.1,1.1C9.8,7.8,9.5,7.8,9.1,7.8z M11,5.9c-0.8-0.3-1.8,0.8-1.6,1.6C10.4,7.5,11.2,6.7,11,5.9z M9.1,40.9
	c-0.2-0.9,0.5-2.1,1.6-2.1c0.4,0,0.5,0.1,0.5,0.5c0,0.3-0.1,0.6-0.3,0.9C10.5,40.7,9.9,40.9,9.1,40.9z M9.4,40.6
	c1,0,1.8-0.8,1.6-1.6C10.2,38.8,9.3,39.7,9.4,40.6z M25.7,24.3c-0.2-0.9,0.5-2.1,1.6-2.1c0.4,0,0.5,0.1,0.5,0.5
	c0,0.3-0.1,0.6-0.3,0.9C27.1,24.1,26.4,24.4,25.7,24.3z M27.5,22.5c-0.7-0.3-1.7,0.7-1.6,1.6C26.7,24.2,27.7,23.3,27.5,22.5z
	 M42.2,7.8c-0.2-0.8,0.4-1.7,1-2c0.3-0.1,0.7-0.3,1,0c0.3,0.3,0.1,0.7,0,1c-0.2,0.3-0.4,0.6-0.7,0.8C43.1,7.7,42.7,7.8,42.2,7.8z
	 M42.5,7.5c1,0,1.8-0.8,1.6-1.6C43.3,5.7,42.4,6.6,42.5,7.5z M22.3,5.8c1.2-0.4,2.2,0.9,2,2C23.4,8,22,7,22.3,5.8z M22.5,6
	c-0.1,0.8,0.7,1.7,1.6,1.5C24.1,6.6,23.2,5.7,22.5,6z M22.3,44.2c-0.4-1.1,0.8-2.2,2-2C24.5,43.2,23.5,44.6,22.3,44.2z M24.1,42.5
	c-1,0-1.8,0.9-1.6,1.6C23.2,44.3,24.1,43.3,24.1,42.5z M7.8,24.3c-1.1,0.2-2.3-0.9-2-2C6.7,21.9,7.9,23.1,7.8,24.3z M7.5,24.1
	c0.1-0.9-0.9-1.8-1.6-1.6C5.8,23.3,6.6,24.1,7.5,24.1z M22.3,11.1c-0.3-1.2,1-2.2,2-2C24.5,10.1,23.6,11.5,22.3,11.1z M22.5,10.9
	c0.8,0.2,1.7-0.8,1.6-1.6C23.2,9.3,22.3,10.2,22.5,10.9z M38.8,27.7c-0.3-1.1,0.9-2.2,2-2C41.1,26.7,40,28.1,38.8,27.7z M40.6,25.9
	c-0.9-0.1-1.8,0.9-1.5,1.6C39.9,27.7,40.7,26.6,40.6,25.9z M24.3,40.9c-1.1,0.2-2.4-0.9-2-2C23.5,38.5,24.5,39.9,24.3,40.9z
	 M24.1,40.6c0.1-0.8-0.9-1.8-1.6-1.5C22.4,39.9,23.2,40.6,24.1,40.6z M38.8,22.3c1.1-0.3,2.2,0.8,2,2c-0.4,0.2-1,0-1.5-0.4
	C38.9,23.5,38.7,23,38.8,22.3z M40.6,24.1c0.1-0.9-0.9-1.8-1.6-1.6C38.9,23.3,39.7,24.1,40.6,24.1z M7.8,25.7c0.2,1.1-0.8,2.4-2,2
	C5.4,26.7,6.5,25.5,7.8,25.7z M7.5,25.9c-0.9-0.1-1.8,0.9-1.5,1.6C6.8,27.7,7.6,26.6,7.5,25.9z M25.7,42.2c1.2-0.2,2.4,0.9,2,2
	C26.7,44.6,25.5,43.4,25.7,42.2z M27.5,44c0.2-0.8-0.8-1.7-1.6-1.6C25.8,43.2,26.6,44.2,27.5,44z M25.7,7.8c-0.2-1,0.8-2.4,2-2
	C28.1,6.8,26.8,8,25.7,7.8z M25.9,7.5c0.9,0.1,1.8-0.9,1.6-1.6C26.8,5.7,25.9,6.6,25.9,7.5z M42.2,24.3c-0.2-1,0.8-2.4,2-2
	C44.6,23.3,43.4,24.5,42.2,24.3z M44,22.5c-0.8-0.2-1.7,0.8-1.6,1.6C43.2,24.2,44.2,23.3,44,22.5z M27.7,11.1c-1.1,0.4-2.2-0.8-2-2
	C26.7,8.9,28.1,10,27.7,11.1z M27.5,11c0.1-0.9-0.8-1.7-1.6-1.5C25.9,10.3,26.7,11.1,27.5,11z M42.2,25.7c1.1-0.2,2.4,0.9,2,2
	C43.3,28.1,42.1,26.9,42.2,25.7z M42.5,25.9c-0.1,0.9,0.9,1.8,1.6,1.5C44.2,26.7,43.2,25.8,42.5,25.9z M27.7,38.9c0.4,1-0.8,2.2-2,2
	C25.4,39.9,26.5,38.5,27.7,38.9z M25.9,40.6c0.9,0.1,1.8-0.9,1.5-1.6C26.6,39,25.9,39.7,25.9,40.6z M9.1,24.3c-0.2-1.1,0.9-2.4,2-2
	C11.5,23.3,10.4,24.5,9.1,24.3z M10.9,22.5c-0.9-0.2-1.7,0.9-1.6,1.6C10.1,24.2,11.1,23.3,10.9,22.5z M9.1,25.7c1.1-0.2,2.4,0.9,2,2
	C10.2,28.1,9,26.9,9.1,25.7z M9.4,25.9c-0.1,0.9,0.8,1.8,1.6,1.6C11.2,26.9,10.3,25.9,9.4,25.9z M3.3,36.4c-0.7,0.1-1.1-0.3-1.1-1
	C2.9,35.3,3.4,35.7,3.3,36.4z M2.4,35.5c0,0.5,0.3,0.8,0.8,0.8C3.2,35.8,2.9,35.5,2.4,35.5z M19.9,19.9c-0.7,0.1-1.1-0.4-1.1-1.1
	C19.5,18.7,19.9,19.2,19.9,19.9z M19,19c0,0.5,0.3,0.8,0.8,0.8C19.7,19.3,19.5,19,19,19z M2.3,14.6c0-0.7,0.4-1.2,1.1-1.1
	C3.4,14.2,3,14.7,2.3,14.6z M2.4,14.5c0.5,0,0.8-0.3,0.8-0.8C2.7,13.7,2.4,13.9,2.4,14.5z M46.7,36.4c-0.1-0.7,0.3-1.1,1-1.1
	C47.9,36,47.4,36.5,46.7,36.4z M47.6,35.5c-0.5,0-0.8,0.3-0.8,0.8C47.3,36.3,47.6,36,47.6,35.5z M31.2,18.8c0,0.7-0.4,1.1-1.1,1.1
	C30,19.3,30.5,18.7,31.2,18.8z M31,19c-0.5,0-0.8,0.3-0.8,0.8C30.7,19.7,31,19.5,31,19z M47.7,2.3c0,0.7-0.4,1.1-1.1,1.1
	C46.5,2.7,47,2.2,47.7,2.3z M47.6,2.4c-0.5,0-0.8,0.3-0.8,0.8C47.3,3.2,47.5,2.9,47.6,2.4z M14.6,2.3c0.1,0.7-0.4,1.1-1.1,1.1
	C13.5,2.7,13.9,2.2,14.6,2.3z M13.7,3.2c0.5,0,0.8-0.3,0.8-0.8C14,2.4,13.7,2.7,13.7,3.2z M31.2,31.2c-0.6,0.1-1.1-0.4-1.1-1
	C30.7,30,31.2,30.5,31.2,31.2z M31,31c0-0.5-0.3-0.8-0.8-0.8C30.2,30.7,30.5,31,31,31z M14.6,14.6c-0.7,0-1.2-0.4-1.1-1.1
	C14.2,13.4,14.8,14.1,14.6,14.6z M13.7,13.7c0,0.5,0.3,0.9,0.8,0.8C14.4,14,14.2,13.8,13.7,13.7z M3.3,3.3C2.7,3.4,2.2,3,2.3,2.3
	C2.9,2.2,3.4,2.6,3.3,3.3z M2.4,2.4c0,0.5,0.3,0.8,0.8,0.8C3.2,2.7,2.9,2.4,2.4,2.4z M36.4,36.4c-0.7,0.1-1.2-0.4-1.1-1.1
	C36,35.3,36.5,35.7,36.4,36.4z M36.3,36.3c0-0.5-0.3-0.8-0.8-0.8C35.5,36,35.8,36.3,36.3,36.3z M46.7,46.7c0.6-0.2,1.2,0.5,1.1,1.1
	C47.1,47.8,46.6,47.3,46.7,46.7z M47.6,47.6c0-0.5-0.3-0.8-0.8-0.8C46.8,47.3,47.1,47.6,47.6,47.6z M35.4,14.6
	c0-0.7,0.4-1.2,1.1-1.1C36.5,14.2,36.1,14.7,35.4,14.6z M35.5,14.5c0.5,0,0.8-0.3,0.8-0.8C35.8,13.7,35.5,14,35.5,14.5z M2.3,47.7
	c-0.1-0.7,0.4-1.2,1.1-1.1C3.4,47.3,3,47.8,2.3,47.7z M2.4,47.6c0.5,0,0.8-0.3,0.8-0.8C2.7,46.8,2.5,47,2.4,47.6z M13.6,46.7
	c0.6-0.2,1.2,0.5,1.1,1C14,47.9,13.5,47.3,13.6,46.7z M13.7,46.8c0,0.5,0.3,0.8,0.8,0.8C14.5,47.1,14.2,46.8,13.7,46.8z M47.7,14.6
	c-0.6,0.1-1.1-0.4-1.1-1C47.3,13.4,47.8,13.9,47.7,14.6z M47.6,14.5c0-0.5-0.3-0.8-0.8-0.8C46.8,14.2,47,14.4,47.6,14.5z M36.4,3.3
	c-0.7,0.1-1.1-0.3-1.1-1.1C36,2.2,36.5,2.7,36.4,3.3z M35.5,2.4c0,0.5,0.3,0.8,0.8,0.8C36.3,2.7,36.1,2.5,35.5,2.4z M35.4,47.7
	c-0.1-0.7,0.4-1.1,1-1.1C36.6,47.3,36.1,47.8,35.4,47.7z M36.3,46.8c-0.5,0-0.8,0.3-0.8,0.8C36,47.6,36.3,47.3,36.3,46.8z
	 M18.8,31.2c0-0.7,0.4-1.1,1.1-1.1C20,30.7,19.5,31.2,18.8,31.2z M19.7,30.2c-0.5,0-0.8,0.3-0.8,0.8C19.5,31,19.7,30.8,19.7,30.2z
	 M13.6,36.4c0-0.7,0.4-1.2,1.1-1.1C14.7,36,14.3,36.5,13.6,36.4z M14.5,35.5c-0.5,0-0.8,0.3-0.8,0.8C14.2,36.3,14.4,36,14.5,35.5z
	 M3.3,19.9c-0.6,0-1-0.3-1-1C2.9,18.8,3.4,19.2,3.3,19.9z M2.4,19c0.1,0.5,0.3,0.7,0.7,0.7C3.2,19.3,3,19.1,2.4,19z M35.4,18.9
	c0.7,0,1.1,0.4,1,1C35.8,19.9,35.4,19.6,35.4,18.9z M35.5,19c0.1,0.5,0.3,0.7,0.7,0.7C36.2,19.3,36.1,19.1,35.5,19z M30.1,36.4
	c0-0.6,0.4-1,1-1C31.2,36.1,30.7,36.5,30.1,36.4z M30.2,36.3c0.5,0,0.7-0.2,0.7-0.7C30.5,35.6,30.3,35.8,30.2,36.3z M13.5,19.9
	c0-0.7,0.4-1,1-1C14.6,19.5,14.2,19.9,13.5,19.9z M13.7,19.7c0.5,0,0.7-0.3,0.7-0.7C13.9,19.1,13.7,19.3,13.7,19.7z M18.8,14.6
	c0-0.7,0.4-1,1-1C20,14.2,19.5,14.7,18.8,14.6z M19.7,13.7C19.2,13.8,19,14,19,14.4C19.5,14.4,19.7,14.2,19.7,13.7z M36.4,30.1
	c0.1,0.6-0.3,1-1,1C35.3,30.6,35.8,30.1,36.4,30.1z M35.6,31c0.5,0,0.8-0.3,0.7-0.7C35.8,30.3,35.6,30.5,35.6,31z M2.3,31.1
	c0-0.7,0.4-1,1-1C3.4,30.7,2.9,31.2,2.3,31.1z M3.2,30.2c-0.5,0.1-0.7,0.3-0.7,0.7C2.9,31,3.2,30.7,3.2,30.2z M19.9,46.7
	c0.1,0.6-0.4,1.1-1,1C18.8,47,19.2,46.6,19.9,46.7z M19,47.5c0.5-0.1,0.7-0.3,0.7-0.7C19.3,46.9,19.1,47.1,19,47.5z M30.1,46.7
	c0.6-0.1,1.1,0.4,1,1C30.5,47.7,30.1,47.3,30.1,46.7z M31,47.5c0-0.5-0.3-0.7-0.7-0.7C30.3,47.2,30.5,47.4,31,47.5z M19.9,36.4
	c-0.6,0-1-0.3-1-1C19.4,35.3,19.9,35.8,19.9,36.4z M19,35.6c0.1,0.5,0.3,0.7,0.7,0.7C19.7,35.8,19.5,35.6,19,35.6z M31.1,2.3
	c0,0.7-0.4,1.1-1,1C30,2.7,30.4,2.3,31.1,2.3z M30.2,3.2c0.5,0,0.7-0.3,0.7-0.7C30.5,2.5,30.3,2.7,30.2,3.2z M46.6,19.9
	c0-0.7,0.4-1,1-1C47.7,19.5,47.3,19.9,46.6,19.9z M47.5,19c-0.5,0.1-0.7,0.3-0.7,0.7C47.2,19.7,47.5,19.5,47.5,19z M13.6,30.1
	c0.7,0,1,0.4,1,1C14,31.2,13.5,30.8,13.6,30.1z M14.4,31c0-0.5-0.3-0.7-0.7-0.7C13.7,30.7,13.9,30.9,14.4,31z M18.9,2.3
	c0.6-0.1,1.1,0.4,1,1C19.3,3.4,18.8,3,18.9,2.3z M19.7,3.2c0-0.5-0.3-0.7-0.7-0.7C19.1,2.9,19.3,3.1,19.7,3.2z M31.1,14.6
	c-0.7,0-1.1-0.4-1-1C30.7,13.5,31.2,13.9,31.1,14.6z M30.2,13.7c0.1,0.5,0.3,0.7,0.7,0.7C31,14,30.7,13.7,30.2,13.7z"/>
</svg>
