<svg height="512pt" viewBox="-19 0 512 512" width="512pt" xmlns="http://www.w3.org/2000/svg"><path d="m383.734375 341.933594-6.921875-28.445313c-.117188-.484375.179688-.972656.664062-1.089843 2.855469-.695313 5.660157-1.046876 8.332032-1.046876.394531 0 .789062.007813 1.179687.023438l1.210938.046875-3.171875-20.796875c-.03125-.191406.015625-.386719.132812-.539062.113282-.160157.285156-.261719.476563-.289063 1.738281-.265625 3.449219-.398437 5.085937-.398437 2.734375 0 5.351563.375 7.78125 1.113281l1.003906.308593.257813-1.019531c1.339844-5.335937 3.980469-10.203125 7.59375-14.207031v-58.050781l-.957031-.042969c-4.894532-.214844-9.738282-.710938-14.515625-1.46875-27.53125 13.492188-46.492188 41.765625-46.492188 74.480469v193.394531h61.964844v-118.484375c-11.488281-2.710937-20.738281-11.613281-23.625-23.488281zm0 0" fill="#abebff"/><path d="m81.800781 216.03125c-4.777343.757812-9.625 1.253906-14.519531 1.46875l-.953125.042969v57.53125c3.894531 4.390625 6.613281 9.78125 7.773437 15.648437l.210938 1.058594 1.035156-.289062c2.171875-.597657 4.488282-.898438 6.882813-.898438 2.0625 0 4.234375.226562 6.457031.667969.394531.082031.652344.464843.574219.859375l-4.144531 20.625 1.210937.011718c3.039063.023438 6.21875.515626 9.453125 1.464844.234375.066406.425781.222656.539062.433594.117188.210938.144532.453125.074219.683594l-8.242187 28.09375c-3.105469 10.585937-11.539063 18.640625-21.828125 21.628906v118.84375h61.964843v-193.394531c.003907-32.714844-18.957031-60.988281-46.488281-74.480469zm0 0" fill="#abebff"/><path d="m229.34375 354.15625h15v129.75h-15zm0 0" fill="#72563c"/><path d="m407.359375 380.175781c-1.71875-3.046875-3.839844-5.890625-6.375-8.421875-9.054687-9.046875-21.996094-13.0625-34.613281-10.742187-.792969.144531-1.503906.53125-2.050782 1.074219-.542968.546874-.925781 1.253906-1.074218 2.046874-2.320313 12.605469 1.699218 25.53125 10.757812 34.582032 8.753906 8.746094 21.140625 12.769531 33.355469 10.933594zm0 0" fill="#99ce19"/><path d="m407.359375 409.105469c-7.070313-1.597657-13.660156-5.128907-18.929687-10.394531-9.054688-9.046876-13.074219-21.972657-10.753907-34.578126.144531-.792968.53125-1.5 1.074219-2.046874.515625-.515626 1.179688-.878907 1.921875-1.039063-4.660156-.878906-9.503906-.917969-14.300781-.035156-.792969.144531-1.503906.527343-2.050782 1.074219-.542968.542968-.925781 1.253906-1.074218 2.046874-2.320313 12.605469 1.699218 25.53125 10.753906 34.578126 8.757812 8.75 21.144531 12.773437 33.359375 10.9375zm0 0" fill="#81aa00"/><path d="m469.867188 364.132812c-.144532-.792968-.53125-1.5-1.074219-2.046874-.546875-.542969-1.253907-.929688-2.050781-1.074219-12.617188-2.320313-25.554688 1.695312-34.613282 10.742187-2.304687 2.304688-4.277344 4.859375-5.910156 7.597656v30.367188c12.066406 1.667969 24.25-2.367188 32.894531-11.003906 9.054688-9.050782 13.078125-21.976563 10.753907-34.582032zm0 0" fill="#99ce19"/><path d="m466.871094 361.046875c-.042969-.011719-.082032-.027344-.128906-.035156-12.617188-2.320313-25.554688 1.695312-34.613282 10.742187-2.304687 2.304688-4.277344 4.859375-5.910156 7.597656v30.378907c4.234375.585937 8.476562.464843 12.582031-.308594-.742187-.164063-1.402343-.527344-1.917969-1.039063-.546874-.546874-.933593-1.253906-1.078124-2.046874-2.320313-12.605469 1.699218-25.535157 10.753906-34.582032 5.613281-5.605468 12.71875-9.277344 20.3125-10.707031zm0 0" fill="#81aa00"/><path d="m47.464844 380.175781c-1.71875-3.046875-3.839844-5.890625-6.375-8.421875-9.054688-9.046875-21.996094-13.0625-34.613282-10.742187-.792968.144531-1.503906.53125-2.046874 1.074219-.546876.546874-.929688 1.253906-1.078126 2.046874-2.320312 12.605469 1.699219 25.53125 10.753907 34.582032 8.757812 8.746094 21.140625 12.769531 33.359375 10.933594zm0 0" fill="#99ce19"/><path d="m47.464844 409.070312c-7.015625-1.617187-13.550782-5.132812-18.78125-10.355468-9.054688-9.050782-13.074219-21.976563-10.753906-34.582032.144531-.792968.53125-1.5 1.074218-2.046874.5-.5 1.140625-.851563 1.855469-1.023438-4.683594-.890625-9.554687-.9375-14.382813-.050781-.792968.144531-1.503906.53125-2.046874 1.074219-.546876.546874-.929688 1.253906-1.078126 2.046874-2.320312 12.605469 1.699219 25.53125 10.753907 34.582032 8.757812 8.746094 21.140625 12.769531 33.359375 10.933594zm0 0" fill="#81aa00"/><path d="m109.972656 364.132812c-.144531-.792968-.53125-1.5-1.074218-2.046874-.546876-.542969-1.253907-.929688-2.050782-1.074219-12.617187-2.320313-25.554687 1.695312-34.613281 10.742187-2.300781 2.300782-4.273437 4.855469-5.90625 7.59375v30.371094c12.066406 1.667969 24.246094-2.371094 32.894531-11.003906 9.050782-9.050782 13.074219-21.976563 10.75-34.582032zm0 0" fill="#99ce19"/><path d="m108.21875 361.558594c-.414062-.257813-.871094-.453125-1.371094-.546875-12.617187-2.320313-25.554687 1.699219-34.613281 10.742187-2.300781 2.304688-4.273437 4.859375-5.90625 7.59375v30.378906c5.035156.691407 10.089844.394532 14.898437-.816406-.242187-.15625-.472656-.324218-.679687-.527344-.542969-.546874-.929687-1.253906-1.074219-2.046874-2.324218-12.605469 1.699219-25.53125 10.753906-34.582032 5.035157-5.03125 11.277344-8.5 17.992188-10.195312zm0 0" fill="#81aa00"/><g fill="#9b5729"><path d="m416.21875 268.609375c.339844-.179687.722656-.277344 1.105469-.277344.457031.011719.851562.125 1.195312.332031 3.355469 2.015626 6.285157 4.601563 8.699219 7.59375v-60.019531c-4.960938.578125-10.003906.886719-15.125.886719-1.921875 0-3.832031-.050781-5.734375-.132812v59.761718c2.710937-3.296875 6.042969-6.082031 9.859375-8.144531zm0 0"/><path d="m417.40625 366.347656h-.003906l-2.648438-.0625c-2.894531 0-5.710937-.390625-8.394531-1.113281v118.738281h20.859375v-119.140625c-3.117188 1.015625-6.421875 1.578125-9.8125 1.578125zm0 0"/><path d="m56.324219 268.609375c.339843-.179687.722656-.277344 1.105469-.277344.457031.011719.851562.125 1.195312.332031 3.355469 2.015626 6.285156 4.601563 8.699219 7.597657v-59.269531c-1.902344.082031-3.8125.132812-5.734375.132812-5.117188 0-10.164063-.308594-15.125-.886719v60.515625c2.710937-3.296875 6.042968-6.082031 9.859375-8.144531zm0 0"/><path d="m57.511719 366.347656-2.65625-.0625c-2.890625 0-5.707031-.390625-8.390625-1.113281v118.738281h20.863281v-119.140625c-3.121094 1.015625-6.421875 1.578125-9.816406 1.578125zm0 0"/></g><path d="m312.304688 43.539062c-1.222657 7.503907-4.742188 14.421876-10.230469 19.902344l-18.558594 18.542969c-.164063 2.625-.253906 5.273437-.253906 7.941406 0 71.082031 57.679687 128.707031 128.832031 128.707031 5.121094 0 10.164062-.3125 15.125-.890624v-43.921876c0-66.929687-50.121094-122.164062-114.914062-130.28125zm0 0" fill="#def9ff"/><path d="m312.304688 43.554688c-.421876 2.570312-1.113282 5.074218-2.0625 7.472656-.40625 4.144531-.636719 8.335937-.636719 12.585937 0 67.304688 51.71875 122.535157 117.613281 128.214844v-18.007813c0-66.929687-50.125-122.144531-114.914062-130.265624zm0 0" fill="#abebff"/><path d="m426.988281 166.066406c-3.304687-56.667968-42.574219-103.691406-95.34375-118.609375 2.5 57.019531 42.132813 104.398438 95.34375 118.609375zm0 0" fill="#def9ff"/><path d="m171.613281 63.441406c-5.488281-5.480468-9.011719-12.398437-10.234375-19.902344-64.792968 8.117188-114.914062 63.351563-114.914062 130.28125v43.925782c4.960937.578125 10.007812.886718 15.125.886718 71.152344 0 128.832031-57.625 128.832031-128.707031 0-2.667969-.089844-5.316406-.25-7.941406zm0 0" fill="#def9ff"/><path d="m161.378906 43.554688c-64.789062 8.121093-114.914062 63.335937-114.914062 130.265624v18.007813c65.898437-5.679687 117.617187-60.910156 117.617187-128.214844 0-4.25-.234375-8.4375-.640625-12.582031-.949218-2.398438-1.640625-4.902344-2.0625-7.476562zm0 0" fill="#abebff"/><path d="m46.699219 166.066406c3.300781-56.667968 42.570312-103.691406 95.339843-118.609375-2.5 57.019531-42.132812 104.398438-95.339843 118.609375zm0 0" fill="#def9ff"/><path d="m473.683594 506.847656c0 2.835938-2.316406 5.152344-5.152344 5.152344h-463.378906c-2.832032 0-5.152344-2.316406-5.152344-5.152344v-18.789062c0-2.832032 2.320312-5.148438 5.152344-5.148438h463.378906c2.835938 0 5.152344 2.316406 5.152344 5.148438zm0 0" fill="#ff99a3"/><path d="m32.195312 506.847656v-18.789062c0-2.832032 2.316407-5.148438 5.152344-5.148438h-32.195312c-2.832032 0-5.152344 2.316406-5.152344 5.148438v18.789062c0 2.835938 2.320312 5.152344 5.152344 5.152344h32.195312c-2.835937 0-5.152344-2.316406-5.152344-5.152344zm0 0" fill="#ff788c"/><path d="m236.84375 126.957031c-1.980469 0-3.839844-.773437-5.242188-2.167969l-60.695312-60.640624c-7.105469-7.097657-11.019531-16.535157-11.019531-26.570313 0-10.039063 3.914062-19.472656 11.019531-26.570313 7.101562-7.097656 16.546875-11.007812 26.59375-11.007812 10.050781 0 19.496094 3.910156 26.601562 11.007812l12.742188 12.726563 12.738281-12.726563c7.109375-7.097656 16.554688-11.007812 26.601563-11.007812s19.492187 3.910156 26.597656 11.007812c7.101562 7.097657 11.015625 16.535157 11.015625 26.570313 0 10.039063-3.910156 19.476563-11.015625 26.570313l-60.695312 60.640624c-1.40625 1.398438-3.265626 2.167969-5.242188 2.167969zm0 0" fill="#ff99a3"/><path d="m185.480469 49.578125c-3.253907-3.25-4.976563-7.402344-4.976563-12s1.71875-8.746094 4.972656-11.996094c3.261719-3.257812 7.417969-4.976562 12.023438-4.976562 4.609375 0 8.765625 1.71875 12.023438 4.972656l12.746093 12.734375c4.019531 4.019531 9.300781 6.027344 14.574219 6.027344s10.546875-2.007813 14.570312-6.03125l12.742188-12.730469c3.257812-3.253906 7.417969-4.972656 12.027344-4.972656 4.605468 0 8.761718 1.71875 12.015625 4.972656 3.261719 3.253906 4.980469 7.402344 4.980469 12.003906 0 4.597657-1.722657 8.746094-4.976563 11.996094l-51.363281 51.316406zm0 0" fill="#ff788c"/><path d="m206.769531 49.578125c-3.253906-3.25-4.972656-7.402344-4.972656-12s1.71875-8.746094 4.972656-11.996094c.441407-.441406.902344-.851562 1.378907-1.234375-3.019532-2.453125-6.664063-3.742187-10.644532-3.742187-4.605468 0-8.765625 1.71875-12.023437 4.976562-3.253907 3.25-4.972657 7.398438-4.972657 11.996094s1.71875 8.75 4.972657 12l51.363281 51.3125 10.644531-10.632813zm0 0" fill="#f66"/><path d="m47.417969 295.410156c3.339843 2.894532 6.203125 6.835938 8.515625 11.722656l.851562 1.800782.9375-1.761719c2.535156-4.769531 5.582032-8.578125 9.054688-11.308594 2.585937-2.035156 5.429687-3.46875 8.496094-4.324219-1.628907-9.769531-7.460938-18.519531-16.128907-23.730468-.503906-.304688-1.070312-.460938-1.636719-.476563-.566406-.011719-1.140624.121094-1.65625.398438-8.863281 4.78125-15.082031 13.195312-17.191406 22.820312 3.203125.988281 6.140625 2.597657 8.757813 4.859375zm0 0" fill="#f66"/><path d="m62.667969 270.257812c-1.117188-.882812-2.289063-1.707031-3.527344-2.449218-.503906-.304688-1.066406-.460938-1.632813-.476563-.570312-.011719-1.140624.121094-1.65625.398438-8.863281 4.78125-15.082031 13.195312-17.191406 22.820312 3.0625.941407 5.875 2.460938 8.402344 4.570313 3.007812-8.335938 9.21875-19.234375 15.605469-24.863282zm0 0" fill="#fe3745"/><path d="m27.289062 311.394531c5.371094.246094 10.300782 1.945313 14.660157 5.101563 5.300781 3.832031 9.789062 9.757812 13.347656 17.609375l.855469 1.890625.945312-1.847656c3.917969-7.679688 8.683594-13.386719 14.152344-16.96875 4.492188-2.941407 9.484375-4.433594 14.84375-4.433594.015625 0 .027344.003906.042969.003906l4.105469-20.433594c.183593-.933594-.421876-1.84375-1.359376-2.035156-8.796874-1.761719-16.445312-.148438-22.726562 4.796875-3.609375 2.84375-6.722656 6.738281-9.320312 11.625-2.367188-5.003906-5.289063-9.039063-8.765626-12.046875-6.042968-5.230469-13.605468-7.199219-22.476562-5.851562-.945312.144531-1.597656 1.023437-1.449219 1.96875zm0 0" fill="#ff99a3"/><path d="m35.480469 290.773438c-.121094-.789063.316406-1.527344 1.011719-1.832032-3.371094-.679687-7.007813-.726562-10.898438-.136718-.945312.144531-1.59375 1.023437-1.449219 1.96875l3.144531 20.621093c4.371094.199219 8.445313 1.378907 12.164063 3.507813zm0 0" fill="#ff788c"/><path d="m96.066406 313.261719c-9.472656-2.773438-18.003906-1.738281-25.363281 3.078125-5.644531 3.695312-10.492187 9.515625-14.496094 17.351562-3.628906-8.015625-8.203125-14.054687-13.671875-18.007812-7.125-5.152344-15.601562-6.585938-25.1875-4.257813-1.023437.25-1.648437 1.277344-1.398437 2.300781l6.917969 28.445313c3.703124 15.210937 17.503906 25.371094 32.558593 25.109375h.007813c15.015625.957031 29.273437-8.542969 33.679687-23.5625l8.242188-28.097656c.296875-1.007813-.28125-2.0625-1.289063-2.359375zm0 0" fill="#f66"/><path d="m35.585938 342.171875-6.921876-28.449219c-.246093-1.019531.378907-2.046875 1.398438-2.296875.679688-.164062 1.355469-.308593 2.023438-.433593-4.554688-.980469-9.476563-.847657-14.742188.433593-1.019531.25-1.644531 1.277344-1.398438 2.296875l6.921876 28.449219c3.699218 15.210937 17.503906 25.367187 32.554687 25.105469h.007813c2.46875.160156 4.914062.027344 7.304687-.355469-12.847656-1.925781-23.898437-11.386719-27.148437-24.75zm0 0" fill="#fe3745"/><path d="m407.308594 295.410156c3.34375 2.898438 6.210937 6.839844 8.519531 11.71875l.851563 1.804688.933593-1.761719c2.539063-4.773437 5.585938-8.578125 9.058594-11.308594 2.585937-2.035156 5.429687-3.46875 8.496094-4.328125-1.628907-9.765625-7.460938-18.515625-16.128907-23.726562-.503906-.304688-1.070312-.460938-1.636718-.476563-.566406-.011719-1.136719.117188-1.65625.398438-8.863282 4.78125-15.082032 13.195312-17.191406 22.820312 3.203124.988281 6.140624 2.597657 8.753906 4.859375zm0 0" fill="#f66"/><path d="m422.5625 270.257812c-1.117188-.882812-2.289062-1.707031-3.527344-2.449218-.503906-.304688-1.066406-.460938-1.632812-.476563-.566406-.011719-1.140625.121094-1.65625.398438-8.863282 4.78125-15.082032 13.195312-17.191406 22.820312 3.0625.941407 5.875 2.460938 8.402343 4.570313 3.007813-8.335938 9.21875-19.234375 15.605469-24.863282zm0 0" fill="#fe3745"/><path d="m387.183594 311.394531c5.371094.246094 10.300781 1.945313 14.660156 5.101563 5.300781 3.832031 9.789062 9.753906 13.347656 17.609375l.855469 1.890625.945313-1.847656c3.917968-7.679688 8.683593-13.386719 14.152343-16.96875 4.492188-2.941407 9.488281-4.433594 14.84375-4.433594.015625 0 .03125.003906.042969.003906l4.101562-20.433594c.1875-.933594-.417968-1.84375-1.355468-2.035156-8.796875-1.761719-16.441406-.148438-22.726563 4.796875-3.613281 2.84375-6.722656 6.734375-9.320312 11.625-2.367188-5.003906-5.292969-9.039063-8.765625-12.046875-6.042969-5.230469-13.605469-7.199219-22.476563-5.851562-.945312.144531-1.59375 1.023437-1.449219 1.96875zm0 0" fill="#ff99a3"/><path d="m395.375 290.773438c-.121094-.789063.3125-1.527344 1.011719-1.832032-3.371094-.679687-7.007813-.726562-10.898438-.136718-.945312.144531-1.59375 1.023437-1.449219 1.96875l3.144532 20.621093c4.371094.199219 8.445312 1.378907 12.164062 3.507813zm0 0" fill="#ff788c"/><path d="m455.960938 313.261719c-9.472657-2.773438-18.003907-1.738281-25.363282 3.078125-5.644531 3.695312-10.496094 9.515625-14.496094 17.351562-3.632812-8.015625-8.203124-14.054687-13.671874-18.007812-7.125-5.152344-15.601563-6.585938-25.191407-4.257813-1.019531.25-1.644531 1.277344-1.394531 2.300781l6.917969 28.445313c3.703125 15.210937 17.503906 25.371094 32.558593 25.109375 15.023438.957031 29.28125-8.542969 33.6875-23.5625l8.246094-28.097656c.292969-1.007813-.285156-2.0625-1.292968-2.359375zm0 0" fill="#f66"/><path d="m395.480469 342.164062-6.921875-28.445312c-.246094-1.019531.378906-2.046875 1.398437-2.296875.679688-.164063 1.355469-.308594 2.023438-.433594-4.554688-.984375-9.480469-.847656-14.742188.433594-1.019531.25-1.648437 1.277344-1.398437 2.296875l6.917968 28.445312c3.703126 15.214844 17.503907 25.371094 32.558594 25.109376h.007813c2.46875.160156 4.914062.027343 7.300781-.359376-12.84375-1.921874-23.894531-11.382812-27.144531-24.75zm0 0" fill="#fe3745"/><path d="m309.460938 350.003906c0 2.832032-2.320313 5.152344-5.152344 5.152344h-134.929688c-2.835937 0-5.15625-2.320312-5.15625-5.152344v-83.492187c0-2.832031 2.320313-5.152344 5.15625-5.152344h134.929688c2.832031 0 5.152344 2.320313 5.152344 5.152344zm0 0" fill="#ffe2b8"/><path d="m185.40625 350.003906v-83.492187c0-2.832031 2.320312-5.152344 5.15625-5.152344h-21.183594c-2.835937 0-5.15625 2.320313-5.15625 5.152344v83.492187c0 2.832032 2.320313 5.152344 5.15625 5.152344h21.183594c-2.835938 0-5.15625-2.320312-5.15625-5.152344zm0 0" fill="#eac092"/><path d="m275.960938 304.292969h-78.238282c-4.140625 0-7.5-3.355469-7.5-7.5 0-4.140625 3.359375-7.5 7.5-7.5h78.238282c4.144531 0 7.5 3.359375 7.5 7.5 0 4.144531-3.355469 7.5-7.5 7.5zm0 0" fill="#b57a4e"/><path d="m255.964844 327.222656h-38.246094c-4.144531 0-7.5-3.359375-7.5-7.5 0-4.144531 3.355469-7.5 7.5-7.5h38.246094c4.144531 0 7.5 3.355469 7.5 7.5 0 4.140625-3.355469 7.5-7.5 7.5zm0 0" fill="#b57a4e"/></svg>