<svg xmlns="http://www.w3.org/2000/svg" viewBox="0 0 100 45">
	<title>Tema Amba</title>
	<linearGradient id="gradient" gradientUnits="userSpaceOnUse" x1="7.2945" y1="3.7338" x2="93.1187" y2="53.2845">
		<stop offset="0" style="stop-color:#ad46b9"/>
		<stop offset="1" style="stop-color:#842590"/>
	</linearGradient>
	<path fill="url(#gradient)" d="M19.28,20.227c0,-1.76 0.59,-3.26 1.77,-4.5c1.18,-1.24 2.61,-1.86 4.29,-1.86c1.68,0 3.11,0.62 4.29,1.86c1.18,1.24 1.77,2.74 1.77,4.5l0,23.07l-4.05,0l0,-4.05l-4.02,0l0,4.05l-4.05,0l0,-23.07Zm35.13,-5.79l6.24,0c0.06,0 0.12,0.01 0.18,0.03c1.58,0.08 2.925,0.705 4.035,1.875c1.11,1.17 1.665,2.555 1.665,4.155c0,1.58 -0.53,2.94 -1.59,4.08c1.06,1.22 1.59,2.65 1.59,4.29l0,8.07c0,1.76 -0.59,3.26 -1.77,4.5c-1.18,1.24 -2.61,1.86 -4.29,1.86l-6.06,0l0,-28.86Zm15.72,5.79c0,-1.76 0.59,-3.26 1.77,-4.5c1.18,-1.24 2.61,-1.86 4.29,-1.86c1.68,0 3.11,0.62 4.29,1.86c1.18,1.24 1.77,2.74 1.77,4.5l0,23.07l-4.05,0l0,-4.05l-4.02,0l0,4.05l-4.05,0l0,-23.07Zm-19.02,23.07l-4.05,0l-0,-17.01l-4.02,5.58l-4.05,-5.58l-0,17.01l-4.02,0l-0,-29.43l8.07,11.13l8.07,-11.13l-0,29.43Zm7.35,-16.74l-0,12.69l2.01,0c0.56,0 1.035,-0.225 1.425,-0.675c0.39,-0.45 0.585,-0.995 0.585,-1.635l-0,-8.07c-0,-0.64 -0.195,-1.185 -0.585,-1.635c-0.39,-0.45 -0.865,-0.675 -1.425,-0.675l-2.01,0Zm-31.11,8.67l-0,-15c-0,-0.64 -0.195,-1.185 -0.585,-1.635c-0.39,-0.45 -0.865,-0.675 -1.425,-0.675c-0.56,0 -1.035,0.225 -1.425,0.675c-0.39,0.45 -0.585,0.995 -0.585,1.635l-0,15l4.02,0Zm50.85,0l0,-15c0,-0.64 -0.195,-1.185 -0.585,-1.635c-0.39,-0.45 -0.865,-0.675 -1.425,-0.675c-0.56,0 -1.035,0.225 -1.425,0.675c-0.39,0.45 -0.585,0.995 -0.585,1.635l-0,15l4.02,0Zm-19.74,-16.74l-0,4.02l2.31,0c0.48,-0.08 0.885,-0.31 1.215,-0.69c0.33,-0.38 0.495,-0.82 0.495,-1.32c-0,-0.56 -0.195,-1.035 -0.585,-1.425c-0.39,-0.39 -0.865,-0.585 -1.425,-0.585l-2.01,0Z" style="fill-rule:nonzero;"/>
	<path fill="#000" d="M38.745,1.049c0.06,-0 0.108,0.012 0.168,0.012l0.42,-0c0.264,-0 0.504,0.012 0.684,0.024c0.18,0.012 0.312,0.024 0.432,0.072c0.072,0.024 0.144,0.108 0.144,0.192c-0,0.12 -0.096,0.216 -0.216,0.216c-0.024,-0 -0.06,-0 -0.084,-0.012c-0,-0 -0.132,-0.036 -0.3,-0.048c-0.168,-0.012 -0.396,-0.024 -0.66,-0.024c-0.48,-0.012 -0.696,-0 -1.284,0.012c-0.072,0.336 -0.36,1.632 -0.624,3.06c-0.156,0.828 -0.3,1.704 -0.396,2.46c-0.096,0.756 -0.156,1.404 -0.12,1.716l-0,0.036c-0,0.12 -0.096,0.204 -0.216,0.204c-0.108,-0 -0.192,-0.084 -0.204,-0.192c-0.048,-0.408 -0,-1.056 0.108,-1.824c0.108,-0.768 0.252,-1.644 0.408,-2.484c0.24,-1.32 0.504,-2.52 0.6,-2.964c-1.176,0.024 -2.22,0.06 -2.22,0.06l-0.012,-0c-0.12,-0 -0.216,-0.096 -0.216,-0.216c-0,-0.12 0.084,-0.216 0.204,-0.216c-0,-0 1.224,-0.036 2.508,-0.06c0.42,-0.012 0.48,-0.024 0.876,-0.024Zm17.874,5.514c0.447,-0.415 0.966,-0.423 1.338,-0.306c0.204,0.06 0.36,0.156 0.468,0.228c0.108,-0.192 0.192,-0.348 0.216,-0.408c0.024,-0.072 0.12,-0.132 0.204,-0.132c0.12,-0 0.216,0.096 0.216,0.216c-0.036,0.888 0.192,1.368 0.552,1.632c0.36,0.264 0.876,0.348 1.488,0.264c1.224,-0.156 2.7,-0.924 3.408,-1.452c0.036,-0.024 0.096,-0.048 0.132,-0.048c0.12,-0 0.216,0.096 0.216,0.216c-0,0.06 -0.048,0.132 -0.096,0.168c-0.78,0.576 -2.256,1.356 -3.6,1.536c-0.672,0.084 -1.332,0.036 -1.812,-0.336c-0.348,-0.264 -0.576,-0.672 -0.672,-1.236c-0.132,0.216 -0.288,0.444 -0.468,0.672c-0.204,0.264 -0.432,0.504 -0.648,0.696c-0.216,0.192 -0.444,0.348 -0.708,0.336c-0.216,-0.012 -0.396,-0.096 -0.528,-0.24c-0.132,-0.144 -0.204,-0.324 -0.228,-0.528c-0.018,-0.149 -0.008,-0.307 0.032,-0.466c-0.232,0.141 -0.517,0.3 -0.836,0.454c-0.876,0.42 -2.016,0.828 -3.084,0.708c-0.432,-0.048 -0.732,-0.192 -0.936,-0.384c-0.204,-0.192 -0.288,-0.432 -0.324,-0.648c-0.036,-0.216 -0.048,-0.408 -0.06,-0.528c-0.012,-0.048 -0.024,-0.084 -0.024,-0.096c-0.024,-0 -0.084,0.012 -0.192,0.108c-0.12,0.096 -0.252,0.264 -0.396,0.432c-0.144,0.168 -0.3,0.324 -0.468,0.456c-0.168,0.132 -0.396,0.216 -0.624,0.156c-0.204,-0.06 -0.348,-0.216 -0.396,-0.384c-0.048,-0.168 -0.024,-0.312 -0.012,-0.444c0.012,-0.132 0.024,-0.24 0.012,-0.3c-0.012,-0.06 0.012,-0.048 -0.06,-0.072c-0.12,-0.036 -0.18,-0 -0.288,0.132c-0.108,0.132 -0.228,0.36 -0.324,0.588c-0.096,0.228 -0.192,0.468 -0.3,0.66c-0.06,0.096 -0.12,0.18 -0.216,0.252c-0.096,0.072 -0.24,0.108 -0.372,0.06c-0.216,-0.072 -0.324,-0.276 -0.372,-0.468c-0.048,-0.192 -0.06,-0.396 -0.048,-0.588c0.006,-0.11 0.017,-0.215 0.03,-0.311c-2.717,1.4 -6.426,1.367 -6.426,1.367c-0.432,-0 -0.78,-0.096 -1.032,-0.252c-0.252,-0.156 -0.42,-0.42 -0.444,-0.684c-0.036,-0.336 0.12,-0.684 0.444,-0.96c0.012,-0.012 0.036,-0.024 0.048,-0.036c0.18,-0.144 0.408,-0.276 0.672,-0.384c0.192,-0.072 0.36,-0.108 0.516,-0.108l0.072,-0c0.18,0.012 0.324,0.06 0.444,0.156c0.24,0.18 0.312,0.492 0.228,0.756c-0.084,0.264 -0.348,0.48 -0.696,0.492c-0.312,0.012 -0.672,-0.12 -1.104,-0.444c-0.156,0.18 -0.216,0.348 -0.204,0.492c0.012,0.132 0.084,0.252 0.252,0.36c0.168,0.108 0.432,0.18 0.804,0.18l0.012,-0c-0,-0 3.972,-0 6.552,-1.5c0.024,-0.012 0.072,-0.036 0.108,-0.036c0.006,-0 0.012,-0 0.018,0c0.006,-0 0.012,-0 0.018,-0c0.12,-0 0.216,0.096 0.216,0.216c-0,0.012 -0.012,0.036 -0.012,0.048c-0,-0 -0.072,0.336 -0.084,0.672c-0.012,0.168 -0.012,0.336 0.024,0.456c0.024,0.096 0.06,0.144 0.096,0.168c0.012,-0.012 0.048,-0.06 0.084,-0.12c0.084,-0.144 0.168,-0.372 0.276,-0.612c0.108,-0.24 0.216,-0.504 0.384,-0.696c0.132,-0.156 0.348,-0.288 0.576,-0.288l0.048,-0c0.036,-0 0.072,0.012 0.108,0.024c0.192,0.048 0.336,0.228 0.372,0.384c0.036,0.156 0.012,0.3 -0,0.432c-0.012,0.132 -0.012,0.24 -0,0.3c0.012,0.06 -0,0.06 0.084,0.084c0.06,0.012 0.132,-0.012 0.252,-0.096c0.12,-0.084 0.264,-0.24 0.408,-0.396c0.144,-0.156 0.288,-0.336 0.444,-0.468c0.156,-0.132 0.336,-0.252 0.564,-0.204c0.108,0.024 0.228,0.108 0.276,0.192c0.048,0.084 0.06,0.18 0.072,0.264c0.024,0.168 0.036,0.348 0.06,0.516c0.024,0.168 0.084,0.3 0.204,0.42c0.12,0.12 0.312,0.216 0.684,0.264c0.924,0.108 2.004,-0.264 2.844,-0.672c0.84,-0.408 1.428,-0.84 1.428,-0.84c0.024,-0.017 0.059,-0.033 0.09,-0.042Zm0.894,0.054l-0.024,-0c-0.192,-0 -0.396,0.072 -0.612,0.288c-0.288,0.288 -0.384,0.636 -0.36,0.888c0.012,0.12 0.06,0.228 0.12,0.288c0.06,0.06 0.132,0.108 0.24,0.108c0.048,-0 0.216,-0.072 0.408,-0.228c0.192,-0.156 0.396,-0.396 0.588,-0.648c0.12,-0.156 0.216,-0.312 0.324,-0.468c-0.084,-0.06 -0.216,-0.132 -0.372,-0.18c-0.096,-0.036 -0.204,-0.048 -0.312,-0.048Zm-16.896,-0.096c-0.096,-0 -0.216,0.024 -0.36,0.084c-0.132,0.048 -0.252,0.108 -0.348,0.168c0.336,0.228 0.588,0.3 0.744,0.3c0.192,-0.012 0.264,-0.096 0.3,-0.192c0.036,-0.096 -0,-0.216 -0.084,-0.288c-0.048,-0.036 -0.12,-0.072 -0.216,-0.072l-0.036,-0Z" style="fill-rule:nonzero;"/>
</svg>