<svg height="512" viewBox="0 0 64 64" width="512" xmlns="http://www.w3.org/2000/svg" fill="#fff"><g id="mobile_scan" data-name="mobile scan"><path d="m47 2h-30a3.009 3.009 0 0 0 -3 3v54a3.009 3.009 0 0 0 3 3h30a3.009 3.009 0 0 0 3-3v-54a3.009 3.009 0 0 0 -3-3zm-25 2h20v1a1 1 0 0 1 -1 1h-18a1 1 0 0 1 -1-1zm26 55a1 1 0 0 1 -1 1h-30a1 1 0 0 1 -1-1v-54a1 1 0 0 1 1-1h3v1a3.009 3.009 0 0 0 3 3h18a3.009 3.009 0 0 0 3-3v-1h3a1 1 0 0 1 1 1z"/><path d="m32 50a4 4 0 1 0 4 4 4 4 0 0 0 -4-4zm0 6a2 2 0 1 1 2-2 2 2 0 0 1 -2 2z"/><path d="m45 12h-4v2h3v4h2v-5a1 1 0 0 0 -1-1z"/><path d="m20 14h3v-2h-4a1 1 0 0 0 -1 1v5h2z"/><path d="m44 40h-3v2h4a1 1 0 0 0 1-1v-5h-2z"/><path d="m20 36h-2v5a1 1 0 0 0 1 1h4v-2h-3z"/><path d="m22 16h2v2h-2z"/><path d="m27 18h4v4h2v-5a1 1 0 0 0 -1-1h-4v-2h-2v3a1 1 0 0 0 1 1z"/><path d="m29 22v-2h-8a1 1 0 0 0 -1 1v4h2v-3z"/><path d="m28 26h3v-2h-4a1 1 0 0 0 -1 1v3h2z"/><path d="m23 33h4v-2h-3v-3a1 1 0 0 0 -1-1h-3v2h2v3a1 1 0 0 0 1 1z"/><path d="m23 36h2v2h-2z"/><path d="m25 38h2v2h-2z"/><path d="m42 20v-4a1 1 0 0 0 -1-1h-6v2h5v2h-5v2h6a1 1 0 0 0 1-1z"/><path d="m45 32v-8a1 1 0 0 0 -1-1h-9v2h8v6h-4v2h5a1 1 0 0 0 1-1z"/><path d="m36 29h5v-2h-6a1 1 0 0 0 -1 1v4h2z"/><path d="m33 30v-2h-2v1h-2v2h3a1 1 0 0 0 1-1z"/><path d="m36 38h-3v-3a1 1 0 0 0 -1-1h-5v2h4v3a1 1 0 0 0 1 1h5a1 1 0 0 0 1-1v-5h-2z"/><path d="m40 36h2v2h-2z"/></g></svg>