<?xml version="1.0" encoding="utf-8"?>
<!-- Generator: Adobe Illustrator 24.0.1, SVG Export Plug-In . SVG Version: 6.00 Build 0)  -->
<svg version="1.1" id="Layer_1" xmlns="http://www.w3.org/2000/svg" xmlns:xlink="http://www.w3.org/1999/xlink" x="0px" y="0px"
	 viewBox="0 0 500 130" style="enable-background:new 0 0 500 130;" xml:space="preserve">
<style type="text/css">
	.st0{fill:#F2E9FA;}
	.st1{fill:#ECDDF3;}
	.st2{opacity:0.1;fill:#C275E6;}
</style>
<g>
	<path class="st0" d="M0,24.5c7.6-8.6,18.8-14.1,31.3-14.1c22.4,0,40.7,17.7,41.7,39.8c3-2.3,6.8-3.7,10.9-3.7
		c7.3,0,13.6,4.4,16.3,10.8c6-7.8,15.4-12.8,25.9-12.8c12,0,22.5,6.5,28.2,16.1c3.7-7.8,11.7-13.1,20.9-13.1
		c7.7,0,14.5,3.8,18.7,9.5c5.1-20.8,23.8-36.2,46.1-36.2c18.6,0,34.7,10.7,42.5,26.3c4.2-6,11.2-10,19.1-10c6.6,0,12.6,2.8,16.8,7.2
		c4.9-12,16.6-20.4,30.3-20.4c12.9,0,24.1,7.5,29.5,18.4c4.2-5.4,10.8-8.8,18.2-8.8c7.1,0,13.4,3.2,17.6,8.1
		C416.7,18.2,436.7,0,460.9,0c15.5,0,29.3,7.4,37.9,18.9c0.3-0.6,0.7-1.2,1-1.8l0,112L0,129.3L0,24.5z"/>
	<g>
		<path class="st1" d="M0.1,58.5C7.8,49.8,19,44.4,31.4,44.4c22.4,0,40.7,17.7,41.7,39.8c3-2.3,6.8-3.7,10.9-3.7
			c7.3,0,13.6,4.4,16.3,10.8c6-7.8,15.4-12.8,25.9-12.8c12,0,22.5,6.5,28.2,16.1c3.7-7.8,11.7-13.1,20.9-13.1
			c7.7,0,14.5,3.8,18.7,9.5c5.1-20.8,23.8-36.2,46.1-36.2c18.6,0,34.7,10.7,42.5,26.3c4.2-6,11.2-10,19.1-10
			c6.6,0,12.6,2.8,16.8,7.2c4.9-12,16.6-20.4,30.3-20.4c12.9,0,24.1,7.5,29.5,18.4c4.2-5.4,10.8-8.8,18.2-8.8
			c7.1,0,13.4,3.2,17.6,8.1c2.8-23.5,22.8-41.7,47.1-41.7c15.5,0,29.3,7.4,37.9,18.9c0.3-0.6,0.7-1.2,1-1.8l0,78.7L0.2,130L0.1,58.5
			z"/>
		<path class="st2" d="M31.4,53.7c22.4,0,40.7,17.7,41.7,39.8c3-2.3,6.8-3.7,10.9-3.7c7.3,0,13.6,4.4,16.3,10.8
			c6-7.8,15.4-12.8,25.9-12.8c12,0,22.5,6.5,28.2,16.1c3.7-7.8,11.7-13.1,20.9-13.1c7.7,0,14.5,3.8,18.7,9.5
			c5.1-20.8,23.8-36.2,46.1-36.2c18.6,0,34.7,10.7,42.5,26.3c4.2-6,11.2-10,19.1-10c6.6,0,12.6,2.8,16.8,7.2
			c4.9-12,16.6-20.4,30.3-20.4c12.9,0,24.1,7.5,29.5,18.4c4.2-5.4,10.8-8.8,18.2-8.8c7.1,0,13.4,3.2,17.6,8.1
			c2.8-23.5,22.8-41.7,47.1-41.7c15.5,0,29.3,7.4,37.9,18.9c0.3-0.6,0.7-1.2,1-1.8l0,69.4h0l0-78.7c-0.4,0.6-0.7,1.2-1,1.8
			C490.3,41.4,476.6,34,461.1,34c-24.3,0-44.3,18.2-47.1,41.7c-4.3-5-10.6-8.1-17.6-8.1c-7.4,0-13.9,3.5-18.2,8.8
			C372.9,65.5,361.7,58,348.7,58c-13.7,0-25.5,8.4-30.3,20.4c-4.2-4.4-10.2-7.2-16.8-7.2c-7.9,0-14.9,4-19.1,10
			c-7.8-15.6-23.9-26.3-42.5-26.3c-22.3,0-41,15.4-46.1,36.2c-4.2-5.8-11-9.5-18.7-9.5c-9.2,0-17.1,5.4-20.9,13.1
			c-5.7-9.6-16.2-16.1-28.2-16.1c-10.6,0-19.9,5-25.9,12.8c-2.7-6.3-9-10.8-16.3-10.8c-4.1,0-7.9,1.4-10.9,3.7
			c-1-22.2-19.3-39.8-41.7-39.8C19,44.4,7.8,49.8,0.1,58.5l0,9.3C7.8,59.2,19,53.7,31.4,53.7z"/>
	</g>
</g>
</svg>
