<?xml version="1.0" encoding="utf-8"?>
<!-- Generator: Adobe Illustrator 24.0.1, SVG Export Plug-In . SVG Version: 6.00 Build 0)  -->
<svg version="1.1" id="Layer_1" xmlns="http://www.w3.org/2000/svg" xmlns:xlink="http://www.w3.org/1999/xlink" x="0px" y="0px"
	 viewBox="0 0 500 130" style="enable-background:new 0 0 500 130;" xml:space="preserve">
<style type="text/css">
	.st0{fill:#F2E9FA;}
	.st1{fill:#ECDDF3;}
	.st2{opacity:0.1;fill:#C275E6;}
</style>
<path class="st0" d="M0,104.9c7.6,8.6,18.8,14.1,31.3,14.1c22.4,0,40.7-17.7,41.7-39.8c3,2.3,6.8,3.7,10.9,3.7
	c7.3,0,13.6-4.4,16.3-10.8c6,7.8,15.4,12.8,25.9,12.8c12,0,22.5-6.5,28.2-16.1c3.7,7.8,11.7,13.1,20.9,13.1c7.7,0,14.5-3.8,18.7-9.5
	c5.1,20.8,23.8,36.2,46.1,36.2c18.6,0,34.7-10.7,42.5-26.4c4.2,6,11.2,10,19.1,10c6.6,0,12.6-2.8,16.8-7.2
	c4.9,12,16.6,20.4,30.3,20.4c12.9,0,24.1-7.5,29.5-18.4c4.2,5.4,10.8,8.8,18.2,8.8c7.1,0,13.4-3.2,17.6-8.1
	c2.8,23.5,22.8,41.7,47.1,41.7c15.5,0,29.3-7.4,37.9-18.9c0.3,0.6,0.7,1.2,1,1.8l0-112.1L0,0L0,104.9z"/>
<path class="st1" d="M500,71.5c-7.6,8.6-18.8,14.1-31.3,14.1c-22.4,0-40.7-17.7-41.7-39.8c-3,2.3-6.8,3.7-10.9,3.7
	c-7.3,0-13.6-4.4-16.3-10.8c-6,7.8-15.4,12.8-25.9,12.8c-12,0-22.5-6.5-28.2-16.1c-3.7,7.8-11.7,13.1-20.9,13.1
	c-7.7,0-14.5-3.8-18.7-9.5c-5.1,20.8-23.8,36.2-46.1,36.2c-18.6,0-34.7-10.7-42.5-26.4c-4.2,6-11.2,10-19.1,10
	c-6.6,0-12.6-2.8-16.8-7.2C176.8,63.6,165,72,151.3,72c-12.9,0-24.1-7.5-29.5-18.4c-4.2,5.4-10.8,8.8-18.2,8.8
	c-7.1,0-13.4-3.2-17.6-8.1C83.2,77.8,63.2,96,38.9,96C23.4,96,9.7,88.6,1,77.1c-0.3,0.6-0.7,1.2-1,1.8L0,0.2L500,0L500,71.5z"/>
<path class="st2" d="M468.7,76.3c-22.4,0-40.7-17.7-41.7-39.8c-3,2.3-6.8,3.7-10.9,3.7c-7.3,0-13.6-4.4-16.3-10.8
	c-6,7.8-15.4,12.8-25.9,12.8c-12,0-22.5-6.5-28.2-16.1c-3.7,7.8-11.7,13.1-20.9,13.1c-7.7,0-14.5-3.8-18.7-9.5
	c-5.1,20.8-23.8,36.2-46.1,36.2c-18.6,0-34.7-10.7-42.5-26.4c-4.2,6-11.2,10-19.1,10c-6.6,0-12.6-2.8-16.8-7.2
	c-4.9,12-16.6,20.4-30.3,20.4c-12.9,0-24.1-7.5-29.5-18.4c-4.2,5.4-10.8,8.8-18.2,8.8c-7.1,0-13.4-3.2-17.6-8.1
	c-2.8,23.5-22.8,41.7-47.1,41.7C23.4,86.7,9.7,79.2,1,67.8c-0.3,0.6-0.7,1.2-1,1.8L0,0.2h0l0,78.7c0.4-0.6,0.7-1.2,1-1.8
	C9.7,88.6,23.4,96,38.9,96C63.2,96,83.2,77.8,86,54.3c4.3,5,10.6,8.1,17.6,8.1c7.4,0,13.9-3.5,18.2-8.8
	c5.3,10.9,16.5,18.4,29.5,18.4c13.7,0,25.5-8.4,30.3-20.4c4.2,4.4,10.2,7.2,16.8,7.2c7.9,0,14.9-4,19.1-10
	c7.8,15.6,23.9,26.4,42.5,26.4c22.3,0,41-15.4,46.1-36.2c4.2,5.8,11,9.5,18.7,9.5c9.2,0,17.1-5.4,20.9-13.1
	c5.7,9.6,16.2,16.1,28.2,16.1c10.6,0,20-5,25.9-12.8c2.7,6.3,9,10.8,16.3,10.8c4.1,0,7.9-1.4,10.9-3.7c1,22.2,19.3,39.8,41.7,39.8
	c12.4,0,23.6-5.5,31.3-14.1l0-9.3C492.4,70.8,481.2,76.3,468.7,76.3z"/>
</svg>
