<svg xmlns="http://www.w3.org/2000/svg" viewBox="0 0 75 50">
	<radialGradient id="gradient" cx="37.1203" cy="6.2992" r="69.0621" gradientUnits="userSpaceOnUse">
		<stop offset="0" style="stop-color:#FFFFFF"/>
		<stop offset="0.5" style="stop-color:#FCFCFC"/>
		<stop offset="1" style="stop-color:#FAFAFA"/>
	</radialGradient>
	<path fill="url(#gradient)" d="M0,10.5L10.5,0h0.7L0,11.2V10.5z M57.7,0l-50,50h0.7l50-50H57.7z M0,13.5L13.5,0h-0.7L0,12.7V13.5z M0,18L18,0 h-0.7L0,17.2V18z M0,15.7L15.7,0H15L0,15V15.7z M0,6.7L6.7,0H6L0,6V6.7z M0,9l9-9H8.2L0,8.2V9z M0,4.5L4.5,0H3.7L0,3.7V4.5z M55.5,0 l-50,50h0.7l50-50H55.5z M51,0L1,50h0.7l50-50H51z M53.2,0l-50,50H4L54,0H53.2z M0,2.2L2.2,0H1.5L0,1.5V2.2z M0,20.2L20.2,0h-0.7 L0,19.5V20.2z M0,36L36,0h-0.7L0,35.2V36z M0,45L45,0h-0.7L0,44.2V45z M0,42.7L42.7,0H42L0,42V42.7z M0,22.5L22.5,0h-0.7L0,21.7 V22.5z M0,40.5L40.5,0h-0.7L0,39.7V40.5z M0,47.2L47.2,0h-0.7L0,46.5V47.2z M0,49.5L49.5,0h-0.7L0,48.7V49.5z M0,38.2L38.2,0h-0.7 L0,37.5V38.2z M0,27L27,0h-0.7L0,26.2V27z M0,24.7L24.7,0H24L0,24V24.7z M0,29.2L29.2,0h-0.7L0,28.5V29.2z M0,31.5L31.5,0h-0.7 L0,30.7V31.5z M60,0L10,50h0.7l50-50H60z M0,33.7L33.7,0H33L0,33V33.7z M75,0.8L25.8,50h0.7L75,1.5V0.8z M75,27.8L52.8,50h0.7 L75,28.5V27.8z M75,30L55,50h0.7L75,30.7V30z M75,32.3L57.3,50H58l17-17V32.3z M75,25.5L50.5,50h0.7L75,26.2V25.5z M75,34.5L59.5,50 h0.7L75,35.2V34.5z M75,23.3L48.3,50H49l26-26V23.3z M75,36.8L61.8,50h0.7L75,37.5V36.8z M75,45.8L70.8,50h0.7l3.5-3.5V45.8z M75,21 L46,50h0.7L75,21.7V21z M75,48l-2,2h0.7l1.2-1.2V48z M75,43.5L68.5,50h0.7l5.7-5.7V43.5z M75,41.3L66.3,50H67l8-8V41.3z M75,39 L64,50h0.7L75,39.8V39z M66.7,0l-50,50h0.7l50-50H66.7z M75,3L28,50h0.7L75,3.7V3z M71.2,0l-50,50H22L72,0H71.2z M73.5,0l-50,50h0.7 l50-50H73.5z M69,0L19,50h0.7l50-50H69z M64.5,0l-50,50h0.7l50-50H64.5z M62.2,0l-50,50H13L63,0H62.2z M75,9.8L34.8,50h0.7L75,10.5 V9.8z M75,12L37,50h0.7L75,12.7V12z M75,14.3L39.3,50H40l35-35V14.3z M75,5.3L30.3,50H31L75,6V5.3z M75,16.5L41.5,50h0.7L75,17.2 V16.5z M75,7.5L32.5,50h0.7L75,8.2V7.5z M75,18.8L43.8,50h0.7L75,19.5V18.8z"/>
</svg>