<svg xmlns="http://www.w3.org/2000/svg" viewBox="0 0 48 48">
	<title>YouTube</title>
	<defs>
		<linearGradient id="logo_youtube" x1="10.341" x2="40.798" y1="8.312" y2="38.769" gradientUnits="userSpaceOnUse">
			<stop offset="0" stop-color="#f00"/>
			<stop offset="1" stop-color="#c00"/>
		</linearGradient>
	</defs>
	<path fill="url(#logo_youtube)" d="M20,30l10.38,-6l-10.38,-6l0,12m23.12,-15.66c0.26,0.94 0.44,2.2 0.56,3.8c0.14,1.6 0.2,2.98 0.2,4.18l0.12,1.68c-0,4.38 -0.32,7.6 -0.88,9.66c-0.5,1.8 -1.66,2.96 -3.46,3.46c-0.94,0.26 -2.66,0.44 -5.3,0.56c-2.6,0.14 -4.98,0.2 -7.18,0.2l-3.18,0.12c-8.38,0 -13.6,-0.32 -15.66,-0.88c-1.8,-0.5 -2.96,-1.66 -3.46,-3.46c-0.26,-0.94 -0.44,-2.2 -0.56,-3.8c-0.14,-1.6 -0.2,-2.98 -0.2,-4.18l-0.12,-1.68c-0,-4.38 0.32,-7.6 0.88,-9.66c0.5,-1.8 1.66,-2.96 3.46,-3.46c0.94,-0.26 2.66,-0.44 5.3,-0.56c2.6,-0.14 4.98,-0.2 7.18,-0.2l3.18,-0.12c8.38,0 13.6,0.32 15.66,0.88c1.8,0.5 2.96,1.66 3.46,3.46Z"/>
</svg>