<svg xmlns="http://www.w3.org/2000/svg" viewBox="0 0 48 48">
	<title>Google Meet</title>
	<path fill="#00832d" d="M26.637,24l3.956,4.505l5.275,3.407l0.879,-7.802l-0.879,-7.583l-5.384,2.968l-3.847,4.505Z"/>
	<path fill="#0066da" d="M4,31.143l-0,6.593c-0,1.539 1.209,2.748 2.747,2.748l6.594,0l1.428,-5.055l-1.428,-4.396l-4.506,-1.429l-4.835,1.539Z"/>
	<path fill="#e94235" d="M13.341,7.516l-9.341,9.341l4.835,1.429l4.506,-1.429l1.318,-4.286l-1.318,-5.055Z"/>
	<rect fill="#2684fc" x="4" y="16.857" width="9.341" height="14.176"/>
	<path fill="#00ac47" d="M41.802,11.473l-6.044,4.945l0,15.384l6.044,4.945c0.879,0.66 2.198,0.11 2.198,-1.099l0,-23.077c0,-1.208 -1.319,-1.868 -2.198,-1.098Zm-15.165,12.527l-0,7.143l-13.296,0l-0,9.341l19.67,0c1.538,0 2.747,-1.209 2.747,-2.748l0,-5.934l-9.121,-7.802Z"/>
	<path fill="#ffba00" d="M33.011,7.516l-19.67,-0l-0,9.341l13.296,-0l-0,7.143l9.121,-7.582l0,-6.154c0,-1.539 -1.209,-2.748 -2.747,-2.748Z"/>
</svg>