<svg xmlns="http://www.w3.org/2000/svg" viewBox="0 0 48 48">
	<title>Zoom</title>
	<defs>
		<linearGradient id="logo_zoom" gradientUnits="userSpaceOnUse" x1="9.8579" y1="9.8579" x2="38.1421" y2="38.1421">
			<stop offset="0" style="stop-color:#4a8cff"/>
			<stop offset="1" style="stop-color:#395eff"/>
		</linearGradient>
	</defs>
	<path fill="url(#logo_zoom)" d="M24,4C13,4,4,13,4,24s9,20,20,20s20-9,20-20S35,4,24,4z M29.2,30.3c0,0.4-0.3,0.7-0.7,0.7H14.8c-2.1,0-3.9-1.7-3.9-3.8v-9.4c0-0.4,0.3-0.7,0.7-0.7h13.7c2.1,0,3.9,1.7,3.9,3.8V30.3z M36.6,30.3c0,0.8-0.5,0.7-0.9,0.4l-5.7-4.1v-5.2l5.7-4.1c0.5-0.4,0.9-0.3,0.9,0.4V30.3z"/>
</svg>