<svg xmlns="http://www.w3.org/2000/svg" viewBox="0 0 48 48">
	<title>MauMantenan</title>
	<g>
		<g>
			<path d="M18.338,21.292c-0.741,0.444 -1.22,1.078 -1.426,1.883c-0.188,0.74 -0.164,1.588 0.071,2.452c0.421,1.55 1.445,2.921 2.81,3.761c1,0.615 2.167,0.937 3.335,0.937c0.433,0 0.866,-0.044 1.29,-0.134c0.617,-0.131 1.176,-0.347 1.664,-0.642c1.235,-0.747 2.029,-2.002 2.729,-3.11c0.081,-0.129 0.043,-0.299 -0.085,-0.38c-0.129,-0.081 -0.299,-0.043 -0.38,0.086c-0.668,1.056 -1.425,2.254 -2.549,2.934c-0.435,0.263 -0.937,0.456 -1.493,0.573c-1.432,0.304 -2.972,0.037 -4.223,-0.733c-1.246,-0.767 -2.182,-2.019 -2.567,-3.436c-0.21,-0.773 -0.233,-1.524 -0.068,-2.172c0.17,-0.669 0.555,-1.175 1.175,-1.547c0.13,-0.078 0.172,-0.247 0.094,-0.378c-0.051,-0.086 -0.143,-0.133 -0.236,-0.133c-0.048,0 -0.097,0.012 -0.141,0.039Z" style="fill:url(#_Linear1);fill-rule:nonzero;"/>
			<path d="M17.973,21.268c-1.544,0.588 -2.806,1.957 -3.376,3.663c-0.504,1.508 -0.478,3.281 0.074,4.993c0.219,0.68 0.483,1.228 0.805,1.675c0.327,0.455 0.755,0.861 1.271,1.209c0.973,0.656 2.153,0.985 3.332,0.985c1.107,0 2.214,-0.291 3.149,-0.875c1.137,-0.712 2.111,-1.877 2.818,-3.37c0.065,-0.138 0.006,-0.302 -0.131,-0.367c-0.137,-0.065 -0.302,-0.006 -0.367,0.131c-0.661,1.398 -1.564,2.483 -2.612,3.139c-1.751,1.096 -4.169,1.055 -5.882,-0.1c-0.461,-0.311 -0.842,-0.672 -1.132,-1.073c-0.288,-0.4 -0.526,-0.898 -0.727,-1.523c-0.516,-1.601 -0.543,-3.252 -0.076,-4.65c0.518,-1.551 1.659,-2.793 3.05,-3.322c0.142,-0.054 0.213,-0.213 0.159,-0.355c-0.042,-0.11 -0.146,-0.178 -0.257,-0.178c-0.033,0 -0.066,0.006 -0.098,0.018Z" style="fill:url(#_Linear2);fill-rule:nonzero;"/>
			<path d="M12.198,24.667c-0.778,1.764 -0.694,3.941 0.23,5.975c0.585,1.286 1.366,2.213 2.324,2.757c0.657,0.374 1.302,0.561 1.902,0.561c0.553,0 1.069,-0.159 1.522,-0.478c0.124,-0.087 0.154,-0.259 0.067,-0.383c-0.087,-0.124 -0.259,-0.154 -0.383,-0.067c-1.027,0.722 -2.218,0.24 -2.837,-0.111c-0.854,-0.486 -1.558,-1.329 -2.094,-2.507c-0.859,-1.891 -0.942,-3.904 -0.227,-5.524c0.792,-1.795 2.646,-2.977 4.409,-2.81c0.152,0.014 0.285,-0.097 0.3,-0.248c0.014,-0.152 -0.097,-0.286 -0.249,-0.3c-0.126,-0.012 -0.253,-0.018 -0.38,-0.018c-1.872,0 -3.755,1.276 -4.584,3.153Z" style="fill:url(#_Linear3);fill-rule:nonzero;"/>
			<path d="M21.774,10.281c-1.322,0.777 -2.999,1.87 -4.237,3.437c-1.262,1.598 -1.854,3.497 -1.624,5.209c0.105,0.783 0.366,1.429 0.777,1.92c0.463,0.553 1.134,0.883 1.781,0.883c0.051,0 0.102,-0.003 0.153,-0.007c0.151,-0.012 0.264,-0.145 0.252,-0.296c-0.013,-0.152 -0.146,-0.265 -0.297,-0.252c-0.518,0.043 -1.08,-0.219 -1.467,-0.681c-0.343,-0.41 -0.563,-0.962 -0.654,-1.641c-0.21,-1.565 0.341,-3.312 1.511,-4.794c1.181,-1.495 2.803,-2.551 4.084,-3.303c0.131,-0.077 0.175,-0.246 0.098,-0.377c-0.051,-0.087 -0.143,-0.136 -0.237,-0.136c-0.048,0 -0.096,0.012 -0.14,0.038Z" style="fill:url(#_Linear4);fill-rule:nonzero;"/>
			<path d="M16.053,12.027c-1.206,0.789 -2.094,1.601 -2.715,2.483c-0.789,1.12 -1.158,2.386 -1.037,3.565c0.125,1.223 0.834,2.404 1.897,3.161c0.648,0.462 1.519,0.707 2.432,0.707c0.401,-0 0.811,-0.047 1.212,-0.145c0.148,-0.035 0.239,-0.184 0.203,-0.332c-0.036,-0.148 -0.184,-0.238 -0.332,-0.203c-1.147,0.278 -2.401,0.091 -3.196,-0.475c-0.936,-0.666 -1.559,-1.701 -1.668,-2.769c-0.107,-1.047 0.226,-2.181 0.939,-3.192c0.58,-0.824 1.42,-1.589 2.566,-2.339c1.924,-1.259 3.768,-1.863 5.481,-1.797c0.151,0.004 0.28,-0.112 0.286,-0.264c0.006,-0.152 -0.112,-0.28 -0.264,-0.286c-0.092,-0.003 -0.184,-0.005 -0.277,-0.005c-1.751,-0 -3.607,0.635 -5.527,1.891Z" style="fill:url(#_Linear5);fill-rule:nonzero;"/>
			<path d="M18.538,8.969c-1.22,0.217 -2.408,0.594 -3.531,1.119c-0.72,0.337 -1.271,0.672 -1.734,1.052c-1.197,0.985 -1.977,2.465 -2.139,4.059c-0.154,1.515 0.266,3.134 1.153,4.443c0.657,0.971 1.92,2.163 3.314,2.326c0.011,0.001 0.021,0.002 0.032,0.002c0.138,-0 0.257,-0.103 0.273,-0.243c0.018,-0.151 -0.09,-0.288 -0.241,-0.306c-1.132,-0.132 -2.283,-1.144 -2.922,-2.088c-0.816,-1.203 -1.202,-2.69 -1.061,-4.078c0.147,-1.451 0.855,-2.796 1.941,-3.69c0.426,-0.35 0.94,-0.661 1.617,-0.978c1.079,-0.505 2.221,-0.868 3.394,-1.077c0.576,-0.102 1.248,-0.184 1.868,-0.015c0.611,0.166 1.093,0.595 1.228,1.091c0.04,0.147 0.191,0.234 0.338,0.194c0.146,-0.04 0.233,-0.191 0.193,-0.338c-0.188,-0.691 -0.806,-1.258 -1.614,-1.478c-0.311,-0.085 -0.626,-0.117 -0.935,-0.117c-0.411,-0 -0.811,0.057 -1.174,0.122Z" style="fill:url(#_Linear6);fill-rule:nonzero;"/>
			<path d="M17.101,5.287c-1.627,0.183 -3.193,0.844 -4.409,1.861c-1.194,0.998 -2.127,2.353 -2.697,3.917c-0.553,1.514 -0.745,3.157 -0.555,4.751c0.186,1.564 0.712,2.923 1.523,3.931c0.96,1.193 2.343,1.9 3.71,1.9l0.058,0c0.152,-0.002 0.273,-0.127 0.271,-0.279c-0.002,-0.151 -0.125,-0.271 -0.275,-0.271l-0.055,0c-1.201,0 -2.424,-0.631 -3.28,-1.695c-0.746,-0.927 -1.232,-2.19 -1.406,-3.651c-0.369,-3.108 0.831,-6.319 3.059,-8.181c2.372,-1.983 5.92,-2.355 8.437,-0.883c0.131,0.077 0.3,0.033 0.377,-0.098c0.076,-0.132 0.032,-0.3 -0.099,-0.377c-1.094,-0.64 -2.398,-0.976 -3.746,-0.976c-0.303,0 -0.608,0.017 -0.913,0.051Z" style="fill:url(#_Linear7);fill-rule:nonzero;"/>
			<path d="M21.904,20.473c-0.148,0.034 -0.24,0.182 -0.205,0.33c0.363,1.554 1.576,2.882 3.091,3.384c0.374,0.123 0.765,0.2 1.142,0.275c0.691,0.136 1.344,0.265 1.857,0.654c0.394,0.299 0.676,0.748 0.774,1.232c0.026,0.131 0.141,0.221 0.269,0.221c0.018,0 0.037,-0.002 0.055,-0.006c0.149,-0.03 0.245,-0.175 0.215,-0.324c-0.124,-0.614 -0.481,-1.183 -0.981,-1.561c-0.614,-0.466 -1.36,-0.613 -2.082,-0.756c-0.361,-0.071 -0.735,-0.145 -1.076,-0.258c-1.337,-0.442 -2.408,-1.614 -2.728,-2.986c-0.03,-0.127 -0.143,-0.212 -0.268,-0.212c-0.021,0 -0.042,0.002 -0.063,0.007Z" style="fill:url(#_Linear8);fill-rule:nonzero;"/>
			<path d="M28.177,13.872c-0.115,0.099 -0.127,0.273 -0.028,0.388c0.667,0.771 1.703,1.068 2.424,1.225c0.209,0.045 0.422,0.085 0.627,0.124c0.646,0.124 1.255,0.239 1.816,0.5c1.335,0.621 2.27,2.293 2.128,3.808c-0.014,0.152 0.098,0.286 0.249,0.3c0.009,0.001 0.017,0.001 0.026,0.001c0.14,0 0.26,-0.107 0.273,-0.25c0.165,-1.76 -0.886,-3.634 -2.444,-4.358c-0.623,-0.289 -1.295,-0.417 -1.945,-0.541c-0.202,-0.039 -0.411,-0.078 -0.613,-0.122c-0.644,-0.14 -1.566,-0.401 -2.125,-1.047c-0.054,-0.063 -0.131,-0.095 -0.208,-0.095c-0.064,0 -0.128,0.022 -0.18,0.067Z" style="fill:url(#_Linear9);fill-rule:nonzero;"/>
			<path d="M25.991,17.71c-0.146,0.041 -0.232,0.193 -0.191,0.339c0.173,0.62 0.455,0.964 1.007,1.226c0.49,0.234 1.018,0.335 1.528,0.433l0.12,0.023c0.991,0.192 2.04,0.436 2.999,0.922c0.799,0.405 1.603,0.913 2.074,1.883c0.048,0.098 0.146,0.155 0.248,0.155c0.04,0 0.081,-0.009 0.12,-0.028c0.137,-0.066 0.194,-0.231 0.127,-0.368c-0.544,-1.119 -1.478,-1.706 -2.32,-2.133c-1.022,-0.518 -2.163,-0.781 -3.144,-0.971l-0.12,-0.023c-0.498,-0.096 -0.969,-0.186 -1.396,-0.389c-0.409,-0.195 -0.582,-0.408 -0.713,-0.878c-0.034,-0.121 -0.144,-0.201 -0.265,-0.201c-0.024,0 -0.049,0.003 -0.074,0.01Z" style="fill:url(#_Linear10);fill-rule:nonzero;"/>
			<path d="M30.356,13.272c-0.423,0.168 -0.86,0.342 -1.292,0.442c-0.317,0.073 -0.631,0.001 -0.751,-0.033c-0.146,-0.042 -0.298,0.043 -0.34,0.189c-0.042,0.146 0.043,0.298 0.189,0.34c0.2,0.057 0.6,0.139 1.026,0.04c0.473,-0.11 0.93,-0.291 1.372,-0.467c0.763,-0.303 1.484,-0.59 2.233,-0.506c1.269,0.141 2.159,1.364 2.448,2.441c0.337,1.255 0.146,2.642 -0.023,3.866c-0.021,0.151 0.085,0.289 0.235,0.31c0.013,0.002 0.026,0.003 0.038,0.003c0.135,0 0.253,-0.1 0.272,-0.238c0.176,-1.275 0.375,-2.721 0.009,-4.084c-0.347,-1.293 -1.384,-2.674 -2.918,-2.845c-0.11,-0.013 -0.219,-0.019 -0.327,-0.019c-0.762,0 -1.477,0.285 -2.171,0.561Z" style="fill:url(#_Linear11);fill-rule:nonzero;"/>
			<path d="M30.084,11.759c-0.083,0.035 -0.165,0.071 -0.247,0.108c-0.195,0.087 -0.379,0.169 -0.568,0.216c-0.188,0.048 -0.375,0.06 -0.525,0.071c-0.068,0.005 -0.128,0.009 -0.177,0.015c-0.151,0.019 -0.258,0.156 -0.239,0.307c0.019,0.151 0.155,0.258 0.307,0.239c0.041,-0.005 0.091,-0.008 0.148,-0.012c0.162,-0.011 0.385,-0.027 0.621,-0.086c0.235,-0.059 0.449,-0.155 0.657,-0.247c0.077,-0.035 0.155,-0.07 0.233,-0.102c0.539,-0.223 1.057,-0.313 1.541,-0.268c0.614,0.056 1.243,0.348 1.772,0.821c0.471,0.422 0.815,1.118 1.118,1.732l0.047,0.095c0.048,0.096 0.146,0.153 0.247,0.153c0.041,0 0.083,-0.01 0.122,-0.029c0.136,-0.067 0.192,-0.232 0.124,-0.369l-0.046,-0.094c-0.326,-0.659 -0.695,-1.405 -1.245,-1.898c-0.617,-0.552 -1.358,-0.892 -2.088,-0.959c-0.097,-0.009 -0.195,-0.014 -0.293,-0.014c-0.486,0 -0.992,0.108 -1.509,0.321Z" style="fill:url(#_Linear12);fill-rule:nonzero;"/>
			<path d="M28.446,10.89c-0.099,0.116 -0.085,0.289 0.03,0.388c0.115,0.099 0.289,0.086 0.388,-0.03c0.187,-0.219 0.446,-0.278 0.923,-0.213c0.415,0.058 0.813,0.26 1.198,0.456l1.063,0.541c0.039,0.02 0.082,0.03 0.124,0.03c0.1,0 0.197,-0.055 0.246,-0.151c0.068,-0.135 0.015,-0.301 -0.121,-0.37l-1.063,-0.541c-0.405,-0.206 -0.865,-0.44 -1.371,-0.51c-0.124,-0.017 -0.258,-0.03 -0.394,-0.03c-0.355,0 -0.731,0.089 -1.023,0.43Z" style="fill:url(#_Linear13);fill-rule:nonzero;"/>
			<path d="M21.881,5.521c-0.255,0.24 -0.391,0.549 -0.393,0.895l0,0.09l0.053,0.073c0.589,0.806 1.026,1.739 1.448,2.641c0.294,0.628 0.598,1.277 0.955,1.89c1.095,1.884 2.62,3.017 4.183,3.11l0.178,0.011l0.082,-0.159c0.684,-1.317 0.731,-3.206 0.114,-4.595c-0.512,-1.152 -1.401,-2.244 -2.718,-3.338c-0.628,-0.521 -1.391,-1.061 -2.287,-1.114c-0.055,-0.004 -0.109,-0.005 -0.163,-0.005c-0.578,0 -1.112,0.182 -1.452,0.501Zm2.538,5.312c-0.344,-0.591 -0.643,-1.229 -0.932,-1.847c-0.42,-0.896 -0.853,-1.823 -1.443,-2.651c0.018,-0.16 0.089,-0.295 0.214,-0.413c0.255,-0.239 0.728,-0.376 1.206,-0.348c0.736,0.044 1.408,0.524 1.967,0.988c1.251,1.039 2.091,2.065 2.568,3.139c0.519,1.169 0.505,2.799 -0.02,3.954c-1.854,-0.218 -3.101,-2.033 -3.56,-2.822Z" style="fill:url(#_Linear14);fill-rule:nonzero;"/>
			<path d="M21.4,6.217c-0.118,0.095 -0.137,0.268 -0.041,0.387c1.435,1.781 2.293,4.02 2.415,6.305c0.014,0.26 0.018,0.529 0.023,0.789c0.012,0.669 0.025,1.361 0.188,2.035c0.235,0.971 0.869,2.211 1.88,2.506c0.026,0.008 0.052,0.011 0.077,0.011c0.12,-0 0.229,-0.078 0.265,-0.198c0.042,-0.145 -0.041,-0.298 -0.187,-0.341c-0.736,-0.215 -1.284,-1.214 -1.5,-2.108c-0.149,-0.615 -0.161,-1.246 -0.173,-1.914c-0.004,-0.265 -0.009,-0.539 -0.024,-0.81c-0.128,-2.399 -1.028,-4.75 -2.536,-6.621c-0.054,-0.067 -0.134,-0.102 -0.214,-0.102c-0.061,-0 -0.122,0.02 -0.173,0.061Z" style="fill:url(#_Linear15);fill-rule:nonzero;"/>
			<path d="M21.24,6.124c-0.131,0.077 -0.176,0.245 -0.1,0.376c0.67,1.151 1.012,2.615 1.046,4.476c0.015,0.813 -0.025,1.644 -0.064,2.449c-0.037,0.762 -0.075,1.551 -0.067,2.332c0.009,0.821 0.076,1.682 0.507,2.422c0.361,0.62 1.071,1.152 1.842,1.152c0.145,-0 0.293,-0.019 0.44,-0.059c0.486,-0.134 0.848,-0.458 1.237,-0.837c0.109,-0.106 0.111,-0.28 0.005,-0.389c-0.106,-0.109 -0.28,-0.111 -0.389,-0.005c-0.333,0.324 -0.639,0.601 -0.999,0.7c-0.657,0.18 -1.345,-0.298 -1.66,-0.839c-0.367,-0.629 -0.425,-1.406 -0.432,-2.151c-0.008,-0.764 0.029,-1.545 0.066,-2.3c0.039,-0.813 0.079,-1.654 0.064,-2.486c-0.036,-1.957 -0.402,-3.508 -1.12,-4.741c-0.051,-0.088 -0.143,-0.137 -0.238,-0.137c-0.047,-0 -0.095,0.012 -0.138,0.037Z" style="fill:url(#_Linear16);fill-rule:nonzero;"/>
			<path d="M22.049,10.013c-0.148,0.036 -0.239,0.185 -0.203,0.333c0.446,1.835 0.137,3.811 -0.847,5.423c-0.12,0.197 -0.255,0.396 -0.385,0.588c-0.406,0.6 -0.825,1.22 -0.964,1.963c-0.184,0.992 0.257,2.026 1.049,2.46c0.303,0.165 0.652,0.248 1.019,0.248c0.419,0 0.861,-0.107 1.284,-0.32c0.68,-0.342 1.233,-0.897 1.72,-1.386c0.107,-0.108 0.106,-0.282 -0.001,-0.389c-0.108,-0.107 -0.282,-0.107 -0.39,0.001c-0.479,0.482 -0.976,0.981 -1.576,1.283c-0.633,0.317 -1.303,0.347 -1.792,0.08c-0.59,-0.323 -0.914,-1.112 -0.772,-1.876c0.118,-0.63 0.488,-1.177 0.879,-1.755c0.133,-0.198 0.272,-0.403 0.398,-0.61c1.061,-1.736 1.393,-3.864 0.913,-5.84c-0.031,-0.126 -0.144,-0.211 -0.267,-0.211c-0.022,0 -0.044,0.003 -0.065,0.008Z" style="fill:url(#_Linear17);fill-rule:nonzero;"/>
			<path d="M24.755,18.732c-0.151,0.008 -0.267,0.138 -0.259,0.29c0.046,0.819 0.498,1.409 0.934,1.877c0.792,0.852 1.852,1.467 2.984,1.735c0.279,0.066 0.563,0.111 0.837,0.155c0.422,0.067 0.82,0.131 1.201,0.263c0.531,0.183 1.14,0.596 1.256,1.203c0.026,0.132 0.141,0.223 0.27,0.223c0.017,0 0.035,-0.001 0.052,-0.005c0.15,-0.028 0.248,-0.173 0.219,-0.322c-0.137,-0.711 -0.741,-1.317 -1.617,-1.619c-0.426,-0.148 -0.867,-0.218 -1.294,-0.287c-0.264,-0.042 -0.538,-0.086 -0.798,-0.147c-1.027,-0.243 -1.989,-0.801 -2.708,-1.574c-0.369,-0.396 -0.751,-0.888 -0.787,-1.533c-0.008,-0.147 -0.13,-0.26 -0.276,-0.26c-0.005,0 -0.009,0 -0.014,0.001Z" style="fill:url(#_Linear18);fill-rule:nonzero;"/>
			<path d="M22.042,20.55c-1.387,0.371 -2.817,0.607 -4.25,0.703c-0.151,0.01 -0.266,0.142 -0.256,0.293c0.01,0.146 0.131,0.257 0.274,0.257c0.007,0 0.013,0 0.019,-0.001c1.468,-0.098 2.934,-0.341 4.355,-0.721c0.147,-0.039 0.234,-0.19 0.195,-0.337c-0.033,-0.122 -0.144,-0.204 -0.265,-0.204c-0.024,0 -0.048,0.003 -0.072,0.01Z" style="fill:url(#_Linear19);fill-rule:nonzero;"/>
			<path d="M28.217,13.553c-0.152,0.009 -0.267,0.139 -0.259,0.291c0.025,0.419 -0.071,0.872 -0.302,1.425c-0.363,0.867 -1.06,1.849 -1.776,2.503c-0.113,0.102 -0.121,0.276 -0.018,0.389c0.054,0.059 0.129,0.089 0.203,0.089c0.066,0 0.133,-0.023 0.186,-0.072c0.782,-0.714 1.515,-1.747 1.913,-2.697c0.261,-0.624 0.373,-1.171 0.344,-1.67c-0.009,-0.145 -0.129,-0.259 -0.273,-0.259c-0.006,0 -0.012,0 -0.018,0.001Z" style="fill:url(#_Linear20);fill-rule:nonzero;"/>
			<path d="M29.351,26.825c-0.366,0.233 -0.681,0.591 -0.963,1.094c-0.642,1.146 -0.849,2.538 -0.567,3.821c0.06,0.272 0.163,0.613 0.433,0.837c0.146,0.121 0.336,0.188 0.525,0.188c0.04,0 0.078,-0.003 0.117,-0.009c0.192,-0.028 0.353,-0.128 0.453,-0.279c0.084,-0.127 0.049,-0.298 -0.078,-0.381c-0.127,-0.084 -0.298,-0.049 -0.381,0.078c-0.017,0.025 -0.05,0.034 -0.075,0.038c-0.07,0.01 -0.155,-0.014 -0.209,-0.058c-0.141,-0.117 -0.204,-0.335 -0.248,-0.532c-0.253,-1.153 -0.067,-2.404 0.51,-3.434c0.236,-0.422 0.491,-0.716 0.779,-0.899c0.285,-0.181 0.612,-0.251 0.897,-0.192c0.319,0.067 0.665,0.335 0.741,0.575c0.046,0.145 0.201,0.225 0.346,0.179c0.145,-0.046 0.225,-0.2 0.179,-0.345c-0.156,-0.492 -0.711,-0.855 -1.155,-0.947c-0.102,-0.022 -0.208,-0.032 -0.314,-0.032c-0.335,0 -0.683,0.103 -0.99,0.298Z" style="fill:url(#_Linear21);fill-rule:nonzero;"/>
			<path d="M18.104,33.2c-0.148,0.037 -0.238,0.186 -0.201,0.334c0.152,0.609 0.14,1.306 -0.038,2.193c-0.601,3.003 -2.817,6.098 -6.08,8.491c-0.123,0.09 -0.149,0.262 -0.059,0.384c0.053,0.074 0.137,0.113 0.222,0.113c0.056,0 0.113,-0.018 0.162,-0.053c3.372,-2.474 5.667,-5.691 6.295,-8.827c0.194,-0.97 0.205,-1.743 0.032,-2.434c-0.031,-0.126 -0.143,-0.209 -0.267,-0.209c-0.022,0 -0.044,0.003 -0.066,0.008Z" style="fill:url(#_Linear22);fill-rule:nonzero;"/>
			<path d="M27.783,31.517c-0.035,1.189 -0.274,2.441 -0.505,3.651c-0.066,0.343 -0.133,0.699 -0.194,1.043c-0.269,1.515 -0.477,3.138 -0.181,4.747c0.184,0.997 1.184,4.314 6.344,5.15c0.015,0.002 0.03,0.003 0.044,0.003c0.133,0 0.25,-0.096 0.272,-0.231c0.024,-0.15 -0.078,-0.291 -0.228,-0.315c-4.805,-0.778 -5.724,-3.799 -5.891,-4.706c-0.28,-1.523 -0.078,-3.088 0.181,-4.552c0.061,-0.34 0.128,-0.694 0.194,-1.036c0.235,-1.231 0.478,-2.504 0.514,-3.738c0.005,-0.152 -0.115,-0.279 -0.266,-0.283l-0.008,0c-0.147,0 -0.271,0.117 -0.276,0.267Z" style="fill:url(#_Linear23);fill-rule:nonzero;"/>
			<path d="M35.219,19.576c-0.064,0.381 -0.181,0.627 -0.33,0.938c-0.062,0.128 -0.126,0.261 -0.193,0.418c-0.234,0.545 -0.593,0.956 -1.013,1.158l-0.105,0.051l-0.037,0.111c-0.298,0.905 -0.901,1.544 -1.697,1.798l-0.154,0.049l-0.032,0.158c-0.072,0.353 -0.404,0.627 -0.685,0.826c-0.725,0.513 -1.565,0.892 -2.429,1.095c-0.148,0.035 -0.24,0.183 -0.205,0.331c0.03,0.126 0.143,0.212 0.268,0.212c0.02,0 0.041,-0.002 0.063,-0.008c0.932,-0.218 1.839,-0.627 2.621,-1.181c0.327,-0.232 0.71,-0.551 0.864,-1.007c0.865,-0.325 1.524,-1.025 1.872,-1.994c0.493,-0.272 0.908,-0.759 1.175,-1.382c0.062,-0.146 0.124,-0.274 0.183,-0.397c0.154,-0.323 0.3,-0.627 0.377,-1.085c0.025,-0.15 -0.076,-0.292 -0.226,-0.317c-0.015,-0.002 -0.03,-0.004 -0.045,-0.004c-0.132,0 -0.249,0.095 -0.272,0.23Z" style="fill:url(#_Linear24);fill-rule:nonzero;"/>
			<path d="M35.535,18.564c-0.034,0.147 0.057,0.296 0.205,0.33c1.367,0.322 2.151,1.758 2.301,2.956c0.174,1.392 -0.247,2.789 -0.693,4.102c-0.04,0.117 -0.081,0.235 -0.121,0.353c-0.431,1.256 -0.876,2.555 -0.898,3.914c-0.007,0.424 0.028,0.847 0.062,1.256c0.034,0.418 0.07,0.85 0.058,1.268c-0.044,1.597 -0.805,3.158 -2.036,4.177c-0.267,0.221 -0.564,0.424 -0.852,0.621c-0.415,0.284 -0.845,0.578 -1.218,0.944c-0.626,0.615 -1.174,1.621 -0.834,2.602c0.039,0.114 0.146,0.185 0.26,0.185c0.03,0 0.06,-0.004 0.09,-0.015c0.144,-0.049 0.22,-0.206 0.17,-0.35c-0.256,-0.74 0.217,-1.555 0.699,-2.029c0.339,-0.332 0.73,-0.6 1.144,-0.883c0.297,-0.203 0.605,-0.414 0.892,-0.651c1.351,-1.118 2.187,-2.832 2.236,-4.585c0.012,-0.449 -0.025,-0.896 -0.061,-1.329c-0.033,-0.396 -0.067,-0.805 -0.06,-1.202c0.02,-1.272 0.451,-2.529 0.868,-3.745c0.041,-0.118 0.082,-0.236 0.122,-0.354c0.466,-1.373 0.906,-2.84 0.718,-4.347c-0.173,-1.381 -1.098,-3.042 -2.721,-3.423c-0.021,-0.005 -0.042,-0.008 -0.063,-0.008c-0.125,0 -0.238,0.086 -0.268,0.213Z" style="fill:url(#_Linear25);fill-rule:nonzero;"/>
			<path d="M35.202,20.571c-0.13,0.079 -0.17,0.249 -0.091,0.378c0.787,1.285 0.462,2.93 0.199,3.796c-0.202,0.661 -0.482,1.314 -0.753,1.946c-0.265,0.619 -0.539,1.26 -0.746,1.919c-0.486,1.546 -0.6,3.181 -0.711,4.761c-0.034,0.49 -0.069,0.997 -0.115,1.491c-0.166,1.782 -0.533,4.039 -1.909,5.692c-0.752,0.902 -1.722,1.46 -2.662,1.531c-0.151,0.012 -0.265,0.144 -0.254,0.296c0.011,0.144 0.132,0.254 0.275,0.254c0.007,0 0.013,0 0.021,-0.001c1.087,-0.082 2.196,-0.712 3.043,-1.728c1.473,-1.769 1.86,-4.132 2.034,-5.993c0.046,-0.5 0.082,-1.01 0.116,-1.504c0.108,-1.548 0.22,-3.15 0.687,-4.634c0.199,-0.633 0.467,-1.26 0.727,-1.867c0.277,-0.646 0.563,-1.313 0.773,-2.003c0.502,-1.648 0.411,-3.155 -0.256,-4.243c-0.051,-0.085 -0.142,-0.132 -0.234,-0.132c-0.049,0 -0.099,0.013 -0.144,0.041Z" style="fill:url(#_Linear26);fill-rule:nonzero;"/>
			<path d="M32.365,23.864c-0.871,1.088 -1.024,2.551 -1.1,3.837c-0.014,0.246 -0.028,0.495 -0.041,0.745c-0.152,2.799 -0.309,5.693 -2.025,7.773c-0.352,0.427 -0.773,0.816 -1.18,1.193c-0.469,0.434 -0.954,0.883 -1.357,1.405c-0.781,1.013 -1.236,2.544 -0.493,3.681c0.053,0.081 0.141,0.125 0.231,0.125c0.051,0 0.103,-0.015 0.15,-0.045c0.127,-0.083 0.163,-0.254 0.08,-0.381c-0.596,-0.911 -0.194,-2.185 0.468,-3.044c0.375,-0.486 0.822,-0.899 1.295,-1.337c0.42,-0.389 0.855,-0.791 1.231,-1.247c1.831,-2.219 1.993,-5.205 2.149,-8.093c0.014,-0.249 0.027,-0.497 0.042,-0.743c0.07,-1.201 0.21,-2.563 0.98,-3.525c0.095,-0.118 0.075,-0.292 -0.043,-0.387c-0.051,-0.04 -0.112,-0.06 -0.172,-0.06c-0.081,0 -0.161,0.035 -0.215,0.103Z" style="fill:url(#_Linear27);fill-rule:nonzero;"/>
			<path d="M33.488,22.401c-0.551,1.522 -1.2,3.491 -1.336,5.221c-0.093,1.205 0.043,2.416 0.175,3.587c0.061,0.538 0.123,1.095 0.162,1.64c0.182,2.555 -0.149,5.189 -0.958,7.619c-0.048,0.145 0.03,0.3 0.174,0.348c0.029,0.01 0.058,0.015 0.087,0.015c0.116,0 0.223,-0.073 0.261,-0.189c0.831,-2.498 1.172,-5.206 0.985,-7.832c-0.04,-0.556 -0.103,-1.119 -0.164,-1.663c-0.129,-1.145 -0.263,-2.33 -0.173,-3.483c0.13,-1.663 0.766,-3.586 1.305,-5.076c0.052,-0.143 -0.022,-0.301 -0.165,-0.352c-0.031,-0.012 -0.063,-0.017 -0.094,-0.017c-0.112,0 -0.218,0.07 -0.259,0.182Z" style="fill:url(#_Linear28);fill-rule:nonzero;"/>
			<path d="M35.131,20.233c-0.114,0.1 -0.126,0.274 -0.026,0.388c1.109,1.275 1.519,3.261 1.123,5.449c-0.075,0.414 -0.175,0.837 -0.273,1.245c-0.232,0.974 -0.472,1.981 -0.404,3.012c0.037,0.554 0.162,1.094 0.283,1.616c0.063,0.274 0.129,0.558 0.18,0.835c0.172,0.943 0.115,1.675 -0.173,2.238c-0.069,0.135 -0.016,0.301 0.119,0.37c0.04,0.021 0.083,0.03 0.126,0.03c0.099,0 0.196,-0.054 0.245,-0.149c0.346,-0.674 0.419,-1.521 0.224,-2.588c-0.053,-0.29 -0.12,-0.58 -0.185,-0.86c-0.121,-0.524 -0.236,-1.019 -0.27,-1.528c-0.063,-0.948 0.157,-1.871 0.39,-2.848c0.1,-0.416 0.202,-0.846 0.28,-1.275c0.425,-2.353 -0.03,-4.507 -1.25,-5.908c-0.055,-0.063 -0.131,-0.095 -0.208,-0.095c-0.064,0 -0.128,0.023 -0.181,0.068Z" style="fill:url(#_Linear29);fill-rule:nonzero;"/>
			<path d="M32.649,23.965c-0.528,1.682 -0.795,3.429 -0.792,5.192c0.001,0.786 0.057,1.579 0.11,2.346c0.046,0.642 0.092,1.306 0.106,1.957c0.036,1.705 -0.178,3.004 -0.674,4.089c-0.614,1.347 -1.707,2.318 -2.923,2.597c-0.148,0.034 -0.241,0.182 -0.207,0.33c0.029,0.128 0.143,0.214 0.268,0.214c0.02,0 0.041,-0.002 0.062,-0.007c1.382,-0.317 2.616,-1.403 3.301,-2.905c0.531,-1.163 0.76,-2.539 0.723,-4.33c-0.014,-0.664 -0.061,-1.335 -0.107,-1.984c-0.053,-0.758 -0.108,-1.541 -0.109,-2.308c-0.002,-1.707 0.255,-3.398 0.767,-5.026c0.045,-0.145 -0.035,-0.299 -0.18,-0.345c-0.028,-0.009 -0.056,-0.013 -0.083,-0.013c-0.117,0 -0.226,0.076 -0.262,0.193Z" style="fill:url(#_Linear30);fill-rule:nonzero;"/>
			<path d="M26.983,38.911c-0.087,0.125 -0.056,0.297 0.069,0.383c0.686,0.477 1.617,0.752 2.483,0.752c0.171,0 0.338,-0.01 0.501,-0.032c0.151,-0.02 0.257,-0.159 0.236,-0.31c-0.02,-0.15 -0.158,-0.256 -0.309,-0.236c-0.849,0.114 -1.893,-0.137 -2.597,-0.626c-0.048,-0.033 -0.103,-0.049 -0.157,-0.049c-0.087,0 -0.173,0.041 -0.226,0.118Z" style="fill:url(#_Linear31);fill-rule:nonzero;"/>
			<path d="M33.712,30.244c-0.112,0.103 -0.119,0.277 -0.016,0.389c0.311,0.336 0.758,0.53 1.214,0.53c0.036,0 0.073,-0.002 0.109,-0.004c0.152,-0.01 0.266,-0.142 0.256,-0.293c-0.011,-0.152 -0.144,-0.267 -0.293,-0.256c-0.324,0.021 -0.662,-0.112 -0.881,-0.351c-0.055,-0.058 -0.129,-0.088 -0.203,-0.088c-0.066,0 -0.133,0.024 -0.186,0.073Z" style="fill:url(#_Linear32);fill-rule:nonzero;"/>
			<path d="M34.71,30.626c-0.148,0.036 -0.239,0.184 -0.204,0.332c0.07,0.291 0.208,0.567 0.398,0.798c0.13,0.158 0.262,0.199 0.365,0.199c0.022,0 0.043,-0.002 0.062,-0.005c0.15,-0.024 0.252,-0.165 0.228,-0.315c-0.02,-0.121 -0.115,-0.211 -0.23,-0.229c-0.138,-0.167 -0.237,-0.366 -0.288,-0.577c-0.03,-0.126 -0.142,-0.211 -0.267,-0.211c-0.021,0 -0.043,0.003 -0.064,0.008Z" style="fill:url(#_Linear33);fill-rule:nonzero;"/>
			<path d="M34.12,30.42c-0.151,0.02 -0.257,0.158 -0.237,0.309c0.026,0.195 0.066,0.39 0.119,0.58c0.056,0.204 0.164,0.49 0.44,0.616c0.037,0.017 0.076,0.025 0.114,0.025c0.104,0 0.204,-0.059 0.25,-0.16c0.064,-0.138 0.003,-0.302 -0.135,-0.365c-0.034,-0.016 -0.086,-0.074 -0.139,-0.263c-0.046,-0.165 -0.081,-0.336 -0.103,-0.505c-0.019,-0.139 -0.138,-0.239 -0.273,-0.239c-0.012,0 -0.024,0 -0.036,0.002Z" style="fill:url(#_Linear34);fill-rule:nonzero;"/>
			<path d="M35.964,27.28c-0.067,0.356 -0.139,0.689 -0.208,1.01c-0.207,0.959 -0.402,1.864 -0.365,2.993c0.005,0.154 0.014,0.308 0.022,0.461c0.022,0.396 0.043,0.77 0.006,1.142c-0.085,0.859 -0.496,1.688 -1.129,2.275c-0.148,0.138 -0.311,0.268 -0.483,0.406c-0.535,0.427 -1.088,0.869 -1.237,1.577c-0.032,0.149 0.063,0.295 0.212,0.326c0.019,0.004 0.038,0.006 0.057,0.006c0.127,0 0.241,-0.089 0.269,-0.218c0.109,-0.515 0.563,-0.878 1.043,-1.262c0.172,-0.137 0.35,-0.28 0.513,-0.431c0.73,-0.678 1.205,-1.634 1.303,-2.625c0.041,-0.415 0.018,-0.827 -0.004,-1.226c-0.009,-0.15 -0.017,-0.299 -0.022,-0.449c-0.035,-1.061 0.145,-1.894 0.353,-2.858c0.07,-0.326 0.143,-0.662 0.211,-1.026c0.028,-0.149 -0.071,-0.293 -0.22,-0.321c-0.017,-0.003 -0.034,-0.005 -0.051,-0.005c-0.13,0 -0.245,0.093 -0.27,0.225Z" style="fill:url(#_Linear35);fill-rule:nonzero;"/>
		</g>
		<path d="M24,0c-6.411,0 -12.438,2.497 -16.971,7.03c-4.533,4.532 -7.029,10.559 -7.029,16.97c0,6.411 2.496,12.438 7.029,16.971c4.533,4.533 10.56,7.029 16.971,7.029c6.411,0 12.438,-2.496 16.97,-7.029c4.533,-4.533 7.03,-10.56 7.03,-16.971c0,-6.411 -2.497,-12.438 -7.03,-16.97c-4.532,-4.533 -10.559,-7.03 -16.97,-7.03Zm-23.45,24c0,-12.93 10.52,-23.45 23.45,-23.45c12.93,-0 23.45,10.52 23.45,23.45c0,12.93 -10.52,23.45 -23.45,23.45c-12.93,0 -23.45,-10.52 -23.45,-23.45Z" style="fill:url(#_Linear36);fill-rule:nonzero;"/>
	</g>
	<defs>
		<linearGradient id="_Linear1" x1="0" y1="0" x2="1" y2="0" gradientUnits="userSpaceOnUse" gradientTransform="matrix(-45.5993,44.6558,-44.6558,-45.5993,44.6481,3.47463)">
			<stop offset="0" style="stop-color:#cfa357;stop-opacity:1"/>
			<stop offset="0.2" style="stop-color:#fdf3aa;stop-opacity:1"/>
			<stop offset="0.5" style="stop-color:#ca9250;stop-opacity:1"/>
			<stop offset="0.8" style="stop-color:#fdeea8;stop-opacity:1"/>
			<stop offset="1" style="stop-color:#c4913c;stop-opacity:1"/>
		</linearGradient>
		<linearGradient id="_Linear2" x1="0" y1="0" x2="1" y2="0" gradientUnits="userSpaceOnUse" gradientTransform="matrix(-45.5993,44.6559,-44.6559,-45.5993,44.5795,3.40457)">
			<stop offset="0" style="stop-color:#cfa357;stop-opacity:1"/>
			<stop offset="0.2" style="stop-color:#fdf3aa;stop-opacity:1"/>
			<stop offset="0.5" style="stop-color:#ca9250;stop-opacity:1"/>
			<stop offset="0.8" style="stop-color:#fdeea8;stop-opacity:1"/>
			<stop offset="1" style="stop-color:#c4913c;stop-opacity:1"/>
		</linearGradient>
		<linearGradient id="_Linear3" x1="0" y1="0" x2="1" y2="0" gradientUnits="userSpaceOnUse" gradientTransform="matrix(-45.5993,44.6558,-44.6558,-45.5993,42.8904,1.67989)">
			<stop offset="0" style="stop-color:#cfa357;stop-opacity:1"/>
			<stop offset="0.2" style="stop-color:#fdf3aa;stop-opacity:1"/>
			<stop offset="0.5" style="stop-color:#ca9250;stop-opacity:1"/>
			<stop offset="0.8" style="stop-color:#fdeea8;stop-opacity:1"/>
			<stop offset="1" style="stop-color:#c4913c;stop-opacity:1"/>
		</linearGradient>
		<linearGradient id="_Linear4" x1="0" y1="0" x2="1" y2="0" gradientUnits="userSpaceOnUse" gradientTransform="matrix(-45.5993,44.6559,-44.6559,-45.5993,38.7574,-2.54052)">
			<stop offset="0" style="stop-color:#cfa357;stop-opacity:1"/>
			<stop offset="0.2" style="stop-color:#fdf3aa;stop-opacity:1"/>
			<stop offset="0.5" style="stop-color:#ca9250;stop-opacity:1"/>
			<stop offset="0.8" style="stop-color:#fdeea8;stop-opacity:1"/>
			<stop offset="1" style="stop-color:#c4913c;stop-opacity:1"/>
		</linearGradient>
		<linearGradient id="_Linear5" x1="0" y1="0" x2="1" y2="0" gradientUnits="userSpaceOnUse" gradientTransform="matrix(-45.5992,44.6558,-44.6558,-45.5992,37.7323,-3.58718)">
			<stop offset="0" style="stop-color:#cfa357;stop-opacity:1"/>
			<stop offset="0.2" style="stop-color:#fdf3aa;stop-opacity:1"/>
			<stop offset="0.5" style="stop-color:#ca9250;stop-opacity:1"/>
			<stop offset="0.8" style="stop-color:#fdeea8;stop-opacity:1"/>
			<stop offset="1" style="stop-color:#c4913c;stop-opacity:1"/>
		</linearGradient>
		<linearGradient id="_Linear6" x1="0" y1="0" x2="1" y2="0" gradientUnits="userSpaceOnUse" gradientTransform="matrix(-45.5993,44.6558,-44.6558,-45.5993,36.4251,-4.9221)">
			<stop offset="0" style="stop-color:#cfa357;stop-opacity:1"/>
			<stop offset="0.2" style="stop-color:#fdf3aa;stop-opacity:1"/>
			<stop offset="0.5" style="stop-color:#ca9250;stop-opacity:1"/>
			<stop offset="0.8" style="stop-color:#fdeea8;stop-opacity:1"/>
			<stop offset="1" style="stop-color:#c4913c;stop-opacity:1"/>
		</linearGradient>
		<linearGradient id="_Linear7" x1="0" y1="0" x2="1" y2="0" gradientUnits="userSpaceOnUse" gradientTransform="matrix(-45.5993,44.6559,-44.6559,-45.5993,34.9807,-6.39699)">
			<stop offset="0" style="stop-color:#cfa357;stop-opacity:1"/>
			<stop offset="0.2" style="stop-color:#fdf3aa;stop-opacity:1"/>
			<stop offset="0.5" style="stop-color:#ca9250;stop-opacity:1"/>
			<stop offset="0.8" style="stop-color:#fdeea8;stop-opacity:1"/>
			<stop offset="1" style="stop-color:#c4913c;stop-opacity:1"/>
		</linearGradient>
		<linearGradient id="_Linear8" x1="0" y1="0" x2="1" y2="0" gradientUnits="userSpaceOnUse" gradientTransform="matrix(-45.5992,44.6558,-44.6558,-45.5992,45.2441,4.08331)">
			<stop offset="0" style="stop-color:#cfa357;stop-opacity:1"/>
			<stop offset="0.2" style="stop-color:#fdf3aa;stop-opacity:1"/>
			<stop offset="0.5" style="stop-color:#ca9250;stop-opacity:1"/>
			<stop offset="0.8" style="stop-color:#fdeea8;stop-opacity:1"/>
			<stop offset="1" style="stop-color:#c4913c;stop-opacity:1"/>
		</linearGradient>
		<linearGradient id="_Linear9" x1="0" y1="0" x2="1" y2="0" gradientUnits="userSpaceOnUse" gradientTransform="matrix(-45.5993,44.6559,-44.6559,-45.5993,45.1682,4.00568)">
			<stop offset="0" style="stop-color:#cfa357;stop-opacity:1"/>
			<stop offset="0.2" style="stop-color:#fdf3aa;stop-opacity:1"/>
			<stop offset="0.5" style="stop-color:#ca9250;stop-opacity:1"/>
			<stop offset="0.8" style="stop-color:#fdeea8;stop-opacity:1"/>
			<stop offset="1" style="stop-color:#c4913c;stop-opacity:1"/>
		</linearGradient>
		<linearGradient id="_Linear10" x1="0" y1="0" x2="1" y2="0" gradientUnits="userSpaceOnUse" gradientTransform="matrix(-45.5994,44.6559,-44.6559,-45.5994,45.7967,4.6475)">
			<stop offset="0" style="stop-color:#cfa357;stop-opacity:1"/>
			<stop offset="0.2" style="stop-color:#fdf3aa;stop-opacity:1"/>
			<stop offset="0.5" style="stop-color:#ca9250;stop-opacity:1"/>
			<stop offset="0.8" style="stop-color:#fdeea8;stop-opacity:1"/>
			<stop offset="1" style="stop-color:#c4913c;stop-opacity:1"/>
		</linearGradient>
		<linearGradient id="_Linear11" x1="0" y1="0" x2="1" y2="0" gradientUnits="userSpaceOnUse" gradientTransform="matrix(-45.5993,44.6558,-44.6558,-45.5993,45.0427,3.87756)">
			<stop offset="0" style="stop-color:#cfa357;stop-opacity:1"/>
			<stop offset="0.2" style="stop-color:#fdf3aa;stop-opacity:1"/>
			<stop offset="0.5" style="stop-color:#ca9250;stop-opacity:1"/>
			<stop offset="0.8" style="stop-color:#fdeea8;stop-opacity:1"/>
			<stop offset="1" style="stop-color:#c4913c;stop-opacity:1"/>
		</linearGradient>
		<linearGradient id="_Linear12" x1="0" y1="0" x2="1" y2="0" gradientUnits="userSpaceOnUse" gradientTransform="matrix(-45.5994,44.656,-44.656,-45.5994,43.3667,2.16616)">
			<stop offset="0" style="stop-color:#cfa357;stop-opacity:1"/>
			<stop offset="0.2" style="stop-color:#fdf3aa;stop-opacity:1"/>
			<stop offset="0.5" style="stop-color:#ca9250;stop-opacity:1"/>
			<stop offset="0.8" style="stop-color:#fdeea8;stop-opacity:1"/>
			<stop offset="1" style="stop-color:#c4913c;stop-opacity:1"/>
		</linearGradient>
		<linearGradient id="_Linear13" x1="0" y1="0" x2="1" y2="0" gradientUnits="userSpaceOnUse" gradientTransform="matrix(-45.5992,44.6558,-44.6558,-45.5992,41.654,0.417338)">
			<stop offset="0" style="stop-color:#cfa357;stop-opacity:1"/>
			<stop offset="0.2" style="stop-color:#fdf3aa;stop-opacity:1"/>
			<stop offset="0.5" style="stop-color:#ca9250;stop-opacity:1"/>
			<stop offset="0.8" style="stop-color:#fdeea8;stop-opacity:1"/>
			<stop offset="1" style="stop-color:#c4913c;stop-opacity:1"/>
		</linearGradient>
		<linearGradient id="_Linear14" x1="0" y1="0" x2="1" y2="0" gradientUnits="userSpaceOnUse" gradientTransform="matrix(-45.5993,44.6559,-44.6559,-45.5993,38.2748,-3.03329)">
			<stop offset="0" style="stop-color:#cfa357;stop-opacity:1"/>
			<stop offset="0.2" style="stop-color:#fdf3aa;stop-opacity:1"/>
			<stop offset="0.5" style="stop-color:#ca9250;stop-opacity:1"/>
			<stop offset="0.8" style="stop-color:#fdeea8;stop-opacity:1"/>
			<stop offset="1" style="stop-color:#c4913c;stop-opacity:1"/>
		</linearGradient>
		<linearGradient id="_Linear15" x1="0" y1="0" x2="1" y2="0" gradientUnits="userSpaceOnUse" gradientTransform="matrix(-45.5994,44.6559,-44.6559,-45.5994,38.7844,-2.51281)">
			<stop offset="0" style="stop-color:#cfa357;stop-opacity:1"/>
			<stop offset="0.2" style="stop-color:#fdf3aa;stop-opacity:1"/>
			<stop offset="0.5" style="stop-color:#ca9250;stop-opacity:1"/>
			<stop offset="0.8" style="stop-color:#fdeea8;stop-opacity:1"/>
			<stop offset="1" style="stop-color:#c4913c;stop-opacity:1"/>
		</linearGradient>
		<linearGradient id="_Linear16" x1="0" y1="0" x2="1" y2="0" gradientUnits="userSpaceOnUse" gradientTransform="matrix(-45.5993,44.6558,-44.6558,-45.5993,38.7722,-2.52535)">
			<stop offset="0" style="stop-color:#cfa357;stop-opacity:1"/>
			<stop offset="0.2" style="stop-color:#fdf3aa;stop-opacity:1"/>
			<stop offset="0.5" style="stop-color:#ca9250;stop-opacity:1"/>
			<stop offset="0.8" style="stop-color:#fdeea8;stop-opacity:1"/>
			<stop offset="1" style="stop-color:#c4913c;stop-opacity:1"/>
		</linearGradient>
		<linearGradient id="_Linear17" x1="0" y1="0" x2="1" y2="0" gradientUnits="userSpaceOnUse" gradientTransform="matrix(-45.5993,44.6558,-44.6558,-45.5993,39.8218,-1.45361)">
			<stop offset="0" style="stop-color:#cfa357;stop-opacity:1"/>
			<stop offset="0.2" style="stop-color:#fdf3aa;stop-opacity:1"/>
			<stop offset="0.5" style="stop-color:#ca9250;stop-opacity:1"/>
			<stop offset="0.8" style="stop-color:#fdeea8;stop-opacity:1"/>
			<stop offset="1" style="stop-color:#c4913c;stop-opacity:1"/>
		</linearGradient>
		<linearGradient id="_Linear18" x1="0" y1="0" x2="1" y2="0" gradientUnits="userSpaceOnUse" gradientTransform="matrix(-45.5993,44.6558,-44.6558,-45.5993,45.7446,4.59425)">
			<stop offset="0" style="stop-color:#cfa357;stop-opacity:1"/>
			<stop offset="0.2" style="stop-color:#fdf3aa;stop-opacity:1"/>
			<stop offset="0.5" style="stop-color:#ca9250;stop-opacity:1"/>
			<stop offset="0.8" style="stop-color:#fdeea8;stop-opacity:1"/>
			<stop offset="1" style="stop-color:#c4913c;stop-opacity:1"/>
		</linearGradient>
		<linearGradient id="_Linear19" x1="0" y1="0" x2="1" y2="0" gradientUnits="userSpaceOnUse" gradientTransform="matrix(-45.5992,44.6557,-44.6557,-45.5992,41.4096,0.167807)">
			<stop offset="0" style="stop-color:#cfa357;stop-opacity:1"/>
			<stop offset="0.2" style="stop-color:#fdf3aa;stop-opacity:1"/>
			<stop offset="0.5" style="stop-color:#ca9250;stop-opacity:1"/>
			<stop offset="0.8" style="stop-color:#fdeea8;stop-opacity:1"/>
			<stop offset="1" style="stop-color:#c4913c;stop-opacity:1"/>
		</linearGradient>
		<linearGradient id="_Linear20" x1="0" y1="0" x2="1" y2="0" gradientUnits="userSpaceOnUse" gradientTransform="matrix(-45.5994,44.6559,-44.6559,-45.5994,42.2948,1.07167)">
			<stop offset="0" style="stop-color:#cfa357;stop-opacity:1"/>
			<stop offset="0.2" style="stop-color:#fdf3aa;stop-opacity:1"/>
			<stop offset="0.5" style="stop-color:#ca9250;stop-opacity:1"/>
			<stop offset="0.8" style="stop-color:#fdeea8;stop-opacity:1"/>
			<stop offset="1" style="stop-color:#c4913c;stop-opacity:1"/>
		</linearGradient>
		<linearGradient id="_Linear21" x1="0" y1="0" x2="1" y2="0" gradientUnits="userSpaceOnUse" gradientTransform="matrix(-45.5992,44.6557,-44.6557,-45.5992,50.2323,9.17692)">
			<stop offset="0" style="stop-color:#cfa357;stop-opacity:1"/>
			<stop offset="0.2" style="stop-color:#fdf3aa;stop-opacity:1"/>
			<stop offset="0.5" style="stop-color:#ca9250;stop-opacity:1"/>
			<stop offset="0.8" style="stop-color:#fdeea8;stop-opacity:1"/>
			<stop offset="1" style="stop-color:#c4913c;stop-opacity:1"/>
		</linearGradient>
		<linearGradient id="_Linear22" x1="0" y1="0" x2="1" y2="0" gradientUnits="userSpaceOnUse" gradientTransform="matrix(-45.5993,44.6559,-44.6559,-45.5993,47.9696,6.86641)">
			<stop offset="0" style="stop-color:#cfa357;stop-opacity:1"/>
			<stop offset="0.2" style="stop-color:#fdf3aa;stop-opacity:1"/>
			<stop offset="0.5" style="stop-color:#ca9250;stop-opacity:1"/>
			<stop offset="0.8" style="stop-color:#fdeea8;stop-opacity:1"/>
			<stop offset="1" style="stop-color:#c4913c;stop-opacity:1"/>
		</linearGradient>
		<linearGradient id="_Linear23" x1="0" y1="0" x2="1" y2="0" gradientUnits="userSpaceOnUse" gradientTransform="matrix(-45.5992,44.6558,-44.6558,-45.5992,55.4067,14.4606)">
			<stop offset="0" style="stop-color:#cfa357;stop-opacity:1"/>
			<stop offset="0.2" style="stop-color:#fdf3aa;stop-opacity:1"/>
			<stop offset="0.5" style="stop-color:#ca9250;stop-opacity:1"/>
			<stop offset="0.8" style="stop-color:#fdeea8;stop-opacity:1"/>
			<stop offset="1" style="stop-color:#c4913c;stop-opacity:1"/>
		</linearGradient>
		<linearGradient id="_Linear24" x1="0" y1="0" x2="1" y2="0" gradientUnits="userSpaceOnUse" gradientTransform="matrix(-45.5993,44.6558,-44.6558,-45.5993,48.6383,7.54922)">
			<stop offset="0" style="stop-color:#cfa357;stop-opacity:1"/>
			<stop offset="0.2" style="stop-color:#fdf3aa;stop-opacity:1"/>
			<stop offset="0.5" style="stop-color:#ca9250;stop-opacity:1"/>
			<stop offset="0.8" style="stop-color:#fdeea8;stop-opacity:1"/>
			<stop offset="1" style="stop-color:#c4913c;stop-opacity:1"/>
		</linearGradient>
		<linearGradient id="_Linear25" x1="0" y1="0" x2="1" y2="0" gradientUnits="userSpaceOnUse" gradientTransform="matrix(-45.5993,44.6558,-44.6558,-45.5993,52.4964,11.4888)">
			<stop offset="0" style="stop-color:#cfa357;stop-opacity:1"/>
			<stop offset="0.2" style="stop-color:#fdf3aa;stop-opacity:1"/>
			<stop offset="0.5" style="stop-color:#ca9250;stop-opacity:1"/>
			<stop offset="0.8" style="stop-color:#fdeea8;stop-opacity:1"/>
			<stop offset="1" style="stop-color:#c4913c;stop-opacity:1"/>
		</linearGradient>
		<linearGradient id="_Linear26" x1="0" y1="0" x2="1" y2="0" gradientUnits="userSpaceOnUse" gradientTransform="matrix(-45.5992,44.6558,-44.6558,-45.5992,52.754,11.7518)">
			<stop offset="0" style="stop-color:#cfa357;stop-opacity:1"/>
			<stop offset="0.2" style="stop-color:#fdf3aa;stop-opacity:1"/>
			<stop offset="0.5" style="stop-color:#ca9250;stop-opacity:1"/>
			<stop offset="0.8" style="stop-color:#fdeea8;stop-opacity:1"/>
			<stop offset="1" style="stop-color:#c4913c;stop-opacity:1"/>
		</linearGradient>
		<linearGradient id="_Linear27" x1="0" y1="0" x2="1" y2="0" gradientUnits="userSpaceOnUse" gradientTransform="matrix(-45.5993,44.6558,-44.6558,-45.5993,52.0826,11.0663)">
			<stop offset="0" style="stop-color:#cfa357;stop-opacity:1"/>
			<stop offset="0.2" style="stop-color:#fdf3aa;stop-opacity:1"/>
			<stop offset="0.5" style="stop-color:#ca9250;stop-opacity:1"/>
			<stop offset="0.8" style="stop-color:#fdeea8;stop-opacity:1"/>
			<stop offset="1" style="stop-color:#c4913c;stop-opacity:1"/>
		</linearGradient>
		<linearGradient id="_Linear28" x1="0" y1="0" x2="1" y2="0" gradientUnits="userSpaceOnUse" gradientTransform="matrix(-45.5992,44.6558,-44.6558,-45.5992,52.8551,11.855)">
			<stop offset="0" style="stop-color:#cfa357;stop-opacity:1"/>
			<stop offset="0.2" style="stop-color:#fdf3aa;stop-opacity:1"/>
			<stop offset="0.5" style="stop-color:#ca9250;stop-opacity:1"/>
			<stop offset="0.8" style="stop-color:#fdeea8;stop-opacity:1"/>
			<stop offset="1" style="stop-color:#c4913c;stop-opacity:1"/>
		</linearGradient>
		<linearGradient id="_Linear29" x1="0" y1="0" x2="1" y2="0" gradientUnits="userSpaceOnUse" gradientTransform="matrix(-45.5993,44.6558,-44.6558,-45.5993,52.4225,11.4133)">
			<stop offset="0" style="stop-color:#cfa357;stop-opacity:1"/>
			<stop offset="0.2" style="stop-color:#fdf3aa;stop-opacity:1"/>
			<stop offset="0.5" style="stop-color:#ca9250;stop-opacity:1"/>
			<stop offset="0.8" style="stop-color:#fdeea8;stop-opacity:1"/>
			<stop offset="1" style="stop-color:#c4913c;stop-opacity:1"/>
		</linearGradient>
		<linearGradient id="_Linear30" x1="0" y1="0" x2="1" y2="0" gradientUnits="userSpaceOnUse" gradientTransform="matrix(-45.5993,44.6558,-44.6558,-45.5993,52.4111,11.4018)">
			<stop offset="0" style="stop-color:#cfa357;stop-opacity:1"/>
			<stop offset="0.2" style="stop-color:#fdf3aa;stop-opacity:1"/>
			<stop offset="0.5" style="stop-color:#ca9250;stop-opacity:1"/>
			<stop offset="0.8" style="stop-color:#fdeea8;stop-opacity:1"/>
			<stop offset="1" style="stop-color:#c4913c;stop-opacity:1"/>
		</linearGradient>
		<linearGradient id="_Linear31" x1="0" y1="0" x2="1" y2="0" gradientUnits="userSpaceOnUse" gradientTransform="matrix(-45.5993,44.6558,-44.6558,-45.5993,54.7548,13.7951)">
			<stop offset="0" style="stop-color:#cfa357;stop-opacity:1"/>
			<stop offset="0.2" style="stop-color:#fdf3aa;stop-opacity:1"/>
			<stop offset="0.5" style="stop-color:#ca9250;stop-opacity:1"/>
			<stop offset="0.8" style="stop-color:#fdeea8;stop-opacity:1"/>
			<stop offset="1" style="stop-color:#c4913c;stop-opacity:1"/>
		</linearGradient>
		<linearGradient id="_Linear32" x1="0" y1="0" x2="1" y2="0" gradientUnits="userSpaceOnUse" gradientTransform="matrix(-45.599,44.6555,-44.6555,-45.599,53.2475,12.256)">
			<stop offset="0" style="stop-color:#cfa357;stop-opacity:1"/>
			<stop offset="0.2" style="stop-color:#fdf3aa;stop-opacity:1"/>
			<stop offset="0.5" style="stop-color:#ca9250;stop-opacity:1"/>
			<stop offset="0.8" style="stop-color:#fdeea8;stop-opacity:1"/>
			<stop offset="1" style="stop-color:#c4913c;stop-opacity:1"/>
		</linearGradient>
		<linearGradient id="_Linear33" x1="0" y1="0" x2="1" y2="0" gradientUnits="userSpaceOnUse" gradientTransform="matrix(-45.5989,44.6555,-44.6555,-45.5989,53.8423,12.8634)">
			<stop offset="0" style="stop-color:#cfa357;stop-opacity:1"/>
			<stop offset="0.2" style="stop-color:#fdf3aa;stop-opacity:1"/>
			<stop offset="0.5" style="stop-color:#ca9250;stop-opacity:1"/>
			<stop offset="0.8" style="stop-color:#fdeea8;stop-opacity:1"/>
			<stop offset="1" style="stop-color:#c4913c;stop-opacity:1"/>
		</linearGradient>
		<linearGradient id="_Linear34" x1="0" y1="0" x2="1" y2="0" gradientUnits="userSpaceOnUse" gradientTransform="matrix(-45.5995,44.6561,-44.6561,-45.5995,53.4614,12.4741)">
			<stop offset="0" style="stop-color:#cfa357;stop-opacity:1"/>
			<stop offset="0.2" style="stop-color:#fdf3aa;stop-opacity:1"/>
			<stop offset="0.5" style="stop-color:#ca9250;stop-opacity:1"/>
			<stop offset="0.8" style="stop-color:#fdeea8;stop-opacity:1"/>
			<stop offset="1" style="stop-color:#c4913c;stop-opacity:1"/>
		</linearGradient>
		<linearGradient id="_Linear35" x1="0" y1="0" x2="1" y2="0" gradientUnits="userSpaceOnUse" gradientTransform="matrix(-45.5993,44.6558,-44.6558,-45.5993,54.0904,13.1164)">
			<stop offset="0" style="stop-color:#cfa357;stop-opacity:1"/>
			<stop offset="0.2" style="stop-color:#fdf3aa;stop-opacity:1"/>
			<stop offset="0.5" style="stop-color:#ca9250;stop-opacity:1"/>
			<stop offset="0.8" style="stop-color:#fdeea8;stop-opacity:1"/>
			<stop offset="1" style="stop-color:#c4913c;stop-opacity:1"/>
		</linearGradient>
		<linearGradient id="_Linear36" x1="0" y1="0" x2="1" y2="0" gradientUnits="userSpaceOnUse" gradientTransform="matrix(-45.5991,44.6557,-44.6557,-45.5991,44.8003,3.63007)">
			<stop offset="0" style="stop-color:#cfa357;stop-opacity:1"/>
			<stop offset="0.2" style="stop-color:#fdf3aa;stop-opacity:1"/>
			<stop offset="0.5" style="stop-color:#ca9250;stop-opacity:1"/>
			<stop offset="0.8" style="stop-color:#fdeea8;stop-opacity:1"/>
			<stop offset="1" style="stop-color:#c4913c;stop-opacity:1"/>
		</linearGradient>
	</defs>
</svg>