<?xml version="1.0" encoding="utf-8"?>
<!-- Generator: Adobe Illustrator 24.0.1, SVG Export Plug-In . SVG Version: 6.00 Build 0)  -->
<svg version="1.1" id="Layer_1" xmlns="http://www.w3.org/2000/svg" xmlns:xlink="http://www.w3.org/1999/xlink" x="0px" y="0px"
	 viewBox="0 0 300 240" style="enable-background:new 0 0 300 240;" xml:space="preserve">
<style type="text/css">
	.st0{opacity:0.37;fill:url(#SVGID_1_);}
	.st1{opacity:0.37;fill:url(#SVGID_2_);}
	.st2{fill:url(#SVGID_3_);}
	.st3{fill:url(#SVGID_4_);}
	.st4{fill:url(#SVGID_5_);}
	.st5{fill:url(#SVGID_6_);}
	.st6{fill:url(#SVGID_7_);}
	.st7{fill:url(#SVGID_8_);}
	.st8{fill:url(#SVGID_9_);}
	.st9{fill:#111023;}
	.st10{fill:url(#SVGID_10_);}
	.st11{fill:url(#SVGID_11_);}
	.st12{fill:url(#SVGID_12_);}
	.st13{fill:url(#SVGID_13_);}
	.st14{fill:url(#SVGID_14_);}
	.st15{fill:url(#SVGID_15_);}
	.st16{fill:url(#SVGID_16_);}
	.st17{fill:#5B2B89;}
	.st18{fill:url(#SVGID_17_);}
	.st19{fill:url(#SVGID_18_);}
	.st20{fill:url(#SVGID_19_);}
	.st21{fill:url(#SVGID_20_);}
	.st22{fill:url(#SVGID_21_);}
	.st23{opacity:0.38;fill:url(#SVGID_22_);}
	.st24{fill:url(#SVGID_23_);}
	.st25{fill:#F79244;}
	.st26{opacity:0.5;fill:url(#SVGID_24_);}
	.st27{fill:url(#SVGID_25_);}
	.st28{fill:url(#SVGID_26_);}
	.st29{fill:#E9FDFF;}
	.st30{fill:url(#SVGID_27_);}
	.st31{fill:url(#SVGID_28_);}
	.st32{fill:#2A2A2A;}
	.st33{fill:url(#SVGID_29_);}
</style>
<g>
	<g>
		<linearGradient id="SVGID_1_" gradientUnits="userSpaceOnUse" x1="144.7949" y1="202.3151" x2="154.2106" y2="60.1378">
			<stop  offset="0" style="stop-color:#31D1D6"/>
			<stop  offset="0.3733" style="stop-color:#32CED8"/>
			<stop  offset="0.6175" style="stop-color:#36C6DF"/>
			<stop  offset="0.824" style="stop-color:#3CB7EB"/>
			<stop  offset="1" style="stop-color:#45A3FA"/>
		</linearGradient>
		<path class="st0" d="M37.9,194.2h-30c-8-8.3-10.2-21.6-5.4-32.1c4.6-10,14.4-16.7,20.3-25.9c12.7-19.8,6.5-49.3,23.8-65.3
			c8.6-8,21-10.3,32.7-11.3C91,58.6,103.1,58.6,114,54c13.4-5.6,23.4-17.7,37.2-22.2c15.5-5.1,33.9,1.3,43,14.8
			c5.7,8.5,7.8,19.1,14.5,26.8c10.8,12.4,29.8,13.4,43.3,22.9c9.2,6.5,15.5,17.1,16.7,28.3c1.4,13.6-3.7,29,4.4,39.9
			c4,5.3,10.4,8.3,14.7,13.4c4.3,5.1,5.5,9.7,4.1,16.2H37.9z"/>
		<linearGradient id="SVGID_2_" gradientUnits="userSpaceOnUse" x1="152.4517" y1="202.3151" x2="161.8674" y2="60.1378">
			<stop  offset="0" style="stop-color:#31D1D6"/>
			<stop  offset="0.3733" style="stop-color:#32CED8"/>
			<stop  offset="0.6175" style="stop-color:#36C6DF"/>
			<stop  offset="0.824" style="stop-color:#3CB7EB"/>
			<stop  offset="1" style="stop-color:#45A3FA"/>
		</linearGradient>
		<path class="st1" d="M45.5,194.2h-30c-8-8.3-10.2-21.6-5.4-32.1c4.6-10,14.4-16.7,20.3-25.9c12.7-19.8,6.5-49.3,23.8-65.3
			c8.6-8,21-10.3,32.7-11.3c11.7-0.9,23.8-0.9,34.7-5.5c13.4-5.6,23.4-17.7,37.2-22.2c15.5-5.1,33.9,1.3,43,14.8
			c5.7,8.5,7.8,19.1,14.5,26.8c10.8,12.4,29.8,13.4,43.3,22.9c9.2,6.5,15.5,17.1,16.7,28.3c1.4,13.6-3.7,29,4.4,39.9
			c4,5.3,10.4,8.3,14.7,13.4c4.3,5.1,5.5,9.7,4.1,16.2H45.5z"/>
	</g>
	<linearGradient id="SVGID_3_" gradientUnits="userSpaceOnUse" x1="57.9421" y1="92.0385" x2="57.9421" y2="67.2438">
		<stop  offset="0" style="stop-color:#A5DAE5"/>
		<stop  offset="2.508515e-02" style="stop-color:#ADDEE8"/>
		<stop  offset="0.1171" style="stop-color:#C3E9F0"/>
		<stop  offset="0.2248" style="stop-color:#D4F2F7"/>
		<stop  offset="0.3564" style="stop-color:#E0F8FC"/>
		<stop  offset="0.5373" style="stop-color:#E7FCFE"/>
		<stop  offset="1" style="stop-color:#E9FDFF"/>
	</linearGradient>
	<path class="st2" d="M114.5,91.6l-1.2,0H1.8l-0.3,0c-1.1-7.4,4.7-14.9,12-16.9c6.4-1.7,13.8-0.2,19.1-4.1c4.8-3.5,6-10,9.1-15
		c1.9-3.1,4.7-5.7,8-7.5c4.1-2.2,9.1-2.9,13.3-1c7.4,3.5,8.8,13.3,13.7,19.8c1.1,1.5,2.5,2.8,4.2,3.3c1.6,0.4,3.3,0.1,5-0.2
		c5.5-1,12-0.9,15.4,3.5c1.6,2.1,2.2,4.7,3,7.1c0.9,2.4,2.3,5,4.8,5.8c1.2,0.4,2.5,0.4,3.5,1.1C114,88.5,114.4,90,114.5,91.6z"/>
	<linearGradient id="SVGID_4_" gradientUnits="userSpaceOnUse" x1="227.9298" y1="109.4439" x2="229.4991" y2="85.2769">
		<stop  offset="0" style="stop-color:#A5DAE5"/>
		<stop  offset="2.508515e-02" style="stop-color:#ADDEE8"/>
		<stop  offset="0.1171" style="stop-color:#C3E9F0"/>
		<stop  offset="0.2248" style="stop-color:#D4F2F7"/>
		<stop  offset="0.3564" style="stop-color:#E0F8FC"/>
		<stop  offset="0.5373" style="stop-color:#E7FCFE"/>
		<stop  offset="1" style="stop-color:#E9FDFF"/>
	</linearGradient>
	<path class="st3" d="M293.7,105.6H163.8c-1-1.4-1.2-3.5-0.4-5.1c1-2.1,3-3.6,5-4.8c2-1.2,4.1-2.3,5.6-4.1c2.9-3.4,2.7-8.3,3.3-12.8
		c0.7-5.2,2.9-10.4,6.9-14c1.6-1.4,3.4-2.5,5.3-3.4c5.4-2.5,12.2-3.2,17.3,0c4.9,3,7.3,8.9,11.5,12.7c1,0.9,2.1,1.7,3.5,2
		c3.8,0.9,7-2.6,9.9-5.2c4.1-3.8,9.5-6.6,15-5.9c6.5,0.8,11.5,6.4,13.9,12.4c1,2.5,1.8,5.3,3.8,7.1c5.2,4.6,14-0.6,20.1,2.8
		c2.3,1.3,3.8,3.5,5,5.8C291.5,97.2,292.9,101.4,293.7,105.6z"/>
	<g>
		<linearGradient id="SVGID_5_" gradientUnits="userSpaceOnUse" x1="46.0635" y1="151.7164" x2="111.9012" y2="151.7164">
			<stop  offset="0" style="stop-color:#31D1D6"/>
			<stop  offset="0.3733" style="stop-color:#32CED8"/>
			<stop  offset="0.6175" style="stop-color:#36C6DF"/>
			<stop  offset="0.824" style="stop-color:#3CB7EB"/>
			<stop  offset="1" style="stop-color:#45A3FA"/>
		</linearGradient>
		<path class="st4" d="M111.9,177.7h-9.3v16.4H79.9v-16.4H46.1v-16.8l35.3-51.6h21.2v51.3h9.3V177.7z M79.9,160.6v-9.9
			c0-1.9,0.1-4.4,0.2-7.5c0.1-3.2,0.2-4.8,0.3-5h-0.6c-1.3,3-2.8,5.8-4.5,8.4l-9.4,14H79.9z"/>
		<linearGradient id="SVGID_6_" gradientUnits="userSpaceOnUse" x1="73.3985" y1="199.7473" x2="72.7708" y2="167.7338">
			<stop  offset="0" style="stop-color:#F9E6D9"/>
			<stop  offset="0.121" style="stop-color:#FCF1EA"/>
			<stop  offset="0.2698" style="stop-color:#FEF9F6"/>
			<stop  offset="0.4751" style="stop-color:#FFFEFD"/>
			<stop  offset="1" style="stop-color:#FFFFFF"/>
		</linearGradient>
		<path class="st5" d="M105.7,177.7h-9.3v16.4H73.7v-16.4H39.9v-16.8l35.3-51.6h21.2v51.3h9.3V177.7z M73.7,160.6v-9.9
			c0-1.9,0.1-4.4,0.2-7.5c0.1-3.2,0.2-4.8,0.3-5h-0.6c-1.3,3-2.8,5.8-4.5,8.4l-9.4,14H73.7z"/>
	</g>
	<g>
		
			<linearGradient id="SVGID_7_" gradientUnits="userSpaceOnUse" x1="192.7255" y1="144.2234" x2="258.5652" y2="144.2234" gradientTransform="matrix(0.9818 -0.1899 0.1899 0.9818 -26.7258 59.2333)">
			<stop  offset="0" style="stop-color:#31D1D6"/>
			<stop  offset="0.3733" style="stop-color:#32CED8"/>
			<stop  offset="0.6175" style="stop-color:#36C6DF"/>
			<stop  offset="0.824" style="stop-color:#3CB7EB"/>
			<stop  offset="1" style="stop-color:#45A3FA"/>
		</linearGradient>
		<path class="st6" d="M259.7,178.3l-3.3-16.8l-6.1,1.2l-3.1,0.6l-9.7-50.4l-20.8,4l-24.9,57.4l3.2,16.5l33.2-6.4l1.9,9.8h23.1
			l-2.7-14.1l3.1-0.6L259.7,178.3z M218.9,168.7l-7.7,1.5l5.5-12.9l1.1-2.6c1.1-2.9,2.1-5.9,2.8-9.1l0.6-0.1c0,0.2,0.2,1.8,0.6,4.9
			c0.5,3.1,0.9,5.6,1.2,7.4l1.9,9.7L218.9,168.7z"/>
		<linearGradient id="SVGID_8_" gradientUnits="userSpaceOnUse" x1="220.0499" y1="196.8718" x2="219.4222" y2="164.8583">
			<stop  offset="0" style="stop-color:#F9E6D9"/>
			<stop  offset="0.121" style="stop-color:#FCF1EA"/>
			<stop  offset="0.2698" style="stop-color:#FEF9F6"/>
			<stop  offset="0.4751" style="stop-color:#FFFEFD"/>
			<stop  offset="1" style="stop-color:#FFFFFF"/>
		</linearGradient>
		<path class="st7" d="M253.6,179.5l-3.3-16.8l-9.2,1.8l-9.7-50.4l-14.7,2.8l-6.1,1.2l-24.9,57.4l3.2,16.5l6.1-1.2l27.2-5.2l1.7,8.6
			h23.1l-2.5-12.9l6.1-1.2L253.6,179.5z M216.7,157.3c0.1,0.6,0.2,1.2,0.3,1.7l1.9,9.7l-13.7,2.7l6.6-15.5c1.1-2.9,2.1-5.9,2.8-9.1
			l0.6-0.1c0,0.2,0.2,1.8,0.6,4.9C216.2,153.8,216.5,155.7,216.7,157.3z"/>
	</g>
	<g id="XMLID_2_">
		<g>
			<linearGradient id="SVGID_9_" gradientUnits="userSpaceOnUse" x1="87.9619" y1="111.2897" x2="106.5841" y2="106.4772">
				<stop  offset="0" style="stop-color:#31D1D6"/>
				<stop  offset="0.3733" style="stop-color:#32CED8"/>
				<stop  offset="0.6175" style="stop-color:#36C6DF"/>
				<stop  offset="0.824" style="stop-color:#3CB7EB"/>
				<stop  offset="1" style="stop-color:#45A3FA"/>
			</linearGradient>
			<path class="st8" d="M115.1,151.1l-13.8,0l-8.8-64.3c0,0-12.7-13.9-27.3-16.5l13.9-1.5l31.3,0.8L115.1,151.1z"/>
			<path class="st9" d="M60.5,115.8c0,0-7.9,11.5-4.4,21.4l14.6-21.4l-1.9-2.5L60.5,115.8z"/>
			<path class="st9" d="M101.2,151.1l-0.5,3c0,0-4.2,0.6-4.4,6.5h10.8l5.9-5.7l0.5-3.8H101.2z"/>
			<linearGradient id="SVGID_10_" gradientUnits="userSpaceOnUse" x1="50.9983" y1="93.6024" x2="92.4555" y2="93.6024">
				<stop  offset="0" style="stop-color:#31D1D6"/>
				<stop  offset="0.3733" style="stop-color:#32CED8"/>
				<stop  offset="0.6175" style="stop-color:#36C6DF"/>
				<stop  offset="0.824" style="stop-color:#3CB7EB"/>
				<stop  offset="1" style="stop-color:#45A3FA"/>
			</linearGradient>
			<path class="st10" d="M84.5,86.8l-17.3-0.6l2.8,26.5l-11.7,4.2l-6.8-32.8c-2-6.1,2.2-12.5,8.5-13.2l5.2-0.6h0
				c14.6,2.6,27.3,16.5,27.3,16.5L84.5,86.8z"/>
		</g>
		<g>
			<linearGradient id="SVGID_11_" gradientUnits="userSpaceOnUse" x1="22.134" y1="11.1532" x2="52.6136" y2="11.1532">
				<stop  offset="0" style="stop-color:#51ADC6"/>
				<stop  offset="6.081700e-03" style="stop-color:#55AFC4"/>
				<stop  offset="6.631500e-02" style="stop-color:#74BFB5"/>
				<stop  offset="0.1333" style="stop-color:#8FCDA7"/>
				<stop  offset="0.2102" style="stop-color:#A5D89D"/>
				<stop  offset="0.3001" style="stop-color:#B6E094"/>
				<stop  offset="0.4112" style="stop-color:#C1E78E"/>
				<stop  offset="0.5672" style="stop-color:#C8EA8B"/>
				<stop  offset="1" style="stop-color:#CAEB8A"/>
			</linearGradient>
			<path class="st11" d="M52.6,12.7v0.8l-0.9,0.1c-0.2-0.5-0.5-0.9-0.8-1.2c-1.3-1.1-2.1-1.9-3-1.4c-0.7,0.4-0.6,2.2-0.6,3.1
				l-2.6,0.3l-22.6,2.9l0,0c1.5-0.3,2.6-3,2.6-6.2c0-3.2-1.1-5.8-2.5-6.2l30.4,3.4V9V12.7z"/>
			<linearGradient id="SVGID_12_" gradientUnits="userSpaceOnUse" x1="23.8288" y1="7.6299" x2="18.8967" y2="7.6299">
				<stop  offset="0" style="stop-color:#8AEBD6"/>
				<stop  offset="0.4615" style="stop-color:#89E9D7"/>
				<stop  offset="0.6276" style="stop-color:#84E2DA"/>
				<stop  offset="0.7461" style="stop-color:#7DD7DE"/>
				<stop  offset="0.8419" style="stop-color:#72C6E5"/>
				<stop  offset="0.9229" style="stop-color:#64B0EE"/>
				<stop  offset="0.9944" style="stop-color:#5395F9"/>
				<stop  offset="1" style="stop-color:#5193FA"/>
			</linearGradient>
			<path class="st12" d="M23.8,6.6c-0.1,0.1-0.1,0.2-0.2,0.3c-0.3,0.6-0.5,1.3-0.9,1.9c-0.3,0.4-0.7,0.8-1.2,0.9
				C21.1,10,20.5,10,20,10.1c-0.4,0-0.7,0.1-1.1,0.3c0.2-3,1.4-5.4,2.8-5.5L22.2,5C22.8,5.1,23.4,5.7,23.8,6.6z"/>
			<linearGradient id="SVGID_13_" gradientUnits="userSpaceOnUse" x1="24.7313" y1="10.5813" x2="18.8704" y2="10.5813">
				<stop  offset="0" style="stop-color:#31D1D6"/>
				<stop  offset="0.3733" style="stop-color:#32CED8"/>
				<stop  offset="0.6175" style="stop-color:#36C6DF"/>
				<stop  offset="0.824" style="stop-color:#3CB7EB"/>
				<stop  offset="1" style="stop-color:#45A3FA"/>
			</linearGradient>
			<path class="st13" d="M24.7,10.6C24.7,10.6,24.7,10.6,24.7,10.6c-0.4,0.5-0.6,1.2-0.9,1.7c-0.4,0.6-1,1-1.8,1.2
				c-0.7,0.1-1.4,0.1-2,0.4c-0.3,0.2-0.6,0.4-0.7,0.7c-0.3-1-0.5-2.2-0.5-3.4c0-0.3,0-0.5,0-0.8c0.3-0.2,0.7-0.2,1.1-0.3
				c0.5-0.1,1.1-0.1,1.6-0.3c0.5-0.2,0.9-0.5,1.2-0.9c0.4-0.6,0.6-1.3,0.9-1.9c0.1-0.1,0.1-0.2,0.2-0.3C24.3,7.6,24.7,9,24.7,10.6z"
				/>
			<linearGradient id="SVGID_14_" gradientUnits="userSpaceOnUse" x1="24.7418" y1="13.9839" x2="19.3531" y2="13.9839">
				<stop  offset="0" style="stop-color:#8AEBD6"/>
				<stop  offset="0.4615" style="stop-color:#89E9D7"/>
				<stop  offset="0.6276" style="stop-color:#84E2DA"/>
				<stop  offset="0.7461" style="stop-color:#7DD7DE"/>
				<stop  offset="0.8419" style="stop-color:#72C6E5"/>
				<stop  offset="0.9229" style="stop-color:#64B0EE"/>
				<stop  offset="0.9944" style="stop-color:#5395F9"/>
				<stop  offset="1" style="stop-color:#5193FA"/>
			</linearGradient>
			<path class="st14" d="M24.7,11.1c0,3.2-1.1,5.8-2.6,6.2c-0.1,0-0.2,0-0.3,0c-1,0-1.9-1.1-2.5-2.8c0.2-0.3,0.4-0.5,0.7-0.7
				c0.6-0.3,1.3-0.2,2-0.4c0.7-0.2,1.4-0.6,1.8-1.2c0.3-0.5,0.5-1.1,0.9-1.6c0,0,0,0,0,0C24.7,10.8,24.7,11,24.7,11.1z"/>
			<path class="st9" d="M70.5,9.6h9.2c-1,0.4-1.8,0.8-2.1,1.2c-0.3,0.3-0.2,0.8,0.2,1.4h-7.2V9.6z"/>
			<path class="st9" d="M90.8,11.1v1h-5c-0.5-1.1-0.8-2-1-2.5h5.9V11.1z"/>
			<linearGradient id="SVGID_15_" gradientUnits="userSpaceOnUse" x1="52.6136" y1="10.8568" x2="70.5371" y2="10.8568">
				<stop  offset="0" style="stop-color:#31D1D6"/>
				<stop  offset="0.3733" style="stop-color:#32CED8"/>
				<stop  offset="0.6175" style="stop-color:#36C6DF"/>
				<stop  offset="0.824" style="stop-color:#3CB7EB"/>
				<stop  offset="1" style="stop-color:#45A3FA"/>
			</linearGradient>
			<polygon class="st15" points="70.5,12.2 70.5,12.7 52.6,12.7 52.6,9 70.5,9 70.5,9.6 			"/>
			<linearGradient id="SVGID_16_" gradientUnits="userSpaceOnUse" x1="44.7741" y1="16.4635" x2="53.3219" y2="16.4635">
				<stop  offset="0" style="stop-color:#F7BE86"/>
				<stop  offset="0.3293" style="stop-color:#F7BC83"/>
				<stop  offset="0.5448" style="stop-color:#F7B67B"/>
				<stop  offset="0.7276" style="stop-color:#F7AC6C"/>
				<stop  offset="0.8912" style="stop-color:#F79E57"/>
				<stop  offset="1" style="stop-color:#F79244"/>
			</linearGradient>
			<path class="st16" d="M53.3,19l-3.9,3c0,0-4.8-5-4.6-7.6l2.6-0.3c-0.1-0.9-0.1-2.7,0.6-3.1c0.9-0.5,1.8,0.3,3,1.4
				c0.3,0.2,0.5,0.6,0.8,1.2C52.6,15.6,53.3,19,53.3,19z"/>
			<path class="st17" d="M26.8,5c-0.3-0.6-1.1-0.1-0.9,0.5c1.6,3.6,1.4,7.5-0.5,10.8c-0.3,0.5,0.5,1,0.9,0.5
				C28.4,13.1,28.5,8.8,26.8,5z"/>
		</g>
		<g>
			<linearGradient id="SVGID_17_" gradientUnits="userSpaceOnUse" x1="95.2608" y1="22.997" x2="94.9778" y2="33.2786">
				<stop  offset="0" style="stop-color:#7B6ED6"/>
				<stop  offset="0.4804" style="stop-color:#796DD5"/>
				<stop  offset="0.6535" style="stop-color:#7268D0"/>
				<stop  offset="0.7768" style="stop-color:#6760C9"/>
				<stop  offset="0.8765" style="stop-color:#5655BE"/>
				<stop  offset="0.961" style="stop-color:#4047B0"/>
				<stop  offset="1" style="stop-color:#333EA8"/>
			</linearGradient>
			<polygon class="st18" points="97,23 97,26.1 93.4,22.6 			"/>
			<linearGradient id="SVGID_18_" gradientUnits="userSpaceOnUse" x1="102.1901" y1="23.1323" x2="101.4355" y2="46.9971">
				<stop  offset="0" style="stop-color:#7B6ED6"/>
				<stop  offset="0.4804" style="stop-color:#796DD5"/>
				<stop  offset="0.6535" style="stop-color:#7268D0"/>
				<stop  offset="0.7768" style="stop-color:#6760C9"/>
				<stop  offset="0.8765" style="stop-color:#5655BE"/>
				<stop  offset="0.961" style="stop-color:#4047B0"/>
				<stop  offset="1" style="stop-color:#333EA8"/>
			</linearGradient>
			<path class="st19" d="M97,26.1l3.7,3.5l3.5,3.3c0,0,8-5.6,11.1-5.7c0.2,0,0.4,0,0.6,0c2.7,0.4,4.4,3.6,3.9,6.6
				c-0.5,3.3-0.4,6.9-3.6,7.5c-3.2,0.6-17.1,4-17.1,4L84,24.6l1.8-1.3l4-2.8l0.8-0.6l1.8,1.7l1,1L97,26.1z"/>
			<linearGradient id="SVGID_19_" gradientUnits="userSpaceOnUse" x1="108.4816" y1="23.3609" x2="108.1986" y2="33.6425">
				<stop  offset="0" style="stop-color:#7B6ED6"/>
				<stop  offset="0.4804" style="stop-color:#796DD5"/>
				<stop  offset="0.6535" style="stop-color:#7268D0"/>
				<stop  offset="0.7768" style="stop-color:#6760C9"/>
				<stop  offset="0.8765" style="stop-color:#5655BE"/>
				<stop  offset="0.961" style="stop-color:#4047B0"/>
				<stop  offset="1" style="stop-color:#333EA8"/>
			</linearGradient>
			<path class="st20" d="M106.9,23.6l9.1,3.6c-0.2,0-0.4,0-0.6,0c-3.1,0-11.1,5.7-11.1,5.7l-3.5-3.3L106.9,23.6z"/>
			<linearGradient id="SVGID_20_" gradientUnits="userSpaceOnUse" x1="47.6604" y1="45.0347" x2="116.3325" y2="45.0347">
				<stop  offset="0" style="stop-color:#7B6ED6"/>
				<stop  offset="0.4804" style="stop-color:#796DD5"/>
				<stop  offset="0.6535" style="stop-color:#7268D0"/>
				<stop  offset="0.7768" style="stop-color:#6760C9"/>
				<stop  offset="0.8765" style="stop-color:#5655BE"/>
				<stop  offset="0.961" style="stop-color:#4047B0"/>
				<stop  offset="1" style="stop-color:#333EA8"/>
			</linearGradient>
			<path class="st21" d="M116.3,41.3L111,55.7l-0.7,14c0,0-0.6,0.1-1.7,0.3c-5,0.7-20.1,2.4-29.6-1.1l3.7-17.4l-1.7-13.7L60.5,40
				L47.7,23.4l1.7-1.3l3.9-3l12.2,11.9l19-8.3c0.7,0.5,1.3,0.7,1.3,0.7L84,24.6l15.2,20.7C99.3,45.3,113.2,41.9,116.3,41.3z"/>
			<linearGradient id="SVGID_21_" gradientUnits="userSpaceOnUse" x1="77.3928" y1="16.0432" x2="89.8197" y2="16.0432">
				<stop  offset="0" style="stop-color:#F7BE86"/>
				<stop  offset="0.3293" style="stop-color:#F7BC83"/>
				<stop  offset="0.5448" style="stop-color:#F7B67B"/>
				<stop  offset="0.7276" style="stop-color:#F7AC6C"/>
				<stop  offset="0.8912" style="stop-color:#F79E57"/>
				<stop  offset="1" style="stop-color:#F79244"/>
			</linearGradient>
			<path class="st22" d="M89.8,20.6l-4,2.8c0,0-0.6-0.2-1.3-0.7c-0.9-0.6-2-1.7-2.1-3.2c-0.2-2-3.6-5.3-4.7-7.3
				c-0.4-0.6-0.5-1.1-0.2-1.4c0.4-0.3,1.2-0.8,2.1-1.2c2.1-0.8,4.9-1.4,5.2-0.1c0,0,0,0.1,0,0.1c0.1,0.5,0.5,1.4,1,2.5
				C87.3,15.5,89.8,20.6,89.8,20.6z"/>
			<linearGradient id="SVGID_22_" gradientUnits="userSpaceOnUse" x1="84.027" y1="40.1531" x2="116.3325" y2="40.1531">
				<stop  offset="0" style="stop-color:#3C0887"/>
				<stop  offset="0.3227" style="stop-color:#3F0987"/>
				<stop  offset="0.5338" style="stop-color:#470E87"/>
				<stop  offset="0.7129" style="stop-color:#561588"/>
				<stop  offset="0.8732" style="stop-color:#6B1F89"/>
				<stop  offset="1" style="stop-color:#822A8A"/>
			</linearGradient>
			<path class="st23" d="M111,55.7c-23.3-4.9-27-31.1-27-31.1l15.2,20.7l17.1-4L111,55.7z"/>
		</g>
		<g>
			<linearGradient id="SVGID_23_" gradientUnits="userSpaceOnUse" x1="91.6771" y1="18.6931" x2="108.006" y2="18.6931">
				<stop  offset="0" style="stop-color:#F7BE86"/>
				<stop  offset="0.3293" style="stop-color:#F7BC83"/>
				<stop  offset="0.5448" style="stop-color:#F7B67B"/>
				<stop  offset="0.7276" style="stop-color:#F7AC6C"/>
				<stop  offset="0.8912" style="stop-color:#F79E57"/>
				<stop  offset="1" style="stop-color:#F79244"/>
			</linearGradient>
			<path class="st24" d="M106.7,10.9c0.5-0.1,1,0,1.2,0.8c0.5,1.8-1.6,4-1.6,4l0.5,8l-6.2,5.9l2.4-6.9L97,23l-3.6-0.4l-1-1
				c0,0-0.7-6.6-0.7-10.5c0-0.9,0-1.6,0.1-2.1l0-0.2C96.1,9.5,102,7.9,102,7.9s0.8,8.1,2,8.2c1.1,0.1,1.5-4.4,1.5-4.4
				S106.1,11.1,106.7,10.9z"/>
			<path class="st9" d="M106.8,5.1l0,5.9c-0.6,0.2-1.3,0.8-1.3,0.8s-0.4,4.5-1.5,4.4c-1.1-0.1-2-8.2-2-8.2s-5.9,1.7-10.2,0.9v0
				c-1.3-0.2-2.5-0.7-3.3-1.5c-3.3-3.4-2.1-5.4,2.5-4.3S105.5-1.6,106.8,5.1z"/>
			<polygon class="st25" points="103.1,22.6 100.7,29.5 97,26.1 97,23 			"/>
			<path class="st9" d="M91.4,9.9c0.9-0.5,1.9-0.5,2.9-0.2c0.6,0.2,0.1,1.1-0.4,0.9c-0.6-0.2-1.3-0.2-1.9,0.1
				C91.4,11,90.9,10.2,91.4,9.9z"/>
			
				<ellipse transform="matrix(0.9986 -5.221754e-02 5.221754e-02 0.9986 -0.5019 5.2637)" class="st9" cx="100.5" cy="12.2" rx="0.7" ry="1.1"/>
			<path class="st9" d="M101.7,9.6c-1-0.4-2-0.3-2.9,0.1c-0.6,0.3,0,1.1,0.5,0.8c0.6-0.3,1.3-0.3,1.9-0.1
				C101.9,10.7,102.3,9.9,101.7,9.6z"/>
			<path class="st25" d="M94.8,15.5c0.3-1.5,1.1-3,1.6-4.5c0.1-0.3,0.6-0.1,0.4,0.2c-0.3,0.9-0.7,1.8-1,2.7
				c-0.1,0.3-0.4,0.8-0.4,1.2c-0.1,1.1,0.4,1,1,1.3c0.3,0.1,0.1,0.6-0.2,0.4C95.5,16.6,94.6,16.6,94.8,15.5z"/>
			<path class="st9" d="M94.3,12.4c-0.5-0.4-1-0.6-1.6-0.7c-0.4,0-0.5,0.5-0.1,0.6c0.3,0,0.6,0.1,0.9,0.3c-0.3,0.1-0.6,0.2-0.9,0.3
				c-0.4,0.1-0.2,0.7,0.2,0.6c0.5-0.2,1-0.3,1.5-0.5C94.3,12.8,94.5,12.5,94.3,12.4z"/>
		</g>
	</g>
	<g>
		<linearGradient id="SVGID_24_" gradientUnits="userSpaceOnUse" x1="155.6103" y1="239.8072" x2="156.238" y2="196.4949">
			<stop  offset="0" style="stop-color:#8AEBD6"/>
			<stop  offset="0.4615" style="stop-color:#89E9D7"/>
			<stop  offset="0.6276" style="stop-color:#84E2DA"/>
			<stop  offset="0.7461" style="stop-color:#7DD7DE"/>
			<stop  offset="0.8419" style="stop-color:#72C6E5"/>
			<stop  offset="0.9229" style="stop-color:#64B0EE"/>
			<stop  offset="0.9944" style="stop-color:#5395F9"/>
			<stop  offset="1" style="stop-color:#5193FA"/>
		</linearGradient>
		<path class="st26" d="M275.1,194.2H41.5c0,0-12.6,8.3,6.1,9.8s47.8,2.7,47.1,9.1c-0.7,6.4-17.6,5.1-17.6,16.3S155,238,155,238
			s44,0.6,50.2-6.9c6.3-7.4-17.7-14.2-13.4-17.2c4.4-2.9,35.9,5.9,40.7-1.3c4.7-7.1-0.9-11.6,7.7-12.6
			C248.9,199.2,273.6,202.6,275.1,194.2z"/>
		<linearGradient id="SVGID_25_" gradientUnits="userSpaceOnUse" x1="257.4006" y1="237.0275" x2="257.4006" y2="198.8939">
			<stop  offset="0" style="stop-color:#8AEBD6"/>
			<stop  offset="0.4615" style="stop-color:#89E9D7"/>
			<stop  offset="0.6276" style="stop-color:#84E2DA"/>
			<stop  offset="0.7461" style="stop-color:#7DD7DE"/>
			<stop  offset="0.8419" style="stop-color:#72C6E5"/>
			<stop  offset="0.9229" style="stop-color:#64B0EE"/>
			<stop  offset="0.9944" style="stop-color:#5395F9"/>
			<stop  offset="1" style="stop-color:#5193FA"/>
		</linearGradient>
		<ellipse class="st27" cx="257.4" cy="208.9" rx="17.7" ry="5"/>
		<linearGradient id="SVGID_26_" gradientUnits="userSpaceOnUse" x1="69.4263" y1="237.0275" x2="69.4263" y2="198.8939">
			<stop  offset="0" style="stop-color:#8AEBD6"/>
			<stop  offset="0.4615" style="stop-color:#89E9D7"/>
			<stop  offset="0.6276" style="stop-color:#84E2DA"/>
			<stop  offset="0.7461" style="stop-color:#7DD7DE"/>
			<stop  offset="0.8419" style="stop-color:#72C6E5"/>
			<stop  offset="0.9229" style="stop-color:#64B0EE"/>
			<stop  offset="0.9944" style="stop-color:#5395F9"/>
			<stop  offset="1" style="stop-color:#5193FA"/>
		</linearGradient>
		<ellipse class="st28" cx="69.4" cy="213.3" rx="15.4" ry="3.8"/>
		<ellipse class="st29" cx="157.9" cy="228.2" rx="17.5" ry="3.4"/>
	</g>
	<g>
		<g>
			
				<linearGradient id="SVGID_27_" gradientUnits="userSpaceOnUse" x1="127.5945" y1="171.3214" x2="188.9038" y2="171.3214" gradientTransform="matrix(0.9797 0.2002 -0.2002 0.9797 33.3624 -32.7642)">
				<stop  offset="0" style="stop-color:#31D1D6"/>
				<stop  offset="0.3733" style="stop-color:#32CED8"/>
				<stop  offset="0.6175" style="stop-color:#36C6DF"/>
				<stop  offset="0.824" style="stop-color:#3CB7EB"/>
				<stop  offset="1" style="stop-color:#45A3FA"/>
			</linearGradient>
			<path class="st30" d="M181.1,149.3c-3.6-8.2-10.3-13.3-20.2-15.4c-1.1-0.2-2.1-0.4-3.2-0.5c-8.7-1.1-15.9,1-21.6,6.3
				c-6.3,5.9-11,16.2-14,31c-1.9,9.1-2.4,16.9-1.5,23.5h21.6c-0.3-3.9,0.5-10.2,2.3-18.9c1.9-9.5,3.9-15.9,5.8-19.2
				c1.1-1.9,2.4-3.2,3.8-3.8c1-0.4,2.1-0.6,3.3-0.3c2.8,0.6,4.4,2.8,4.8,6.8c0.4,3.9-0.3,10.5-2.2,19.7c-1.4,6.9-2.8,12.2-4.3,15.8
				h23.7c1.1-3.4,2.1-7.2,2.9-11.2c0.6-2.7,1-5.3,1.3-7.8C184.7,164.5,184,155.9,181.1,149.3z"/>
			<linearGradient id="SVGID_28_" gradientUnits="userSpaceOnUse" x1="146.4573" y1="198.3148" x2="145.8296" y2="166.3013">
				<stop  offset="0" style="stop-color:#F9E6D9"/>
				<stop  offset="0.121" style="stop-color:#FCF1EA"/>
				<stop  offset="0.2698" style="stop-color:#FEF9F6"/>
				<stop  offset="0.4751" style="stop-color:#FFFEFD"/>
				<stop  offset="1" style="stop-color:#FFFFFF"/>
			</linearGradient>
			<path class="st31" d="M175,148c-3.2-7.4-9-12.3-17.3-14.7c-0.9-0.3-1.9-0.5-2.9-0.7c-10.2-2.1-18.4-0.2-24.8,5.7
				c-6.3,5.9-11,16.2-14,31c-0.6,3-1.1,5.9-1.4,8.6c-0.7,6-0.7,11.4,0,16.1h21.6c0-0.1,0-0.3-0.1-0.4c-0.5-3.8,0.3-10.4,2.2-19.8
				c1.9-9.5,3.9-15.9,5.8-19.2c1.9-3.3,4.2-4.7,7-4.1c1.1,0.2,2.1,0.7,2.8,1.5c1.1,1.2,1.7,2.9,2,5.2c0.4,3.9-0.3,10.5-2.2,19.7
				c-1.6,7.7-3.2,13.4-4.8,17h23.8c1.3-3.7,2.4-7.9,3.3-12.5C178.9,167.5,178.6,156.2,175,148z"/>
		</g>
		<g>
			<polygon class="st32" points="191.5,92.6 191.4,92.7 176.2,104.5 166.7,111.9 158.8,133.8 156.6,133 164.7,110.5 190.1,90.7 			
				"/>
		</g>
		<linearGradient id="SVGID_29_" gradientUnits="userSpaceOnUse" x1="176.1579" y1="119.5753" x2="201.008" y2="119.5753">
			<stop  offset="0" style="stop-color:#7B6ED6"/>
			<stop  offset="0.4804" style="stop-color:#796DD5"/>
			<stop  offset="0.6535" style="stop-color:#7268D0"/>
			<stop  offset="0.7768" style="stop-color:#6760C9"/>
			<stop  offset="0.8765" style="stop-color:#5655BE"/>
			<stop  offset="0.961" style="stop-color:#4047B0"/>
			<stop  offset="1" style="stop-color:#333EA8"/>
		</linearGradient>
		<path class="st33" d="M198.8,141.6c-1.7,2.1-4.1,3.5-6.4,4.8l-0.2-0.3c0.9-1.2,1.9-2.5,1.6-4c-0.2-1-0.9-1.8-1.7-2.5
			c-1.3-1.1-2.7-2.1-3.9-3.3c-1.2-1.2-2.2-2.7-2.4-4.3c-0.3-2.2,0.9-4.3,1.4-6.5c0.2-0.9,0.3-1.8-0.1-2.6c-0.8-1.9-3.1-2.3-5-3
			c-1.7-0.7-3.2-1.9-3.7-3.7c-0.7-2.5,1.1-5.1,0.9-7.7c-0.2-1.8-1.5-3.4-3.1-4.1l15.2-11.8c2.6,2.2,4.8,5.2,4.8,8.6
			c0,2.1-0.9,4.2-1.5,6.2c-0.2,0.8-0.5,1.7-0.3,2.5c0.2,1.3,1.3,2.3,2.2,3.2c2,1.9,3.9,4.2,3.9,6.9c0,3-2.6,5.8-2.2,8.8
			c0.3,1.9,1.8,3.5,2.4,5.3C201.5,136.7,200.5,139.6,198.8,141.6z"/>
	</g>
</g>
</svg>
