<svg xmlns="http://www.w3.org/2000/svg" viewBox="0 0 100 45">
	<title>Mitra Kami</title>
	<linearGradient id="gradient" gradientUnits="userSpaceOnUse" x1="7.2945" y1="3.7338" x2="93.1187" y2="53.2845">
		<stop offset="0" style="stop-color:#ff5bd8"/>
		<stop offset="1" style="stop-color:#d717a9"/>
	</linearGradient>
	<path fill="url(#gradient)" d="M31.796,29.469l-4.055,-0l-0,-17.033l-4.026,5.588l-4.055,-5.588l-0,17.033l-4.025,-0l-0,-29.469l8.08,11.145l8.081,-11.145l-0,29.469Zm3.304,-28.898l4.056,-0l-0,28.898l-4.056,-0l0,-28.898Zm17.784,-0l-0,4.055l-3.034,0l-0,24.843l-4.056,-0l0,-24.843l-3.034,0l0,-4.055l10.124,-0Zm9.883,-0c1.622,0.06 3.004,0.706 4.145,1.937c1.142,1.232 1.713,2.709 1.713,4.431l-0,12.136c-0,1.803 -0.631,3.335 -1.893,4.596l1.893,5.798l-4.266,-0l-1.292,-4.085c-0.16,0.02 -0.32,0.03 -0.48,0.03l-2.043,-0l-0,4.055l-4.055,-0l-0,-28.898l6.278,-0Zm9.462,5.797c0,-1.762 0.591,-3.264 1.773,-4.506c1.181,-1.241 2.613,-1.862 4.295,-1.862c1.683,0 3.114,0.621 4.296,1.862c1.182,1.242 1.772,2.744 1.772,4.506l0,23.101l-4.055,-0l0,-4.055l-4.025,-0l-0,4.055l-4.056,-0l0,-23.101Zm-11.685,-1.742l-0,16.762l2.013,0c0.56,0 1.036,-0.23 1.426,-0.691c0.391,-0.46 0.586,-1.001 0.586,-1.622l0,-12.136c0,-0.641 -0.195,-1.186 -0.586,-1.637c-0.39,-0.451 -0.866,-0.676 -1.426,-0.676l-2.013,0Zm19.766,16.762l0,-15.02c0,-0.64 -0.195,-1.186 -0.586,-1.637c-0.39,-0.45 -0.866,-0.676 -1.427,-0.676c-0.56,0 -1.036,0.226 -1.427,0.676c-0.39,0.451 -0.585,0.997 -0.585,1.637l-0,15.02l4.025,0Z"/>
	<path fill="#000" d="M45.265,33.966c0.169,0 0.304,0.135 0.304,0.304c0,0.017 -0.017,0.051 -0.017,0.068c0,-0 -0.456,2.095 -0.895,4.444c-0.135,0.743 -0.271,1.504 -0.389,2.23c1.081,-1.622 3.582,-5.153 5.711,-6.961c0.051,-0.034 0.136,-0.085 0.186,-0.085c0.169,0 0.304,0.135 0.304,0.304c0,0.085 -0.033,0.186 -0.101,0.237c-2.315,1.96 -5.238,6.319 -5.965,7.418c0.304,0.186 1.065,0.625 2.028,1.166c0.591,0.338 1.217,0.659 1.723,0.912c0.254,0.118 0.49,0.237 0.676,0.304c0.186,0.068 0.321,0.102 0.321,0.102c0.169,-0 0.305,0.118 0.305,0.287c-0,0.169 -0.136,0.304 -0.305,0.304c-0.185,0 -0.338,-0.051 -0.54,-0.135c-0.203,-0.085 -0.44,-0.186 -0.71,-0.321c-0.524,-0.254 -1.149,-0.592 -1.757,-0.93c-0.862,-0.49 -1.69,-0.963 -2.079,-1.199c-0.118,0.997 -0.186,1.825 -0.135,2.247l0,0.051c0,0.169 -0.135,0.287 -0.304,0.287c-0.152,0 -0.287,-0.118 -0.304,-0.27c-0.068,-0.575 0.017,-1.487 0.169,-2.569c0.152,-1.081 0.355,-2.315 0.574,-3.497c0.44,-2.366 0.896,-4.461 0.896,-4.461c0.034,-0.136 0.169,-0.237 0.304,-0.237Zm16.577,8.548c-1.161,0.744 -2.913,1.577 -4.529,1.793c-0.946,0.118 -1.876,0.051 -2.552,-0.473c-0.49,-0.372 -0.811,-0.946 -0.946,-1.74c-0.186,0.304 -0.405,0.625 -0.659,0.946c-0.287,0.372 -0.608,0.71 -0.912,0.98c-0.305,0.27 -0.626,0.49 -0.997,0.473c-0.305,-0.017 -0.558,-0.135 -0.744,-0.338c-0.186,-0.203 -0.287,-0.456 -0.321,-0.743c-0.067,-0.558 0.152,-1.217 0.676,-1.741c0.642,-0.642 1.402,-0.659 1.943,-0.49c0.287,0.085 0.507,0.22 0.659,0.321c0.152,-0.27 0.271,-0.49 0.304,-0.574c0.034,-0.102 0.169,-0.186 0.288,-0.186c0.169,-0 0.304,0.135 0.304,0.304c-0.051,1.25 0.27,1.926 0.777,2.298c0.507,0.372 1.234,0.49 2.095,0.372c1.724,-0.22 3.802,-1.301 4.799,-2.045c0.051,-0.034 0.135,-0.067 0.186,-0.067c0.006,-0 0.012,-0 0.018,0c0.005,-0 0.01,-0 0.016,-0c0.169,-0 0.304,0.135 0.304,0.304c-0,0.017 -0.017,0.05 -0.017,0.067c0,0 -0.101,0.474 -0.118,0.947c-0.017,0.236 -0.017,0.473 0.034,0.642c0.033,0.135 0.084,0.202 0.135,0.236c0.017,-0.017 0.067,-0.084 0.118,-0.169c0.118,-0.202 0.237,-0.523 0.389,-0.861c0.152,-0.338 0.304,-0.71 0.54,-0.98c0.186,-0.22 0.49,-0.406 0.811,-0.406l0.068,-0c0.051,-0 0.101,0.017 0.152,0.034c0.27,0.067 0.473,0.321 0.524,0.54c0.051,0.22 0.017,0.423 -0,0.609c-0.017,0.186 -0.017,0.338 -0,0.422c0.017,0.085 -0,0.085 0.118,0.119c0.085,0.016 0.186,-0.017 0.355,-0.136c0.169,-0.118 0.372,-0.338 0.575,-0.557c0.202,-0.22 0.405,-0.473 0.625,-0.659c0.219,-0.186 0.473,-0.355 0.794,-0.288c0.152,0.034 0.321,0.153 0.389,0.271c0.067,0.118 0.084,0.253 0.101,0.372c0.034,0.236 0.051,0.49 0.084,0.726c0.034,0.237 0.119,0.423 0.288,0.592c0.169,0.169 0.439,0.304 0.963,0.371c1.301,0.152 2.822,-0.371 4.005,-0.946c1.182,-0.574 2.01,-1.183 2.01,-1.183c0.051,-0.034 0.135,-0.067 0.186,-0.067c0.015,-0 0.03,0.001 0.044,0.003c0.013,-0.002 0.027,-0.003 0.041,-0.003c0.169,-0 0.304,0.135 0.304,0.304c-0,0.017 -0.017,0.067 -0.017,0.084c-0.118,0.44 -0.085,0.761 -0,0.98c0.084,0.22 0.236,0.372 0.473,0.49c0.473,0.237 1.301,0.288 2.247,0.136c1.893,-0.288 4.208,-1.251 5.103,-1.927c0.051,-0.034 0.136,-0.067 0.186,-0.067c0.169,-0 0.304,0.135 0.304,0.304c0,0.084 -0.067,0.186 -0.135,0.236c-1.047,0.795 -3.362,1.741 -5.373,2.045c-0.997,0.152 -1.91,0.169 -2.602,-0.186c-0.338,-0.169 -0.642,-0.456 -0.778,-0.828c-0.076,-0.211 -0.11,-0.444 -0.099,-0.702c-0.372,0.246 -0.941,0.594 -1.624,0.922c-1.234,0.591 -2.839,1.166 -4.343,0.997c-0.608,-0.068 -1.03,-0.271 -1.318,-0.541c-0.287,-0.27 -0.405,-0.608 -0.456,-0.912c-0.051,-0.305 -0.068,-0.575 -0.084,-0.744c-0.017,-0.068 -0.034,-0.118 -0.034,-0.135c-0.034,-0 -0.119,0.017 -0.271,0.152c-0.169,0.135 -0.354,0.372 -0.557,0.608c-0.203,0.237 -0.423,0.456 -0.659,0.642c-0.237,0.186 -0.558,0.304 -0.879,0.22c-0.287,-0.084 -0.49,-0.304 -0.557,-0.541c-0.068,-0.236 -0.034,-0.439 -0.017,-0.625c0.017,-0.186 0.033,-0.338 0.017,-0.422c-0.017,-0.085 0.016,-0.068 -0.085,-0.102c-0.169,-0.05 -0.253,0 -0.405,0.186c-0.153,0.186 -0.322,0.507 -0.457,0.828c-0.135,0.321 -0.27,0.659 -0.422,0.929c-0.085,0.136 -0.169,0.254 -0.304,0.355c-0.135,0.102 -0.338,0.152 -0.524,0.085c-0.304,-0.102 -0.456,-0.389 -0.524,-0.659c-0.068,-0.271 -0.084,-0.558 -0.068,-0.828c0.008,-0.13 0.021,-0.257 0.035,-0.374Zm-9.666,-0.826l-0.034,0c-0.27,0 -0.557,0.102 -0.862,0.406c-0.405,0.405 -0.54,0.895 -0.506,1.25c0.016,0.169 0.084,0.321 0.168,0.406c0.085,0.084 0.186,0.152 0.338,0.152c0.068,-0 0.305,-0.102 0.575,-0.321c0.27,-0.22 0.558,-0.558 0.828,-0.913c0.169,-0.219 0.304,-0.439 0.456,-0.659c-0.118,-0.084 -0.304,-0.186 -0.524,-0.253c-0.135,-0.051 -0.287,-0.068 -0.439,-0.068Zm24.112,-2.416l0.017,-0c0.169,-0 0.305,0.135 0.305,0.304c-0,0.017 -0.017,0.068 -0.017,0.084l-0.152,0.541c-0.034,0.118 -0.153,0.237 -0.288,0.237c-0.169,-0 -0.304,-0.135 -0.304,-0.304c0,-0.017 0.017,-0.068 0.017,-0.085l0.152,-0.541c0.034,-0.118 0.152,-0.236 0.27,-0.236Z"/>
</svg>