<svg version="1.1" xmlns="http://www.w3.org/2000/svg" xmlns:xlink="http://www.w3.org/1999/xlink" viewBox="0 0 50 58">
	<g fill="#000" style="opacity:.075">
		<path d="M19.4,28.1c0.3-0.1,0.5-0.4,0.5-0.9c-0.2-0.3-0.6-0.3-0.9-0.1c-0.3,0.2-0.4,0.5-0.4,0.8 C18.8,28.2,19.2,28.2,19.4,28.1z M18.9,27.4c0.2-0.1,0.4-0.2,0.6,0c0,0.1,0,0.2-0.1,0.3c-0.1,0.1-0.2,0.2-0.3,0.2 c-0.1,0-0.3,0-0.4,0C18.7,27.6,18.8,27.5,18.9,27.4z"/>
		<path d="M17.3,9.4c0.2,0.1,0.3,0,0.4-0.1c0.2-0.1,0.2-0.2,0.3-0.3C17.6,9,17.4,9.1,17.3,9.4z"/>
		<path d="M18.9,30.9c0.3,0.2,0.7,0.1,0.9-0.1c0.1-0.4-0.2-0.7-0.4-0.9c-0.2-0.1-0.6-0.1-0.9,0.1 C18.5,30.5,18.6,30.8,18.9,30.9z M19.2,30.2c0.2,0.1,0.3,0.3,0.3,0.5c-0.2,0.1-0.4,0.1-0.6,0c-0.2-0.1-0.3-0.3-0.3-0.5 C18.9,30.1,19.1,30.1,19.2,30.2z"/>
		<path d="M19.4,8.8c0.3-0.2,0.5-0.5,0.4-0.9c-0.2-0.3-0.6-0.3-1-0.1c-0.2,0.1-0.5,0.5-0.3,0.8C18.8,9,19.2,9,19.4,8.8z  M18.9,8.1C19.1,8,19.3,8,19.5,8.1c0,0,0,0.1,0,0.1c-0.1,0.3-0.4,0.6-0.8,0.4c0,0,0,0-0.1,0C18.7,8.4,18.8,8.2,18.9,8.1z"/>
		<path d="M19.4,10.7c-0.3-0.1-0.6-0.1-0.9,0.2c-0.1,0.3,0.1,0.7,0.4,0.8c0.3,0.2,0.7,0.1,0.9-0.1 C19.9,11.2,19.7,10.9,19.4,10.7z M18.9,11.4c-0.1-0.1-0.2-0.2-0.2-0.4c0.1-0.1,0.1-0.1,0.3-0.1c0.4,0.1,0.6,0.3,0.5,0.6 C19.3,11.6,19.1,11.5,18.9,11.4z"/>
		<path d="M17.6,0.9c0.1,0.1,0.2,0.1,0.4,0.1c-0.1-0.2-0.1-0.3-0.3-0.3c-0.1,0-0.2-0.1-0.4,0C17.3,0.7,17.5,0.8,17.6,0.9 z"/>
		<path d="M18.9,2.1c0.4,0.2,0.7,0.1,0.9-0.1c0.1-0.4-0.1-0.7-0.5-0.9C19.1,1,18.8,1,18.5,1.3C18.5,1.6,18.6,2,18.9,2.1z  M19,1.3c0.4,0.1,0.6,0.3,0.6,0.6c-0.2,0.1-0.4,0.1-0.6-0.1c-0.2-0.1-0.2-0.2-0.2-0.4C18.8,1.3,18.9,1.3,19,1.3z"/>
		<path d="M22.2,6c-0.3,0.2-0.4,0.5-0.3,0.8c0.3,0.3,0.7,0.2,1,0c0.3-0.2,0.4-0.5,0.3-0.8C22.8,5.8,22.4,5.8,22.2,6z  M22.1,6.6c0-0.2,0.1-0.4,0.3-0.5c0.2-0.1,0.4-0.1,0.5,0C22.9,6.6,22.5,6.8,22.1,6.6z"/>
		<path d="M22.8,12.7c-0.3-0.2-0.7-0.2-1,0c-0.1,0.3,0.1,0.7,0.4,0.9c0.3,0.2,0.7,0.2,0.9-0.1 C23.2,13.2,23.1,12.9,22.8,12.7z M22.4,13.4c-0.2-0.1-0.3-0.3-0.3-0.5c0.2-0.1,0.4-0.1,0.5,0c0.2,0.1,0.3,0.3,0.3,0.5 C22.7,13.5,22.6,13.5,22.4,13.4z"/>
		<path d="M22.2,4c0.3,0.2,0.7,0.2,0.9-0.1c0.1-0.3,0-0.6-0.3-0.8c-0.3-0.2-0.7-0.2-1,0c-0.1,0.1,0,0.3,0,0.4 C21.9,3.7,22,3.9,22.2,4z M22.9,3.8c-0.1,0.1-0.2,0.1-0.4,0.1c-0.2,0-0.3-0.1-0.4-0.3c-0.1-0.1-0.1-0.2-0.1-0.3 C22.5,3.1,22.9,3.3,22.9,3.8z"/>
		<path d="M10.5,35.7c0.3,0.2,0.7,0.2,1-0.1c0.1-0.1,0-0.3,0-0.4c-0.1-0.2-0.2-0.3-0.3-0.4c-0.2-0.2-0.7-0.2-0.9,0.1 C10.1,35.2,10.2,35.5,10.5,35.7z M10.6,34.9c0.1,0,0.2,0,0.3,0.1c0.1,0.1,0.2,0.2,0.3,0.3c0,0.1,0.1,0.1,0,0.2 c-0.4,0.2-0.8,0-0.8-0.5C10.4,34.9,10.5,34.9,10.6,34.9z"/>
		<path d="M8.3,2.8c0.3-0.1,0.5-0.3,0.5-0.6c0.1-0.4-0.1-0.8-0.5-1C7.9,1.4,7.8,1.7,7.8,2.1C7.8,2.5,8,2.7,8.3,2.8z  M8.3,1.6c0.2,0.1,0.3,0.3,0.3,0.5c0,0.2-0.1,0.3-0.3,0.4C8.1,2.5,8.1,2.4,8,2.2C8.1,2,8.1,1.8,8.3,1.6z"/>
		<path d="M9.3,5.4c-0.1,0-0.2-0.1-0.3,0c0,0.1,0.1,0.2,0.2,0.3c0.1,0.1,0.3,0.1,0.4,0.1C9.5,5.5,9.5,5.4,9.3,5.4z"/>
		<path d="M9.2,13.9C9.1,14,9,14.1,8.9,14.2c0.1,0,0.3,0,0.4-0.1c0.1-0.1,0.2-0.2,0.3-0.3C9.4,13.8,9.3,13.9,9.2,13.9z" />
		<path d="M8.3,6.4C8.3,6.4,8.3,6.4,8.3,6.4C8.5,6.2,8.5,6,8.3,5.7c0,0,0,0,0,0C8.1,5.9,8.2,6.2,8.3,6.4z"/>
		<path d="M8.5,3.9c0-0.1,0-0.3-0.1-0.4C8.2,3.6,8.2,3.8,8.2,4c0,0.1,0,0.2,0.1,0.3C8.4,4.1,8.5,4,8.5,3.9z"/>
		<path d="M9.4,15C9.2,15,9.1,14.9,9,14.9c0,0.1,0.1,0.2,0.2,0.3c0.1,0.1,0.3,0.1,0.4,0.1C9.6,15.2,9.5,15.1,9.4,15z"/>
		<path d="M9.3,23.5C9.1,23.6,9,23.7,9,23.8c0,0,0,0,0,0.1c0.1,0,0.2,0,0.4-0.1c0.1-0.1,0.2-0.2,0.3-0.3 C9.5,23.4,9.4,23.5,9.3,23.5z"/>
		<path d="M11.1,4c0.3-0.2,0.5-0.5,0.4-0.9c-0.3-0.3-0.7-0.2-1,0c-0.3,0.2-0.4,0.5-0.3,0.8C10.5,4.2,10.9,4.2,11.1,4z  M10.6,3.3c0.2-0.1,0.4-0.2,0.6,0c0,0.1,0,0.1,0,0.2c0,0.1-0.1,0.2-0.2,0.3c-0.2,0.1-0.4,0.1-0.6,0C10.4,3.6,10.5,3.4,10.6,3.3z"/>
		<path d="M16.7,30.5c0.1-0.1,0.1-0.2,0.1-0.4c0-0.1,0-0.3-0.1-0.4c-0.1,0.1-0.1,0.3-0.1,0.4 C16.5,30.3,16.5,30.4,16.7,30.5z"/>
		<path d="M10.5,22.3c-0.3,0.2-0.4,0.5-0.3,0.8c0.3,0.3,0.7,0.3,0.9,0.1c0.2-0.1,0.3-0.2,0.3-0.4c0-0.1,0.1-0.3,0-0.4 C11.2,22.1,10.8,22.1,10.5,22.3z M10.9,23c-0.2,0.1-0.4,0.1-0.6,0c0-0.4,0.4-0.7,0.8-0.5C11.2,22.7,11.1,22.9,10.9,23z"/>
		<path d="M8.3,8.7c0.4-0.1,0.6-0.5,0.6-0.8c0-0.3-0.3-0.6-0.6-0.7C8,7.3,7.8,7.5,7.8,7.8C7.8,8.2,8,8.5,8.3,8.7z  M8.3,7.4c0.2,0.1,0.3,0.2,0.3,0.4c0,0.2-0.1,0.4-0.3,0.5C8.1,8.2,8.1,8,8,7.8C8.1,7.6,8.1,7.5,8.3,7.4z"/>
		<path d="M11.1,5.9c-0.2-0.2-0.7-0.2-0.9,0.1c-0.1,0.3,0,0.6,0.3,0.8c0.3,0.2,0.7,0.2,1,0c0.1-0.1,0-0.3,0-0.4 C11.4,6.2,11.3,6.1,11.1,5.9z M10.4,6.2c0.2-0.1,0.3-0.1,0.5,0c0.2,0.1,0.3,0.2,0.3,0.5C10.8,6.9,10.4,6.6,10.4,6.2z"/>
		<path d="M11.2,13.6c0.2-0.1,0.3-0.2,0.3-0.4c0-0.1,0.1-0.3,0-0.4c-0.3-0.3-0.7-0.2-1,0c-0.3,0.2-0.4,0.5-0.3,0.8 C10.5,13.8,10.9,13.8,11.2,13.6z M11.2,12.9c0,0.2-0.1,0.4-0.3,0.5c-0.2,0.1-0.4,0.1-0.6,0C10.5,12.9,10.8,12.7,11.2,12.9z"/>
		<path d="M8.3,12.4c0.3-0.1,0.5-0.4,0.5-0.7c0-0.3-0.1-0.7-0.6-0.8c-0.4,0.2-0.6,0.4-0.5,0.8C7.8,12.1,8,12.4,8.3,12.4z  M8.3,11.2c0.2,0.1,0.3,0.3,0.3,0.5c0,0.2-0.1,0.3-0.3,0.4C8.1,12.1,8.1,12,8,11.8C8.1,11.6,8.1,11.4,8.3,11.2z"/>
		<path d="M8.4,32.8c0-0.1,0-0.2,0-0.3c0-0.1,0-0.1-0.1-0.2c-0.1,0.2-0.1,0.3-0.1,0.5c0,0.1,0.1,0.2,0.1,0.3 C8.4,33,8.4,32.9,8.4,32.8z"/>
		<path d="M8.2,35.1c0,0.1,0,0.1,0.1,0.2c0.1-0.2,0.1-0.3,0.1-0.5c0-0.1-0.1-0.2-0.1-0.2c-0.1,0.1-0.1,0.2-0.1,0.2 C8.2,34.9,8.2,35,8.2,35.1z"/>
		<path d="M7.8,36.6c0,0.2,0,0.3,0.1,0.5c0.1,0.2,0.3,0.3,0.5,0.4c0.4-0.1,0.5-0.4,0.5-0.8c0-0.3-0.2-0.6-0.6-0.7 C8,36.1,7.8,36.3,7.8,36.6z M8.3,36.2c0.2,0.1,0.3,0.3,0.3,0.4c0,0.2-0.1,0.4-0.3,0.5C8.1,37,8.1,36.8,8,36.6 C8.1,36.4,8.1,36.3,8.3,36.2z"/>
		<path d="M8.3,30.1c-0.4,0.1-0.6,0.5-0.6,0.8c0,0.3,0.3,0.6,0.6,0.7c0.4-0.1,0.5-0.4,0.5-0.7 C8.9,30.6,8.7,30.3,8.3,30.1z M8.5,31.3c0,0.1-0.1,0.1-0.2,0.2C8.1,31.3,8.1,31.2,8,31c0-0.2,0.1-0.4,0.3-0.5 c0.2,0.1,0.3,0.3,0.3,0.5C8.6,31.1,8.6,31.2,8.5,31.3z"/>
		<path d="M5.5,4c0.3,0.2,0.7,0.2,0.9-0.1c0.1-0.3-0.1-0.7-0.3-0.8c-0.3-0.2-0.7-0.2-1,0.1C5,3.4,5.2,3.8,5.5,4z  M6.3,3.8c-0.2,0.1-0.3,0.1-0.5,0C5.6,3.7,5.4,3.6,5.4,3.3C5.8,3.1,6.2,3.3,6.3,3.8z"/>
		<path d="M8.9,40.5c0-0.3-0.2-0.7-0.6-0.8c-0.4,0.1-0.5,0.5-0.5,0.8c0,0.3,0.2,0.6,0.5,0.7C8.7,41.1,8.9,40.9,8.9,40.5z  M8.3,41C8.1,41,8.1,40.8,8,40.6c0-0.2,0.1-0.4,0.3-0.5C8.7,40.4,8.7,40.8,8.3,41z"/>
		<path d="M8.2,44.4c0,0.1,0,0.2,0,0.3c0,0.1,0,0.1,0.1,0.2c0.1-0.1,0.1-0.1,0.1-0.2c0-0.1,0-0.2,0-0.3 c0-0.1,0-0.2-0.1-0.3C8.2,44.2,8.2,44.3,8.2,44.4z"/>
		<path d="M8.3,13.9c0.2-0.2,0.2-0.5,0-0.8c-0.1,0.1-0.1,0.2-0.1,0.2c0,0.1,0,0.3,0,0.4C8.3,13.8,8.3,13.8,8.3,13.9z"/>
		<path d="M8.3,16C8.3,16,8.3,16.1,8.3,16c0.2-0.2,0.2-0.4,0.1-0.7c0,0,0,0-0.1,0.1C8.1,15.6,8.2,15.8,8.3,16z"/>
		<path d="M7.8,17.3c-0.1,0.2,0,0.4,0.1,0.6c0.1,0.2,0.2,0.3,0.4,0.4c0.4-0.1,0.6-0.5,0.6-0.8c0-0.3-0.2-0.6-0.6-0.7 c-0.1,0-0.2,0.1-0.2,0.1C7.9,17,7.8,17.1,7.8,17.3z M8.3,17c0.2,0.1,0.3,0.3,0.3,0.4c0,0.2-0.1,0.4-0.3,0.5 c-0.2-0.1-0.3-0.3-0.3-0.5C8.1,17.2,8.1,17.1,8.3,17z"/>
		<path d="M8.4,42C8.4,42,8.3,42,8.4,42c-0.2,0.2-0.2,0.4-0.1,0.7c0,0,0,0,0.1-0.1C8.5,42.4,8.5,42.2,8.4,42z"/>
		<path d="M10.5,16.5c0.3,0.2,0.7,0.2,1,0c0.1-0.3-0.1-0.6-0.4-0.9c-0.2-0.2-0.6-0.2-0.9,0.1 C10.1,16,10.2,16.3,10.5,16.5z M10.9,15.8c0.2,0.1,0.3,0.3,0.3,0.5c-0.1,0.1-0.2,0.1-0.2,0.1c-0.4-0.1-0.6-0.2-0.6-0.6 C10.6,15.7,10.7,15.7,10.9,15.8z"/>
		<path d="M16.8,1.3c0-0.1,0-0.3-0.1-0.4c-0.1,0.1-0.1,0.2-0.1,0.4c0,0.1,0,0.3,0.1,0.4C16.8,1.6,16.8,1.4,16.8,1.3z"/>
		<path d="M16.6,8.3c-0.2,0.2-0.2,0.5,0,0.8c0.1-0.1,0.1-0.3,0.1-0.4C16.8,8.5,16.7,8.4,16.6,8.3z"/>
		<path d="M10.5,26.1c0.3,0.2,0.7,0.2,1-0.1c0.1-0.3-0.1-0.6-0.4-0.8c-0.2-0.1-0.6-0.2-0.9,0.1 C10.1,25.6,10.3,25.9,10.5,26.1z M10.9,25.4c0.2,0.1,0.3,0.3,0.3,0.5c-0.4,0.2-0.8,0-0.8-0.5C10.5,25.3,10.7,25.3,10.9,25.4z"/>
		<path d="M16.1,12.7c0,0.3,0.1,0.7,0.5,0.8c0.3-0.1,0.5-0.4,0.6-0.8c0-0.3-0.1-0.6-0.5-0.7 C16.3,12.1,16.1,12.4,16.1,12.7z M16.7,12.2c0.2,0.1,0.3,0.3,0.3,0.5c0,0.2-0.1,0.4-0.3,0.5c-0.2-0.1-0.3-0.3-0.3-0.5 C16.4,12.4,16.4,12.3,16.7,12.2z"/>
		<path d="M16.7,7.6c0.4-0.1,0.6-0.5,0.6-0.7c0-0.4-0.2-0.7-0.5-0.8c-0.3,0.1-0.5,0.4-0.6,0.8 C16.1,7.1,16.2,7.5,16.7,7.6z M16.7,6.4c0.2,0.1,0.3,0.3,0.3,0.5c0,0.2-0.1,0.4-0.3,0.5c-0.2-0.1-0.3-0.3-0.3-0.5 C16.4,6.7,16.5,6.6,16.7,6.4z"/>
		<path d="M16.6,3.9c0.4-0.1,0.6-0.5,0.6-0.8c0-0.3-0.2-0.6-0.5-0.7c-0.4,0.1-0.6,0.5-0.5,0.9 C16.2,3.5,16.3,3.7,16.6,3.9z M16.7,2.5c0.2,0.1,0.3,0.3,0.3,0.5c0,0.2-0.1,0.4-0.3,0.5c-0.2-0.1-0.3-0.3-0.3-0.5 C16.4,2.8,16.5,2.6,16.7,2.5z"/>
		<path d="M16.7,27.5c-0.1,0.1-0.1,0.3-0.1,0.4c0,0.2,0.1,0.3,0.2,0.3C16.8,28,16.8,27.8,16.7,27.5z"/>
		<path d="M16.1,31.9c0,0.3,0.2,0.7,0.6,0.8c0.4-0.1,0.5-0.5,0.6-0.8c0-0.3-0.1-0.6-0.6-0.7 C16.2,31.3,16.1,31.6,16.1,31.9z M16.7,31.4c0.2,0.1,0.3,0.3,0.3,0.5c0,0.2-0.1,0.4-0.3,0.5c-0.2-0.1-0.3-0.3-0.3-0.5 C16.4,31.6,16.5,31.5,16.7,31.4z"/>
		<path d="M16,48.6c-0.2-0.1-0.3,0-0.4,0.1c-0.2,0.1-0.2,0.2-0.3,0.3C15.7,49,15.9,48.9,16,48.6z"/>
		<path d="M16.7,18.7c0.1-0.2,0.2-0.3,0.1-0.5c0-0.1-0.1-0.2-0.1-0.3C16.5,18.2,16.5,18.4,16.7,18.7z"/>
		<path d="M16.1,22.3c0,0.3,0.1,0.7,0.5,0.8c0.4-0.1,0.5-0.4,0.6-0.8c0-0.3-0.2-0.6-0.6-0.7C16.3,21.7,16.1,22,16.1,22.3 z M16.7,21.8c0.2,0.1,0.3,0.3,0.3,0.5c0,0.2-0.1,0.4-0.3,0.5c-0.2-0.1-0.3-0.2-0.3-0.4C16.4,22.1,16.4,21.9,16.7,21.8z"/>
		<path d="M16.6,20.9c0.1-0.1,0.1-0.2,0.1-0.3c0-0.2,0-0.3-0.1-0.4c-0.1,0.1-0.1,0.2-0.2,0.3 C16.5,20.6,16.5,20.8,16.6,20.9z"/>
		<path d="M16.5,10.9c0,0.1,0,0.3,0.1,0.4c0.1-0.1,0.1-0.2,0.1-0.4c0-0.1,0-0.3-0.1-0.4C16.5,10.6,16.5,10.7,16.5,10.9z" />
		<path d="M15.9,9.4c0,0,0.1,0,0.1,0c0-0.1-0.1-0.2-0.2-0.3C15.7,9.1,15.5,9,15.4,9c0,0.1,0.1,0.2,0.2,0.2 C15.6,9.4,15.8,9.4,15.9,9.4z"/>
		<path d="M14.4,11.7c0.3-0.2,0.5-0.5,0.4-0.8c-0.3-0.3-0.7-0.3-0.9-0.1c-0.3,0.2-0.5,0.4-0.4,0.9 C13.7,11.8,14,11.9,14.4,11.7z M13.9,11.1c0.1-0.1,0.2-0.2,0.5-0.2c0.1,0,0.1,0,0.2,0c0,0,0,0,0.1,0c0,0.2,0,0.3-0.2,0.4 c-0.2,0.1-0.4,0.2-0.6,0.1C13.7,11.3,13.8,11.2,13.9,11.1z"/>
		<path d="M15.7,10.2c-0.2,0.1-0.3,0.2-0.3,0.3c0.2,0,0.3,0,0.4-0.1c0.1-0.1,0.2-0.1,0.2-0.3 C15.9,10.1,15.8,10.1,15.7,10.2z"/>
		<path d="M10.2,32.7c0.3,0.3,0.7,0.3,0.9,0.1c0.3-0.2,0.5-0.5,0.4-0.9c-0.3-0.3-0.7-0.2-1,0 C10.2,32.1,10.1,32.4,10.2,32.7z M10.6,32.2c0.2-0.1,0.4-0.2,0.6,0c0,0.2-0.1,0.4-0.3,0.5c-0.2,0.1-0.3,0.1-0.5,0 C10.4,32.4,10.4,32.3,10.6,32.2z"/>
		<path d="M13.9,8.8C14.1,9,14.5,9,14.8,8.7c0.1-0.4-0.1-0.7-0.4-0.9C14,7.7,13.7,7.7,13.5,8C13.4,8.4,13.6,8.7,13.9,8.8 z M14.4,8.1c0.2,0.1,0.2,0.3,0.2,0.4c-0.2,0.1-0.3,0.1-0.5,0c-0.2-0.1-0.3-0.3-0.3-0.5C14,8,14.2,8,14.4,8.1z"/>
		<path d="M15.7,18.7c-0.1-0.1-0.2-0.1-0.4-0.1c0.1,0.3,0.3,0.4,0.6,0.4c0,0,0,0,0,0C16,18.9,15.9,18.8,15.7,18.7z"/>
		<path d="M15.6,38.2c0.1,0.1,0.3,0.1,0.4,0.1c0-0.2-0.1-0.2-0.2-0.3c-0.1-0.1-0.3-0.1-0.4-0.1 C15.4,38,15.5,38.1,15.6,38.2z"/>
		<path d="M15.6,39c-0.2,0.1-0.2,0.2-0.3,0.3c0.3,0,0.5-0.1,0.6-0.4C15.9,38.9,15.8,39,15.6,39z"/>
		<path d="M15.4,28.3c0.1,0.1,0.1,0.2,0.3,0.3c0.1,0.1,0.2,0.1,0.4,0.1c0-0.1,0-0.1,0-0.1c-0.1-0.1-0.2-0.2-0.3-0.2 C15.6,28.2,15.5,28.2,15.4,28.3z"/>
		<path d="M16,47.9C16,47.9,16,47.9,16,47.9c0-0.2-0.1-0.3-0.2-0.3c-0.1-0.1-0.2-0.1-0.4-0.1 C15.5,47.7,15.7,47.9,16,47.9z"/>
		<path d="M15.7,19.8c-0.2,0.1-0.3,0.2-0.4,0.4c0.2,0,0.3,0,0.4-0.1c0.1-0.1,0.2-0.1,0.2-0.3 C15.9,19.7,15.8,19.7,15.7,19.8z"/>
		<path d="M26,5.7c0.1,0,0.2,0.1,0.3,0c-0.1-0.1-0.2-0.2-0.3-0.3c-0.1-0.1-0.2-0.1-0.4-0.1C25.7,5.5,25.8,5.6,26,5.7z"/>
		<path d="M42.6,5.7c0.1,0,0.2,0.1,0.3,0c0-0.2-0.2-0.2-0.3-0.3c-0.1-0.1-0.2-0.1-0.4-0.1C42.3,5.5,42.5,5.6,42.6,5.7z" />
		<path d="M42.7,4.6c0.1-0.1,0.2-0.2,0.3-0.3c-0.2,0-0.3,0-0.5,0.1c-0.1,0.1-0.2,0.1-0.2,0.3C42.4,4.7,42.5,4.6,42.7,4.6 z"/>
		<path d="M41.7,20.5c-0.4,0.1-0.6,0.4-0.6,0.8c0,0.3,0.2,0.6,0.6,0.7c0.4-0.1,0.5-0.4,0.5-0.7 C42.2,21,42.1,20.7,41.7,20.5z M41.7,21.8c-0.2-0.1-0.3-0.3-0.3-0.4c0-0.2,0.1-0.4,0.3-0.5c0.2,0.1,0.3,0.3,0.3,0.5 C41.9,21.6,41.8,21.7,41.7,21.8z"/>
		<path d="M41.7,25.7c0.1-0.2,0.1-0.3,0.1-0.5c0-0.1,0-0.2-0.1-0.3c-0.1,0.1-0.1,0.2-0.1,0.4 C41.5,25.4,41.6,25.6,41.7,25.7z"/>
		<path d="M43,13.9c-0.2,0-0.3,0-0.5,0.1c-0.1,0.1-0.2,0.1-0.2,0.3c0.2,0,0.3,0,0.4-0.1C42.8,14.1,42.9,14,43,13.9z"/>
		<path d="M41.3,27.6c0.1,0.1,0.2,0.2,0.4,0.2c0.4-0.1,0.6-0.5,0.5-0.8c0-0.3-0.2-0.6-0.5-0.7C41,26.6,41,27.3,41.3,27.6 z M41.7,26.6c0.2,0.1,0.3,0.3,0.3,0.4c0,0.2-0.1,0.4-0.3,0.5c-0.2-0.1-0.3-0.3-0.3-0.5C41.4,26.8,41.5,26.7,41.7,26.6z"/>
		<path d="M41.8,23c0-0.1,0-0.2-0.1-0.3c-0.1,0.1-0.1,0.1-0.1,0.2c0,0.1,0,0.2,0,0.3c0,0.1,0,0.2,0.1,0.3 C41.8,23.3,41.8,23.2,41.8,23z"/>
		<path d="M42.9,33.1c-0.1,0-0.3,0-0.4,0.1c-0.1,0.1-0.2,0.2-0.3,0.3c0.2,0,0.3,0,0.5-0.1C42.9,33.2,42.9,33.2,42.9,33.1 z"/>
		<path d="M42.5,44.1c0.1,0.1,0.3,0.1,0.4,0.1c0-0.1-0.1-0.2-0.2-0.3c-0.1-0.1-0.3-0.1-0.4-0.1 C42.3,43.9,42.4,44,42.5,44.1z"/>
		<path d="M44.5,44.4c-0.2-0.2-0.6-0.2-1,0.1c-0.1,0.3,0,0.7,0.3,0.8c0.3,0.2,0.7,0.2,1-0.1c0.1-0.1,0-0.3,0-0.4 C44.8,44.7,44.7,44.5,44.5,44.4z M43.7,44.6c0.2-0.1,0.3-0.1,0.5,0c0.2,0.1,0.3,0.3,0.3,0.5C44.2,45.3,43.8,45,43.7,44.6z"/>
		<path d="M42.9,42.7c-0.1,0-0.3,0-0.4,0.1c-0.1,0.1-0.2,0.2-0.3,0.3c0.2,0,0.3,0,0.5-0.1C42.9,42.9,42.9,42.8,42.9,42.7 z"/>
		<path d="M43,23.5c-0.2,0-0.3,0-0.5,0.1c-0.1,0.1-0.2,0.1-0.2,0.3c0.2,0,0.3,0,0.4-0.1C42.8,23.7,42.9,23.6,43,23.5z"/>
		<path d="M42.6,34.2c-0.1-0.1-0.2-0.1-0.4-0.1c0,0.1,0.1,0.2,0.1,0.2c0.1,0.1,0.2,0.1,0.3,0.2c0.1,0,0.1,0,0.2,0 C42.9,34.4,42.8,34.3,42.6,34.2z"/>
		<path d="M42.6,15c-0.1-0.1-0.2-0.1-0.4-0.1c0.1,0.2,0.2,0.3,0.3,0.3c0.1,0.1,0.2,0.1,0.4,0.1 C42.9,15.2,42.8,15.1,42.6,15z"/>
		<path d="M42.4,24.8c0.1,0.1,0.2,0.1,0.3,0.2c0.1,0,0.1,0,0.2,0c-0.1-0.2-0.2-0.3-0.3-0.3c-0.1-0.1-0.2-0.1-0.4-0.1 C42.3,24.6,42.4,24.7,42.4,24.8z"/>
		<path d="M41.5,6.2c0,0.1,0.1,0.2,0.1,0.2c0.1-0.1,0.1-0.2,0.1-0.4c0-0.1,0-0.3-0.1-0.4C41.5,5.9,41.5,6,41.5,6.2z"/>
		<path d="M40.8,5.6C40.9,5.6,41,5.5,41,5.3c-0.1,0-0.2,0-0.4,0c-0.1,0.1-0.2,0.2-0.3,0.3C40.5,5.8,40.6,5.7,40.8,5.6z" />
		<path d="M40.8,23.6c-0.1-0.1-0.3-0.1-0.4-0.1c0,0.1,0.1,0.2,0.2,0.3c0.1,0.1,0.3,0.1,0.4,0.1 C41,23.7,40.9,23.6,40.8,23.6z"/>
		<path d="M40.6,15c-0.1,0.1-0.2,0.2-0.3,0.3c0.2,0,0.3,0,0.4-0.1c0.1-0.1,0.2-0.1,0.2-0.3C40.9,14.9,40.8,15,40.6,15z" />
		<path d="M40.4,24.9c0.1,0,0.3,0,0.4-0.1c0.1-0.1,0.2-0.1,0.3-0.3c0,0,0,0,0-0.1c-0.1,0-0.3,0-0.4,0.1 C40.5,24.7,40.4,24.8,40.4,24.9z"/>
		<path d="M39.5,12.7c-0.3-0.2-0.7-0.2-1,0c-0.1,0.3,0.1,0.7,0.4,0.9c0.3,0.2,0.7,0.2,0.9-0.1 C39.9,13.2,39.7,12.9,39.5,12.7z M39.6,13.4c-0.2,0.1-0.4,0.1-0.6,0c-0.2-0.1-0.3-0.2-0.2-0.5c0.2-0.1,0.4-0.1,0.6,0.1 c0.1,0,0.1,0.1,0.2,0.2C39.6,13.3,39.6,13.3,39.6,13.4z"/>
		<path d="M40.8,13.9c-0.1-0.1-0.2-0.1-0.4-0.1c0.1,0.2,0.2,0.3,0.3,0.3c0.1,0.1,0.2,0.1,0.4,0.1 C41,14.1,40.9,14,40.8,13.9z"/>
		<path d="M40.7,4.6c0.1,0.1,0.2,0.1,0.4,0.1c-0.1-0.2-0.2-0.2-0.3-0.3c-0.1-0.1-0.2-0.1-0.4-0.1 C40.4,4.4,40.5,4.5,40.7,4.6z"/>
		<path d="M41.6,7.1c-0.3,0.1-0.5,0.4-0.5,0.7c0,0.3,0.2,0.7,0.5,0.8c0.4-0.1,0.6-0.5,0.6-0.8C42.2,7.5,42,7.2,41.6,7.1z  M41.7,8.3c-0.2-0.1-0.3-0.3-0.3-0.5c0-0.2,0.1-0.3,0.3-0.4c0.2,0.1,0.3,0.2,0.3,0.4C41.9,8,41.9,8.2,41.7,8.3z"/>
		<path d="M41.6,16.8c-0.3,0.1-0.5,0.4-0.5,0.7c0,0.4,0.2,0.7,0.5,0.8c0.4-0.1,0.6-0.5,0.6-0.8 C42.2,17.1,42,16.8,41.6,16.8z M41.7,17.9c-0.2-0.1-0.3-0.3-0.3-0.5c0-0.2,0.1-0.3,0.3-0.4c0.2,0.1,0.3,0.2,0.3,0.4 C41.9,17.6,41.9,17.8,41.7,17.9z"/>
		<path d="M42.2,11.7c0-0.3-0.1-0.7-0.5-0.8c-0.4,0.1-0.6,0.4-0.6,0.8c0,0.3,0.3,0.6,0.6,0.7C42,12.3,42.2,12,42.2,11.7z  M41.7,12.2c-0.2-0.1-0.3-0.3-0.3-0.4c0-0.2,0.1-0.4,0.3-0.5c0.2,0.1,0.3,0.3,0.3,0.5C41.9,12,41.8,12.1,41.7,12.2z"/>
		<path d="M41.8,13.6c0-0.1,0-0.2,0-0.3c0-0.1,0-0.1-0.1-0.2c-0.1,0.2-0.1,0.3-0.1,0.5c0,0.1,0.1,0.2,0.1,0.3 C41.7,13.8,41.8,13.7,41.8,13.6z"/>
		<path d="M40.7,34.2c-0.1,0.1-0.2,0.1-0.3,0.3c0,0,0,0.1,0,0.1c0.1,0,0.3,0,0.4-0.1c0.1-0.1,0.2-0.2,0.2-0.3 C40.9,34.1,40.8,34.2,40.7,34.2z"/>
		<path d="M41.6,16C41.6,16,41.6,16.1,41.6,16c0.2-0.2,0.2-0.4,0.1-0.7c0,0,0,0-0.1,0C41.5,15.6,41.5,15.8,41.6,16z"/>
		<path d="M44.8,25.6c-0.1-0.2-0.2-0.3-0.3-0.4c-0.2-0.2-0.7-0.2-0.9,0.1c-0.1,0.3,0,0.6,0.3,0.8c0.3,0.2,0.7,0.2,1-0.1 C44.9,25.9,44.9,25.8,44.8,25.6z M43.7,25.4c0.2-0.1,0.4-0.1,0.5,0c0.2,0.1,0.3,0.3,0.3,0.5C44.2,26.1,43.7,25.8,43.7,25.4z"/>
		<path d="M38.8,6c-0.3,0.2-0.4,0.5-0.3,0.8c0.3,0.3,0.7,0.2,1,0c0.3-0.2,0.4-0.5,0.3-0.8C39.5,5.8,39.1,5.8,38.8,6z  M38.8,6.6c0-0.2,0.1-0.3,0.3-0.5c0.2-0.1,0.4-0.1,0.6,0C39.6,6.6,39.1,6.9,38.8,6.6z"/>
		<path d="M41.7,3.6C41.7,3.5,41.7,3.5,41.7,3.6c-0.2,0.2-0.2,0.4-0.1,0.7c0,0,0,0,0.1-0.1C41.8,4,41.8,3.8,41.7,3.6z"/>
		<path d="M50,11.3v-0.8c0,0,0,0,0,0c-0.1,0.1-0.1,0.2-0.1,0.4C49.9,11,49.9,11.2,50,11.3z"/>
		<path d="M44.5,32.8c0.3-0.2,0.5-0.5,0.4-0.9c-0.3-0.3-0.7-0.2-1,0c-0.3,0.2-0.4,0.5-0.3,0.8C43.8,33,44.2,33,44.5,32.8 z M44.5,32.1c0,0.2-0.1,0.3-0.2,0.5c-0.2,0.1-0.4,0.1-0.6,0C43.8,32.2,44.1,32,44.5,32.1z"/>
		<path d="M49.4,12.7c0,0.3,0.2,0.7,0.5,0.8c0,0,0,0,0,0v-0.3c0,0,0,0,0,0c-0.2-0.1-0.3-0.3-0.3-0.5 c0-0.2,0.1-0.4,0.3-0.5c0,0,0,0,0,0V12c0,0,0,0,0,0C49.6,12.1,49.4,12.4,49.4,12.7z"/>
		<path d="M50,40.1v-0.7c-0.1,0.1-0.1,0.2-0.1,0.3C49.8,39.8,49.9,40,50,40.1C50,40.1,50,40.1,50,40.1z"/>
		<path d="M50,36.4v-0.2c0,0,0,0,0,0c-0.1-0.1-0.2-0.2-0.2-0.3c0-0.1,0-0.3,0-0.4c0-0.1,0.1-0.2,0.2-0.3c0,0,0,0,0,0 v-0.3c-0.4,0.1-0.5,0.5-0.6,0.8C49.4,36,49.6,36.3,50,36.4z"/>
		<path d="M50,23.1C50,23.1,50,23.1,50,23.1l0-0.3c0,0,0,0,0,0c-0.2-0.1-0.3-0.3-0.3-0.5c0-0.2,0.1-0.4,0.3-0.5 c0,0,0,0,0,0v-0.2c0,0,0,0,0,0c-0.4,0.1-0.6,0.5-0.6,0.7C49.5,22.6,49.6,23,50,23.1z"/>
		<path d="M50,26.8v-0.2c-0.2-0.1-0.3-0.2-0.3-0.4c0-0.2,0.1-0.4,0.3-0.5c0,0,0,0,0,0v-0.3c0,0,0,0,0,0 c-0.3,0.1-0.6,0.4-0.6,0.8C49.4,26.4,49.6,26.7,50,26.8z"/>
		<path d="M49.9,8.7C49.9,8.9,49.9,9,50,9V8.3c0,0,0,0,0,0C49.9,8.4,49.8,8.6,49.9,8.7z"/>
		<path d="M50,18.7v-0.8c0,0,0,0,0,0C49.8,18.1,49.8,18.4,50,18.7C50,18.7,50,18.7,50,18.7z"/>
		<path d="M49.4,16.5c0,0.3,0.1,0.6,0.6,0.7c0,0,0,0,0,0V17c-0.2-0.1-0.3-0.2-0.3-0.4c0-0.2,0-0.4,0.3-0.6c0,0,0,0,0,0 v-0.3c0,0,0,0,0,0C49.6,15.9,49.5,16.2,49.4,16.5z"/>
		<path d="M50,20.9v-0.8c-0.1,0.1-0.1,0.2-0.1,0.3C49.8,20.6,49.9,20.8,50,20.9C50,20.9,50,20.9,50,20.9z"/>
		<path d="M50,30.5C50,30.5,50,30.5,50,30.5l0-0.8c0,0,0,0,0,0c-0.1,0.1-0.1,0.2-0.1,0.4C49.9,30.3,49.9,30.4,50,30.5z" />
		<path d="M49.4,31.9c0,0.3,0.1,0.7,0.5,0.8c0,0,0,0,0,0v-0.3c-0.2-0.1-0.3-0.3-0.3-0.5c0-0.2,0.1-0.4,0.3-0.5 c0,0,0,0,0,0v-0.2c0,0,0,0,0,0C49.6,31.3,49.4,31.6,49.4,31.9z"/>
		<path d="M50,28.3C50,28.3,50,28.3,50,28.3l0-0.8c-0.1,0.1-0.1,0.2-0.1,0.4C49.8,28,49.9,28.2,50,28.3z"/>
		<path d="M50,37.9C50,37.9,50,37.9,50,37.9l0-0.8c0,0,0,0,0,0C49.8,37.4,49.8,37.6,50,37.9z"/>
		<path d="M50,42.3C50,42.3,50,42.3,50,42.3l0-0.3c-0.2-0.1-0.3-0.3-0.3-0.5c0-0.2,0.1-0.4,0.3-0.5c0,0,0,0,0,0v-0.2 c0,0,0,0,0,0c-0.3,0.1-0.5,0.3-0.5,0.6c0,0.1,0,0.2,0,0.3C49.5,42,49.7,42.2,50,42.3z"/>
		<path d="M44.5,4c0.3-0.2,0.4-0.5,0.3-0.9c-0.3-0.3-0.7-0.2-1,0c-0.3,0.2-0.4,0.5-0.3,0.8C43.8,4.2,44.2,4.2,44.5,4z  M43.9,3.4c0.2-0.1,0.4-0.2,0.6,0c0,0.2-0.1,0.4-0.3,0.5c-0.2,0.1-0.4,0.1-0.5,0C43.7,3.6,43.8,3.5,43.9,3.4z"/>
		<path d="M48.7,28.3C48.7,28.3,48.7,28.3,48.7,28.3c0.1,0.3,0.3,0.4,0.6,0.4c0,0,0.1,0,0.1,0 C49.3,28.4,49,28.2,48.7,28.3z"/>
		<path d="M44.5,6c-0.2-0.2-0.6-0.2-1,0.1c-0.1,0.4,0,0.7,0.3,0.8c0.3,0.2,0.7,0.2,1-0.1C44.9,6.5,44.8,6.2,44.5,6z  M44.5,6.6c-0.4,0.2-0.8,0-0.8-0.5c0.2-0.1,0.4-0.1,0.6,0c0.1,0.1,0.2,0.1,0.2,0.2C44.5,6.5,44.6,6.6,44.5,6.6z"/>
		<path d="M43.9,35.7c0.3,0.2,0.7,0.2,1-0.1c0.1-0.1,0-0.3,0-0.4c-0.1-0.2-0.2-0.3-0.3-0.4c-0.2-0.2-0.6-0.2-1,0.1 C43.5,35.2,43.6,35.5,43.9,35.7z M44,34.9c0.1,0,0.2,0,0.3,0.1c0.1,0.1,0.2,0.2,0.3,0.3c0,0.1,0,0.1,0,0.2c-0.4,0.2-0.8,0-0.8-0.5 C43.8,34.9,43.9,34.9,44,34.9z"/>
		<path d="M43.5,23.1c0.3,0.3,0.7,0.3,1,0.1c0.2-0.1,0.3-0.2,0.3-0.4c0-0.1,0.1-0.3,0-0.4c-0.3-0.3-0.7-0.2-1-0.1 C43.6,22.4,43.4,22.8,43.5,23.1z M44.5,22.5c0,0.2-0.1,0.3-0.2,0.5c-0.2,0.1-0.4,0.1-0.6,0C43.8,22.6,44.1,22.3,44.5,22.5z"/>
		<path d="M49.1,20c0.1-0.1,0.2-0.2,0.2-0.3c-0.1,0-0.2,0-0.3,0c-0.2,0.1-0.3,0.2-0.3,0.3C48.9,20.2,49,20.1,49.1,20z"/>
		<path d="M44.8,16.4c0.1-0.3-0.1-0.6-0.4-0.9c-0.2-0.2-0.6-0.2-0.9,0.1c-0.1,0.3,0,0.7,0.3,0.8 C44.2,16.7,44.6,16.7,44.8,16.4z M44.3,15.8c0.1,0.1,0.2,0.1,0.2,0.2c0,0.1,0.1,0.1,0,0.2c-0.4,0.2-0.8,0-0.8-0.5 C43.9,15.7,44.1,15.7,44.3,15.8z"/>
		<path d="M50,1.7V0.9c0,0,0,0,0,0c-0.1,0.1-0.1,0.2-0.1,0.4C49.9,1.4,49.9,1.6,50,1.7C50,1.7,50,1.7,50,1.7z"/>
		<path d="M49.9,47.2c0,0.1,0,0.2,0.1,0.3v-0.8c0,0,0,0,0,0C49.9,46.9,49.8,47,49.9,47.2z"/>
		<path d="M49.4,10.1c-0.1,0-0.3,0-0.4,0.1c-0.1,0.1-0.2,0.2-0.3,0.3c0.2,0,0.3,0,0.5-0.1C49.2,10.4,49.3,10.3,49.4,10.1 z"/>
		<path d="M50,49.7C50,49.7,50,49.7,50,49.7l0-0.8c0,0,0,0,0,0C49.8,49.2,49.8,49.5,50,49.7z"/>
		<path d="M49.4,51.1c0,0.3,0.1,0.7,0.5,0.8c0,0,0,0,0,0v-0.3c0,0,0,0,0,0c-0.2-0.1-0.3-0.3-0.3-0.5 c0-0.2,0.1-0.4,0.3-0.5c0,0,0,0,0,0v-0.2c0,0,0,0,0,0C49.6,50.5,49.4,50.8,49.4,51.1z"/>
		<path d="M49.4,0.5c-0.2,0-0.3,0-0.4,0.1c-0.1,0.1-0.2,0.2-0.3,0.3C49,1,49.3,0.8,49.4,0.5z"/>
		<path d="M50,7.6V7.4c0,0,0,0,0,0c-0.2-0.1-0.3-0.3-0.3-0.5c0-0.2,0.1-0.4,0.3-0.5c0,0,0,0,0,0V6.1c0,0,0,0,0,0 c-0.3,0.1-0.6,0.4-0.5,0.8C49.5,7.2,49.6,7.5,50,7.6z"/>
		<path d="M50,3.9V3.5c-0.2-0.1-0.3-0.3-0.3-0.5c0-0.2,0.1-0.4,0.3-0.5c0,0,0,0,0,0V2.3c0,0,0,0,0,0 c-0.4,0.1-0.5,0.4-0.5,0.7C49.4,3.4,49.6,3.7,50,3.9z"/>
		<path d="M33.3,47.5c0.1-0.2,0.2-0.3,0.1-0.5c0-0.1-0.1-0.2-0.1-0.3C33.1,47,33.1,47.3,33.3,47.5z"/>
		<path d="M27.8,6c-0.2-0.2-0.7-0.2-0.9,0.1c-0.1,0.3,0,0.7,0.3,0.8c0.3,0.2,0.7,0.2,1-0.1c0.1-0.1,0-0.3,0-0.4 C28.1,6.2,28,6.1,27.8,6z M27.9,6.6c-0.4,0.2-0.8,0-0.8-0.5c0.2-0.1,0.4-0.1,0.6,0c0.1,0.1,0.2,0.1,0.2,0.2 C27.9,6.5,27.9,6.6,27.9,6.6z"/>
		<path d="M25.8,33.2c-0.1,0.1-0.2,0.1-0.2,0.3c0.1,0,0.3,0,0.4-0.1c0.1-0.1,0.2-0.2,0.3-0.3C26.1,33,26,33.1,25.8,33.2z "/>
		<path d="M27.8,4c0.3-0.2,0.5-0.5,0.4-0.9c-0.3-0.3-0.7-0.2-1,0c-0.3,0.2-0.4,0.5-0.3,0.8C27.1,4.2,27.5,4.2,27.8,4z  M27.9,3.3c0,0.1,0,0.1,0,0.2c0,0.1-0.1,0.2-0.2,0.3c-0.2,0.1-0.4,0.1-0.6,0C27.1,3.3,27.5,3.1,27.9,3.3z"/>
		<path d="M25.6,34.2c0,0.1,0.1,0.2,0.2,0.3c0.1,0.1,0.3,0.1,0.4,0.1c0-0.1-0.1-0.2-0.2-0.3 C25.9,34.2,25.8,34.1,25.6,34.2z"/>
		<path d="M26,43.8c-0.1,0-0.2-0.1-0.3,0c0.1,0.2,0.1,0.2,0.3,0.3c0.2,0.1,0.2,0.1,0.4,0.1C26.2,44,26.1,43.9,26,43.8z" />
		<path d="M26.1,24.9c0.1,0,0.1,0,0.2,0c-0.1-0.2-0.2-0.3-0.3-0.3c-0.1-0.1-0.2-0.1-0.4-0.1c0,0.1,0.1,0.2,0.1,0.2 C25.8,24.8,25.9,24.9,26.1,24.9z"/>
		<path d="M38.8,4c0.3,0.2,0.7,0.2,0.9-0.1c0.1-0.3,0-0.6-0.3-0.8c-0.3-0.2-0.7-0.2-1,0.1c-0.1,0.1,0,0.3,0,0.4 C38.6,3.7,38.7,3.9,38.8,4z M39.4,3.3c0.2,0.1,0.2,0.3,0.2,0.4c-0.2,0.1-0.4,0.1-0.5,0c-0.2-0.1-0.3-0.3-0.3-0.5 C39,3.2,39.2,3.2,39.4,3.3z"/>
		<path d="M30.6,28c0.2,0.1,0.6,0.1,0.9-0.1c0.1-0.4-0.1-0.7-0.4-0.8c-0.3-0.2-0.7-0.1-0.9,0.1 C30,27.6,30.3,27.9,30.6,28z M30.4,27.3c0.2-0.1,0.4-0.1,0.6,0c0.2,0.1,0.3,0.3,0.2,0.4c-0.1,0.1-0.2,0.1-0.3,0.1 c-0.1,0-0.2,0-0.3-0.1c-0.1-0.1-0.2-0.1-0.2-0.3C30.4,27.5,30.4,27.4,30.4,27.3z"/>
		<path d="M31.1,2.1c0.3-0.2,0.4-0.5,0.4-0.8C31.2,1,30.8,1,30.6,1.1C30.3,1.3,30,1.5,30.1,2C30.4,2.3,30.8,2.3,31.1,2.1 z M31,1.3c0.1,0,0.2,0,0.3,0.1c0,0.2-0.1,0.3-0.2,0.4c-0.2,0.1-0.4,0.2-0.6,0C30.4,1.6,30.6,1.3,31,1.3z"/>
		<path d="M30.6,8.8C30.8,9,31.2,9,31.5,8.7c0.1-0.4-0.1-0.7-0.4-0.8c-0.3-0.2-0.7-0.1-0.9,0.1C30,8.4,30.3,8.7,30.6,8.8 z M31,8.1c0.2,0.1,0.3,0.3,0.3,0.5c-0.2,0.1-0.4,0.1-0.5,0c-0.2-0.1-0.3-0.3-0.3-0.5C30.6,8,30.8,8,31,8.1z"/>
		<path d="M33.3,17.2c0.3-0.1,0.5-0.3,0.5-0.6c0-0.1,0-0.2,0-0.3c-0.1-0.3-0.3-0.4-0.5-0.5c-0.4,0.1-0.6,0.4-0.6,0.8 C32.8,16.9,33,17.1,33.3,17.2z M33.3,16c0.1,0.1,0.2,0.1,0.2,0.3c0.1,0.1,0.1,0.3,0,0.4c0,0.1-0.1,0.2-0.3,0.3 c-0.2-0.1-0.3-0.2-0.3-0.4C33.1,16.4,33.1,16.2,33.3,16z"/>
		<path d="M32.7,0.6C32.7,0.5,32.6,0.5,32.7,0.6c-0.3,0-0.5,0.1-0.6,0.3c0,0,0,0.1,0,0.1C32.3,0.9,32.6,0.8,32.7,0.6z"/>
		<path d="M31.1,17.5c-0.4-0.2-0.7-0.1-0.9,0.1c-0.1,0.4,0.2,0.7,0.5,0.9c0.3,0.1,0.6,0.1,0.9-0.2 C31.5,17.9,31.4,17.6,31.1,17.5z M30.7,18.2c-0.2-0.1-0.3-0.3-0.3-0.5c0.2-0.1,0.4-0.1,0.6,0c0.2,0.1,0.3,0.3,0.3,0.5 C31.1,18.3,30.9,18.3,30.7,18.2z"/>
		<path d="M31.5,10.9c-0.2-0.3-0.6-0.3-0.9-0.2c-0.3,0.1-0.5,0.4-0.5,0.9c0.2,0.3,0.6,0.3,0.9,0.1 C31.4,11.5,31.5,11.2,31.5,10.9z M31.1,11.4c-0.2,0.1-0.4,0.2-0.6,0.1c0-0.3,0.2-0.5,0.6-0.6c0.1,0,0.2,0,0.3,0.1 C31.3,11.1,31.2,11.3,31.1,11.4z"/>
		<path d="M30.6,20.4c-0.3,0.2-0.5,0.5-0.4,0.9c0.2,0.2,0.6,0.3,0.9,0.1c0.3-0.2,0.5-0.5,0.4-0.8 C31.2,20.2,30.8,20.2,30.6,20.4z M31.1,21c-0.2,0.1-0.4,0.2-0.7,0.1c0-0.2,0.1-0.4,0.3-0.5c0.2-0.1,0.4-0.1,0.5,0 C31.3,20.7,31.2,20.9,31.1,21z"/>
		<path d="M25,18.3c0.4-0.1,0.6-0.5,0.5-0.9c0-0.3-0.3-0.6-0.6-0.6c-0.4,0.1-0.5,0.4-0.5,0.7 C24.4,17.8,24.6,18.2,25,18.3z M25,17c0.2,0.1,0.3,0.2,0.3,0.4c0,0.2-0.1,0.4-0.2,0.5c-0.1,0-0.1,0-0.1-0.1 c-0.1-0.1-0.2-0.3-0.2-0.5C24.7,17.2,24.8,17.1,25,17z"/>
		<path d="M24,33.4c0.1,0.1,0.2,0.1,0.4,0.1c-0.1-0.2-0.2-0.2-0.3-0.3c-0.1-0.1-0.2-0.1-0.4-0.1 C23.8,33.2,23.9,33.3,24,33.4z"/>
		<path d="M25.5,11.7c0-0.3-0.2-0.7-0.6-0.8c-0.4,0.1-0.6,0.4-0.5,0.8c0,0.3,0.2,0.6,0.5,0.7 C25.3,12.3,25.5,12,25.5,11.7z M25,12.2c-0.2-0.1-0.3-0.3-0.3-0.5c0-0.2,0.1-0.4,0.3-0.5c0.2,0.1,0.3,0.3,0.3,0.5 C25.3,11.9,25.2,12.1,25,12.2z"/>
		<path d="M24.4,24.5c-0.2,0-0.3,0-0.4,0.1c-0.1,0.1-0.2,0.1-0.2,0.3c0.2,0,0.3,0,0.5-0.1C24.3,24.8,24.3,24.7,24.4,24.5 z"/>
		<path d="M33.3,7.6c0.1,0,0.2-0.1,0.3-0.1c0.1-0.1,0.2-0.3,0.3-0.4c0-0.2,0-0.4-0.1-0.6c-0.1-0.2-0.2-0.3-0.4-0.3 c-0.4,0.1-0.5,0.5-0.6,0.8C32.8,7.1,32.9,7.5,33.3,7.6z M33.3,6.4c0.2,0.1,0.3,0.3,0.3,0.5c0,0.2-0.1,0.4-0.3,0.5 c-0.2-0.1-0.3-0.2-0.3-0.4C33.1,6.7,33.1,6.6,33.3,6.4z"/>
		<path d="M24,4.6c0.1,0.1,0.2,0.1,0.4,0.1c-0.1-0.2-0.2-0.2-0.3-0.3c-0.1-0.1-0.2-0.1-0.4-0.1C23.8,4.4,23.9,4.5,24,4.6 z"/>
		<path d="M24.1,13.9c-0.1-0.1-0.3-0.1-0.4-0.1c0,0.2,0.1,0.2,0.3,0.3c0.1,0.1,0.2,0.1,0.4,0.1 C24.3,14.1,24.3,14,24.1,13.9z"/>
		<path d="M23.9,5.4c-0.1,0.1-0.2,0.2-0.2,0.3c0.2,0,0.3,0,0.4-0.1c0.1-0.1,0.2-0.1,0.2-0.3C24.2,5.3,24.1,5.3,23.9,5.4z "/>
		<path d="M24.9,6.2c0,0.1,0.1,0.2,0.1,0.2c0.1-0.1,0.1-0.2,0.1-0.4c0-0.1,0-0.3-0.1-0.4C24.8,5.9,24.8,6,24.9,6.2z"/>
		<path d="M25,2.8c0.1,0,0.2-0.1,0.3-0.2c0.2-0.2,0.3-0.4,0.2-0.7c-0.1-0.3-0.2-0.5-0.5-0.6c-0.4,0.1-0.6,0.5-0.6,0.8 C24.4,2.4,24.6,2.7,25,2.8z M25,1.6c0.2,0.1,0.3,0.3,0.3,0.5c0,0.2-0.1,0.4-0.3,0.5c-0.2-0.1-0.3-0.2-0.3-0.4 C24.7,2,24.8,1.8,25,1.6z"/>
		<path d="M25.1,13.6c0-0.1,0-0.2,0-0.3c0-0.1,0-0.1-0.1-0.2c-0.1,0.2-0.1,0.3-0.1,0.5c0,0.1,0.1,0.2,0.1,0.3 C25.1,13.8,25.1,13.7,25.1,13.6z"/>
		<path d="M6.1,6.9C6.4,6.7,6.5,6.4,6.4,6C6.1,5.8,5.7,5.8,5.5,6C5.3,6.1,5.2,6.2,5.1,6.4c0,0.1-0.1,0.3,0,0.4 C5.4,7.1,5.8,7.1,6.1,6.9z M5.5,6.4c0-0.1,0.1-0.2,0.2-0.2c0.2-0.1,0.4-0.1,0.6,0C6.2,6.6,5.8,6.8,5.4,6.6C5.4,6.6,5.4,6.5,5.5,6.4 z"/>
		<path d="M26,14.2c0.1-0.1,0.3-0.2,0.3-0.3c-0.1,0-0.3,0-0.4,0.1c-0.1,0.1-0.2,0.2-0.3,0.3C25.7,14.3,25.8,14.3,26,14.2 z"/>
		<path d="M25,16.1c0.1-0.2,0.1-0.3,0.1-0.5c0-0.1-0.1-0.2-0.1-0.3c-0.1,0.1-0.1,0.2-0.1,0.2c0,0.1,0,0.2,0,0.3 C24.9,15.9,24.9,16,25,16.1z"/>
		<path d="M25,3.5C25,3.5,25,3.5,25,3.5c-0.2,0.1-0.2,0.2-0.2,0.4c0,0.2,0,0.2,0.1,0.3c0,0,0,0,0,0 C25.2,4,25.2,3.8,25,3.5z"/>
		<path d="M26.3,4.2c-0.2,0-0.3,0-0.5,0.1c-0.1,0.1-0.2,0.1-0.2,0.3c0.2,0,0.3,0,0.4-0.1C26.2,4.5,26.2,4.4,26.3,4.2z"/>
		<path d="M26,15c-0.1-0.1-0.3-0.1-0.4-0.1c0,0.1,0.1,0.2,0.2,0.3c0.1,0.1,0.3,0.1,0.4,0.1C26.2,15.2,26.2,15.1,26,15z" />
		<path d="M34.3,9.4c0.1-0.1,0.3-0.2,0.3-0.3C34.3,9,34.1,9.1,34,9.4C34.1,9.5,34.2,9.4,34.3,9.4z"/>
		<path d="M34.6,0.9c0-0.1-0.1-0.2-0.2-0.3c-0.1-0.1-0.2-0.1-0.4-0.1C34.1,0.8,34.3,1,34.6,0.9z"/>
		<path d="M36.1,20.3c-0.2-0.1-0.6-0.1-0.9,0.2c-0.1,0.4,0.1,0.7,0.4,0.9c0.4,0.2,0.7,0.1,0.9-0.1 C36.6,20.8,36.3,20.5,36.1,20.3z M36.2,21.1c-0.2,0.1-0.4,0.1-0.6,0c-0.2-0.1-0.2-0.2-0.2-0.4c0.1-0.1,0.2-0.1,0.3-0.1 c0.1,0,0.2,0,0.3,0.1c0.1,0.1,0.2,0.1,0.2,0.2C36.2,20.9,36.2,21,36.2,21.1z"/>
		<path d="M24.1,15.2c0.1-0.1,0.2-0.1,0.2-0.3c-0.2,0-0.3,0-0.4,0.1c-0.1,0.1-0.2,0.2-0.2,0.3 C23.9,15.4,24,15.3,24.1,15.2z"/>
		<path d="M33.2,49.4c0,0.1,0,0.3,0.1,0.4c0.1-0.1,0.1-0.3,0.1-0.4c0-0.1,0-0.3-0.1-0.4C33.2,49.1,33.2,49.2,33.2,49.4z" />
		<path d="M36.5,17.6c-0.2-0.2-0.6-0.3-0.9-0.1c-0.3,0.2-0.5,0.5-0.4,0.8c0.3,0.3,0.6,0.3,0.9,0.1 C36.3,18.3,36.6,18,36.5,17.6z M36.2,17.9c0,0.1-0.1,0.2-0.2,0.3c-0.2,0.1-0.4,0.1-0.6,0c0-0.2,0-0.3,0.2-0.4 c0.2-0.1,0.4-0.2,0.6-0.1C36.2,17.8,36.2,17.9,36.2,17.9z"/>
		<path d="M34,10.1C34,10.1,34,10.1,34,10.1c0.1,0.3,0.3,0.4,0.6,0.4C34.5,10.3,34.3,10.1,34,10.1z"/>
		<path d="M35.6,2.1C36,2.3,36.3,2.2,36.5,2c0.1-0.5-0.2-0.7-0.5-0.9C35.8,1,35.5,1,35.2,1.3C35.1,1.6,35.3,2,35.6,2.1z  M35.5,1.3c0,0,0.1,0,0.1,0c0.2,0,0.3,0.1,0.5,0.2c0.1,0.1,0.1,0.2,0.1,0.3c-0.2,0.1-0.4,0.1-0.6,0c-0.2-0.1-0.2-0.2-0.2-0.4 C35.4,1.3,35.5,1.3,35.5,1.3z"/>
		<path d="M36.1,8.8c0.3-0.2,0.5-0.5,0.4-0.9c-0.3-0.3-0.6-0.3-0.9-0.1c-0.3,0.2-0.4,0.5-0.4,0.8C35.5,9,35.8,9,36.1,8.8 z M35.6,8.1C35.8,8,36,8,36.2,8.1c0,0.1,0,0.2,0,0.2c0,0.1-0.1,0.2-0.2,0.2c-0.2,0.1-0.3,0.1-0.6,0C35.4,8.4,35.5,8.2,35.6,8.1z"/>
		<path d="M38.5,42c0.1,0.2,0.2,0.3,0.3,0.4c0.3,0.2,0.7,0.2,0.9-0.1c0.1-0.3,0-0.6-0.3-0.8c-0.3-0.2-0.7-0.2-1,0 C38.4,41.7,38.4,41.9,38.5,42z M39.6,42.2c-0.2,0.1-0.4,0.1-0.6,0c-0.2-0.1-0.3-0.2-0.3-0.5C39.2,41.6,39.6,41.8,39.6,42.2z"/>
		<path d="M39.5,16.5c0.3-0.2,0.4-0.5,0.3-0.8c-0.3-0.3-0.7-0.2-0.9-0.1c-0.2,0.1-0.3,0.3-0.3,0.4c0,0.1-0.1,0.3,0,0.4 C38.8,16.7,39.2,16.7,39.5,16.5z M39.1,15.8c0.2-0.1,0.4-0.1,0.5,0c0,0.1,0,0.2,0,0.3c0,0.1-0.1,0.2-0.2,0.2 c-0.2,0.1-0.4,0.2-0.6,0C38.8,16,38.9,15.9,39.1,15.8z"/>
		<path d="M39.5,35.7c0.3-0.2,0.4-0.5,0.3-0.8c-0.3-0.3-0.7-0.2-0.9-0.1c-0.3,0.2-0.4,0.5-0.3,0.9 C38.8,35.9,39.2,35.9,39.5,35.7z M38.8,35.3c0-0.1,0.1-0.2,0.2-0.3c0.2-0.2,0.4-0.2,0.6-0.1c0,0.1,0,0.2-0.1,0.3 c-0.1,0.2-0.3,0.2-0.5,0.2c-0.1,0-0.2,0-0.2-0.1C38.8,35.4,38.8,35.4,38.8,35.3z"/>
		<path d="M33.3,3.8c0.3-0.1,0.5-0.4,0.6-0.8c0-0.3-0.1-0.6-0.5-0.7c-0.4,0.1-0.6,0.4-0.6,0.7 C32.8,3.4,32.9,3.7,33.3,3.8z M33.3,2.5c0.2,0.1,0.3,0.3,0.3,0.4c0,0.2-0.1,0.4-0.3,0.5c-0.1,0-0.1-0.1-0.2-0.2 C33,3.1,33,2.8,33.3,2.5z"/>
		<path d="M39.5,22.3c-0.3-0.2-0.7-0.2-1,0.1c-0.1,0.3,0.1,0.7,0.4,0.9c0.3,0.2,0.7,0.2,0.9-0.1 C39.9,22.8,39.7,22.5,39.5,22.3z M39,23c-0.2-0.1-0.3-0.3-0.3-0.5c0.2-0.1,0.4-0.1,0.5,0c0.2,0.1,0.3,0.2,0.3,0.5 C39.4,23.1,39.2,23.1,39,23z"/>
		<path d="M38.8,25.2c-0.2,0.1-0.3,0.3-0.3,0.4c0,0.1-0.1,0.3,0,0.4c0.3,0.3,0.7,0.2,1,0c0.3-0.2,0.4-0.5,0.3-0.8 C39.5,25,39,25,38.8,25.2z M38.8,25.9c0-0.2,0.1-0.4,0.3-0.5c0.2-0.1,0.4-0.1,0.5,0C39.6,25.8,39.1,26.1,38.8,25.9z"/>
		<path d="M32.8,51.1c0,0.3,0.1,0.7,0.6,0.8c0.4-0.1,0.6-0.5,0.5-0.8c0-0.4-0.3-0.6-0.6-0.7C33,50.5,32.8,50.8,32.8,51.1 z M33.3,50.6c0.2,0.1,0.3,0.3,0.3,0.5c0,0.2-0.1,0.4-0.3,0.5c-0.2-0.1-0.3-0.3-0.3-0.5C33.1,50.9,33.1,50.7,33.3,50.6z"/>
		<path d="M33.5,30.2c0-0.2,0-0.3-0.1-0.4c-0.1,0.1-0.1,0.2-0.2,0.3c0,0.2,0,0.3,0.1,0.4C33.4,30.4,33.5,30.3,33.5,30.2z "/>
		<path d="M33.3,26.8c0.1,0,0.2-0.1,0.3-0.1c0.1-0.1,0.2-0.2,0.3-0.4c0.1-0.2,0-0.4-0.1-0.6c-0.1-0.2-0.2-0.3-0.4-0.4 c-0.4,0.1-0.6,0.4-0.6,0.8C32.8,26.4,33,26.7,33.3,26.8z M33.3,25.7c0.2,0.1,0.3,0.3,0.3,0.5c0,0.2-0.1,0.3-0.3,0.4 c-0.2-0.1-0.3-0.2-0.3-0.4C33,26,33.1,25.8,33.3,25.7z"/>
		<path d="M32.8,12.7c0,0.3,0.1,0.7,0.6,0.8c0.4-0.1,0.6-0.5,0.5-0.8c0-0.4-0.3-0.6-0.6-0.7C33,12.1,32.8,12.3,32.8,12.7 z M33.3,12.2c0.2,0.1,0.3,0.3,0.3,0.5c0,0.2-0.1,0.4-0.3,0.5c-0.2-0.1-0.3-0.3-0.3-0.5C33.1,12.4,33.2,12.3,33.3,12.2z"/>
		<path d="M33.3,11.3c0.1-0.1,0.1-0.2,0.1-0.4c0-0.1,0-0.3-0.1-0.4c-0.1,0.1-0.1,0.2-0.1,0.4 C33.2,11,33.2,11.2,33.3,11.3z"/>
		<path d="M33.5,1.3c0-0.1,0-0.3-0.1-0.4c-0.1,0.1-0.1,0.2-0.1,0.4c0,0.1,0,0.3,0.1,0.4C33.4,1.6,33.5,1.4,33.5,1.3z"/>
		<path d="M33.3,27.5c-0.2,0.3-0.2,0.5,0,0.8c0.1-0.2,0.2-0.3,0.1-0.5C33.4,27.7,33.4,27.6,33.3,27.5z"/>
		<path d="M33.3,32.7c0.4-0.1,0.5-0.5,0.5-0.8c0-0.3-0.2-0.6-0.6-0.7c-0.4,0.1-0.6,0.5-0.5,0.7 C32.8,32.3,33,32.6,33.3,32.7z M33.3,31.4c0.2,0.1,0.3,0.3,0.3,0.5c0,0.2-0.1,0.4-0.3,0.5c-0.2-0.1-0.3-0.3-0.3-0.6 C33.1,31.6,33.2,31.5,33.3,31.4z"/>
		<path d="M33.3,8.3c-0.1,0.1-0.1,0.2-0.1,0.4c0,0.1,0,0.3,0.1,0.4c0.1-0.1,0.1-0.2,0.1-0.4C33.5,8.5,33.4,8.4,33.3,8.3z "/>
		<path d="M33.3,37.1c-0.1,0.1-0.1,0.2-0.1,0.4c0,0.1,0,0.3,0.1,0.4c0.1-0.1,0.1-0.2,0.1-0.4 C33.5,37.4,33.4,37.2,33.3,37.1z"/>
		<path d="M33.3,44.5c-0.4,0.1-0.5,0.4-0.6,0.8c0,0.3,0.1,0.6,0.6,0.7c0.4-0.1,0.6-0.5,0.6-0.7 C33.9,44.9,33.7,44.6,33.3,44.5z M33.3,45.8c-0.2-0.1-0.3-0.3-0.3-0.5c0-0.2,0.1-0.4,0.3-0.5c0.2,0.1,0.3,0.3,0.3,0.5 C33.6,45.6,33.5,45.7,33.3,45.8z"/>
		<path d="M33.3,40.8c-0.4,0.1-0.6,0.4-0.6,0.7c0,0.3,0.1,0.7,0.5,0.8c0.3-0.1,0.5-0.4,0.6-0.8 C33.9,41.3,33.8,40.9,33.3,40.8z M33.3,42c-0.2-0.1-0.3-0.3-0.3-0.5c0-0.2,0.1-0.4,0.3-0.5c0.2,0.1,0.3,0.2,0.3,0.4 C33.6,41.6,33.5,41.8,33.3,42z"/>
		<path d="M33.3,40.1c0.1-0.2,0.2-0.3,0.1-0.5c0-0.1,0-0.2-0.1-0.3C33.1,39.6,33.1,39.8,33.3,40.1z"/>
		<path d="M32.8,22.2c0,0.1,0,0.2,0,0.3c0.1,0.3,0.2,0.5,0.5,0.6c0.4-0.1,0.6-0.5,0.6-0.8c0-0.3-0.2-0.6-0.6-0.7 C33,21.7,32.8,21.9,32.8,22.2z M33.3,21.8c0.2,0.1,0.3,0.3,0.3,0.5c0,0.2-0.1,0.4-0.3,0.5c-0.2-0.1-0.3-0.3-0.3-0.5 C33,22.1,33.1,21.9,33.3,21.8z"/>
		<path d="M33.3,20.9c0.1-0.1,0.1-0.3,0.1-0.4c0-0.1,0-0.2-0.1-0.3c-0.1,0.1-0.1,0.3-0.1,0.4 C33.2,20.7,33.2,20.8,33.3,20.9z"/>
		<path d="M33.3,17.9c-0.1,0.2-0.2,0.3-0.1,0.5c0,0.1,0,0.2,0.1,0.3C33.5,18.4,33.5,18.2,33.3,17.9z"/>
		<path d="M8.3,26.4c-0.3,0.1-0.5,0.4-0.5,0.7c0,0.3,0.2,0.7,0.5,0.8c0.4-0.1,0.6-0.5,0.6-0.8 C8.9,26.7,8.6,26.4,8.3,26.4z M8.3,27.5C8.1,27.4,8.1,27.2,8,27c0-0.2,0.1-0.4,0.3-0.5c0.2,0.1,0.3,0.3,0.3,0.4 C8.6,27.2,8.5,27.4,8.3,27.5z"/>
		<path d="M27.2,12.7c-0.3,0.1-0.4,0.5-0.3,0.8c0.3,0.3,0.7,0.3,1,0.1c0.1-0.1,0.3-0.2,0.3-0.4c0-0.1,0.1-0.3,0-0.4 C27.8,12.5,27.5,12.5,27.2,12.7z M27.6,13.4c-0.2,0.1-0.3,0.1-0.5,0c0-0.2,0.1-0.3,0.2-0.4c0.2-0.1,0.4-0.2,0.6,0 C27.9,13.2,27.8,13.3,27.6,13.4z"/>
		<path d="M31.1,30.9c0.3-0.2,0.5-0.5,0.4-0.8c-0.3-0.3-0.7-0.3-0.9-0.1c-0.3,0.2-0.5,0.5-0.4,0.9 C30.4,31.1,30.8,31.1,31.1,30.9z M30.7,30.2c0.2-0.1,0.4-0.1,0.5,0c0,0.2,0,0.3-0.2,0.4c-0.2,0.1-0.4,0.2-0.7,0.1 C30.4,30.5,30.5,30.3,30.7,30.2z"/>
		<path d="M27.2,41.5c-0.3,0.2-0.4,0.5-0.3,0.8c0.3,0.3,0.7,0.3,1,0c0.1-0.1,0.3-0.2,0.3-0.4c0-0.1,0.1-0.3,0-0.4 C27.8,41.3,27.5,41.3,27.2,41.5z M27.6,42.2c-0.1,0.1-0.3,0.1-0.5,0c0-0.2,0.1-0.3,0.2-0.4c0.2-0.1,0.4-0.2,0.6,0 C27.9,42,27.8,42.1,27.6,42.2z"/>
		<path d="M27.8,54c-0.2-0.2-0.6-0.2-1,0.1c-0.1,0.3,0,0.7,0.3,0.8c0.3,0.2,0.7,0.2,1-0.1c0.1-0.1,0-0.3,0-0.4 C28.1,54.3,28,54.1,27.8,54z M27,54.2c0.2-0.1,0.4-0.1,0.6,0c0.2,0.1,0.3,0.2,0.2,0.5C27.5,54.9,27.1,54.7,27,54.2z"/>
		<path d="M31.1,55.9c-0.3-0.2-0.7-0.1-0.9,0.1c-0.1,0.4,0.2,0.7,0.4,0.9c0.2,0.1,0.6,0.1,0.9-0.1 C31.5,56.4,31.4,56,31.1,55.9z M30.7,56.7c-0.2-0.1-0.3-0.3-0.3-0.5c0.2-0.1,0.4-0.1,0.6,0c0.2,0.1,0.2,0.3,0.2,0.5 C31.1,56.7,30.9,56.7,30.7,56.7z"/>
		<path d="M27.2,45.3c0.3,0.2,0.7,0.2,1,0c0.1-0.3-0.1-0.6-0.4-0.9c-0.2-0.2-0.6-0.2-0.9,0.1 C26.8,44.8,26.9,45.1,27.2,45.3z M27.6,44.6c0.2,0.1,0.3,0.3,0.3,0.5c-0.4,0.2-0.8,0-0.8-0.5C27.2,44.5,27.4,44.5,27.6,44.6z"/>
		<path d="M31,46.3c-0.4-0.2-0.7-0.1-0.9,0.1c-0.1,0.4,0.2,0.7,0.4,0.9c0.2,0.1,0.6,0.1,0.9-0.1 C31.5,46.8,31.4,46.4,31,46.3z M30.7,47c-0.2-0.1-0.3-0.3-0.3-0.5c0.2-0.1,0.4-0.1,0.6,0c0.2,0.1,0.2,0.3,0.2,0.4 C31.1,47.1,30.9,47.1,30.7,47z"/>
		<path d="M31.4,39.7c-0.3-0.3-0.6-0.3-0.9-0.1c-0.3,0.1-0.5,0.4-0.4,0.9c0.2,0.2,0.6,0.3,0.9,0.1 C31.3,40.4,31.5,40.1,31.4,39.7z M31,40.2c-0.2,0.1-0.4,0.2-0.6,0c0-0.1,0-0.1,0-0.2c0.1-0.3,0.4-0.5,0.8-0.3c0,0,0,0,0,0 C31.3,40,31.2,40.1,31,40.2z"/>
		<path d="M30.6,49.2c-0.3,0.2-0.5,0.5-0.5,0.9c0.3,0.3,0.6,0.3,0.9,0.1c0.3-0.2,0.4-0.5,0.4-0.8 C31.2,49,30.8,49,30.6,49.2z M31.1,49.8c-0.2,0.1-0.4,0.2-0.6,0.1c0-0.1,0-0.2,0.1-0.3c0.1-0.1,0.3-0.2,0.5-0.2 c0.1,0,0.2,0,0.3,0.1C31.3,49.6,31.2,49.7,31.1,49.8z"/>
		<path d="M27.2,16.5c0.3,0.2,0.7,0.2,1-0.1c0.1-0.3-0.1-0.6-0.4-0.8c-0.2-0.2-0.6-0.2-0.9,0.1 C26.8,16,26.9,16.3,27.2,16.5z M27.3,15.7c0.1,0,0.2,0,0.3,0.1c0.1,0.1,0.2,0.1,0.3,0.3c0,0.1,0.1,0.2,0,0.2 c-0.2,0.1-0.3,0.1-0.5,0c-0.2-0.1-0.3-0.3-0.3-0.5C27.1,15.7,27.2,15.7,27.3,15.7z"/>
		<path d="M26.9,23.1c0.3,0.3,0.7,0.3,1,0.1c0.1-0.1,0.3-0.2,0.3-0.4c0-0.1,0.1-0.3,0-0.4c-0.3-0.3-0.7-0.2-1,0 C26.9,22.5,26.8,22.8,26.9,23.1z M27.3,22.6c0.2-0.1,0.4-0.2,0.6,0c0,0.2-0.1,0.4-0.3,0.5c-0.2,0.1-0.4,0.1-0.5,0 C27.1,22.8,27.1,22.7,27.3,22.6z"/>
		<path d="M25.6,52.7c0.1,0,0.2,0,0.2,0c0.1,0,0.2-0.1,0.3-0.1c0.1-0.1,0.1-0.1,0.2-0.2c-0.2,0-0.3,0-0.5,0.1 C25.7,52.5,25.6,52.6,25.6,52.7z"/>
		<path d="M34.2,48.6c-0.1,0-0.2-0.1-0.3,0c0.1,0.2,0.2,0.3,0.4,0.4c0.1,0,0.2,0,0.3,0C34.5,48.8,34.4,48.7,34.2,48.6z" />
		<path d="M27.8,34.8c-0.2-0.2-0.7-0.2-0.9,0.1c-0.1,0.3,0,0.6,0.3,0.8c0.3,0.2,0.7,0.2,1-0.1c0.1-0.1,0-0.3,0-0.4 C28.1,35,28,34.9,27.8,34.8z M27.7,35.5c-0.3,0-0.6-0.2-0.6-0.6c0.2-0.1,0.3-0.1,0.5,0c0.2,0.1,0.3,0.3,0.3,0.5 C27.8,35.5,27.7,35.5,27.7,35.5z"/>
		<path d="M27.8,25.2c-0.2-0.2-0.6-0.2-0.9,0.1c-0.1,0.3,0,0.7,0.3,0.8c0.3,0.2,0.7,0.2,1-0.1 C28.3,25.7,28.1,25.4,27.8,25.2z M27.4,25.9c-0.2-0.1-0.3-0.3-0.4-0.5c0.2-0.1,0.4-0.1,0.6,0c0.2,0.1,0.3,0.2,0.3,0.5 C27.7,26,27.6,25.9,27.4,25.9z"/>
		<path d="M26.9,52c0.3,0.3,0.7,0.3,0.9,0.1c0.3-0.2,0.4-0.5,0.3-0.9c-0.3-0.3-0.7-0.2-1,0C26.9,51.3,26.8,51.6,26.9,52z  M27.3,51.4c0.2-0.1,0.4-0.2,0.6-0.1c0,0.2-0.1,0.4-0.2,0.5c-0.2,0.1-0.4,0.1-0.6,0C27.1,51.7,27.1,51.5,27.3,51.4z"/>
		<path d="M32.6,48.8c0-0.1,0.1-0.1,0.1-0.2c-0.1,0-0.2,0-0.3,0c-0.2,0.1-0.3,0.2-0.4,0.4c0.1,0,0.2,0,0.3,0 C32.4,48.9,32.5,48.9,32.6,48.8z"/>
		<path d="M33.3,36.4c0.3-0.1,0.5-0.3,0.5-0.6c0-0.1,0-0.2,0-0.3c-0.1-0.3-0.3-0.4-0.5-0.5c-0.3,0.1-0.6,0.4-0.5,0.8 C32.8,36.1,33,36.4,33.3,36.4z M33.3,35.3c0.2,0.1,0.3,0.3,0.3,0.5c0,0.2-0.1,0.4-0.3,0.5c-0.2-0.1-0.3-0.2-0.3-0.4 C33,35.6,33.1,35.4,33.3,35.3z"/>
		<path d="M32.5,18.7c-0.1-0.1-0.3-0.1-0.4-0.1c0,0.1,0.1,0.2,0.2,0.3c0.1,0.1,0.3,0.1,0.4,0.1 C32.7,18.9,32.6,18.8,32.5,18.7z"/>
		<path d="M32.4,57.1c-0.1-0.1-0.2-0.1-0.4,0c0.1,0.2,0.2,0.3,0.3,0.3c0.1,0,0.2,0.1,0.3,0 C32.6,57.3,32.5,57.2,32.4,57.1z"/>
		<path d="M26,53.5c-0.1-0.1-0.3-0.1-0.4-0.1c0,0.1,0.1,0.2,0.2,0.3c0.1,0.1,0.3,0.1,0.4,0.1 C26.2,53.6,26.2,53.6,26,53.5z"/>
		<path d="M33.2,56.7c0,0.1,0,0.3,0.1,0.4c0.1-0.1,0.1-0.2,0.1-0.4c0-0.1,0-0.3-0.1-0.4C33.2,56.5,33.2,56.6,33.2,56.7z" />
		<path d="M32,47.5c0.1,0.1,0.2,0.2,0.3,0.3c0.1,0.1,0.2,0.1,0.4,0.1C32.6,47.6,32.3,47.4,32,47.5z"/>
		<path d="M31.1,36.7c-0.3-0.2-0.7-0.2-1,0.1c-0.1,0.4,0.2,0.7,0.4,0.9c0.2,0.1,0.6,0.1,0.9-0.1 C31.5,37.2,31.4,36.9,31.1,36.7z M31.2,37.4c-0.2,0.1-0.4,0.1-0.5,0c-0.2-0.1-0.3-0.3-0.3-0.5c0.1-0.1,0.2-0.1,0.3-0.1 c0.1,0,0.2,0.1,0.3,0.1c0.1,0.1,0.1,0.1,0.2,0.2C31.3,37.3,31.3,37.4,31.2,37.4z"/>
		<path d="M33.3,54.2c-0.3,0.1-0.5,0.4-0.6,0.8c0,0.3,0.1,0.6,0.6,0.7c0.4-0.1,0.6-0.5,0.6-0.7 C33.9,54.5,33.7,54.3,33.3,54.2z M33.3,55.5c-0.2-0.1-0.3-0.3-0.3-0.5c0-0.2,0.1-0.4,0.3-0.5c0.2,0.1,0.3,0.3,0.3,0.5 C33.6,55.2,33.5,55.3,33.3,55.5z"/>
		<path d="M34,57.5c0.2,0,0.3,0,0.4-0.1c0.1-0.1,0.2-0.2,0.2-0.3c-0.2,0-0.3,0-0.4,0.1C34.1,57.2,34,57.3,34,57.5z"/>
		<path d="M32.4,29.4c-0.2,0.1-0.3,0.2-0.3,0.3c0.3,0,0.5-0.1,0.6-0.4C32.6,29.3,32.5,29.3,32.4,29.4z"/>
		<path d="M32,10.5c0.3,0,0.5-0.1,0.7-0.3c0,0,0,0,0,0c-0.1,0-0.3,0-0.4,0.1C32.2,10.3,32.1,10.4,32,10.5z"/>
		<path d="M32.6,9.4C32.7,9.4,32.7,9.4,32.6,9.4C32.6,9.1,32.3,9,32,9C32.2,9.3,32.4,9.4,32.6,9.4z"/>
		<path d="M32.5,39.2c0.1-0.1,0.2-0.1,0.2-0.3c-0.1,0-0.2,0-0.3,0c-0.1,0.1-0.3,0.2-0.3,0.3 C32.2,39.4,32.4,39.3,32.5,39.2z"/>
		<path d="M32.3,19.8c-0.1,0.1-0.2,0.2-0.3,0.3c0.2,0,0.3,0,0.5-0.1c0.1-0.1,0.2-0.1,0.2-0.3 C32.5,19.7,32.4,19.8,32.3,19.8z"/>
		<path d="M32,37.9c0,0.1,0.1,0.2,0.2,0.3c0.1,0.1,0.3,0.1,0.4,0.1c0-0.2-0.1-0.2-0.2-0.3C32.3,37.9,32.2,37.8,32,37.9z" />
		<path d="M32.4,28.3c-0.1-0.1-0.2-0.1-0.4-0.1c0.1,0.3,0.3,0.4,0.6,0.4c0,0,0,0,0,0C32.6,28.5,32.5,28.4,32.4,28.3z"/>
		<path d="M26.9,32.7c0.3,0.3,0.7,0.3,1,0.1c0.2-0.1,0.3-0.2,0.3-0.4c0-0.1,0.1-0.3,0-0.4c-0.3-0.3-0.7-0.2-1-0.1 C26.9,32.1,26.8,32.4,26.9,32.7z M27.3,32.2c0.2-0.1,0.4-0.2,0.6-0.1c0,0.2-0.1,0.4-0.2,0.5c-0.2,0.1-0.4,0.1-0.6,0 C27,32.5,27.1,32.3,27.3,32.2z"/>
		<path d="M24,52.3c-0.1,0-0.2-0.1-0.3,0c0,0,0,0,0,0c0.1,0.2,0.3,0.4,0.6,0.4c0,0,0.1,0,0.1-0.1 C24.3,52.5,24.2,52.4,24,52.3z"/>
		<path d="M24.4,43.8c-0.2,0-0.3,0-0.4,0.1c-0.1,0.1-0.2,0.2-0.3,0.3c0.2,0,0.3,0,0.4-0.1C24.2,44,24.3,43.9,24.4,43.8z" />
		<path d="M24,43c0.1,0,0.2,0.1,0.3,0c-0.1-0.2-0.2-0.2-0.3-0.3c-0.1-0.1-0.2-0.1-0.4-0.1C23.8,42.9,23.9,43,24,43z"/>
		<path d="M24.1,34.5c0.1-0.1,0.2-0.1,0.3-0.3c0,0,0,0,0-0.1c-0.1,0-0.3,0-0.4,0.1c-0.1,0.1-0.2,0.2-0.3,0.3 C23.8,34.6,23.9,34.5,24.1,34.5z"/>
		<path d="M25,54.5c0.1-0.2,0.1-0.2,0.1-0.4c0-0.1,0-0.2-0.1-0.3c-0.1,0.1-0.1,0.2-0.1,0.3C24.9,54.2,24.9,54.4,25,54.5z "/>
		<path d="M24,23.8c0.1,0.1,0.2,0.1,0.4,0.1c-0.1-0.2-0.2-0.2-0.3-0.3c-0.1-0.1-0.2-0.1-0.4-0.1 C23.8,23.6,23.9,23.7,24,23.8z"/>
		<path d="M25.1,51.9c0-0.1,0-0.3-0.1-0.4c-0.1,0.2-0.1,0.3-0.1,0.5c0,0.1,0,0.2,0.1,0.3C25.1,52.2,25.1,52.1,25.1,51.9z "/>
		<path d="M25,55.2c-0.4,0.1-0.5,0.4-0.5,0.7c0,0.3,0.2,0.7,0.6,0.8c0.4-0.1,0.6-0.5,0.5-0.8 C25.5,55.6,25.3,55.3,25,55.2z M25,56.4c-0.2-0.1-0.3-0.3-0.3-0.5c0-0.2,0.1-0.4,0.3-0.5c0.2,0.1,0.3,0.3,0.3,0.4 C25.2,56.1,25.2,56.2,25,56.4z"/>
		<path d="M23.7,53.8c0.2,0,0.3,0,0.4-0.1c0.1-0.1,0.2-0.2,0.3-0.3c-0.2,0-0.3,0-0.5,0.1C23.8,53.6,23.7,53.6,23.7,53.8z "/>
		<path d="M22.8,35.7c0.3-0.2,0.4-0.5,0.3-0.8c-0.3-0.3-0.7-0.2-1-0.1c-0.1,0.1-0.3,0.2-0.3,0.4c0,0.1-0.1,0.3,0,0.4 C22.1,35.9,22.5,35.9,22.8,35.7z M22.4,35c0.2-0.1,0.4-0.1,0.6,0c0,0.4-0.4,0.7-0.8,0.5C22.1,35.3,22.2,35.1,22.4,35z"/>
		<path d="M22.8,41.5c-0.3-0.2-0.7-0.2-1,0.1c-0.1,0.1,0,0.3,0,0.4c0.1,0.2,0.2,0.3,0.3,0.4c0.3,0.2,0.7,0.2,0.9-0.1 C23.2,42,23.1,41.7,22.8,41.5z M22.4,42.2c-0.2-0.1-0.3-0.3-0.3-0.5c0.4-0.2,0.8,0.1,0.8,0.5C22.7,42.3,22.5,42.3,22.4,42.2z"/>
		<path d="M22.8,26.1c0.3-0.2,0.4-0.5,0.3-0.8c-0.3-0.3-0.7-0.2-1-0.1c-0.1,0.1-0.3,0.2-0.3,0.4c0,0.1-0.1,0.3,0,0.4 C22.1,26.3,22.5,26.3,22.8,26.1z M22.1,25.7c0-0.1,0.1-0.2,0.2-0.3c0.2-0.1,0.4-0.1,0.6,0c0,0.4-0.2,0.5-0.6,0.6 c-0.1,0-0.2,0-0.2-0.1C22.1,25.8,22.1,25.7,22.1,25.7z"/>
		<path d="M22.8,31.9c-0.3-0.2-0.7-0.2-1,0.1c-0.1,0.1,0,0.3,0,0.4c0.1,0.2,0.2,0.3,0.3,0.4c0.3,0.2,0.7,0.2,0.9-0.1 C23.2,32.4,23.1,32.1,22.8,31.9z M22.4,32.7c-0.2-0.1-0.3-0.3-0.3-0.5c0.4-0.2,0.8,0,0.8,0.5C22.8,32.7,22.6,32.7,22.4,32.7z"/>
		<path d="M22.2,54c-0.3,0.2-0.5,0.5-0.4,0.9c0.3,0.3,0.7,0.2,1,0c0.3-0.2,0.4-0.5,0.3-0.8C22.8,53.8,22.4,53.9,22.2,54z  M22.1,54.7c0-0.2,0.1-0.4,0.3-0.5c0.2-0.1,0.4-0.1,0.5,0C22.9,54.6,22.5,54.9,22.1,54.7z"/>
		<path d="M22.2,44.4c-0.3,0.2-0.5,0.5-0.4,0.9c0.3,0.3,0.7,0.2,1,0c0.3-0.2,0.4-0.5,0.3-0.8 C22.8,44.2,22.4,44.2,22.2,44.4z M22.3,45.2c-0.1,0-0.2,0-0.2-0.1c0-0.2,0.1-0.3,0.3-0.5c0.2-0.1,0.4-0.1,0.6,0 C22.9,44.9,22.8,45.1,22.3,45.2z"/>
		<path d="M22.1,52c0.3,0.2,0.7,0.2,1-0.1c0.1-0.3,0-0.7-0.3-0.8c-0.3-0.2-0.7-0.2-1,0.1c-0.1,0.1,0,0.3,0,0.4 C21.9,51.8,22,51.9,22.1,52z M22.9,51.8c-0.2,0.1-0.3,0.1-0.5,0c-0.2-0.1-0.3-0.3-0.3-0.5C22.5,51.2,22.9,51.4,22.9,51.8z"/>
		<path d="M24.9,44.4c0,0.1,0,0.2,0,0.3c0,0.1,0,0.1,0.1,0.2c0.1-0.2,0.1-0.3,0.1-0.5c0-0.1,0-0.2-0.1-0.3 C24.9,44.2,24.9,44.3,24.9,44.4z"/>
		<path d="M25,45.6c-0.1,0-0.2,0.1-0.2,0.1c-0.1,0.1-0.2,0.2-0.3,0.4c0,0.2,0,0.4,0.1,0.6c0.1,0.2,0.2,0.3,0.4,0.4 c0.4-0.1,0.6-0.5,0.6-0.8C25.5,46,25.3,45.7,25,45.6z M25,46.8c-0.2-0.1-0.3-0.3-0.3-0.5c0-0.2,0.1-0.4,0.3-0.5 c0.2,0.1,0.3,0.3,0.3,0.4C25.2,46.4,25.2,46.6,25,46.8z"/>
		<path d="M25.4,41c0.2-0.3,0.1-0.7,0-0.9c-0.1-0.1-0.2-0.3-0.4-0.3c-0.4,0.1-0.5,0.5-0.5,0.8c0,0.3,0.2,0.6,0.5,0.7 C25.2,41.2,25.3,41.1,25.4,41z M25,41c-0.2-0.1-0.2-0.2-0.3-0.4c0-0.2,0.1-0.4,0.3-0.5c0.2,0.1,0.3,0.3,0.3,0.5 C25.2,40.8,25.2,40.9,25,41z"/>
		<path d="M25,36c-0.3,0.1-0.5,0.4-0.5,0.7c0,0.3,0.2,0.7,0.6,0.8c0.4-0.1,0.6-0.5,0.5-0.8C25.5,36.3,25.3,36,25,36z  M25,37.1c-0.2-0.1-0.3-0.3-0.3-0.5c0-0.2,0.1-0.3,0.3-0.4c0.2,0.1,0.3,0.2,0.3,0.4C25.2,36.8,25.2,37,25,37.1z"/>
		<path d="M25,7.1c-0.3,0.1-0.5,0.4-0.5,0.7c0,0.4,0.2,0.7,0.6,0.8c0.4-0.1,0.6-0.5,0.5-0.8C25.5,7.5,25.3,7.2,25,7.1z  M25,8.3c-0.2-0.1-0.2-0.3-0.3-0.5c0-0.3,0.1-0.3,0.3-0.5c0.2,0.1,0.2,0.2,0.3,0.4C25.2,8.1,25.2,8.2,25,8.3z"/>
		<path d="M25,20.5c-0.4,0.1-0.6,0.5-0.5,0.8c0,0.3,0.2,0.6,0.6,0.7c0.4-0.1,0.6-0.4,0.5-0.7C25.5,21,25.4,20.6,25,20.5z  M25,21.8c-0.2-0.1-0.3-0.2-0.3-0.4c0-0.2,0.1-0.4,0.3-0.5c0.1,0,0.2,0.1,0.2,0.2c0,0.1,0.1,0.2,0.1,0.3 C25.2,21.6,25.2,21.7,25,21.8z"/>
		<path d="M26.2,23.5C26.3,23.5,26.3,23.5,26.2,23.5c-0.1-0.1-0.3-0.1-0.4,0c-0.1,0.1-0.2,0.2-0.3,0.3c0.1,0,0.1,0,0.1,0 C25.9,23.8,26.1,23.7,26.2,23.5z"/>
		<path d="M26.3,42.7c-0.1,0-0.3,0-0.4,0.1c-0.1,0.1-0.2,0.2-0.3,0.3c0.2,0,0.3,0,0.5-0.1C26.2,42.9,26.2,42.8,26.3,42.7 z"/>
		<path d="M24.9,25.3c0,0.1,0,0.3,0.1,0.4c0.1-0.2,0.1-0.3,0.1-0.5c0-0.1,0-0.2-0.1-0.3C24.9,25,24.9,25.1,24.9,25.3z"/>
		<path d="M25,49.4c-0.4,0.2-0.6,0.4-0.5,0.8c0,0.3,0.3,0.6,0.6,0.7c0.3-0.1,0.5-0.4,0.5-0.7 C25.5,49.9,25.4,49.5,25,49.4z M25,50.7c-0.2-0.1-0.3-0.2-0.3-0.4c0-0.2,0.1-0.4,0.3-0.5c0.1,0,0.2,0.1,0.2,0.2 c0,0.1,0,0.2,0.1,0.3C25.3,50.4,25.2,50.5,25,50.7z"/>
		<path d="M24.5,26.9c-0.1,0.3,0,0.9,0.5,1c0.4-0.1,0.6-0.5,0.5-0.8c0-0.3-0.2-0.6-0.6-0.7 C24.7,26.5,24.5,26.6,24.5,26.9z M25,26.6c0.2,0.1,0.3,0.3,0.3,0.5c0,0.2-0.1,0.4-0.3,0.5c-0.2-0.1-0.3-0.3-0.3-0.5 C24.7,26.8,24.8,26.7,25,26.6z"/>
		<path d="M25,42C25,42,25,42,25,42c-0.2,0.1-0.2,0.2-0.2,0.4c0,0.2,0,0.2,0.1,0.3c0,0,0,0,0,0c0,0,0,0,0,0 C25.2,42.4,25.2,42.2,25,42z"/>
		<path d="M25,22.7C25,22.7,24.9,22.8,25,22.7c-0.2,0.3-0.2,0.5,0,0.7c0,0,0,0,0.1,0C25.2,23.2,25.2,23,25,22.7z"/>
		<path d="M25,35.3C25,35.3,25,35.2,25,35.3c0.2-0.3,0.2-0.5,0.1-0.7c0,0,0,0-0.1,0C24.8,34.8,24.8,35,25,35.3z"/>
		<path d="M25,32.4C25,32.4,25,32.4,25,32.4c-0.2,0.1-0.2,0.2-0.2,0.4c0,0.2,0,0.2,0.1,0.3c0,0,0,0,0,0 C25.2,32.8,25.2,32.6,25,32.4z"/>
		<path d="M25,31.6c0.4-0.1,0.6-0.4,0.6-0.7c0-0.3-0.2-0.7-0.6-0.8c-0.4,0.1-0.5,0.5-0.5,0.8 C24.4,31.3,24.6,31.5,25,31.6z M25,30.5c0.2,0.1,0.3,0.3,0.3,0.5c0,0.2-0.1,0.3-0.3,0.4c-0.2-0.1-0.3-0.3-0.3-0.4 C24.7,30.8,24.8,30.6,25,30.5z"/>
		<path d="M48.7,47.5c0.1,0.1,0.2,0.2,0.3,0.3c0.1,0.1,0.2,0.1,0.4,0.1C49.2,47.6,49,47.4,48.7,47.5z"/>
		<path d="M6.1,12.7c-0.3-0.2-0.7-0.2-1,0.1c-0.1,0.1,0,0.3,0,0.4c0.1,0.2,0.2,0.3,0.3,0.4c0.3,0.2,0.7,0.2,1-0.1 C6.5,13.2,6.4,12.9,6.1,12.7z M5.7,13.4c-0.1-0.1-0.2-0.1-0.3-0.3c0-0.1-0.1-0.2,0-0.2c0.2-0.1,0.4-0.1,0.6,0 c0.2,0.1,0.2,0.3,0.3,0.5C6.1,13.5,5.9,13.5,5.7,13.4z"/>
		<path d="M47.3,28.1c0.3,0.1,0.6,0.1,0.9-0.2c0.1-0.4-0.1-0.7-0.4-0.8c-0.3-0.2-0.7-0.1-0.9,0.1 C46.7,27.6,47,27.9,47.3,28.1z M47.1,27.3c0.2-0.1,0.4-0.1,0.6,0c0.2,0.1,0.3,0.3,0.2,0.4c-0.1,0.1-0.2,0.1-0.3,0.1 c-0.1,0-0.2,0-0.3-0.1c-0.1-0.1-0.2-0.1-0.2-0.3C47.1,27.5,47.1,27.4,47.1,27.3z"/>
		<path d="M48.1,20.5c-0.3-0.3-0.6-0.3-0.9-0.1c-0.3,0.2-0.5,0.4-0.4,0.9c0.2,0.3,0.6,0.3,1,0.1 C48,21.2,48.2,20.8,48.1,20.5z M47.7,21c-0.2,0.1-0.4,0.2-0.6,0.1c0-0.1,0-0.2,0.1-0.3c0.1-0.1,0.3-0.2,0.5-0.2 c0.1,0,0.2,0,0.3,0.1C48,20.8,47.9,20.9,47.7,21z"/>
		<path d="M43.9,12.7c-0.3,0.1-0.4,0.5-0.3,0.8c0.3,0.3,0.7,0.3,1,0.1c0.1-0.1,0.3-0.2,0.3-0.4c0-0.1,0.1-0.3,0-0.4 C44.5,12.5,44.2,12.5,43.9,12.7z M44.3,13.4c-0.2,0.1-0.4,0.1-0.6,0c0-0.2,0.1-0.3,0.2-0.4c0.2-0.1,0.4-0.2,0.6,0 C44.6,13.1,44.4,13.3,44.3,13.4z"/>
		<path d="M46.8,30.8c0.2,0.3,0.6,0.3,0.9,0.1c0.3-0.2,0.4-0.5,0.4-0.8c-0.3-0.3-0.7-0.3-0.9-0.1 C46.9,30.2,46.7,30.5,46.8,30.8z M47.1,30.6c0.1-0.3,0.3-0.4,0.5-0.5c0.1,0,0.2,0,0.3,0.1c0,0.2-0.1,0.3-0.2,0.4 c-0.2,0.1-0.4,0.2-0.6,0C47.1,30.6,47.1,30.6,47.1,30.6z"/>
		<path d="M47.2,49.2c-0.3,0.2-0.5,0.5-0.4,0.9c0.2,0.3,0.6,0.3,1,0.1c0.3-0.1,0.4-0.5,0.3-0.8 C47.8,49,47.5,49,47.2,49.2z M47.7,49.8c-0.2,0.1-0.4,0.2-0.6,0.1c0-0.1,0-0.2,0.1-0.3c0.1-0.1,0.3-0.2,0.5-0.2 c0.1,0,0.2,0,0.3,0.1C47.9,49.6,47.9,49.7,47.7,49.8z"/>
		<path d="M41.7,41.3c0.4-0.1,0.6-0.4,0.6-0.8c0-0.4-0.3-0.7-0.6-0.8c-0.4,0.1-0.5,0.4-0.5,0.8 C41.1,40.9,41.3,41.1,41.7,41.3z M41.7,40.1c0.4,0.3,0.4,0.7,0,0.9c-0.2-0.1-0.2-0.2-0.3-0.4C41.4,40.3,41.5,40.2,41.7,40.1z"/>
		<path d="M47.7,55.9c-0.4-0.2-0.7-0.1-0.9,0.1c-0.1,0.4,0.2,0.7,0.4,0.9c0.2,0.1,0.6,0.1,0.9-0.1 C48.2,56.4,48,56,47.7,55.9z M47.4,56.7c-0.2-0.1-0.3-0.3-0.3-0.5c0.2-0.1,0.4-0.1,0.6,0c0.2,0.1,0.2,0.3,0.2,0.4 C47.8,56.7,47.6,56.7,47.4,56.7z"/>
		<path d="M42.9,52.3c-0.1,0-0.3,0-0.4,0.1c-0.1,0.1-0.2,0.2-0.3,0.3c0.2,0,0.3,0,0.5-0.1C42.9,52.5,42.9,52.4,42.9,52.3 z"/>
		<path d="M41.8,42.3c0-0.1,0-0.3-0.1-0.4c0,0,0,0-0.1,0c-0.2,0.3-0.2,0.5,0,0.8C41.8,42.6,41.8,42.5,41.8,42.3z"/>
		<path d="M41.7,44.9c0.1-0.1,0.1-0.2,0.1-0.2c0-0.1,0-0.3,0-0.4c0,0,0-0.1-0.1-0.1C41.5,44.4,41.5,44.6,41.7,44.9z"/>
		<path d="M34.6,29.7c-0.1-0.2-0.3-0.3-0.6-0.4c0,0-0.1,0-0.1,0C34.1,29.6,34.3,29.8,34.6,29.7 C34.6,29.7,34.6,29.7,34.6,29.7z"/>
		<path d="M47.8,46.3c-0.3-0.2-0.7-0.2-0.9,0.1c-0.1,0.4,0.2,0.7,0.5,0.9c0.2,0.1,0.6,0.1,0.9-0.2 C48.2,46.8,48.1,46.5,47.8,46.3z M47.4,47c-0.1-0.1-0.2-0.1-0.2-0.2c0-0.1-0.1-0.1,0-0.2c0.2-0.1,0.4-0.1,0.6,0 c0.2,0.1,0.3,0.3,0.2,0.5C47.7,47.1,47.5,47.1,47.4,47z"/>
		<path d="M44,42.5c0.4,0.1,0.9-0.3,0.9-0.8c0-0.1,0-0.2-0.1-0.2c-0.3-0.3-0.7-0.2-1,0c-0.3,0.2-0.4,0.5-0.3,0.8 C43.7,42.5,43.8,42.5,44,42.5z M44,41.8c0.2-0.1,0.4-0.2,0.6,0c0.1,0.2-0.1,0.3-0.2,0.4c-0.2,0.2-0.4,0.2-0.6,0.1 C43.7,42,43.8,41.9,44,41.8z"/>
		<path d="M42.7,53.4c-0.1-0.1-0.2-0.1-0.4-0.1c0,0.1,0.1,0.2,0.2,0.3c0.1,0.1,0.3,0.2,0.5,0.1 C42.9,53.6,42.8,53.5,42.7,53.4z"/>
		<path d="M44.5,54c-0.2-0.2-0.6-0.2-0.9,0.1c-0.1,0.3,0,0.7,0.3,0.8c0.3,0.2,0.7,0.2,1-0.1C44.9,54.5,44.8,54.2,44.5,54 z M44,54.7c-0.2-0.1-0.3-0.3-0.3-0.5c0.2-0.1,0.4-0.1,0.6,0c0.2,0.1,0.3,0.2,0.3,0.5C44.4,54.8,44.2,54.8,44,54.7z"/>
		<path d="M47.3,37.7c0.3,0.1,0.6,0.1,0.9-0.2c0.1-0.4-0.1-0.7-0.4-0.8c-0.3-0.2-0.7-0.1-0.9,0.1 C46.7,37.2,47,37.5,47.3,37.7z M47.7,37c0.2,0.1,0.2,0.2,0.2,0.5c-0.2,0.1-0.3,0.1-0.5,0c-0.2-0.1-0.3-0.3-0.3-0.5 C47.3,36.8,47.5,36.9,47.7,37z"/>
		<path d="M49.4,48.6c-0.1-0.1-0.2,0-0.3,0c-0.2,0.1-0.3,0.2-0.3,0.3c0.2,0,0.3,0,0.5-0.1C49.3,48.8,49.3,48.7,49.4,48.6 z"/>
		<path d="M48.7,18.6c0.1,0.3,0.3,0.4,0.6,0.4c0,0,0,0,0.1,0c-0.1-0.1-0.2-0.2-0.3-0.3C49,18.6,48.8,18.6,48.7,18.6z"/>
		<path d="M49.1,9.1C49,9,48.8,9,48.7,9c0.1,0.2,0.2,0.3,0.3,0.3c0.1,0,0.2,0.1,0.3,0C49.3,9.2,49.2,9.2,49.1,9.1z"/>
		<path d="M49.1,57.2c-0.1-0.1-0.2-0.1-0.4-0.1c0.1,0.3,0.3,0.4,0.6,0.4c0,0,0,0,0,0C49.3,57.3,49.2,57.2,49.1,57.2z"/>
		<path d="M48.7,29.7c0.1,0,0.2,0,0.3,0c0.1,0,0.2-0.1,0.3-0.2c0.1-0.1,0.1-0.1,0.1-0.2c-0.2,0-0.3,0-0.4,0.1 C48.8,29.5,48.7,29.6,48.7,29.7z"/>
		<path d="M50,56.4C50,56.3,50,56.3,50,56.4c-0.1,0.1-0.2,0.3-0.1,0.5c0,0.1,0.1,0.2,0.1,0.3V56.4z"/>
		<path d="M50,55.7v-0.2c0,0,0,0,0,0c-0.2-0.1-0.3-0.3-0.3-0.5c0-0.2,0.1-0.4,0.3-0.5c0,0,0,0,0,0v-0.3 c-0.4,0.1-0.6,0.4-0.6,0.8C49.5,55.3,49.6,55.5,50,55.7C50,55.7,50,55.7,50,55.7z"/>
		<path d="M50,46v-0.2c0,0,0,0,0,0c-0.1-0.1-0.2-0.2-0.2-0.3c0-0.1,0-0.3,0-0.4c0-0.1,0.1-0.2,0.2-0.3v-0.3 c-0.4,0.1-0.6,0.4-0.6,0.8C49.5,45.7,49.7,46,50,46z"/>
		<path d="M47.8,17.5c-0.3-0.2-0.7-0.2-1,0.1c-0.1,0.4,0.2,0.7,0.5,0.9c0.2,0.1,0.6,0.1,0.9-0.1 C48.2,18,48.1,17.6,47.8,17.5z M47.9,18.2c-0.2,0.1-0.4,0.1-0.5,0c-0.2-0.1-0.3-0.3-0.3-0.5c0.1-0.1,0.2-0.1,0.3-0.1 c0.1,0,0.2,0.1,0.3,0.1c0.1,0.1,0.1,0.1,0.2,0.2C47.9,18.1,48,18.1,47.9,18.2z"/>
		<path d="M47.8,7.9c-0.3-0.2-0.7-0.2-0.9,0.1c-0.1,0.4,0.2,0.7,0.5,0.9C47.5,9,47.9,9,48.1,8.7 C48.2,8.4,48.1,8,47.8,7.9z M47.4,8.6c-0.1-0.1-0.2-0.2-0.3-0.3c0-0.1,0-0.1,0-0.2c0.2-0.1,0.4-0.1,0.6,0c0.2,0.1,0.2,0.3,0.2,0.4 C47.8,8.7,47.6,8.7,47.4,8.6z"/>
		<path d="M47.7,11.7c0.3-0.2,0.5-0.5,0.4-0.8c-0.3-0.3-0.7-0.3-0.9-0.1c-0.3,0.2-0.5,0.5-0.4,0.9 C47,11.8,47.4,11.9,47.7,11.7z M47.7,10.9c0.1,0,0.2,0,0.3,0.1c0,0.2,0,0.3-0.2,0.4c-0.2,0.1-0.4,0.2-0.6,0.1 C47.1,11.2,47.3,11,47.7,10.9z"/>
		<path d="M47.3,39.6c-0.3,0.1-0.5,0.4-0.5,0.9c0.2,0.3,0.6,0.3,0.9,0.1c0.3-0.2,0.4-0.5,0.4-0.8 C47.9,39.4,47.5,39.4,47.3,39.6z M47.7,40.2c-0.2,0.1-0.4,0.2-0.6,0.1c0-0.1,0-0.2,0.1-0.3c0.1-0.1,0.2-0.2,0.5-0.2 c0.1,0,0.1,0,0.2,0c0,0,0,0,0.1,0C48,40,47.9,40.1,47.7,40.2z"/>
		<path d="M49.3,38.3C49.3,38.3,49.3,38.2,49.3,38.3c0-0.2-0.1-0.3-0.2-0.3c-0.1-0.1-0.2-0.1-0.4-0.1 C48.8,38.1,49.1,38.3,49.3,38.3z"/>
		<path d="M47.2,1.1c-0.3,0.2-0.5,0.5-0.4,0.9c0.3,0.3,0.6,0.3,0.9,0.1c0.3-0.2,0.4-0.5,0.4-0.8C47.9,1,47.5,1,47.2,1.1z  M47.7,1.8c-0.2,0.1-0.4,0.2-0.6,0.1c0-0.1,0-0.2,0.1-0.3c0.1-0.1,0.3-0.2,0.5-0.2c0.1,0,0.2,0,0.3,0.1C48,1.5,47.9,1.7,47.7,1.8z" />
		<path d="M22.8,22.3c-0.3-0.2-0.7-0.2-1,0c-0.1,0.3,0.1,0.7,0.4,0.9c0.3,0.2,0.7,0.2,0.9-0.1 C23.2,22.8,23.1,22.5,22.8,22.3z M22.4,23c-0.1-0.1-0.2-0.1-0.3-0.3c0-0.1-0.1-0.2,0-0.2c0.2-0.1,0.4-0.1,0.6,0 c0.2,0.1,0.2,0.2,0.3,0.5C22.8,23.1,22.6,23.1,22.4,23z"/>
		<path d="M49.4,39c-0.1,0-0.2,0-0.3,0c-0.2,0.1-0.3,0.2-0.4,0.4c0.2,0,0.3,0,0.4-0.1C49.3,39.2,49.3,39.1,49.4,39z"/>
		<path d="M41.6,30.1c-0.4,0.1-0.5,0.5-0.5,0.8c0,0.3,0.2,0.6,0.5,0.7c0.4-0.1,0.6-0.4,0.6-0.7 C42.2,30.6,42,30.2,41.6,30.1z M41.7,31.4c-0.2-0.1-0.3-0.2-0.3-0.4c0-0.2,0.1-0.4,0.3-0.5c0.2,0.1,0.3,0.3,0.3,0.5 C41.9,31.2,41.9,31.3,41.7,31.4z"/>
		<path d="M38.8,54c-0.3,0.2-0.5,0.5-0.4,0.9c0.3,0.3,0.7,0.2,1,0c0.3-0.2,0.4-0.5,0.3-0.8C39.5,53.8,39.1,53.9,38.8,54z  M39.4,54.6c-0.2,0.1-0.4,0.2-0.6,0c0-0.2,0.1-0.4,0.3-0.5c0.2-0.1,0.4-0.1,0.6,0C39.6,54.4,39.5,54.5,39.4,54.6z"/>
		<path d="M35.6,55.9c-0.3,0.2-0.4,0.5-0.4,0.8c0.3,0.3,0.6,0.3,0.9,0.1c0.3-0.1,0.5-0.4,0.5-0.9 C36.3,55.7,35.9,55.7,35.6,55.9z M35.9,56.6c-0.2,0.1-0.4,0.1-0.5,0c0-0.2,0.1-0.4,0.2-0.5c0.1-0.1,0.2-0.1,0.3-0.1 c0.1,0,0.2,0,0.3,0.1C36.2,56.4,36.1,56.5,35.9,56.6z"/>
		<path d="M35.6,50.1c0.3,0.2,0.7,0.2,1-0.1c0.1-0.4-0.1-0.7-0.5-0.9c-0.2-0.1-0.6-0.1-0.9,0.1 C35.1,49.6,35.3,50,35.6,50.1z M35.9,49.4c0.2,0.1,0.3,0.3,0.3,0.5c-0.2,0.1-0.4,0.1-0.6,0c-0.2-0.1-0.2-0.3-0.2-0.4 C35.5,49.3,35.7,49.3,35.9,49.4z"/>
		<path d="M35.6,30.9c0.4,0.2,0.7,0.1,0.9-0.1c0.1-0.5-0.2-0.7-0.5-0.9c-0.2-0.1-0.6-0.1-0.9,0.2 C35.1,30.5,35.3,30.8,35.6,30.9z M35.9,30.2c0.2,0.1,0.3,0.3,0.3,0.5c-0.2,0.1-0.4,0.1-0.6,0c-0.2-0.1-0.2-0.3-0.2-0.5 C35.6,30.1,35.7,30.1,35.9,30.2z"/>
		<path d="M35.2,37.5c0.3,0.3,0.6,0.3,0.9,0.1c0.3-0.2,0.5-0.4,0.4-0.9c-0.3-0.3-0.7-0.3-1-0.1 C35.3,36.9,35.1,37.2,35.2,37.5z M35.6,37c0.2-0.1,0.4-0.1,0.6,0c0,0.1,0,0.1,0,0.2c0,0.1-0.1,0.2-0.2,0.3c-0.2,0.1-0.4,0.1-0.6,0 C35.4,37.2,35.5,37.1,35.6,37z"/>
		<path d="M35.6,46.3c-0.3,0.1-0.5,0.5-0.4,0.8c0.3,0.3,0.6,0.3,0.9,0.1c0.3-0.2,0.5-0.4,0.4-0.9 C36.3,46.1,35.9,46.1,35.6,46.3z M35.9,47c-0.2,0.1-0.4,0.1-0.5,0c0-0.2,0.1-0.4,0.3-0.5c0.2-0.1,0.4-0.1,0.6,0 C36.2,46.8,36.1,46.9,35.9,47z"/>
		<path d="M39.5,45.3c0.3-0.2,0.4-0.5,0.3-0.8c-0.3-0.3-0.7-0.2-1-0.1c-0.1,0.1-0.3,0.2-0.3,0.4c0,0.1-0.1,0.3,0,0.4 C38.8,45.5,39.2,45.5,39.5,45.3z M39,44.6c0.2-0.1,0.4-0.1,0.6,0c0,0.4-0.5,0.7-0.8,0.5C38.8,44.9,38.9,44.7,39,44.6z"/>
		<path d="M35.6,27.1c-0.3,0.1-0.4,0.5-0.3,0.8c0.3,0.3,0.6,0.3,0.9,0.1c0.3-0.2,0.5-0.4,0.4-0.9 C36.3,26.9,35.9,26.9,35.6,27.1z M36.2,27.5c0,0.1-0.1,0.2-0.2,0.3c-0.2,0.1-0.4,0.1-0.6,0c0-0.2,0.1-0.4,0.2-0.5 c0.2-0.1,0.4-0.1,0.6,0C36.2,27.4,36.2,27.5,36.2,27.5z"/>
		<path d="M36.1,39.6c-0.2-0.1-0.6-0.1-0.9,0.1c-0.1,0.3,0.1,0.7,0.4,0.9c0.4,0.2,0.7,0.1,0.9-0.1 C36.6,40,36.3,39.7,36.1,39.6z M36.2,40.3c-0.2,0.1-0.4,0.1-0.6,0c-0.2-0.1-0.2-0.2-0.2-0.4c0.1-0.1,0.2-0.1,0.3-0.1 c0.1,0,0.2,0,0.3,0.1c0.1,0.1,0.2,0.1,0.2,0.2C36.2,40.1,36.2,40.2,36.2,40.3z"/>
		<path d="M34.1,28.4c-0.1,0.1-0.2,0.1-0.2,0.3c0.1,0.1,0.1,0,0.2,0c0.1,0,0.2-0.1,0.3-0.2c0.1-0.1,0.1-0.1,0.2-0.2 C34.4,28.2,34.3,28.3,34.1,28.4z"/>
		<path d="M41.3,37.3c0.1,0.1,0.2,0.2,0.4,0.2c0.4-0.1,0.6-0.5,0.5-0.8c0-0.3-0.2-0.6-0.5-0.7C41,36.2,41,36.9,41.3,37.3 z M41.7,36.2c0.2,0.1,0.3,0.2,0.3,0.4c0,0.2-0.1,0.4-0.3,0.5c-0.2-0.1-0.3-0.3-0.3-0.5C41.4,36.4,41.5,36.3,41.7,36.2z"/>
		<path d="M34.4,19.9c-0.1-0.1-0.3-0.1-0.4-0.1c0,0.2,0.1,0.2,0.2,0.3c0.1,0.1,0.3,0.1,0.4,0.1 C34.6,20,34.5,19.9,34.4,19.9z"/>
		<path d="M34.3,39.3c0.1,0,0.2,0,0.3,0c-0.1-0.2-0.2-0.3-0.4-0.3c-0.1,0-0.2-0.1-0.3,0C34,39.2,34.2,39.3,34.3,39.3z"/>
		<path d="M34,19c0.2,0,0.3,0,0.4-0.1c0.1-0.1,0.2-0.2,0.2-0.3c-0.2,0-0.3,0-0.4,0.1C34.1,18.8,34,18.9,34,19z"/>
		<path d="M35.6,11.7c0.3,0.2,0.7,0.2,1-0.1c0.1-0.5-0.2-0.7-0.4-0.9c-0.2-0.1-0.6-0.1-0.9,0.1 C35.1,11.2,35.3,11.5,35.6,11.7z M35.7,10.9c0.2,0,0.3,0.1,0.5,0.2c0.1,0.1,0.1,0.2,0.1,0.3c-0.2,0.1-0.4,0.1-0.6,0 c-0.2-0.1-0.2-0.2-0.2-0.4C35.5,10.9,35.6,10.9,35.7,10.9z"/>
		<path d="M34.3,47.5c-0.1,0.1-0.2,0.2-0.3,0.3c0.1,0,0.2,0,0.4,0c0.1-0.1,0.3-0.2,0.3-0.3 C34.5,47.4,34.4,47.5,34.3,47.5z"/>
		<path d="M34,38.2C34,38.2,34,38.2,34,38.2c0.2,0.1,0.3,0,0.4-0.1c0.1-0.1,0.2-0.2,0.2-0.3C34.3,37.8,34.1,38,34,38.2z" />
		<path d="M41.7,49.4c-0.4,0.2-0.6,0.4-0.5,0.8c0,0.3,0.3,0.6,0.6,0.7c0.3-0.1,0.5-0.4,0.5-0.7 C42.2,49.9,42.1,49.5,41.7,49.4z M41.7,50.6c-0.2-0.1-0.3-0.2-0.3-0.4c0-0.2,0.1-0.4,0.3-0.5c0.2,0.1,0.3,0.3,0.3,0.5 C41.9,50.4,41.8,50.5,41.7,50.6z"/>
		<path d="M41.7,55.2c-0.7,0.2-0.7,0.9-0.4,1.3c0.1,0.1,0.2,0.2,0.4,0.2c0.4-0.1,0.6-0.5,0.5-0.8 C42.2,55.6,42,55.3,41.7,55.2z M41.7,56.4c-0.2-0.1-0.3-0.3-0.3-0.5c0-0.3,0.1-0.3,0.3-0.5c0.2,0.1,0.3,0.3,0.3,0.4 C41.9,56.1,41.9,56.2,41.7,56.4z"/>
		<path d="M41.7,51.5c-0.1,0.1-0.1,0.3-0.1,0.4c0,0.2,0,0.2,0.1,0.3c0.1-0.1,0.1-0.2,0.1-0.3 C41.8,51.8,41.8,51.7,41.7,51.5z"/>
		<path d="M41.5,54c0,0.1,0,0.2,0,0.3c0,0.1,0,0.1,0.1,0.2c0.1-0.2,0.1-0.3,0.1-0.5c0-0.1-0.1-0.2-0.1-0.3 C41.6,53.8,41.6,53.9,41.5,54z"/>
		<path d="M41.5,35.1c0,0.1,0,0.2,0.1,0.2c0.1-0.1,0.1-0.3,0.1-0.4c0-0.2,0-0.2-0.1-0.3C41.5,34.7,41.5,34.9,41.5,35.1z" />
		<path d="M41.7,45.6c-0.3,0.1-0.5,0.4-0.5,0.7c0,0.3,0.2,0.7,0.5,0.8c0.4-0.1,0.6-0.5,0.6-0.8 C42.2,45.9,41.9,45.6,41.7,45.6z M41.7,46.8c-0.2-0.1-0.3-0.3-0.3-0.5c0-0.2,0.1-0.4,0.3-0.5c0.2,0.1,0.3,0.3,0.3,0.4 C41.9,46.4,41.9,46.6,41.7,46.8z"/>
		<path d="M41.7,32.3C41.6,32.4,41.6,32.4,41.7,32.3c-0.2,0.3-0.2,0.5,0,0.7c0,0,0,0,0.1,0 C41.8,32.8,41.8,32.6,41.7,32.3z"/>
		<path d="M40.4,53.8c0.2,0,0.3,0,0.4-0.1c0.1-0.1,0.2-0.1,0.2-0.3c-0.2,0-0.3,0-0.4,0.1C40.5,53.5,40.4,53.6,40.4,53.8z "/>
		<path d="M40.7,33.4c0.1,0.1,0.2,0.1,0.4,0.1c-0.1-0.2-0.2-0.2-0.3-0.3c-0.1-0.1-0.2-0.1-0.4-0.1 C40.4,33.2,40.5,33.3,40.7,33.4z"/>
		<path d="M39.5,31.9c-0.3-0.2-0.6-0.2-1,0.1c-0.1,0.2,0,0.3,0,0.5c0.1,0.2,0.2,0.3,0.4,0.4c0.3,0.2,0.7,0.2,0.9-0.1 C39.9,32.4,39.7,32.1,39.5,31.9z M39.1,32.6c-0.1-0.1-0.2-0.1-0.2-0.3c0-0.1-0.1-0.2,0-0.2c0.4-0.2,0.8,0,0.8,0.5 C39.4,32.7,39.2,32.7,39.1,32.6z"/>
		<path d="M39.4,51.1c-0.3-0.2-0.7-0.2-1,0.1c-0.1,0.3,0,0.6,0.3,0.8c0.3,0.2,0.7,0.2,0.9-0.1 C39.9,51.6,39.7,51.3,39.4,51.1z M39.1,51.9c-0.2-0.1-0.3-0.3-0.3-0.5c0.2-0.1,0.4-0.1,0.5,0c0.2,0.1,0.3,0.2,0.3,0.5 C39.4,51.9,39.2,52,39.1,51.9z"/>
		<path d="M40.7,42.7c-0.1-0.1-0.2-0.1-0.4,0c0.1,0.1,0.1,0.2,0.3,0.3c0.1,0.1,0.2,0.1,0.4,0.1 C41,42.9,40.9,42.8,40.7,42.7z"/>
		<path d="M41.7,2.8c0.4-0.1,0.5-0.4,0.5-0.7c0-0.3-0.2-0.7-0.6-0.8c-0.4,0.1-0.6,0.5-0.6,0.8 C41.1,2.4,41.4,2.8,41.7,2.8z M41.7,1.6c0.2,0.1,0.3,0.3,0.3,0.5c0,0.2-0.1,0.3-0.3,0.4c-0.2-0.1-0.3-0.2-0.3-0.4 C41.4,2,41.5,1.8,41.7,1.6z"/>
		<path d="M41,43.8C41,43.8,41,43.8,41,43.8c-0.1-0.1-0.3-0.1-0.4,0c-0.1,0.1-0.2,0.2-0.2,0.3c0,0,0.1,0,0.1,0 C40.7,44.2,40.9,44.1,41,43.8z"/>
		<path d="M40.8,52.4c-0.1-0.1-0.2-0.1-0.4-0.1c0.1,0.2,0.2,0.3,0.3,0.3c0.1,0.1,0.2,0.1,0.4,0.1 C41,52.5,40.9,52.4,40.8,52.4z"/>
		<path d="M43.8,51.1c-0.3,0.2-0.4,0.5-0.3,0.8c0.3,0.3,0.7,0.3,1,0.1c0.2-0.1,0.3-0.3,0.3-0.4c0-0.1,0.1-0.3,0-0.4 C44.5,50.9,44.1,51,43.8,51.1z M44.5,51.5c0,0.1-0.1,0.2-0.2,0.3c-0.2,0.1-0.4,0.1-0.6,0c0.1-0.5,0.4-0.7,0.8-0.5 C44.6,51.4,44.5,51.5,44.5,51.5z"/>
		<path d="M1,47.8c0.2-0.1,0.3-0.2,0.3-0.3c-0.3,0-0.5,0.1-0.6,0.4C0.7,47.9,0.8,47.9,1,47.8z"/>
		<path d="M0.6,57.5c0.2,0.1,0.3,0,0.4-0.1c0.2-0.1,0.2-0.2,0.3-0.3C1,57.1,0.8,57.2,0.6,57.5z"/>
		<path d="M0.7,39C0.7,39,0.6,39,0.7,39c0.1,0.3,0.3,0.4,0.6,0.4C1.1,39.1,0.9,39,0.7,39z"/>
		<path d="M0.6,28.6C0.6,28.6,0.6,28.6,0.6,28.6C0.7,28.7,0.7,28.7,0.6,28.6c0.3,0,0.5-0.1,0.6-0.3c0,0,0-0.1,0-0.1 C1,28.2,0.7,28.3,0.6,28.6z"/>
		<path d="M1,38.2c0.1-0.1,0.3-0.2,0.3-0.3c-0.1,0-0.3,0-0.4,0.1c-0.1,0.1-0.2,0.2-0.3,0.3C0.8,38.3,0.9,38.2,1,38.2z"/>
		<path d="M0,46.8v0.7c0.1-0.1,0.1-0.2,0.1-0.4C0.1,47,0.1,46.9,0,46.8z"/>
		<path d="M0.7,29.3C0.7,29.3,0.6,29.4,0.7,29.3c0.1,0.3,0.3,0.4,0.6,0.4C1.2,29.5,1,29.4,0.7,29.3z"/>
		<path d="M1,48.7c-0.1-0.1-0.2-0.1-0.4-0.1c0,0.1,0.1,0.2,0.1,0.2C0.8,48.9,0.9,48.9,1,49c0.1,0,0.2,0,0.3,0 C1.2,48.8,1.1,48.7,1,48.7z"/>
		<path d="M0,54.2v0.3c0.1,0,0.1,0.1,0.2,0.1c0.2,0.3,0.1,0.6-0.2,0.8v0.2c0.4-0.1,0.5-0.5,0.5-0.7 C0.5,54.5,0.3,54.2,0,54.2z"/>
		<path d="M0,57.1c0.1-0.1,0.1-0.2,0.1-0.3c0-0.1,0-0.3-0.1-0.4V57.1z"/>
		<path d="M0.5,51.1c0-0.4-0.3-0.6-0.5-0.7v0.2c0.2,0.1,0.2,0.2,0.3,0.4c0,0.2-0.1,0.4-0.3,0.5v0.3 C0.4,51.7,0.5,51.4,0.5,51.1z"/>
		<path d="M0,49v0.7c0.1-0.1,0.1-0.3,0.1-0.4C0.1,49.2,0.1,49.1,0,49z"/>
		<path d="M2.3,30.9c0.4,0.2,0.7,0.1,0.9-0.1c0.1-0.5-0.2-0.7-0.5-0.9c-0.2-0.1-0.6-0.1-0.9,0.1 C1.8,30.4,1.9,30.8,2.3,30.9z M2.3,30.1c0.4,0.1,0.6,0.3,0.6,0.6c-0.2,0.1-0.4,0.1-0.6,0c-0.2-0.1-0.2-0.3-0.2-0.4 C2.1,30.1,2.2,30.1,2.3,30.1z"/>
		<path d="M0,15.7v0.3c0.1,0,0.2,0.1,0.2,0.2c0.1,0.1,0.1,0.3,0,0.4c0,0.1-0.1,0.2-0.2,0.3v0.2c0.4-0.1,0.5-0.4,0.5-0.7 C0.5,16.2,0.3,15.9,0,15.7z"/>
		<path d="M0,44.6v0.3c0.2,0.1,0.3,0.3,0.3,0.5c0,0.2-0.1,0.3-0.3,0.4V46c0.4-0.1,0.5-0.5,0.5-0.7 C0.5,44.9,0.3,44.6,0,44.6z"/>
		<path d="M1.2,20.2C1.2,20.2,1.3,20.2,1.2,20.2c0-0.2-0.1-0.3-0.3-0.4c-0.1,0-0.2-0.1-0.3,0C0.7,20,0.9,20.1,1.2,20.2z" />
		<path d="M2.7,28.1c0.3-0.2,0.5-0.4,0.4-0.9c-0.3-0.3-0.7-0.3-1-0.1c-0.3,0.2-0.4,0.5-0.4,0.8 C2.1,28.2,2.5,28.2,2.7,28.1z M2.3,27.3c0.2-0.1,0.4-0.1,0.6,0c0,0.2-0.1,0.4-0.3,0.5c-0.2,0.1-0.4,0.1-0.5,0 C2.1,27.6,2.1,27.4,2.3,27.3z"/>
		<path d="M7.4,24.9c0.1-0.1,0.2-0.2,0.3-0.3c-0.1,0-0.3,0-0.4,0.1c-0.1,0.1-0.3,0.2-0.3,0.3C7.2,25,7.3,24.9,7.4,24.9z" />
		<path d="M7.4,52.4c-0.1-0.1-0.2-0.1-0.4-0.1c0.1,0.2,0.2,0.3,0.3,0.3c0.1,0.1,0.2,0.1,0.4,0.1 C7.6,52.5,7.5,52.4,7.4,52.4z"/>
		<path d="M7.3,53.4c-0.1,0.1-0.3,0.2-0.3,0.3c0.1,0,0.2,0,0.2,0c0.1,0,0.2-0.1,0.3-0.2c0.1-0.1,0.1-0.1,0.1-0.2 C7.6,53.3,7.4,53.4,7.3,53.4z"/>
		<path d="M7.3,4.6c0.1,0.1,0.2,0.1,0.4,0.1c0-0.1-0.1-0.2-0.2-0.3C7.3,4.2,7.2,4.2,7,4.2C7.1,4.4,7.2,4.5,7.3,4.6z"/>
		<path d="M7,5.7c0.2,0,0.3,0,0.4-0.1c0.1-0.1,0.2-0.1,0.2-0.3c-0.2,0-0.3,0-0.4,0.1C7.2,5.5,7.1,5.6,7,5.7z"/>
		<path d="M7,44.2c0.2,0,0.3,0,0.5-0.1c0.1-0.1,0.2-0.1,0.2-0.3c-0.2,0-0.3,0-0.4,0.1C7.1,43.9,7.1,44,7,44.2z"/>
		<path d="M7.4,43c0.1,0.1,0.2,0.1,0.3,0c0-0.1-0.1-0.2-0.3-0.3c-0.1-0.1-0.2-0.1-0.4-0.1C7.1,42.9,7.2,43,7.4,43z"/>
		<path d="M7.7,34.2c-0.2,0-0.3,0-0.4,0.1c-0.1,0.1-0.2,0.1-0.2,0.3c0.2,0,0.3,0,0.5-0.1C7.6,34.4,7.7,34.3,7.7,34.2z"/>
		<path d="M6.1,22.3c-0.3-0.2-0.7-0.2-1,0.1c-0.1,0.1,0,0.3,0,0.4c0.1,0.2,0.2,0.3,0.3,0.4c0.3,0.2,0.7,0.2,1-0.1 C6.5,22.8,6.4,22.4,6.1,22.3z M5.7,23c-0.2-0.1-0.3-0.3-0.3-0.5c0.2-0.1,0.4-0.1,0.6,0c0.2,0.1,0.2,0.3,0.2,0.4 C6.1,23.1,5.9,23.1,5.7,23z"/>
		<path d="M6.1,35.7c0.3-0.2,0.4-0.5,0.3-0.8c-0.3-0.3-0.7-0.2-1-0.1c-0.2,0.1-0.3,0.3-0.3,0.4c0,0.1-0.1,0.3,0,0.4 C5.5,35.9,5.8,35.9,6.1,35.7z M5.7,35c0.2-0.1,0.4-0.1,0.5,0c0,0.4-0.4,0.7-0.8,0.5C5.4,35.2,5.5,35.1,5.7,35z"/>
		<path d="M5.1,45.3c0.3,0.3,0.7,0.2,1,0c0.3-0.2,0.4-0.5,0.3-0.8c-0.3-0.3-0.7-0.2-1,0c-0.2,0.1-0.3,0.3-0.3,0.4 C5.1,45,5.1,45.1,5.1,45.3z M5.5,44.9c0-0.1,0.1-0.2,0.2-0.3c0.2-0.1,0.4-0.1,0.6,0c0,0.4-0.2,0.5-0.6,0.6c0,0-0.1,0-0.1,0 c0,0,0,0-0.1,0C5.4,45,5.4,45,5.5,44.9z"/>
		<path d="M2.3,55.9c-0.3,0.2-0.5,0.5-0.4,0.8C2.1,57,2.5,57,2.7,56.9C3,56.7,3.3,56.4,3.2,56 C2.9,55.8,2.6,55.7,2.3,55.9z M2.6,56.6c-0.2,0.1-0.4,0.1-0.5,0c0-0.2,0.1-0.4,0.2-0.5c0.2-0.1,0.4-0.2,0.6,0 C2.9,56.4,2.8,56.5,2.6,56.6z"/>
		<path d="M2.3,50.2c0.4,0.2,0.7,0.1,0.9-0.1c0.1-0.5-0.2-0.7-0.5-0.9C2.5,49,2.1,49,1.9,49.3C1.8,49.7,1.9,50,2.3,50.2z  M2.3,49.3c0.2,0,0.3,0.1,0.5,0.2c0.1,0.1,0.1,0.2,0.1,0.3c-0.2,0.1-0.4,0.1-0.6,0C2.1,49.8,2,49.6,2,49.4 C2.1,49.3,2.2,49.4,2.3,49.3z"/>
		<path d="M5.5,54c-0.2,0.1-0.3,0.3-0.3,0.4c0,0.1-0.1,0.3,0,0.4c0.3,0.3,0.7,0.2,1,0c0.3-0.2,0.4-0.5,0.3-0.8 C6.1,53.8,5.7,53.9,5.5,54z M5.4,54.7c0-0.1,0-0.1,0-0.2c0-0.1,0.1-0.2,0.2-0.3c0.2-0.1,0.4-0.1,0.6,0C6.2,54.7,5.8,54.9,5.4,54.7z "/>
		<path d="M5.5,42.4c0.3,0.2,0.7,0.2,0.9-0.1c0.1-0.3,0-0.6-0.3-0.8c-0.3-0.2-0.7-0.2-1,0c-0.1,0.2,0,0.3,0,0.5 C5.2,42.2,5.4,42.3,5.5,42.4z M6.3,42.2c-0.2,0.1-0.4,0.1-0.6,0c-0.2-0.1-0.3-0.2-0.2-0.5C5.8,41.6,6.2,41.8,6.3,42.2z"/>
		<path d="M7.4,33.1C7.3,33.1,7.2,33,7,33.1c0.1,0.2,0.2,0.3,0.3,0.3c0.1,0.1,0.2,0.1,0.4,0.1 C7.6,33.3,7.5,33.2,7.4,33.1z"/>
		<path d="M5.5,52c0.3,0.2,0.7,0.2,0.9-0.1c0.1-0.3,0-0.7-0.3-0.8c-0.3-0.2-0.7-0.2-1,0.1C5,51.5,5.2,51.8,5.5,52z  M5.4,51.4c0.4-0.2,0.8,0,0.8,0.5c-0.2,0.1-0.4,0.1-0.5,0c-0.1-0.1-0.2-0.1-0.2-0.3C5.4,51.5,5.4,51.4,5.4,51.4z"/>
		<path d="M1.3,0.9C1.2,0.7,0.9,0.5,0.7,0.5c0,0-0.1,0-0.1,0C0.7,0.8,1,0.9,1.3,0.9z"/>
		<path d="M2.7,37.7c0.3-0.1,0.5-0.4,0.4-0.9c-0.2-0.3-0.6-0.3-0.9-0.1c-0.3,0.1-0.5,0.5-0.4,0.8 C2.1,37.8,2.5,37.8,2.7,37.7z M2.2,37c0.1-0.1,0.2-0.1,0.3-0.1c0.1,0,0.2,0,0.3,0.1c0,0.2-0.1,0.4-0.3,0.5c-0.2,0.1-0.4,0.1-0.5,0 C2,37.3,2.1,37.1,2.2,37z"/>
		<path d="M2.3,7.8C1.9,8,1.8,8.3,1.9,8.7C2.1,9,2.5,9,2.7,8.8C3,8.7,3.3,8.4,3.2,8C2.9,7.7,2.6,7.7,2.3,7.8z M2.8,8.4 C2.8,8.5,2.7,8.5,2.6,8.6C2.5,8.7,2.4,8.7,2.3,8.7c-0.1,0-0.2,0-0.2-0.1c0-0.2,0.1-0.4,0.3-0.4C2.5,8,2.7,8,2.9,8.1 C2.9,8.2,2.9,8.3,2.8,8.4z"/>
		<path d="M0.5,41.5c0-0.3-0.2-0.6-0.5-0.7V41c0.1,0.1,0.2,0.2,0.2,0.4c0,0.2-0.1,0.4-0.2,0.5v0.3 C0.4,42.1,0.5,41.8,0.5,41.5z"/>
		<path d="M2.2,2.1C2.5,2.3,2.9,2.3,3.2,2C3.3,1.5,3,1.3,2.7,1.1C2.5,1,2.1,1,1.9,1.3C1.8,1.6,1.9,1.9,2.2,2.1z M2.3,1.3 c0.1,0,0.2,0,0.3,0c0.2,0.1,0.3,0.3,0.3,0.5C2.7,2,2.5,1.9,2.3,1.8C2.1,1.7,2,1.6,2,1.4C2.1,1.3,2.2,1.3,2.3,1.3z"/>
		<path d="M0.6,19c0.1,0,0.1,0,0.2,0c0.1,0,0.2-0.1,0.3-0.2c0.1-0.1,0.1-0.1,0.2-0.2c-0.2,0-0.3,0-0.5,0.1 C0.7,18.8,0.6,18.9,0.6,19z"/>
		<path d="M1,10.5c0.1,0,0.2,0.1,0.3,0c-0.1-0.2-0.2-0.3-0.4-0.3c-0.1,0-0.2-0.1-0.3,0C0.7,10.3,0.8,10.4,1,10.5z"/>
		<path d="M0.6,9.4c0.1,0,0.2,0,0.3,0C1.1,9.3,1.2,9.2,1.3,9c-0.2,0-0.3,0-0.5,0.1C0.7,9.2,0.7,9.3,0.6,9.4z"/>
		<path d="M6.1,16.5c0.3-0.2,0.4-0.5,0.3-0.8c-0.3-0.3-0.7-0.2-1-0.1c-0.2,0.1-0.3,0.3-0.3,0.4c0,0.1-0.1,0.3,0,0.4 C5.4,16.7,5.8,16.7,6.1,16.5z M5.5,16.1c0-0.1,0.1-0.2,0.2-0.3c0.2-0.1,0.4-0.2,0.6,0c0,0.4-0.2,0.5-0.6,0.6c-0.1,0-0.1,0-0.2-0.1 C5.4,16.2,5.4,16.1,5.5,16.1z"/>
		<path d="M2.3,40.6c0.4,0.2,0.7,0.1,0.9-0.1C3.3,40,3,39.7,2.7,39.6c-0.2-0.1-0.6-0.1-0.9,0.2 C1.8,40.1,1.9,40.4,2.3,40.6z M2.3,39.7c0.4,0.1,0.6,0.3,0.6,0.6c-0.2,0.1-0.4,0.1-0.6,0C2.1,40.2,2,40,2,39.8 C2.1,39.7,2.2,39.7,2.3,39.7z"/>
		<path d="M5.1,32c-0.1,0.1,0,0.3,0,0.4c0.1,0.2,0.2,0.3,0.3,0.4c0.3,0.2,0.7,0.2,1,0c0.1-0.3,0-0.7-0.3-0.8 C5.8,31.7,5.5,31.7,5.1,32z M5.7,32.6c-0.1-0.1-0.2-0.1-0.3-0.3c0-0.1-0.1-0.2,0-0.2c0.2-0.1,0.4-0.1,0.6,0 c0.2,0.1,0.2,0.3,0.3,0.5C6.1,32.7,5.9,32.7,5.7,32.6z"/>
		<path d="M0,0.9v0.7c0.1-0.1,0.1-0.2,0.1-0.4C0.1,1.1,0.1,1,0,0.9z"/>
		<path d="M5.5,25.2c-0.2,0.1-0.3,0.3-0.3,0.4c0,0.1-0.1,0.3,0,0.4c0.3,0.3,0.7,0.2,1,0.1c0.3-0.2,0.4-0.5,0.3-0.8 C6.1,25,5.7,25,5.5,25.2z M5.4,25.9c0-0.2,0.1-0.4,0.3-0.5c0.2-0.1,0.4-0.1,0.5,0C6.2,25.8,5.8,26.1,5.4,25.9z"/>
		<path d="M2.3,11.7c0.4,0.2,0.7,0.1,0.9-0.1c0.1-0.5-0.2-0.7-0.5-0.9c-0.2-0.1-0.6-0.1-0.9,0.2 C1.8,11.2,1.9,11.6,2.3,11.7z M2.3,10.9c0.2,0,0.3,0.1,0.5,0.2c0.1,0.1,0.1,0.2,0.1,0.3c-0.2,0.1-0.4,0.1-0.6,0 C2.1,11.3,2,11.2,2,11C2.1,10.9,2.2,10.9,2.3,10.9z"/>
		<path d="M1.9,20.5c-0.1,0.3,0.1,0.7,0.4,0.8c0.3,0.2,0.7,0.1,0.9-0.1c0.1-0.4-0.1-0.7-0.5-0.9 C2.4,20.2,2.1,20.3,1.9,20.5z M2.9,21.1c-0.2,0.1-0.4,0.1-0.6,0c-0.2-0.1-0.2-0.2-0.2-0.5c0.2-0.1,0.3-0.1,0.5,0 C2.7,20.7,2.9,20.8,2.9,21.1z"/>
		<path d="M3.2,17.6c-0.2-0.2-0.6-0.3-0.9-0.1c-0.3,0.2-0.5,0.5-0.4,0.8c0.3,0.3,0.6,0.3,0.9,0.1C3,18.3,3.3,18,3.2,17.6 z M2.8,17.9c-0.1,0.3-0.5,0.5-0.8,0.3c0-0.2,0.1-0.4,0.2-0.4c0.2-0.1,0.4-0.2,0.6-0.1C2.9,17.8,2.9,17.8,2.8,17.9z"/>
		<path d="M2.7,47.3c0.3-0.2,0.5-0.4,0.4-0.9c-0.2-0.2-0.6-0.3-0.9-0.1c-0.3,0.2-0.5,0.5-0.4,0.8 C2.1,47.4,2.5,47.4,2.7,47.3z M2.2,46.6c0.2-0.1,0.4-0.2,0.6-0.1c0,0.1,0,0.1,0,0.2c0,0.1-0.1,0.2-0.2,0.3c-0.2,0.1-0.4,0.1-0.6,0 C2,46.9,2.1,46.7,2.2,46.6z"/>
		<path d="M0,29.7v0.7c0.1-0.1,0.1-0.2,0.1-0.3C0.1,30,0.1,29.9,0,29.7z"/>
		<path d="M0,27.5v0.7c0.1-0.1,0.1-0.2,0.1-0.4C0.1,27.8,0.1,27.6,0,27.5z"/>
		<path d="M0.5,31.9c0-0.3-0.2-0.6-0.5-0.7v0.2c0.2,0.1,0.3,0.2,0.3,0.4c0,0.2-0.1,0.4-0.3,0.5v0.3 C0.4,32.5,0.5,32.2,0.5,31.9z"/>
		<path d="M0.5,26.1c0-0.3-0.1-0.6-0.4-0.8c0,0-0.1,0-0.1,0v0.3c0.2,0.1,0.2,0.3,0.3,0.4c0,0.2-0.1,0.4-0.3,0.5v0.2 C0.3,26.7,0.5,26.5,0.5,26.1z"/>
		<path d="M0.5,35.9c0.1-0.3,0-0.5-0.1-0.8C0.3,35.1,0.1,35,0,34.9v0.4c0.2,0.1,0.2,0.3,0.3,0.4c0,0.2-0.1,0.4-0.3,0.5 v0.2c0.1,0,0.1-0.1,0.2-0.1C0.3,36.3,0.4,36.1,0.5,35.9z"/>
		<path d="M0,39.4v0.7c0.1-0.1,0.1-0.3,0.1-0.4C0.1,39.6,0.1,39.5,0,39.4z"/>
		<path d="M0,37.1v0.7c0.1-0.1,0.1-0.2,0.1-0.3C0.1,37.4,0.1,37.3,0,37.1z"/>
		<path d="M0,8.3V9C0.2,8.8,0.2,8.6,0,8.3z"/>
		<path d="M0,10.5v0.7C0.2,11,0.2,10.8,0,10.5z"/>
		<path d="M0.5,3.1c0-0.3-0.2-0.6-0.5-0.7v0.2c0,0,0,0,0.1,0c0.1,0.1,0.2,0.3,0.2,0.5c0,0.2-0.1,0.3-0.3,0.4v0.3 C0.4,3.7,0.5,3.4,0.5,3.1z"/>
		<path d="M0.5,6.9c0-0.4-0.2-0.7-0.5-0.8v0.3c0.2,0.1,0.2,0.3,0.3,0.5c0,0.2-0.1,0.3-0.3,0.4v0.2 C0.4,7.5,0.5,7.1,0.5,6.9z"/>
		<path d="M0,20.1v0.7c0.1-0.1,0.1-0.2,0.1-0.4C0.1,20.4,0.1,20.2,0,20.1z"/>
		<path d="M0.5,22.3c0-0.3-0.2-0.6-0.5-0.7v0.2c0.2,0.1,0.3,0.2,0.3,0.4c0,0.2-0.1,0.4-0.3,0.5v0.3 C0.4,22.9,0.5,22.6,0.5,22.3z"/>
		<path d="M0.5,12.7c0-0.3-0.2-0.6-0.5-0.7v0.2c0.2,0.1,0.2,0.2,0.3,0.4c0,0.2-0.1,0.4-0.3,0.5v0.3 C0.4,13.3,0.5,13,0.5,12.7z"/>
		<path d="M22.8,16.5c0.3-0.2,0.4-0.5,0.3-0.8c-0.3-0.3-0.7-0.2-1-0.1c-0.2,0.1-0.3,0.3-0.3,0.4c0,0.1-0.1,0.3,0,0.4 C22.1,16.7,22.5,16.7,22.8,16.5z M22.4,15.8c0.2-0.1,0.4-0.1,0.6,0c-0.1,0.5-0.4,0.7-0.8,0.5C22.1,16,22.2,15.9,22.4,15.8z"/>
		<path d="M0,17.9v0.7C0.2,18.4,0.2,18.2,0,17.9z"/>
		<path d="M16.7,40.1c0.1-0.1,0.1-0.2,0.1-0.4c0-0.1,0-0.3-0.1-0.4c-0.1,0.1-0.1,0.3-0.1,0.4 C16.5,39.9,16.5,40,16.7,40.1z"/>
		<path d="M16.6,50.4c-0.4,0.1-0.5,0.4-0.5,0.7c0,0.3,0.1,0.7,0.5,0.8c0.4-0.1,0.5-0.4,0.6-0.8 C17.2,50.8,17,50.5,16.6,50.4z M16.7,51.6c-0.2-0.1-0.3-0.3-0.3-0.5c0-0.2,0.1-0.4,0.3-0.5c0.2,0.1,0.3,0.3,0.3,0.5 C16.9,51.3,16.8,51.5,16.7,51.6z"/>
		<path d="M16.6,40.8c-0.4,0.1-0.5,0.4-0.5,0.7c0,0.3,0.1,0.7,0.5,0.8c0.4-0.1,0.5-0.4,0.6-0.8 C17.2,41.2,17,40.9,16.6,40.8z M16.7,42c-0.2-0.1-0.3-0.3-0.3-0.5c0-0.2,0.1-0.3,0.3-0.5c0.2,0.1,0.3,0.3,0.3,0.5 C16.9,41.7,16.9,41.8,16.7,42z"/>
		<path d="M16.7,54.2c-0.4,0.1-0.5,0.4-0.5,0.8c0,0.3,0.1,0.6,0.6,0.7c0.4-0.1,0.6-0.5,0.6-0.7 C17.2,54.5,17,54.2,16.7,54.2z M16.7,55.5c-0.2-0.1-0.3-0.2-0.3-0.4c0-0.2,0.1-0.4,0.3-0.5c0.2,0.1,0.3,0.3,0.3,0.5 C16.9,55.2,16.8,55.3,16.7,55.5z"/>
		<path d="M17.5,28.4c-0.1,0.1-0.2,0.1-0.2,0.3c0.1,0,0.2,0,0.3-0.1c0.1-0.1,0.3-0.2,0.3-0.3 C17.8,28.2,17.7,28.2,17.5,28.4z"/>
		<path d="M16.5,56.7c0,0.1,0,0.3,0.1,0.4c0.1-0.1,0.1-0.2,0.1-0.4c0-0.1,0-0.3-0.1-0.4C16.6,56.4,16.5,56.6,16.5,56.7z" />
		<path d="M16.6,37.1c-0.1,0.2-0.2,0.3-0.1,0.5c0,0.1,0,0.2,0.1,0.3C16.8,37.6,16.8,37.4,16.6,37.1z"/>
		<path d="M16.7,34.9c-0.4,0.1-0.5,0.5-0.6,0.8c0,0.3,0.1,0.6,0.6,0.7c0.4-0.1,0.5-0.4,0.5-0.7 C17.2,35.4,17,35.1,16.7,34.9z M16.7,36.2c-0.2-0.1-0.3-0.3-0.3-0.5c0-0.2,0.1-0.4,0.3-0.5c0.2,0.1,0.3,0.3,0.3,0.5 C16.9,36,16.8,36.1,16.7,36.2z"/>
		<path d="M7.4,23.5c-0.1,0-0.2-0.1-0.3,0c0.1,0.1,0.2,0.2,0.3,0.3c0.1,0.1,0.2,0.1,0.4,0.1C7.6,23.7,7.5,23.6,7.4,23.5z "/>
		<path d="M15.7,57.1c-0.1-0.1-0.2-0.1-0.4,0c0.1,0.2,0.2,0.3,0.3,0.3c0.1,0,0.2,0.1,0.3,0C16,57.3,15.9,57.2,15.7,57.1z "/>
		<path d="M16.7,17.2c0.3-0.1,0.5-0.3,0.5-0.6c0-0.1,0-0.2,0-0.3c-0.1-0.3-0.2-0.5-0.5-0.6c-0.4,0.1-0.6,0.4-0.6,0.8 C16.1,16.9,16.3,17.1,16.7,17.2z M16.7,16c0.2,0.1,0.3,0.3,0.3,0.5c0,0.2-0.1,0.4-0.3,0.5c-0.2-0.1-0.3-0.3-0.3-0.5 C16.4,16.3,16.5,16.2,16.7,16z"/>
		<path d="M16,29.4c-0.1-0.1-0.2,0-0.3,0c-0.2,0.1-0.3,0.2-0.4,0.4c0.2,0,0.3,0,0.4-0.1C15.9,29.6,16,29.5,16,29.4z"/>
		<path d="M16.7,26.8c0.4-0.1,0.6-0.5,0.5-0.9c-0.1-0.3-0.2-0.5-0.5-0.6c-0.4,0.1-0.6,0.4-0.6,0.8 C16.1,26.4,16.3,26.7,16.7,26.8z M16.4,25.9c0-0.1,0.1-0.2,0.2-0.2c0.2,0.1,0.3,0.3,0.3,0.5c0,0.2-0.1,0.3-0.3,0.4 c-0.1-0.1-0.2-0.2-0.2-0.3C16.4,26.2,16.4,26,16.4,25.9z"/>
		<path d="M16.5,49.3c0,0.1,0,0.3,0.1,0.4c0.1-0.1,0.1-0.3,0.1-0.4c0-0.1,0-0.3-0.1-0.4C16.6,49.1,16.5,49.2,16.5,49.3z" />
		<path d="M17.2,45.3c0-0.4-0.2-0.7-0.5-0.8c-0.3,0.1-0.6,0.4-0.6,0.8c0,0.3,0.2,0.6,0.6,0.7 C17.1,45.9,17.2,45.6,17.2,45.3z M16.6,45.8c-0.2-0.1-0.3-0.3-0.3-0.5c0-0.2,0.1-0.4,0.3-0.5c0.1,0,0.1,0.1,0.2,0.2 C17,45.3,16.9,45.6,16.6,45.8z"/>
		<path d="M16.7,46.7c-0.1,0.1-0.1,0.2-0.1,0.4c0,0.1,0,0.3,0.1,0.4c0.1-0.1,0.1-0.3,0.1-0.4 C16.8,47,16.8,46.8,16.7,46.7z"/>
		<path d="M15.9,0.7c0,0,0.1-0.1,0.1-0.2c-0.1,0-0.2,0-0.3,0c-0.2,0.1-0.3,0.2-0.4,0.4c0.1,0,0.2,0,0.3,0 C15.7,0.9,15.8,0.8,15.9,0.7z"/>
		<path d="M19.4,49.2c-0.2-0.1-0.6-0.1-0.9,0.1c-0.1,0.4,0.1,0.7,0.4,0.8c0.4,0.2,0.8,0.1,0.9-0.1 C19.9,49.6,19.7,49.3,19.4,49.2z M19,49.9c-0.2-0.1-0.3-0.3-0.3-0.5c0.2-0.1,0.3-0.1,0.5,0c0.2,0.1,0.3,0.3,0.3,0.5 C19.4,50,19.2,50,19,49.9z"/>
		<path d="M18.9,55.9c-0.3,0.2-0.4,0.5-0.4,0.8c0.3,0.3,0.6,0.3,0.9,0.1c0.3-0.1,0.5-0.4,0.5-0.9 C19.6,55.7,19.2,55.7,18.9,55.9z M19.5,56.4c0,0.1-0.1,0.2-0.2,0.2c-0.2,0.1-0.3,0.1-0.6,0c0-0.2,0.1-0.3,0.2-0.4 c0.2-0.1,0.4-0.2,0.6-0.1C19.6,56.2,19.5,56.3,19.5,56.4z"/>
		<path d="M18.9,21.3c0.3,0.2,0.7,0.2,0.9-0.1c0.1-0.5-0.2-0.7-0.5-0.9c-0.2-0.1-0.6-0.1-0.9,0.2 C18.5,20.8,18.6,21.2,18.9,21.3z M18.9,20.5c0.1,0,0.2,0,0.3,0c0.2,0.1,0.3,0.3,0.3,0.5c-0.2,0.1-0.4,0.1-0.6,0 c-0.2-0.1-0.2-0.2-0.2-0.4C18.8,20.5,18.9,20.5,18.9,20.5z"/>
		<path d="M18.9,46.3c-0.3,0.2-0.4,0.5-0.4,0.8c0.3,0.3,0.7,0.3,0.9,0.1c0.3-0.2,0.5-0.5,0.4-0.9 C19.6,46.1,19.2,46.1,18.9,46.3z M19.3,47c-0.2,0.1-0.4,0.1-0.5,0c0-0.2,0-0.3,0.2-0.4c0.2-0.1,0.4-0.2,0.6-0.1 C19.5,46.8,19.4,46.9,19.3,47z"/>
		<path d="M17.3,29.4c0,0.1,0.1,0.1,0.1,0.2c0.1,0.1,0.2,0.1,0.3,0.2c0.1,0,0.2,0,0.3,0c0-0.1-0.1-0.2-0.2-0.3 C17.6,29.4,17.5,29.3,17.3,29.4z"/>
		<path d="M18.9,36.7c-0.3,0.1-0.5,0.5-0.4,0.8c0.3,0.3,0.6,0.3,0.9,0.1c0.3-0.2,0.5-0.4,0.4-0.9 C19.6,36.5,19.3,36.5,18.9,36.7z M19.5,37.1c-0.1,0.4-0.4,0.5-0.8,0.4c0-0.2,0.1-0.4,0.2-0.4c0.2-0.1,0.4-0.2,0.6-0.1 C19.6,37,19.6,37,19.5,37.1z"/>
		<path d="M18.9,40.6c0.3,0.2,0.7,0.1,0.9-0.1c0.1-0.4-0.1-0.7-0.5-0.9c-0.3-0.1-0.6-0.1-0.9,0.2 C18.5,40.1,18.6,40.4,18.9,40.6z M19,39.7c0.4,0.1,0.6,0.3,0.6,0.6c-0.2,0.1-0.4,0.1-0.6,0c-0.2-0.1-0.3-0.3-0.3-0.4 C18.8,39.7,18.9,39.7,19,39.7z"/>
		<path d="M19.4,18.4c0.3-0.1,0.5-0.4,0.5-0.9c-0.3-0.3-0.6-0.3-0.9-0.1c-0.3,0.2-0.4,0.5-0.4,0.8 C18.8,18.6,19.2,18.6,19.4,18.4z M19,17.7c0.2-0.1,0.4-0.2,0.6,0c0,0,0,0.1,0,0.1c-0.1,0.3-0.4,0.5-0.8,0.4c0,0,0,0-0.1,0 C18.7,18,18.8,17.8,19,17.7z"/>
		<path d="M17.3,19c0.1,0,0.2,0,0.3-0.1c0.1-0.1,0.3-0.2,0.3-0.3c-0.2,0-0.3,0-0.5,0.1C17.4,18.8,17.3,18.9,17.3,19z"/>
		<path d="M17.6,38.2c0.1-0.1,0.3-0.2,0.3-0.3c-0.2,0-0.2,0-0.4,0c-0.1,0.1-0.2,0.2-0.3,0.3 C17.4,38.3,17.5,38.3,17.6,38.2z"/>
		<path d="M17.6,39c-0.1,0-0.2-0.1-0.3,0c0.1,0.2,0.2,0.3,0.3,0.3c0.1,0.1,0.2,0.1,0.3,0C17.9,39.2,17.8,39.1,17.6,39z" />
		<path d="M17.6,20.1c0.1,0,0.2,0.1,0.3,0c-0.1-0.2-0.2-0.3-0.3-0.3c-0.1,0-0.2-0.1-0.3,0C17.4,19.9,17.5,20,17.6,20.1z" />
		<path d="M17.5,47.6c-0.1,0.1-0.2,0.2-0.2,0.3c0.1,0,0.2,0,0.3,0c0.2-0.1,0.3-0.2,0.3-0.3 C17.8,47.4,17.6,47.5,17.5,47.6z"/>
		<path d="M17.3,57.5c0.2,0.1,0.3,0,0.4-0.1c0.2-0.1,0.2-0.2,0.3-0.3C17.6,57.1,17.4,57.2,17.3,57.5z"/>
		<path d="M17.4,48.6c0,0-0.1,0-0.1,0c0,0.1,0.1,0.1,0.1,0.2c0.1,0.1,0.2,0.1,0.3,0.2c0.1,0,0.2,0,0.3,0 c0-0.1-0.1-0.2-0.2-0.2C17.7,48.6,17.5,48.6,17.4,48.6z"/>
		<path d="M17.6,10.5c0.1,0.1,0.2,0.1,0.4,0c-0.1-0.2-0.2-0.3-0.3-0.3c-0.1,0-0.2-0.1-0.4,0 C17.3,10.3,17.5,10.4,17.6,10.5z"/>
		<path d="M9.2,24.9C9.4,25,9.5,25,9.6,24.9c-0.1-0.2-0.2-0.3-0.3-0.3c-0.1,0-0.2-0.1-0.3,0C9,24.7,9.1,24.8,9.2,24.9z" />
		<path d="M8.3,20.5c-0.4,0.2-0.6,0.5-0.5,0.9C7.8,21.6,8,22,8.3,22c0.3-0.1,0.5-0.4,0.5-0.7C8.9,21,8.7,20.6,8.3,20.5z  M8.3,21.8c-0.2-0.1-0.3-0.2-0.3-0.4c0-0.2,0.1-0.4,0.3-0.6c0.2,0.1,0.3,0.3,0.3,0.5C8.5,21.6,8.5,21.7,8.3,21.8z"/>
		<path d="M9.6,4.2c-0.1,0-0.3,0-0.4,0.1C9.1,4.4,9,4.5,8.9,4.6c0.2,0,0.3,0,0.5-0.1C9.5,4.4,9.6,4.3,9.6,4.2z"/>
		<path d="M8.2,25.3c0,0.1,0,0.3,0.1,0.4c0,0,0,0,0,0c0.2-0.2,0.2-0.5,0-0.7C8.2,25,8.2,25.2,8.2,25.3z"/>
		<path d="M9.2,44c0.1,0.1,0.3,0.2,0.4,0.1c0-0.1-0.1-0.2-0.2-0.3c-0.1-0.1-0.3-0.1-0.4-0.1C9,43.9,9.1,44,9.2,44z"/>
		<path d="M9.2,52.4c-0.1,0.1-0.2,0.2-0.3,0.3c0.1,0.1,0.2,0,0.3,0c0.1-0.1,0.3-0.2,0.3-0.3C9.5,52.3,9.3,52.3,9.2,52.4z "/>
		<path d="M9.3,53.4c-0.1-0.1-0.2-0.1-0.4-0.1c0,0.1,0.1,0.2,0.1,0.2c0.1,0.1,0.2,0.1,0.3,0.2c0.1,0,0.1,0,0.2,0 C9.6,53.6,9.4,53.5,9.3,53.4z"/>
		<path d="M8.9,33.5c0.2,0,0.3,0,0.4-0.1c0.1-0.1,0.2-0.2,0.2-0.3c-0.2,0-0.3,0-0.5,0.1C9.1,33.2,9,33.3,8.9,33.5z"/>
		<path d="M8.3,22.7C8.3,22.7,8.3,22.7,8.3,22.7C8.3,22.7,8.3,22.8,8.3,22.7c-0.2,0.3-0.2,0.5-0.1,0.7c0,0,0,0,0.1,0 C8.5,23.2,8.5,23,8.3,22.7z"/>
		<path d="M8.3,47.1c0.4-0.1,0.6-0.5,0.5-0.8c0-0.3-0.2-0.6-0.5-0.7c-0.2,0.1-0.3,0.2-0.4,0.3c-0.2,0.3-0.2,0.6,0,0.8 C8,46.9,8.1,47,8.3,47.1z M8.3,45.8c0.2,0.1,0.3,0.3,0.3,0.5c0,0.2-0.1,0.4-0.3,0.5C8.1,46.6,8,46.4,8,46.2C8,46,8.1,45.9,8.3,45.8 z"/>
		<path d="M7.4,13.9c-0.1,0-0.2-0.1-0.3,0c0.1,0.1,0.2,0.2,0.3,0.3c0.1,0.1,0.2,0.1,0.4,0.1C7.6,14.1,7.5,14,7.4,13.9z" />
		<path d="M7.7,14.9c-0.2,0-0.3,0-0.4,0.1c-0.1,0.1-0.2,0.2-0.3,0.3c0.2,0,0.3,0,0.4-0.1C7.6,15.2,7.7,15.1,7.7,14.9z"/>
		<path d="M8.3,55.2c-0.3,0.1-0.5,0.4-0.5,0.7c0,0.3,0.2,0.7,0.5,0.8c0.4-0.1,0.6-0.5,0.6-0.8 C8.9,55.6,8.6,55.2,8.3,55.2z M8.3,56.4c-0.2-0.1-0.3-0.3-0.3-0.5c0-0.3,0.1-0.3,0.3-0.5c0.2,0.1,0.3,0.3,0.3,0.4 C8.6,56,8.5,56.2,8.3,56.4z"/>
		<path d="M8.3,50.9c0.4-0.1,0.5-0.4,0.5-0.7c0-0.3-0.1-0.7-0.5-0.8c-0.4,0.1-0.6,0.5-0.6,0.9C7.8,50.5,8,50.8,8.3,50.9z  M8.3,49.7c0.2,0.1,0.2,0.2,0.3,0.5c0,0.2-0.1,0.3-0.3,0.4c-0.2-0.1-0.3-0.2-0.3-0.4C8.1,50,8.1,49.8,8.3,49.7z"/>
		<path d="M8.2,54c0,0.1,0,0.2,0,0.3c0,0.1,0,0.1,0.1,0.2c0.1-0.2,0.1-0.3,0.1-0.5c0-0.1-0.1-0.2-0.1-0.2 C8.2,53.8,8.2,53.9,8.2,54z"/>
		<path d="M8.3,51.5C8.3,51.6,8.3,51.6,8.3,51.5c-0.2,0.3-0.2,0.5,0,0.7c0,0,0,0,0.1,0C8.5,52,8.5,51.8,8.3,51.5z"/>
		<path d="M11.1,54c-0.2-0.2-0.6-0.2-0.9,0.1c-0.1,0.3,0,0.7,0.3,0.8c0.3,0.2,0.7,0.2,1-0.1C11.6,54.5,11.4,54.2,11.1,54 z M10.4,54.2c0.2-0.1,0.4-0.1,0.5,0c0.2,0.1,0.3,0.2,0.3,0.5C10.8,54.9,10.4,54.6,10.4,54.2z"/>
		<path d="M14.4,46.3c-0.4-0.2-0.7-0.1-0.9,0.1c-0.1,0.4,0.2,0.7,0.5,0.9c0.2,0.1,0.6,0.1,0.9-0.2 C14.9,46.8,14.7,46.4,14.4,46.3z M14.1,47c-0.2-0.1-0.3-0.3-0.3-0.5c0.2-0.1,0.4-0.1,0.6,0c0.2,0.1,0.2,0.3,0.2,0.5 C14.4,47.1,14.2,47.1,14.1,47z"/>
		<path d="M13.9,37.7c0.2,0.1,0.6,0.1,0.9-0.1c0.1-0.4-0.1-0.7-0.4-0.8c-0.3-0.2-0.7-0.1-0.9,0.1 C13.4,37.2,13.6,37.5,13.9,37.7z M14.3,37c0.2,0.1,0.3,0.3,0.3,0.4c-0.1,0.1-0.1,0.1-0.2,0.1c-0.1,0-0.2,0-0.3-0.1 c-0.1-0.1-0.2-0.1-0.3-0.2c0-0.1-0.1-0.2-0.1-0.3C14,36.8,14.2,36.9,14.3,37z"/>
		<path d="M14.4,27.1c-0.4-0.2-0.7-0.1-0.9,0.1c-0.1,0.4,0.2,0.7,0.5,0.9c0.2,0.1,0.6,0.1,0.9-0.2 C14.9,27.5,14.7,27.2,14.4,27.1z M14.4,27.9c-0.1,0-0.2,0-0.3,0c-0.1-0.1-0.2-0.1-0.3-0.2c-0.1-0.1-0.1-0.2-0.1-0.3 c0.2-0.1,0.4-0.1,0.6,0c0.2,0.1,0.3,0.3,0.3,0.5C14.5,27.9,14.5,27.9,14.4,27.9z"/>
		<path d="M9.6,42.7c-0.1,0-0.3,0-0.4,0.1C9.1,42.8,9,42.9,9,43c0,0,0,0,0,0.1c0.1,0,0.2,0,0.4-0.1 C9.5,42.9,9.6,42.8,9.6,42.7z"/>
		<path d="M13.9,20.3c-0.3,0.1-0.5,0.4-0.4,0.9c0.3,0.3,0.7,0.3,1,0.1c0.3-0.2,0.4-0.5,0.4-0.8 C14.5,20.2,14.1,20.2,13.9,20.3z M14.4,21c-0.2,0.1-0.4,0.2-0.6,0.1c0-0.1,0-0.2,0.1-0.3c0.1-0.1,0.2-0.2,0.5-0.2 c0.1,0,0.2,0,0.3,0.1C14.6,20.8,14.5,20.9,14.4,21z"/>
		<path d="M14.4,55.9c-0.3-0.2-0.7-0.2-0.9,0.1c-0.1,0.4,0.2,0.7,0.5,0.9c0.2,0.1,0.6,0.1,0.9-0.1 C14.9,56.4,14.7,56.1,14.4,55.9z M14.4,56.7c-0.1,0-0.2,0-0.3,0c-0.2-0.1-0.3-0.3-0.3-0.5c0.2-0.1,0.4-0.1,0.6,0 c0.2,0.1,0.3,0.3,0.3,0.5C14.5,56.7,14.5,56.7,14.4,56.7z"/>
		<path d="M13.9,49.2c-0.3,0.1-0.5,0.4-0.5,0.9c0.3,0.3,0.6,0.3,1,0.1c0.3-0.2,0.4-0.5,0.4-0.8 C14.5,49,14.1,49,13.9,49.2z M14.4,49.8c-0.2,0.1-0.4,0.2-0.6,0c0-0.2,0.1-0.4,0.3-0.5c0.2-0.1,0.3-0.1,0.5,0 C14.6,49.6,14.5,49.7,14.4,49.8z"/>
		<path d="M13.9,30c-0.3,0.1-0.5,0.4-0.4,0.9c0.2,0.2,0.6,0.3,0.9,0.1c0.3-0.1,0.5-0.5,0.4-0.8 C14.5,29.8,14.1,29.8,13.9,30z M14.4,30.6c-0.2,0.1-0.4,0.2-0.6,0.1c0-0.3,0.2-0.5,0.5-0.6c0.1,0,0.2,0,0.3,0.1 C14.6,30.4,14.5,30.5,14.4,30.6z"/>
		<path d="M14.8,39.7c-0.3-0.3-0.6-0.3-0.9-0.2c-0.3,0.1-0.5,0.4-0.5,0.9c0.2,0.3,0.6,0.3,0.9,0.1 C14.7,40.4,14.9,40,14.8,39.7z M14.4,40.2c-0.2,0.1-0.4,0.2-0.6,0.1c0-0.1,0-0.2,0.1-0.3c0.1-0.1,0.3-0.2,0.5-0.2 c0.1,0,0.2,0,0.3,0.1C14.6,40,14.5,40.1,14.4,40.2z"/>
		<path d="M10.5,51.1c-0.3,0.2-0.4,0.5-0.3,0.8c0.3,0.3,0.7,0.3,1,0.1c0.1-0.1,0.3-0.2,0.3-0.4c0-0.1,0.1-0.3,0-0.4 C11.2,50.9,10.8,51,10.5,51.1z M10.9,51.8c-0.2,0.1-0.4,0.1-0.6,0c0-0.2,0.1-0.3,0.2-0.4c0.2-0.1,0.4-0.2,0.6,0 C11.2,51.6,11.1,51.7,10.9,51.8z"/>
		<path d="M9.3,34.2c-0.1-0.1-0.2-0.1-0.3,0c0,0.1,0.1,0.2,0.2,0.3c0.1,0.1,0.3,0.1,0.4,0.1C9.5,34.4,9.4,34.3,9.3,34.2z "/>
		<path d="M13.9,1.1c-0.3,0.1-0.5,0.4-0.4,0.9c0.3,0.3,0.7,0.3,1,0.1c0.3-0.2,0.4-0.5,0.4-0.8C14.5,1,14.1,1,13.9,1.1z  M14.4,1.8c-0.2,0.1-0.4,0.2-0.6,0c0,0,0-0.1,0-0.1c0.1-0.2,0.2-0.4,0.5-0.4c0.1,0,0.2,0,0.3,0.1C14.6,1.6,14.5,1.7,14.4,1.8z"/>
		<path d="M13.9,18.4c0.2,0.1,0.6,0.1,0.9-0.1c0.1-0.4-0.1-0.7-0.4-0.8c-0.3-0.2-0.7-0.1-0.9,0.1 C13.4,18,13.6,18.3,13.9,18.4z M14.3,17.7c0.2,0.1,0.3,0.3,0.3,0.5c0,0.1-0.1,0.1-0.2,0.1c-0.1,0-0.2,0-0.3,0 c-0.2-0.1-0.3-0.3-0.3-0.5C14,17.6,14.1,17.6,14.3,17.7z"/>
		<path d="M10.5,41.5c-0.3,0.1-0.4,0.5-0.3,0.8c0.3,0.3,0.7,0.3,1,0c0.1-0.1,0.3-0.2,0.3-0.4c0-0.1,0.1-0.3,0-0.4 C11.2,41.3,10.8,41.4,10.5,41.5z M11,42.2c-0.2,0.1-0.4,0.1-0.6,0c0-0.4,0.4-0.7,0.8-0.5C11.2,42,11.1,42.1,11,42.2z"/>
		<path d="M11.1,44.4c-0.2-0.2-0.7-0.2-0.9,0.1c-0.1,0.3,0,0.6,0.3,0.8c0.3,0.2,0.7,0.2,1-0.1c0.1-0.1,0-0.3,0-0.4 C11.4,44.7,11.3,44.5,11.1,44.4z M10.7,45.1c-0.2-0.1-0.3-0.3-0.3-0.5c0.2-0.1,0.4-0.1,0.6,0c0.2,0.1,0.3,0.2,0.3,0.5 C11,45.2,10.9,45.2,10.7,45.1z"/>
	</g>
</svg>