<svg xmlns="http://www.w3.org/2000/svg" viewBox="0 0 128 72">
	<title>Image Landscape</title>
	<rect fill="#ddd" width="128" height="72"/>
	<path fill="#f5f5f5" d="M70,30.8h-2.3l-1.4-1.5h-4.5l-1.4,1.5H58c-0.8,0-1.5,0.7-1.5,1.5v9c0,0.8,0.7,1.5,1.5,1.5h12c0.8,0,1.5-0.7,1.5-1.5v-9C71.6,31.4,70.8,30.8,70,30.8 M58,41.3v-9h3.1l1.4-1.5h3.2l1.4,1.5H70l0,9H58z M64,33c-2.1,0-3.7,1.7-3.7,3.7s1.7,3.7,3.7,3.7s3.7-1.7,3.7-3.7S66.1,33,64,33 M64,39.1c-1.3,0-2.2-1-2.2-2.2s1-2.2,2.2-2.2s2.2,1,2.2,2.2C66.2,38,65.3,39.1,64,39.1z"/>
</svg>