<svg xmlns="http://www.w3.org/2000/svg" viewBox="0 0 72 128">
	<title>Image Portrait</title>
	<rect fill="#ddd" width="72" height="128"/>
	<path fill="#f5f5f5" d="M42,58.8h-2.3l-1.4-1.5h-4.5l-1.4,1.5H30c-0.8,0-1.5,0.7-1.5,1.5v9c0,0.8,0.7,1.5,1.5,1.5h12c0.8,0,1.5-0.7,1.5-1.5v-9C43.6,59.4,42.8,58.8,42,58.8 M30,69.3v-9h3.1l1.4-1.5h3.2l1.4,1.5H42l0,9H30z M36,61c-2.1,0-3.7,1.7-3.7,3.7s1.7,3.7,3.7,3.7c2,0,3.7-1.7,3.7-3.7S38.1,61,36,61 M36,67.1c-1.3,0-2.2-1-2.2-2.2s1-2.2,2.2-2.2c1.3,0,2.2,1,2.2,2.2C38.2,66,37.3,67.1,36,67.1z"/>
</svg>