<svg xmlns="http://www.w3.org/2000/svg" viewBox="0 0 100 100">
	<title>Image Square</title>
	<rect fill="#ddd" width="100" height="100"/>
	<path fill="#f5f5f5" d="M56,44.8h-2.3l-1.4-1.5h-4.5l-1.4,1.5H44c-0.8,0-1.5,0.7-1.5,1.5v9c0,0.8,0.7,1.5,1.5,1.5h12c0.8,0,1.5-0.7,1.5-1.5v-9C57.6,45.4,56.8,44.8,56,44.8 M44,55.3v-9h3.1l1.4-1.5h3.2l1.4,1.5H56l0,9H44z M50,47c-2.1,0-3.7,1.7-3.7,3.7s1.7,3.7,3.7,3.7c2,0,3.7-1.7,3.7-3.7S52.1,47,50,47 M50,53.1c-1.3,0-2.2-1-2.2-2.2s1-2.2,2.2-2.2c1.3,0,2.2,1,2.2,2.2C52.2,52,51.3,53.1,50,53.1z"/>
</svg>