<svg xmlns="http://www.w3.org/2000/svg" viewBox="0 0 300 240">
	<style type="text/css">
		.st0{opacity:0.1;fill:#AAAAAA;enable-background:new;}
		.st1{fill:none;stroke:#140779;stroke-width:1.784;stroke-miterlimit:10;}
		.st2{fill:#140779;}
		.st3{fill:none;stroke:#257BF8;stroke-width:1.0114;stroke-linecap:round;stroke-linejoin:round;stroke-miterlimit:10;}
		.st4{fill:#A47868;}
		.st5{fill:#EDB399;}
		.st6{fill:#257BF8;}
		.st7{fill:none;stroke:#0D4382;stroke-width:1.0114;stroke-linecap:round;stroke-linejoin:round;stroke-miterlimit:10;}
	</style>
	<g>
		<ellipse transform="matrix(0.7071 -0.7071 0.7071 0.7071 -42.7233 136.6658)" class="st0" cx="143.6" cy="119.9" rx="113.7" ry="113.7"/>
		<g>
			<line class="st1" x1="196" y1="58.1" x2="97.6" y2="58.1"/>
			<g>
				<polygon class="st2" points="195.2,55.4 199.8,58.1 195.2,60.8"/>
			</g>
			<g>
				<polygon class="st2" points="98.4,55.4 93.8,58.1 98.4,60.8"/>
			</g>
			<path class="st2" d="M128,48.8l6-6.2c1-1.1,1.8-2.1,1.8-3.1c0-1.1-0.7-1.9-1.9-1.9s-2.1,0.8-2.6,1.9l-3.4-2c1.1-2.6,3.5-3.9,6-3.9 c3.2,0,6,2.1,6,5.7c0,2.1-1.1,4-2.8,5.6l-2.9,3h6v3.9H128V48.8z"/>
			<path class="st2" d="M165.7,44v7.8h-3.8v-7.5c0-1.3-0.6-2.1-1.8-2.1c-1.3,0-2,0.9-2,2.4v7.2h-3.8v-7.5c0-1.3-0.6-2.1-1.8-2.1 c-1.3,0-2,0.9-2,2.4v7.2h-3.8V39.1h3.8v1.2c0.6-0.9,1.7-1.5,3.4-1.5c1.5,0,2.6,0.6,3.3,1.7c0.7-1,1.9-1.7,3.7-1.7 C163.8,38.7,165.7,40.8,165.7,44z"/>
		</g>
		<g>
			<path class="st3" d="M61,144.2c-3.4-15.5-4-31.7-1.9-47.4"/>
			<path class="st3" d="M57.3,144.2c-3.9-9.8-6.3-20.3-7-30.8"/>
			<path class="st3" d="M54,145.8c-1.9-2.4-3.7-4.9-5.6-7.3"/>
			<path class="st3" d="M106,138.8c-13,2.1-26.4,2.2-39.5,0.2"/>
			<path class="st2" d="M55.4,191.6H62l-1-44.3c28.4,14,50.5-2.4,50.5-2.4c-2.4-89-59.2-87.6-59.2-87.6l-3.7,0.1 C21.6,98.3,23.8,152.9,55.4,191.6z"/>
			<path class="st4" d="M79.2,213.6c14.7-5,24.1-10.1,24.1-10.1c14.6-25.2,8.2-58.7,8.2-58.7c-24,10.9-50.5,2.4-50.5,2.4l0.2,27.5 c-6.1-0.1-11.8-0.1-17.2,0.1c5,9.1,11.4,17.7,19.2,25.5C68.2,205.3,73.6,209.7,79.2,213.6z"/>
		</g>
		<g>
			<path class="st5" d="M243.3,174.6c-1.5,0-3,0-4.5,0.1l0.3-27.5c-0.1,0-26.6,8.5-50.6-2.4c0,0-6.4,33.5,8.2,58.7 c0,0,5.9,3.2,15.6,7c4.1-3.1,8-6.5,11.7-10.2C231.8,192.5,238.2,183.8,243.3,174.6z"/>
			<path class="st6" d="M188.5,144.9c0,0,22.1,16.4,50.5,2.4l-0.8,35.7c25.1-37.6,25.5-86.8,1-124.7C223.3,62,190.3,77.5,188.5,144.9 z"/>
			<path class="st7" d="M239,144.2c3.4-15.5,4-31.7,1.9-47.4"/>
			<path class="st7" d="M242.7,144.2c3.9-9.8,6.3-20.3,7-30.8"/>
			<path class="st7" d="M246,145.8c1.9-2.4,3.7-4.9,5.6-7.3"/>
			<path class="st7" d="M194,138.8c13.1,2.1,26.4,2.1,39.5,0.2"/>
		</g>
	</g>
</svg>