<svg xmlns="http://www.w3.org/2000/svg" viewBox="0 0 100 30" fill="currentColor">
	<path d="M6,3.5c0.4,0,0.7,0.3,0.8,0.9C6.7,5.6,6.1,7,5.1,8.5c-0.9,1.3-1.5,2-1.7,2.2c-0.3,0.2-0.5,0.6-0.5,1.1v0.3 c0,1.2,0.6,2,1.8,2.4c0.1,0,0.3,0,0.4,0h0.1c0.7,0,1.3-0.7,1.6-2.1v-0.1c0,0,0-0.1-0.1-0.1H6.1c-0.7,0-1.1-0.3-1.4-0.8 c0,0,0-0.1,0-0.2c0-0.5,0.4-0.9,1.3-1.1l0.2,0c0.6,0,1,0.2,1.2,0.7c0,0,0.1,0.2,0.2,0.4c0.3,0,0.9-0.3,1.7-1l0.2,0 c0.2,0,0.4,0.1,0.4,0.3c0,0.3-0.6,0.8-1.9,1.4c-0.3,0.1-0.4,0.3-0.4,0.7c-0.1,0.6-0.3,1.2-0.5,1.6c-0.4,0.7-1.1,1-1.8,1H5.1 c-0.9,0-1.8-0.5-2.5-1.6c-0.2-0.5-0.3-1.1-0.3-2c0-0.8,0.2-1.9,0.6-3.4c0.4-1.1,0.9-2,1.3-2.7c0.1-0.4,0.5-0.9,1.1-1.5 C5.5,3.6,5.8,3.5,6,3.5z M3.1,10.1L3.1,10.1C3.1,10,3.1,10,3.1,10.1L3.1,10.1c0-0.1,0.2-0.3,0.5-0.7c1.3-1.7,2-3.1,2.3-4.3 C6,4.9,6.1,4.7,6.2,4.5c0-0.1,0-0.2-0.1-0.2h0c-0.2,0.1-0.5,0.4-0.9,1C4.7,5.8,4.3,6.6,3.9,7.5C3.4,8.8,3.1,9.7,3.1,10.1z M5.4,11.2 c0,0.2,0.2,0.3,0.5,0.3c0.1,0,0.2,0,0.3,0c0.4,0,0.6-0.1,0.6-0.2v-0.2c0-0.3-0.2-0.4-0.6-0.5h0C5.8,10.8,5.6,10.9,5.4,11.2L5.4,11.2 z M31.9,27.1v-0.5h0.6v-2.2H32v-0.5h1.1v2.7h0.6v0.5H31.9z M34.1,27.1l1.3-2.5c0,0,0-0.1,0-0.1c0,0,0,0,0-0.1c0,0,0,0-0.1,0h-1.5 v-0.5h1.5c0.1,0,0.2,0,0.3,0.1c0.1,0,0.2,0.1,0.2,0.2c0.1,0.1,0.1,0.2,0.1,0.3c0,0.1,0,0.1,0,0.2s0,0.1-0.1,0.2l-1.2,2.3H34.1z  M39.2,27.1c-0.3,0-0.5,0-0.7-0.1s-0.4-0.2-0.5-0.4c-0.1-0.2-0.3-0.3-0.3-0.5c-0.1-0.2-0.1-0.4-0.1-0.6c0-0.2,0-0.4,0.1-0.6 c0.1-0.2,0.2-0.4,0.3-0.5c0.1-0.2,0.3-0.3,0.5-0.4c0.2-0.1,0.4-0.1,0.7-0.1c0.3,0,0.5,0,0.7,0.1c0.2,0.1,0.4,0.2,0.5,0.4 c0.1,0.2,0.3,0.3,0.3,0.5c0.1,0.2,0.1,0.4,0.1,0.6c0,0.2,0,0.4-0.1,0.6c-0.1,0.2-0.2,0.4-0.3,0.5c-0.1,0.2-0.3,0.3-0.5,0.4 S39.5,27.1,39.2,27.1z M39.2,26.7c0.2,0,0.3,0,0.4-0.1c0.1-0.1,0.3-0.1,0.4-0.2c0.1-0.1,0.2-0.2,0.2-0.4s0.1-0.3,0.1-0.5 c0-0.2,0-0.3-0.1-0.5s-0.1-0.3-0.2-0.4c-0.1-0.1-0.2-0.2-0.4-0.2c-0.1-0.1-0.3-0.1-0.4-0.1c-0.2,0-0.3,0-0.4,0.1 c-0.1,0.1-0.3,0.1-0.4,0.2c-0.1,0.1-0.2,0.2-0.2,0.4s-0.1,0.3-0.1,0.5c0,0.2,0,0.3,0.1,0.5s0.1,0.3,0.2,0.4s0.2,0.2,0.4,0.2 C38.9,26.6,39.1,26.7,39.2,26.7z M41.4,27.1v-3.3h0.5v1.9h0.5l0.6-0.9h0.6l-0.6,1c0.2,0.1,0.4,0.2,0.5,0.4c0.1,0.2,0.2,0.4,0.2,0.6 v0.4H43v-0.4c0-0.1,0-0.2-0.1-0.3c-0.1-0.1-0.1-0.2-0.2-0.2s-0.2-0.1-0.3-0.1h-0.6v0.9H41.4z M43.9,25.2v-0.4h1.6v0.4H43.9z  M44.9,27.1c-0.2,0-0.4-0.1-0.5-0.2c-0.1-0.1-0.2-0.3-0.2-0.5v-2.2h0.5v2.2c0,0.1,0,0.1,0.1,0.2c0,0,0.1,0.1,0.2,0.1h0.5v0.4H44.9z  M47,27.1c-0.2,0-0.4-0.1-0.6-0.2c-0.2-0.1-0.3-0.3-0.4-0.4c-0.1-0.2-0.2-0.4-0.2-0.6c0-0.2,0.1-0.4,0.2-0.6 c0.1-0.2,0.3-0.3,0.4-0.4c0.2-0.1,0.4-0.2,0.6-0.2c0.2,0,0.5,0.1,0.6,0.2c0.2,0.1,0.3,0.3,0.4,0.4c0.1,0.2,0.2,0.4,0.2,0.6 c0,0.2-0.1,0.4-0.2,0.6c-0.1,0.2-0.3,0.3-0.4,0.4C47.5,27.1,47.2,27.1,47,27.1z M47,26.7c0.1,0,0.3,0,0.4-0.1 c0.1-0.1,0.2-0.2,0.2-0.3s0.1-0.2,0.1-0.4s0-0.3-0.1-0.4s-0.1-0.2-0.2-0.3c-0.1-0.1-0.2-0.1-0.4-0.1c-0.1,0-0.3,0-0.4,0.1 s-0.2,0.2-0.2,0.3s-0.1,0.2-0.1,0.4c0,0.1,0,0.3,0.1,0.4s0.1,0.2,0.2,0.3S46.9,26.7,47,26.7z M49.9,27.1c-0.2,0-0.4,0-0.6-0.2 c-0.2-0.1-0.3-0.2-0.4-0.4c-0.1-0.2-0.2-0.4-0.2-0.7v-2.1h0.5v1.4h0c0-0.1,0.1-0.2,0.2-0.2c0.1-0.1,0.2-0.1,0.3-0.1 c0.1,0,0.2,0,0.3,0c0.2,0,0.4,0,0.6,0.1c0.2,0.1,0.3,0.2,0.4,0.4c0.1,0.2,0.1,0.4,0.1,0.6c0,0.2,0,0.4-0.1,0.5 c-0.1,0.2-0.1,0.3-0.2,0.4c-0.1,0.1-0.2,0.2-0.4,0.3S50.1,27.1,49.9,27.1z M49.9,26.7c0.1,0,0.3,0,0.4-0.1c0.1-0.1,0.2-0.2,0.2-0.3 s0.1-0.2,0.1-0.4c0-0.1,0-0.3-0.1-0.4s-0.1-0.2-0.2-0.3c-0.1-0.1-0.2-0.1-0.4-0.1c-0.1,0-0.3,0-0.4,0.1c-0.1,0.1-0.2,0.2-0.2,0.3 c-0.1,0.1-0.1,0.2-0.1,0.4c0,0.2,0,0.3,0.1,0.4c0.1,0.1,0.1,0.2,0.2,0.3S49.8,26.7,49.9,26.7z M52.8,27.1c-0.3,0-0.5,0-0.7-0.1 c-0.2-0.1-0.3-0.2-0.5-0.4c-0.1-0.2-0.2-0.4-0.2-0.6c0-0.2,0-0.5,0.1-0.6c0.1-0.2,0.2-0.3,0.4-0.4c0.2-0.1,0.4-0.2,0.6-0.2 c0.2,0,0.5,0.1,0.6,0.2c0.2,0.1,0.3,0.2,0.4,0.4c0.1,0.2,0.1,0.4,0.1,0.6c0,0,0,0.1,0,0.1c0,0,0,0.1,0,0.1h-1.6 c0,0.1,0.1,0.2,0.1,0.3c0.1,0.1,0.2,0.1,0.3,0.2c0.1,0,0.2,0.1,0.4,0.1h0.6v0.4H52.8z M52,25.7h1.1c0-0.1,0-0.1,0-0.2s0-0.1-0.1-0.2 c0-0.1-0.1-0.1-0.1-0.1c0,0-0.1-0.1-0.2-0.1s-0.1,0-0.2,0c-0.1,0-0.2,0-0.2,0.1c-0.1,0-0.1,0.1-0.2,0.1s-0.1,0.1-0.1,0.2 C52.1,25.6,52.1,25.7,52,25.7z M54.2,27.1v-1.7c0-0.2,0.1-0.4,0.2-0.5c0.1-0.1,0.3-0.2,0.5-0.2h0.6v0.4h-0.5c-0.1,0-0.1,0-0.2,0.1 s-0.1,0.1-0.1,0.2v1.6H54.2z M57.4,27.1c-0.1,0-0.2,0-0.3-0.1c-0.1-0.1-0.2-0.1-0.2-0.2s-0.1-0.2-0.1-0.3c0-0.1,0-0.2,0.1-0.3 c0.1-0.1,0.1-0.2,0.2-0.2l1-0.7c0.1-0.1,0.1-0.1,0.2-0.2c0-0.1,0.1-0.2,0.1-0.2c0-0.1,0-0.2-0.1-0.2c0-0.1-0.1-0.1-0.2-0.2 c-0.1,0-0.2-0.1-0.3-0.1H57v-0.5h0.9c0.2,0,0.4,0,0.5,0.1c0.2,0.1,0.3,0.2,0.3,0.3s0.1,0.3,0.1,0.5s0,0.3-0.1,0.5 c-0.1,0.1-0.2,0.3-0.4,0.4l-1,0.7c0,0,0,0,0,0s0,0,0,0.1c0,0,0,0.1,0,0.1c0,0,0.1,0,0.1,0H59v0.5H57.4z M60.7,27.1 c-0.2,0-0.4,0-0.6-0.1c-0.2-0.1-0.3-0.2-0.4-0.4s-0.2-0.4-0.2-0.6V25c0-0.2,0.1-0.4,0.2-0.6s0.2-0.3,0.4-0.4 c0.2-0.1,0.4-0.1,0.6-0.1s0.4,0.1,0.6,0.1s0.3,0.2,0.4,0.4c0.1,0.2,0.2,0.4,0.2,0.6V26c0,0.2-0.1,0.4-0.2,0.6 c-0.1,0.2-0.2,0.3-0.4,0.4C61.1,27.1,60.9,27.1,60.7,27.1z M60.7,26.7c0.1,0,0.2,0,0.3-0.1s0.2-0.1,0.2-0.2c0.1-0.1,0.1-0.2,0.1-0.3 v-1.1c0-0.1,0-0.2-0.1-0.3c-0.1-0.1-0.1-0.2-0.2-0.2s-0.2-0.1-0.3-0.1s-0.2,0-0.3,0.1s-0.2,0.1-0.2,0.2C60,24.7,60,24.8,60,24.9v1.1 c0,0.1,0,0.2,0.1,0.3c0.1,0.1,0.1,0.2,0.2,0.2S60.5,26.7,60.7,26.7z M62.9,27.1c-0.1,0-0.2,0-0.3-0.1c-0.1-0.1-0.2-0.1-0.2-0.2 s-0.1-0.2-0.1-0.3c0-0.1,0-0.2,0.1-0.3c0-0.1,0.1-0.2,0.2-0.2l1-0.7c0.1-0.1,0.1-0.1,0.2-0.2s0.1-0.2,0.1-0.2c0-0.1,0-0.2-0.1-0.2 s-0.1-0.1-0.2-0.2c-0.1,0-0.2-0.1-0.3-0.1h-0.8v-0.5h0.9c0.2,0,0.4,0,0.5,0.1c0.2,0.1,0.3,0.2,0.4,0.3c0.1,0.1,0.1,0.3,0.1,0.5 s0,0.3-0.1,0.5c-0.1,0.1-0.2,0.3-0.4,0.4l-1,0.7c0,0,0,0,0,0s0,0,0,0.1c0,0,0,0.1,0,0.1s0.1,0,0.1,0h1.5v0.5H62.9z M66.1,27.1 c-0.2,0-0.4,0-0.6-0.1c-0.2-0.1-0.3-0.2-0.4-0.4s-0.2-0.4-0.2-0.6V25c0-0.2,0.1-0.4,0.2-0.6s0.2-0.3,0.4-0.4 c0.2-0.1,0.4-0.1,0.6-0.1s0.4,0.1,0.6,0.1s0.3,0.2,0.4,0.4c0.1,0.2,0.2,0.4,0.2,0.6V26c0,0.2-0.1,0.4-0.2,0.6 c-0.1,0.2-0.2,0.3-0.4,0.4C66.6,27.1,66.4,27.1,66.1,27.1z M66.1,26.7c0.1,0,0.2,0,0.3-0.1s0.2-0.1,0.2-0.2c0.1-0.1,0.1-0.2,0.1-0.3 v-1.1c0-0.1,0-0.2-0.1-0.3c-0.1-0.1-0.1-0.2-0.2-0.2s-0.2-0.1-0.3-0.1s-0.2,0-0.3,0.1s-0.2,0.1-0.2,0.2c-0.1,0.1-0.1,0.2-0.1,0.3 v1.1c0,0.1,0,0.2,0.1,0.3c0.1,0.1,0.1,0.2,0.2,0.2S66,26.7,66.1,26.7z M59.6,8.4L59.6,8.4c0.6,0.1,0.8,0.3,0.8,0.7v0.2 c0,0.4-0.3,0.9-0.9,1.4C59.3,10.9,59.1,11,59,11v-0.1c0.4,0.4,0.7,0.6,0.9,0.7c0.6-0.3,1.7-0.7,3.3-1.1l1.6-0.3 c0.2,0.1,0.3,0.2,0.3,0.4c0,0.3-0.2,0.4-0.6,0.5c-1.4,0.3-2.5,0.6-3.4,0.9c0,0-0.2,0.1-0.5,0.2V12c0.9,0.4,1.4,1,1.4,1.6 c0,0.5-0.3,1-1,1.5c-0.3,0.1-0.6,0.2-0.9,0.2c-0.7,0-1.3-0.3-1.7-1c-0.1-0.2-0.1-0.4-0.1-0.6c0-0.6,0.3-1.1,0.9-1.6 c-0.9-0.6-1.4-1.3-1.4-2c0-0.5,0.4-1,1.1-1.5C59.2,8.5,59.4,8.4,59.6,8.4z M58.6,10.2c0,0.1,0,0.1,0,0.2c0.7-0.4,1-0.8,1-1.2v0 c0,0,0,0.1,0,0.1h-0.1c-0.3,0-0.6,0.3-1,0.8C58.6,10,58.6,10.1,58.6,10.2z M59.9,12.5c-0.6,0.4-0.9,0.8-0.9,1.1v0.2 c0,0.3,0.3,0.5,1,0.7h0.1c0.5,0,0.8-0.3,1-0.9v-0.1C61.2,13.3,60.8,13,59.9,12.5z M67.2,8.4h0.1c0.6,0.1,0.9,0.3,0.9,0.7 c-0.1,0.5-0.5,1-1.4,1.5c-0.2,0.1-0.8,0.3-1.8,0.6c0,0,0,0,0,0.1v0c0.2,0.5,0.4,0.9,0.8,1.1c0.4,0.2,0.8,0.3,1.2,0.3h0.2 c1.5,0,3-0.7,4.3-2c0.2-0.4,0.4-0.5,0.6-0.5h0c0.2,0,0.3,0.1,0.4,0.3c-0.1,0.4-0.8,1.1-2,2c-1.2,0.6-2.2,0.8-2.9,0.8 c-0.1,0-0.3,0-0.6,0c-0.3,0-0.9-0.1-1.6-0.4c-0.4-0.3-0.8-0.7-1-1.1c-0.1,0-0.2-0.3-0.2-0.8c0-0.3,0.2-0.8,0.7-1.4 c0.7-0.6,1.2-1,1.6-1.1C66.7,8.4,67,8.4,67.2,8.4z M65.2,10.4C65.2,10.4,65.2,10.4,65.2,10.4L65.2,10.4c0.2,0,0.6-0.2,1.2-0.4 c0.6-0.4,0.9-0.7,0.9-0.9c0,0,0,0-0.1,0h-0.1c-0.8,0.2-1.3,0.5-1.7,1C65.3,10.2,65.2,10.4,65.2,10.4z M81.2,10.2h0.1 c0.2,0.1,0.2,0.2,0.2,0.4v0c-0.2,0.7-0.7,1.6-1.5,2.5c-0.6,0.6-1.1,1-1.5,1c-0.6,0.2-1,0.3-1.3,0.3c-1,0-1.6-0.5-2-1.4 c-0.3-1.1-0.5-1.6-0.6-1.7c-0.1-0.1-0.2-0.1-0.2-0.1h-0.1c-0.3,0-0.7,0.2-1.1,0.7c-0.2,0.3-0.8,1.1-1.8,2.4 c-0.1,0.1-0.3,0.2-0.4,0.2h0c-0.2,0-0.3-0.1-0.4-0.4c0.3-1.5,0.7-2.7,1-3.6c0.1-0.2,0.3-0.3,0.4-0.3c0.2,0.1,0.3,0.2,0.3,0.3v0.2 c-0.1,0.4-0.3,0.9-0.4,1.7v0.2c0-0.1,0-0.1-0.1-0.1h0c0.1-0.1,0.4-0.5,0.9-1.1c0.5-0.6,1-0.9,1.5-0.9h0.1c0.6,0,1,0.4,1.2,1.1 c0.4,1.2,0.6,1.8,0.8,1.9c0.2,0.2,0.5,0.3,0.9,0.3h0c0.7,0,1.5-0.4,2.2-1.1c0.7-0.8,1.1-1.5,1.2-1.9C80.8,10.4,81,10.2,81.2,10.2z  M87.3,2.9c0.5,0,0.7,0.2,0.7,0.7c0,0,0,0.1,0,0.2c-0.1,0.8-0.1,1.4-0.2,1.7c0-0.1,0-0.1,0-0.1c0,0.8-0.5,2.5-1.4,5.1 c-0.4,0.7-0.5,1.1-0.5,1.2v0c0.2,0.7,0.9,1,1.8,1H88c1.5,0,3-0.7,4.3-2c0.2-0.4,0.4-0.5,0.6-0.5h0c0.2,0,0.3,0.1,0.4,0.3 c-0.1,0.4-0.8,1.1-2,2c-1.2,0.6-2.2,0.8-2.9,0.8c-0.1,0-0.3,0-0.6,0c-0.3,0-0.8-0.1-1.5-0.4c-0.2-0.1-0.4-0.3-0.7-0.6 c0.1,0,0,0.1-0.1,0.2c-0.5,0.7-1.3,1.2-2.2,1.5c-0.2,0.1-0.5,0.1-0.8,0.1c-1.1,0-1.9-0.5-2.2-1.6c0-0.1,0-0.2,0-0.2v-0.3 c0-0.7,0.4-1.5,1.2-2.2c0.5-0.4,1.2-0.7,2.1-0.8l0.6,0c0.3,0.1,0.6,0.2,1.1,0.3c-0.4,0.3-0.5,0.3-0.5,0c0,0,0-0.1,0-0.3 c0-1.2,0.3-2.3,0.7-3.6l0.7-1.5c0.3-0.5,0.6-0.9,0.9-1.2C87.1,2.9,87.2,2.9,87.3,2.9z M80.9,12.2c0,0.7,0.4,1.1,1.1,1.4 c0.2,0,0.3,0,0.4,0c0.9-0.1,1.8-0.5,2.5-1.5c0.1-0.2,0.2-0.4,0.2-0.5c-0.1-0.4-0.3-0.9-0.4-1.6c0,0-0.1,0-0.4-0.1 c-0.2-0.1-0.3-0.2-0.6-0.2c-1.2,0-2.1,0.6-2.7,1.8C80.9,11.9,80.9,12.1,80.9,12.2z M85.4,8.4c0-0.1,0-0.1,0-0.1c0,0.1,0,0.5-0.1,1.1 c0.1,0.9,0.1,1.3,0.1,1.3c0,0,0.1-0.1,0.1-0.3c0.3-0.6,0.8-2.1,1.4-4.6l0.1-2c0-0.1,0-0.1,0-0.1c-0.1,0-0.5,0.7-1.1,2 C85.8,6.6,85.6,7.5,85.4,8.4z M93,10.2L93,10.2c0.3,0.1,0.4,0.2,0.4,0.4v0.2c-0.2,0.6-0.4,1-0.6,1.1c-0.2,0.4-0.4,0.8-0.4,1.2 c0,0.2,0.1,0.3,0.4,0.3c0.7,0,1.7-0.6,3-1.7c0-0.1,0.2-0.2,0.4-0.3c0.3-0.3,0.6-0.6,1-1h0.2c0.2,0,0.3,0.2,0.3,0.4v0 c0,0.1-0.2,0.4-0.6,0.8c-0.2,0.2-0.4,0.5-0.8,0.7c-1.4,1.3-2.6,2-3.6,2c-0.8,0-1.1-0.4-1.1-1.1c0-0.3,0.1-0.8,0.3-1.3 c0.5-1,0.7-1.5,0.7-1.5C92.8,10.3,92.9,10.2,93,10.2z M94.6,7.5c0.2,0,0.3,0.1,0.4,0.4c0,0.3-0.2,0.5-0.5,0.7 c-0.1,0-0.2,0.1-0.4,0.1c-0.3-0.1-0.5-0.2-0.5-0.5c0-0.3,0.3-0.5,0.8-0.7C94.4,7.5,94.5,7.5,94.6,7.5z M51.1,14.5 c-0.7,0.7-1.4,1.2-2.1,1.5s-1.4,0.5-2.1,0.5c-0.6,0-1.2-0.2-1.6-0.5s-0.6-0.8-0.6-1.3c0-0.4,0.1-0.8,0.3-1.1c0.2-0.4,0.6-0.8,1-1.2 c0.2-0.2,0.4-0.4,0.8-0.6c0.5-0.4,0.8-0.7,0.8-0.8c0,0-0.1-0.3-0.4-0.7c-0.3-0.5-0.4-0.9-0.4-1.4c0-1.1,0.5-2,1.5-2.8 c1-0.8,2.2-1.2,3.6-1.2c0.6,0,1.1,0.1,1.5,0.3C54,5.3,54.1,5.6,54.1,6c0,0.3-0.5,0.9-1.5,1.7c-1,0.8-1.8,1.5-2.4,2.3l-0.6-0.4 c0.6-0.8,1.3-1.6,2.2-2.3c0.9-0.7,1.3-1.1,1.3-1.2c0-0.1-0.1-0.3-0.3-0.3c-0.2-0.1-0.4-0.1-0.7-0.1c-1,0-2,0.4-2.9,1.1 c-0.9,0.7-1.4,1.5-1.4,2.3c0,0.4,0.1,0.8,0.4,1.3c0.3,0.5,0.4,0.8,0.4,0.9c0,0.2-0.3,0.6-0.9,1.1c-0.1,0.1-0.1,0.1-0.2,0.1l-0.1,0.1 c-1.1,0.9-1.7,1.7-1.7,2.1c0,0.3,0.1,0.6,0.4,0.8c0.3,0.2,0.6,0.3,1,0.3c0.5,0,1.1-0.2,1.7-0.5c0.6-0.3,1.2-0.8,1.8-1.4l-1-1.7 l0.7-0.5l0.9,1.5c0.2-0.2,0.4-0.4,0.6-0.7c0.2-0.2,0.4-0.5,0.6-0.8h0.8c-0.2,0.4-0.5,0.8-0.8,1.2c-0.3,0.4-0.5,0.7-0.8,1.1 c0.2,0.4,0.5,0.8,0.8,1.2c0.3,0.4,0.6,0.9,0.9,1.3h-1c-0.1-0.1-0.3-0.4-0.6-0.8C51.5,15.2,51.3,14.8,51.1,14.5z M11.8,8.6l0.3,0 c0.5,0,0.8,0.2,1,0.6c0,0.1,0.2,0.5,0.3,1.3c0.3,0.7,0.8,1,1.5,1c0.7,0,1.5-0.4,2.3-1.2c0.2,0,0.3-0.1,0.4-0.1 c0.2,0.1,0.3,0.2,0.3,0.3c0,0.2-0.2,0.4-0.6,0.7c-0.5,0.4-1.2,0.8-1.9,1c-0.2,0-0.3,0-0.4,0h-0.1c-1,0-1.8-0.5-2.3-1.4l0,0 c0,0-0.1,0.2-0.4,0.7c-0.6,0.8-1.2,1.2-1.9,1.2h0c-0.5,0-0.9-0.3-1.2-0.9c-0.1-0.2-0.1-0.3-0.1-0.5c0-0.7,0.4-1.4,1-2.1 C10.5,8.8,11.1,8.6,11.8,8.6z M9.7,11.3c0,0.4,0.2,0.6,0.5,0.7h0.1c0.6,0,1.1-0.6,1.7-1.8c0.2-0.4,0.2-0.7,0.2-0.8V9.3 c0,0-0.1,0-0.4,0c-0.8,0-1.5,0.4-1.9,1.2C9.8,10.8,9.7,11,9.7,11.3z M20.5,8.7c0.2,0,0.3,0.2,0.3,0.4c-0.1,0.2-0.3,0.5-0.6,1 c-0.5,1.2-0.8,2.1-0.8,2.7c0,0.7,0.2,1.1,0.6,1.3c0.1,0,0.1,0.1,0.2,0.1h0.1c0.4,0,0.9-0.3,1.5-0.8c0.5-0.5,1-1.2,1.7-2.2 c0.2-0.5,0.5-0.8,0.7-0.8c0.2,0.1,0.4,0.2,0.4,0.4v0.1c-0.1,0.2-0.5,0.9-1.2,1.9c-0.4,0.6-1,1.2-1.9,1.8c-0.3,0.2-0.7,0.3-1.3,0.4h0 c-0.6,0-1.1-0.4-1.5-1.1c-0.1-0.2-0.1-0.5-0.1-0.9c0-0.7,0.2-1.5,0.6-2.4l0.2-0.5V9.9c0,0.1,0,0.1,0.1,0.1h0c-0.2,0-0.5,0.1-1,0.3 c-0.2,0.1-0.5,0.2-0.8,0.5c-0.3,0-0.5-0.2-0.5-0.4l0.2-0.4c0.1-0.1,0.3-0.2,0.7-0.4c0.5-0.2,1.3-0.5,2.3-0.9H20.5z M25.2,10.1 c0.6,0,1,0.2,1.2,0.7c0.1,0.2,0.1,0.4,0.1,0.5c0,0.2,0,0.5-0.1,0.7c0,0,0,0.1,0.1,0.1h0.4c1.2,0,2.6-0.6,4-1.7 c0.2-0.1,0.4-0.2,0.5-0.2h0.1c0.2,0.1,0.2,0.2,0.2,0.3c0,0.2-0.4,0.5-1,0.9c-1.3,0.9-2.8,1.3-4.3,1.3c-0.1,0-0.2,0-0.2,0 c-0.1,0-0.2,0.1-0.4,0.4c-0.5,0.6-1.1,0.9-1.7,0.9H24c-0.5,0-0.9-0.3-1.1-0.9c0-0.1,0-0.2,0-0.4v-0.1c0-1,0.5-1.8,1.5-2.5 C24.7,10.2,25,10.1,25.2,10.1z M23.5,12.8c0,0.3,0.1,0.6,0.4,0.7c0,0,0.1,0,0.2,0c0.4,0,0.8-0.3,1.2-0.8l0-0.1c0,0-0.2-0.1-0.5-0.3 c-0.3-0.2-0.6-0.5-0.7-0.9l0,0h0c-0.1,0.1-0.3,0.4-0.5,1C23.6,12.4,23.6,12.5,23.5,12.8z M24.9,11.3c0,0.2,0.2,0.4,0.5,0.6 c0.1,0.1,0.2,0.1,0.3,0.1h0c0,0,0-0.2,0.1-0.6c0-0.3-0.1-0.5-0.4-0.5C25.1,10.9,24.9,11,24.9,11.3z M32.5,8.8 c1.1,0.1,1.6,0.4,1.6,0.8v0.1L34,10.3v0c0,0,0,0-0.1,0h0c0.4,0,1.1-0.3,2.1-0.9c0.1,0,0.2-0.1,0.3-0.1h0.1c0.1,0,0.2,0.1,0.2,0.2 v0.2c-0.1,0.2-0.7,0.6-1.9,1.1c-0.2,0.1-0.7,0.2-1.5,0.3c-0.4,0.2-1.2,1-2.3,2.4c-0.9,1-1.3,1.8-1.3,2.3v0.2c0,0.4,0.2,0.6,0.5,0.7 c0.4,0.1,0.7,0.2,0.8,0.2c0.1,0,0.2,0,0.4,0c0.2,0,0.3,0,0.5,0c0.9,0,2-0.5,3.3-1.5c0.4-0.3,0.7-0.5,0.8-0.5h0 c0.1,0,0.2,0.1,0.3,0.2v0.2c-0.1,0.2-0.5,0.5-1.2,0.9c0,0-0.2,0.1-0.5,0.3c-0.4,0.3-1.1,0.6-2,1c-0.3,0.1-0.6,0.1-0.9,0.1h-0.6 c-0.8,0-1.5-0.2-1.9-0.6c-0.2-0.2-0.3-0.4-0.3-0.6c0,0,0-0.1,0-0.2c-0.1-0.1-0.1-0.2-0.1-0.3v-0.1c0-0.4,0.3-1.1,0.8-1.9 c0.3-0.4,0.6-0.8,1-1.2c0.3-0.4,0.8-0.9,1.3-1.4l0.3-0.3v0c0,0-0.2-0.1-0.6-0.2c-0.3-0.1-0.4-0.2-0.4-0.4c0-0.2,0.1-0.3,0.4-0.4h0.1 l1.1,0.1h0c0.3-0.1,0.5-0.2,0.5-0.4V9.7c0-0.1-0.4-0.2-1.1-0.3h0l-0.1,0c-0.1,0-0.1,0-0.1,0h-0.2c-0.1,0-0.2-0.1-0.2-0.2V9.1 C31.8,8.9,32.1,8.8,32.5,8.8z M36.2,10.2L36.2,10.2c0.3,0.1,0.4,0.2,0.4,0.4v0.2c-0.2,0.6-0.4,1-0.6,1.1c-0.2,0.4-0.4,0.8-0.4,1.2 c0,0.2,0.1,0.3,0.4,0.3c0.7,0,1.7-0.6,3-1.7c0-0.1,0.2-0.2,0.4-0.3c0.3-0.3,0.6-0.6,1-1h0.2c0.2,0,0.3,0.2,0.3,0.4v0 c0,0.1-0.2,0.4-0.6,0.8c-0.2,0.2-0.4,0.5-0.8,0.7c-1.4,1.3-2.6,2-3.6,2c-0.8,0-1.1-0.4-1.1-1.1c0-0.3,0.1-0.8,0.3-1.3 c0.5-1,0.7-1.5,0.7-1.5C35.9,10.3,36,10.2,36.2,10.2z M37.7,7.5c0.2,0,0.3,0.1,0.4,0.4c0,0.3-0.2,0.5-0.5,0.7 c-0.1,0-0.2,0.1-0.4,0.1c-0.3-0.1-0.5-0.2-0.5-0.5c0-0.3,0.3-0.5,0.8-0.7C37.6,7.5,37.6,7.5,37.7,7.5z"/>
</svg>