<svg xmlns="http://www.w3.org/2000/svg" viewBox="0 0 500 65">
	<path fill="#FFFFFF" d="M250.5,48.5C142.4,48.5,48.4,29.6,0,1.8V65h500V2.4C451.4,30,357.9,48.5,250.5,48.5z"/>
	<path fill="#FFBC00" fill-opacity=".3" d="M250,36.3C144.4,36.3,51.8,21.8,0,0v12.9c48.5,23.5,142.3,39.4,250,39.4s201.5-15.9,250-39.4V0 C448.2,21.8,355.6,36.3,250,36.3z"/>
	<path fill="#FFFFFF" fill-opacity=".3" d="M250,36.3C144.4,36.3,51.8,21.8,0,0v4C41.2,26.9,137.6,43,250,43S458.8,26.9,500,4V0 C448.2,21.8,355.6,36.3,250,36.3z"/>
</svg>