<svg xmlns="http://www.w3.org/2000/svg" viewBox="0 0 100 100">
	<title>Best Seller</title>
	<path fill="url(#_Linear1)" d="M-0,87.098l20.902,10.914l0.674,-13.106l-21.576,2.192Z"/>
	<path fill="url(#_Linear2)" d="M6.342,44.002l-6.342,43.096l93.729,-9.516l6.143,-43.372l-93.53,9.792Z"/>
	<path fill="#f26223" fill-opacity="0.5" d="M17.051,85.366c-0,-0 42.857,-46.971 42.859,-46.972l-1.624,0.17l-42.852,46.966l1.617,-0.164Zm21.031,-2.136c0,-0 42.924,-47.044 42.926,-47.045l-1.624,0.17l-42.92,47.038l1.618,-0.163Zm-17.526,1.78l42.87,-46.985l-1.624,0.171l-42.864,46.978l1.618,-0.164Zm7.01,-0.711l42.891,-47.01l-1.621,0.17l-42.887,47.003l1.617,-0.163Zm7.01,-0.714c0,0 42.911,-47.029 42.914,-47.032l-1.623,0.17l-42.908,47.027l1.617,-0.165Zm-10.515,1.069c0,0 42.878,-46.995 42.881,-46.996l-1.623,0.169l-42.876,46.992l1.618,-0.165Zm7.011,-0.713c-0,0 42.9,-47.017 42.901,-47.02l-1.621,0.17l-42.899,47.016l1.619,-0.166Zm-21.032,2.136l42.837,-46.947l-1.623,0.17l-42.831,46.942l1.617,-0.165Zm3.506,-0.356c-0,-0 42.844,-46.956 42.847,-46.959l-1.624,0.17l-42.841,46.953l1.618,-0.164Zm-8.57,-32.434l9.219,-10.107l-1.621,0.17l-7.316,8.019l-0.282,1.918Zm-1.945,33.503c-0,-0 42.811,-46.922 42.813,-46.923l-1.623,0.169l-42.808,46.917l1.618,-0.163Zm3.167,-41.815l0.966,-1.059l-0.823,0.086l-0.143,0.973Zm-0.611,4.155c2.059,-2.256 5.094,-5.582 5.094,-5.582l-1.624,0.17l-3.188,3.494l-0.282,1.918Zm-0.94,6.395l-0.283,1.918c6.553,-7.182 13.348,-14.631 13.35,-14.631l-1.499,0.157l-0.124,0.012l-11.444,12.544Zm-3.953,26.853l38.118,-41.775l-1.623,0.17l-36.212,39.687l-0.283,1.918Zm2.447,-16.625c8.168,-8.951 21.603,-23.677 21.605,-23.677l-1.623,0.169l-19.7,21.591l-0.282,1.917Zm-1.223,8.314l29.861,-32.728l-1.624,0.17l-27.955,30.638l-0.282,1.92Zm-0.611,4.156c5.127,-5.62 33.985,-37.25 33.986,-37.252l-1.621,0.17l-32.084,35.164l-0.281,1.918Zm40.28,4.652l42.937,-47.058l-1.624,0.17l-42.931,47.052l1.618,-0.164Zm21.03,-2.136l36.3,-39.784l0.191,-1.351l0.078,-0.551l-38.186,41.849l1.617,-0.163Zm10.515,-1.068c0,0 24.03,-26.335 24.031,-26.336l0.27,-1.904l-25.917,28.405l1.616,-0.165Zm25.469,-36.494l-34.096,37.371l1.618,-0.165l32.208,-35.301l0.27,-1.905Zm-39.489,37.917l40.389,-44.264l0.076,-0.534l0.193,-1.372l-42.276,46.335l1.618,-0.165Zm19.414,-1.971l1.617,-0.164l15.851,-17.372l0.061,-0.427l0.208,-1.476l-17.737,19.439Zm-71.991,7.31l42.826,-46.935l-0.229,0.024l-1.394,0.146l-42.821,46.93l1.618,-0.165Zm-2.783,-24.835c7.771,-8.515 17.478,-19.153 17.478,-19.153l-0.375,0.038l-1.248,0.131l-15.573,17.066l-0.282,1.918Zm-1.223,8.313l25.734,-28.204l-0.365,0.038l-1.258,0.132l-23.828,26.116l-0.283,1.918Zm-2.446,16.623l42.245,-46.298l-0.218,0.022l-1.405,0.147l-40.34,44.212l-0.282,1.917Zm55.524,-5.084c-0,0 42.98,-47.105 42.98,-47.106l-1.622,0.17l-42.975,47.1l1.617,-0.164Zm40.072,-17.641l-13.649,14.958l1.618,-0.165l11.761,-12.889l0.27,-1.904Zm-50.588,18.71c0,0 42.919,-47.039 42.948,-47.07l-1.623,0.17l-42.942,47.064l1.617,-0.164Zm3.506,-0.357c0,-0 42.957,-47.081 42.958,-47.082l-1.622,0.17l-42.954,47.078l1.618,-0.166Zm3.505,-0.355c-0,-0 42.967,-47.092 42.968,-47.095l-1.62,0.17l-42.966,47.088l1.618,-0.163Zm42.992,-13.872l-9.559,10.476l1.618,-0.163l7.671,-8.408l0.27,-1.905Zm1.755,-12.378l-21.829,23.922l1.619,-0.163l19.939,-21.856l0.271,-1.903Zm-2.34,16.505l-5.468,5.994l1.617,-0.164l3.581,-3.925l0.27,-1.905Zm3.238,-22.854l0.269,-1.905l-30.007,32.888l1.619,-0.164l28.119,-30.819Zm-4.019,28.372l-1.182,0.12l1.379,-1.512l-0.197,1.392Z"/>
	<g>
		<path fill="#000" fill-opacity="0.43" d="M73.624,39.319l-47.422,4.965l0.426,3.387c0.363,2.786 0.973,4.512 0.999,4.585l0.061,0.146c1.312,2.672 3.754,3.371 5.523,3.371c0.452,-0 0.86,-0.046 1.195,-0.115l2.06,-0.28c2.093,-0.232 3.595,-0.973 4.466,-2.2c3.484,0.296 7.073,0.399 10.373,0.399c7.38,0 13.315,-0.511 13.404,-0.518l0.133,-0.019c5.59,-1.039 6.809,-5.307 6.677,-8.062c1.131,-0.873 1.84,-1.959 2.111,-3.238c0.182,-0.856 0.141,-1.684 -0.006,-2.421Z"/>
		<path fill="#fff" d="M72.137,29.039c0.693,-2.204 0.609,-4.155 -0.254,-5.807c-1.41,-2.699 -4.386,-3.462 -4.5,-3.49c-4.001,-1.029 -7.774,-0.634 -10.211,-0.132c2.258,-6.293 2.407,-11.083 0.442,-14.253c-1.891,-3.048 -5.015,-3.351 -5.148,-3.363l-0.096,-0.005c-4.383,-0.06 -5.949,3.043 -6.165,4.697l-0.011,0.125c-0.242,6.074 -0.91,7.946 -1.121,8.396l-0.046,0.027l-0.186,0.293c-3.258,5.154 -5.018,10.957 -5.101,11.232c-0.436,1.582 -1.518,2.223 -2.237,2.48c-0.153,-0.147 -0.314,-0.286 -0.491,-0.407c-1.214,-0.83 -2.509,-0.7 -2.86,-0.644l-4.287,0.501c-1.997,0.136 -3.498,0.811 -4.464,2.007c-1.128,1.399 -1.089,3 -1.042,3.514c-0.045,1.736 0.214,3.507 0.249,3.737l1.101,8.755c0.363,2.786 0.973,4.512 0.999,4.584l0.061,0.147c1.313,2.672 3.754,3.371 5.524,3.371c0.452,-0 0.859,-0.046 1.194,-0.116l2.061,-0.279c2.092,-0.233 3.594,-0.973 4.466,-2.2c3.483,0.296 7.072,0.399 10.372,0.399c7.38,0 13.316,-0.511 13.405,-0.518l0.132,-0.019c5.59,-1.039 6.81,-5.307 6.677,-8.062c1.132,-0.873 1.84,-1.959 2.112,-3.238c0.363,-1.708 -0.164,-3.302 -0.639,-4.298c2.2,-2.632 1.231,-5.671 0.064,-7.434"/>
		<path fill="url(#_Linear3)" d="M46.204,6.685l-0.01,0.125c-0.244,6.075 -0.909,7.947 -1.121,8.397l-0.046,0.026l-0.185,0.294c-3.259,5.153 -5.019,10.957 -5.102,11.232c-0.436,1.581 -1.518,2.224 -2.237,2.479c-0.153,-0.146 -0.315,-0.285 -0.491,-0.405c-1.214,-0.831 -2.509,-0.7 -2.859,-0.645l-4.289,0.501c-1.996,0.136 -3.498,0.811 -4.463,2.007c-1.129,1.4 -1.088,3 -1.041,3.515c-0.046,1.735 0.213,3.506 0.247,3.735l1.102,8.755c0.363,2.787 0.973,4.513 0.999,4.586l0.061,0.146c1.313,2.672 3.754,3.371 5.525,3.371c0.451,-0 0.859,-0.046 1.194,-0.116l2.06,-0.28c2.091,-0.232 3.593,-0.971 4.466,-2.199c3.483,0.295 7.072,0.399 10.372,0.399c7.38,0 13.317,-0.51 13.406,-0.519l0.131,-0.018c5.59,-1.039 6.81,-5.307 6.677,-8.062c1.131,-0.873 1.84,-1.959 2.113,-3.238c0.363,-1.707 -0.165,-3.302 -0.639,-4.298c2.199,-2.632 1.23,-5.671 0.063,-7.434c0.693,-2.204 0.607,-4.155 -0.256,-5.807c-1.408,-2.699 -4.383,-3.462 -4.498,-3.491c-4.001,-1.027 -7.774,-0.634 -10.212,-0.131c2.258,-6.293 2.408,-11.083 0.443,-14.253c-1.891,-3.048 -5.014,-3.352 -5.148,-3.363l-0.224,-0.006c-4.285,-0 -5.823,3.059 -6.038,4.697Zm-5.438,42.791c-0.011,-0.16 -0.029,-0.288 -0.045,-0.374l-1.794,-16.895l-0.101,-0.505c1.279,-0.548 2.914,-1.713 3.592,-4.173c0.017,-0.055 1.68,-5.539 4.666,-10.331c0.612,-0.64 1.584,-2.653 1.891,-10.198c0.061,-0.333 0.524,-2.226 3.255,-2.226l0.027,0c0.296,0.045 1.965,0.36 3.016,2.098c1.088,1.797 1.76,5.523 -1.209,13.084l-1.561,4.106l2.891,-1.087c0.055,-0.02 5.497,-2.023 11.299,-0.534c0.019,0.005 1.916,0.517 2.729,2.101c0.562,1.092 0.513,2.518 -0.146,4.236l-0.287,0.77l0.523,0.627c0.399,0.479 2.273,2.975 -0.079,5.018l-0.935,0.821l0.703,1.025c0.011,0.016 1.114,1.645 0.783,3.166c-0.167,0.762 -0.681,1.392 -1.574,1.928l-0.813,0.497l0.156,0.937c0.083,0.49 0.657,4.797 -4.273,5.752c-0.674,0.056 -6.256,0.502 -13.087,0.502c-3.068,-0 -6.387,-0.09 -9.627,-0.345Zm-6.172,-18.536c0.463,-0.072 1.279,0.046 1.567,1.612l1.795,16.903l0.031,0.174c-0,0.005 0.078,0.512 -0.238,0.961c-0.386,0.547 -1.253,0.91 -2.541,1.052l-2.149,0.291l-0.109,0.02c-0.26,0.054 -2.537,0.459 -3.641,-1.674c-0.109,-0.331 -0.554,-1.774 -0.836,-3.932l-1.102,-8.767l-0.006,-0.04c-0.003,-0.018 -0.269,-1.757 -0.217,-3.339l0.005,-0.127l-0.02,-0.125c-0.001,-0.009 -0.088,-0.852 0.437,-1.502c0.461,-0.572 1.306,-0.901 2.512,-0.98l4.429,-0.515l-0.002,0.008l0.085,-0.02Z"/>
		<path fill="url(#_Linear4)" d="M77.605,17.738l8.275,-4.114l-2.844,-3.822l-5.431,7.936Z"/>
		<path fill="url(#_Linear5)" d="M74.317,17.657l3.18,-4.59l-2.617,-1.195l-0.563,5.785Z"/>
		<path fill="url(#_Linear6)" d="M79.107,21.364l3.838,0.819l-0.191,-2.013l-3.647,1.194Z"/>
		<path fill="url(#_Linear7)" d="M32.561,18.495l2.253,1.347l-1.258,-2.185l-0.995,0.838Z"/>
		<path fill="url(#_Linear8)" d="M27.24,24.235l5.734,-0.949l-5.255,-1.889l-0.479,2.838Z"/>
		<path fill="url(#_Linear9)" d="M34.407,10.341l2.419,6.095l0.996,-6.634l-3.415,0.539Z"/>
	</g>
	<g>
		<path fill="#000" fill-opacity="0.5" d="M12.393,63.399c0.85,-0.056 1.536,0.207 2.057,0.789c0.521,0.582 0.726,1.322 0.614,2.221l-0.79,6.337c-0.114,0.91 -0.522,1.721 -1.225,2.433c-0.703,0.712 -1.498,1.113 -2.384,1.203l-1.06,0.109l-0.264,2.117l-2.136,0.218l1.881,-15.089l3.307,-0.338Zm4.147,2.565c0.114,-0.92 0.523,-1.736 1.226,-2.448c0.703,-0.712 1.498,-1.113 2.384,-1.204c0.886,-0.09 1.6,0.157 2.141,0.742c0.542,0.584 0.755,1.337 0.641,2.257l-1.504,12.062l-2.136,0.218l0.264,-2.117l-2.12,0.216l-0.264,2.118l-2.136,0.218l1.504,-12.062Zm8.652,-3.873l2.136,-0.218l-1.617,12.972l3.196,-0.327l-0.264,2.118l-5.332,0.544l1.881,-15.089Zm6.803,-0.695l2.136,-0.218l-1.881,15.089l-2.136,0.218l1.881,-15.089Zm4.072,-0.71l3.53,5.384l0.689,-5.521l2.135,-0.218l-1.88,15.089l-2.136,0.218l0.745,-5.976l-1.757,-2.701l-1.108,8.894l-2.136,0.218l1.918,-15.387Zm10.382,7.564l0.11,-0.011c0.443,-0.045 0.833,-0.016 1.168,0.089c0.336,0.106 0.611,0.258 0.826,0.458c0.215,0.2 0.408,0.405 0.579,0.614c0.172,0.21 0.363,0.412 0.573,0.608c0.21,0.195 0.43,0.328 0.661,0.397l-0.236,1.898c-0.383,-0.023 -0.722,-0.102 -1.017,-0.237c-0.215,0.807 -0.657,1.51 -1.325,2.11c-0.669,0.6 -1.399,0.94 -2.19,1.021c-0.886,0.091 -1.599,-0.157 -2.141,-0.741c-0.541,-0.585 -0.755,-1.337 -0.64,-2.258l1.126,-9.034c0.114,-0.92 0.523,-1.737 1.227,-2.448c0.703,-0.712 1.497,-1.114 2.383,-1.204c0.886,-0.091 1.6,0.156 2.142,0.741c0.541,0.585 0.754,1.337 0.64,2.258l-0.149,1.192l-2.136,0.218l0.149,-1.192c0.042,-0.335 -0.026,-0.609 -0.202,-0.824c-0.176,-0.214 -0.412,-0.306 -0.708,-0.276c-0.295,0.031 -0.56,0.174 -0.795,0.43c-0.235,0.256 -0.374,0.552 -0.415,0.886l-1.126,9.035c-0.042,0.335 0.025,0.609 0.202,0.823c0.176,0.215 0.412,0.307 0.707,0.277c0.296,-0.031 0.561,-0.174 0.796,-0.43c0.235,-0.257 0.373,-0.552 0.415,-0.887l0.18,-1.443c-0.254,-0.221 -0.56,-0.314 -0.918,-0.277c-0.032,0.003 -0.069,0.007 -0.111,0.011l0.225,-1.804Zm-35.491,-2.613l-1.091,8.752l1.06,-0.108c0.296,-0.031 0.561,-0.177 0.797,-0.438c0.235,-0.262 0.373,-0.554 0.414,-0.879l0.79,-6.336c0.041,-0.335 -0.026,-0.609 -0.202,-0.824c-0.177,-0.214 -0.413,-0.306 -0.708,-0.276l-1.06,0.109Zm46.621,-6.855l2.136,-0.219l-1.617,12.972l3.196,-0.327l-0.264,2.118l-5.332,0.545l1.881,-15.089Zm-37.761,14.59l0.978,-7.843c0.041,-0.334 -0.026,-0.609 -0.202,-0.823c-0.177,-0.214 -0.413,-0.306 -0.708,-0.276c-0.295,0.03 -0.56,0.173 -0.795,0.43c-0.235,0.256 -0.374,0.551 -0.416,0.886l-0.977,7.843l2.12,-0.217Zm44.187,-12.259c0.115,-0.92 0.523,-1.736 1.227,-2.448c0.703,-0.712 1.497,-1.113 2.383,-1.203c0.886,-0.091 1.6,0.156 2.142,0.741c0.541,0.585 0.754,1.337 0.64,2.257l-1.503,12.062l-2.136,0.218l0.263,-2.117l-2.12,0.217l-0.264,2.117l-2.135,0.218l1.503,-12.062Zm11.959,-4.21c0.85,-0.056 1.536,0.207 2.057,0.788c0.521,0.582 0.726,1.322 0.613,2.222l-0.789,6.336c-0.118,0.941 -0.55,1.775 -1.296,2.502l0.619,2.925l-2.246,0.23l-0.415,-2.064c-0.086,0.019 -0.171,0.033 -0.255,0.042l-1.076,0.11l-0.264,2.117l-2.136,0.219l1.881,-15.089l3.307,-0.338Zm4.983,-0.51l2.136,-0.218l-1.88,15.089l-2.136,0.218l1.88,-15.089Zm6.555,4.688c0.886,-0.09 1.599,0.157 2.141,0.742c0.541,0.584 0.755,1.337 0.64,2.257l-0.412,3.31c-0.115,0.92 -0.524,1.736 -1.227,2.448c-0.703,0.712 -1.498,1.113 -2.384,1.203c-0.886,0.091 -1.599,-0.156 -2.141,-0.741c-0.542,-0.584 -0.755,-1.337 -0.64,-2.257l0.148,-1.192l2.136,-0.219l-0.148,1.193c-0.042,0.334 0.025,0.609 0.202,0.823c0.176,0.214 0.412,0.306 0.707,0.276c0.296,-0.03 0.561,-0.173 0.796,-0.43c0.235,-0.256 0.373,-0.551 0.415,-0.886l0.412,-3.31c0.042,-0.334 -0.025,-0.609 -0.202,-0.823c-0.176,-0.214 -0.412,-0.306 -0.707,-0.276c-0.886,0.09 -1.6,-0.157 -2.142,-0.741c-0.541,-0.585 -0.754,-1.338 -0.64,-2.258l0.149,-1.192c0.114,-0.92 0.523,-1.736 1.226,-2.448c0.704,-0.712 1.498,-1.113 2.384,-1.204c0.886,-0.09 1.6,0.157 2.141,0.742c0.542,0.584 0.755,1.337 0.641,2.257l-0.149,1.192l-2.136,0.218l0.149,-1.192c0.042,-0.334 -0.026,-0.609 -0.202,-0.823c-0.177,-0.214 -0.412,-0.306 -0.708,-0.276c-0.295,0.03 -0.56,0.173 -0.795,0.43c-0.235,0.256 -0.374,0.551 -0.415,0.886l-0.149,1.192c-0.042,0.335 0.026,0.609 0.202,0.823c0.176,0.215 0.412,0.307 0.708,0.276Zm-20.219,7.44l0.978,-7.842c0.042,-0.335 -0.026,-0.61 -0.202,-0.824c-0.176,-0.214 -0.412,-0.306 -0.708,-0.276c-0.295,0.03 -0.56,0.174 -0.795,0.43c-0.235,0.256 -0.374,0.552 -0.415,0.886l-0.978,7.843l2.12,-0.217Zm7.246,-9.381l-1.091,8.752l1.06,-0.108c0.296,-0.03 0.561,-0.176 0.797,-0.438c0.235,-0.261 0.373,-0.554 0.414,-0.878l0.79,-6.337c0.041,-0.335 -0.026,-0.609 -0.202,-0.823c-0.177,-0.215 -0.413,-0.307 -0.708,-0.277l-1.06,0.109Z"/>
		<path fill="#fff" d="M11.8,62.467c0.851,-0.056 1.536,0.207 2.057,0.788c0.521,0.582 0.726,1.322 0.614,2.222l-0.79,6.336c-0.113,0.91 -0.521,1.721 -1.225,2.433c-0.703,0.712 -1.497,1.113 -2.383,1.204l-1.06,0.108l-0.264,2.117l-2.136,0.219l1.88,-15.089l3.307,-0.338Zm4.147,2.565c0.115,-0.921 0.524,-1.737 1.227,-2.449c0.703,-0.712 1.497,-1.113 2.383,-1.203c0.886,-0.091 1.6,0.156 2.142,0.741c0.541,0.585 0.755,1.337 0.64,2.257l-1.503,12.062l-2.136,0.218l0.264,-2.117l-2.121,0.217l-0.263,2.117l-2.136,0.218l1.503,-12.061Zm8.652,-3.873l2.136,-0.219l-1.617,12.972l3.196,-0.327l-0.264,2.118l-5.332,0.545l1.881,-15.089Zm6.803,-0.696l2.136,-0.218l-1.88,15.089l-2.136,0.218l1.88,-15.089Zm4.072,-0.71l3.531,5.384l0.688,-5.521l2.136,-0.218l-1.881,15.089l-2.136,0.218l0.745,-5.976l-1.756,-2.701l-1.109,8.894l-2.136,0.218l1.918,-15.387Zm10.382,7.564l0.111,-0.011c0.443,-0.045 0.832,-0.015 1.168,0.09c0.336,0.105 0.611,0.257 0.825,0.457c0.215,0.2 0.408,0.405 0.58,0.615c0.172,0.209 0.362,0.412 0.572,0.607c0.21,0.195 0.431,0.328 0.662,0.397l-0.237,1.898c-0.382,-0.023 -0.721,-0.102 -1.017,-0.237c-0.215,0.807 -0.657,1.51 -1.325,2.11c-0.668,0.6 -1.398,0.94 -2.189,1.021c-0.886,0.091 -1.6,-0.156 -2.142,-0.741c-0.541,-0.585 -0.754,-1.337 -0.64,-2.257l1.126,-9.035c0.115,-0.92 0.524,-1.736 1.227,-2.448c0.703,-0.712 1.498,-1.113 2.384,-1.204c0.886,-0.09 1.599,0.157 2.141,0.741c0.541,0.585 0.755,1.338 0.64,2.258l-0.148,1.192l-2.136,0.218l0.148,-1.192c0.042,-0.335 -0.025,-0.609 -0.202,-0.823c-0.176,-0.215 -0.412,-0.307 -0.707,-0.276c-0.296,0.03 -0.561,0.173 -0.796,0.429c-0.235,0.257 -0.373,0.552 -0.415,0.887l-1.126,9.034c-0.042,0.335 0.026,0.609 0.202,0.824c0.176,0.214 0.412,0.306 0.708,0.276c0.295,-0.03 0.56,-0.174 0.795,-0.43c0.235,-0.256 0.374,-0.552 0.415,-0.886l0.18,-1.443c-0.253,-0.222 -0.559,-0.315 -0.918,-0.278c-0.032,0.003 -0.069,0.007 -0.111,0.011l0.225,-1.804Zm-35.491,-2.613l-1.09,8.752l1.06,-0.108c0.295,-0.03 0.56,-0.176 0.796,-0.438c0.236,-0.261 0.374,-0.554 0.414,-0.878l0.79,-6.337c0.042,-0.335 -0.026,-0.609 -0.202,-0.823c-0.176,-0.215 -0.412,-0.307 -0.708,-0.277l-1.06,0.109Zm46.621,-6.855l2.136,-0.219l-1.617,12.972l3.196,-0.327l-0.263,2.118l-5.332,0.545l1.88,-15.089Zm-37.76,14.59l0.977,-7.842c0.042,-0.335 -0.026,-0.609 -0.202,-0.824c-0.176,-0.214 -0.412,-0.306 -0.708,-0.276c-0.295,0.03 -0.56,0.174 -0.795,0.43c-0.235,0.256 -0.373,0.552 -0.415,0.886l-0.978,7.843l2.121,-0.217Zm44.186,-12.258c0.115,-0.92 0.524,-1.737 1.227,-2.448c0.703,-0.712 1.498,-1.114 2.384,-1.204c0.886,-0.091 1.599,0.156 2.141,0.741c0.541,0.585 0.755,1.337 0.64,2.257l-1.503,12.062l-2.136,0.219l0.264,-2.118l-2.12,0.217l-0.264,2.117l-2.136,0.219l1.503,-12.062Zm11.959,-4.211c0.851,-0.056 1.536,0.207 2.057,0.788c0.521,0.582 0.726,1.323 0.614,2.222l-0.79,6.337c-0.117,0.941 -0.549,1.775 -1.296,2.501l0.62,2.926l-2.247,0.229l-0.414,-2.063c-0.086,0.019 -0.171,0.033 -0.256,0.041l-1.075,0.11l-0.264,2.118l-2.136,0.218l1.88,-15.089l3.307,-0.338Zm4.984,-0.509l2.136,-0.219l-1.881,15.089l-2.136,0.219l1.881,-15.089Zm6.554,4.688c0.886,-0.091 1.6,0.156 2.141,0.741c0.542,0.585 0.755,1.337 0.641,2.257l-0.413,3.31c-0.115,0.92 -0.523,1.736 -1.227,2.448c-0.703,0.712 -1.497,1.113 -2.383,1.204c-0.886,0.09 -1.6,-0.157 -2.142,-0.742c-0.541,-0.584 -0.755,-1.337 -0.64,-2.257l0.149,-1.192l2.136,-0.218l-0.149,1.192c-0.042,0.334 0.026,0.609 0.202,0.823c0.176,0.214 0.412,0.306 0.708,0.276c0.295,-0.03 0.56,-0.173 0.795,-0.43c0.235,-0.256 0.374,-0.551 0.415,-0.886l0.413,-3.309c0.041,-0.335 -0.026,-0.609 -0.202,-0.824c-0.177,-0.214 -0.413,-0.306 -0.708,-0.276c-0.886,0.091 -1.6,-0.156 -2.141,-0.741c-0.542,-0.585 -0.755,-1.337 -0.64,-2.257l0.148,-1.193c0.115,-0.92 0.524,-1.736 1.227,-2.448c0.703,-0.712 1.498,-1.113 2.384,-1.203c0.886,-0.091 1.599,0.156 2.141,0.741c0.541,0.585 0.755,1.337 0.64,2.257l-0.148,1.192l-2.136,0.219l0.148,-1.193c0.042,-0.334 -0.025,-0.609 -0.202,-0.823c-0.176,-0.214 -0.412,-0.306 -0.707,-0.276c-0.296,0.03 -0.561,0.173 -0.796,0.43c-0.235,0.256 -0.373,0.552 -0.415,0.886l-0.148,1.192c-0.042,0.335 0.025,0.609 0.202,0.824c0.176,0.214 0.412,0.306 0.707,0.276Zm-20.218,7.439l0.977,-7.842c0.042,-0.335 -0.025,-0.609 -0.202,-0.824c-0.176,-0.214 -0.412,-0.306 -0.707,-0.276c-0.296,0.031 -0.561,0.174 -0.796,0.43c-0.235,0.256 -0.373,0.552 -0.415,0.886l-0.977,7.843l2.12,-0.217Zm7.245,-9.381l-1.09,8.752l1.06,-0.108c0.295,-0.03 0.56,-0.176 0.796,-0.438c0.236,-0.261 0.374,-0.554 0.414,-0.878l0.79,-6.337c0.042,-0.335 -0.026,-0.609 -0.202,-0.823c-0.176,-0.214 -0.412,-0.307 -0.708,-0.276l-1.06,0.108Z"/>
	</g>
	<defs>
		<linearGradient id="_Linear1" x1="0" y1="0" x2="1" y2="0" gradientUnits="userSpaceOnUse" gradientTransform="matrix(0,13.1063,-13.1063,0,10.7878,84.9062)">
			<stop offset="0" style="stop-color:#c93100;stop-opacity:1"/>
			<stop offset="0.5" style="stop-color:#f15a24;stop-opacity:1"/>
			<stop offset="1" style="stop-color:#f7931e;stop-opacity:1"/>
		</linearGradient>
		<linearGradient id="_Linear2" x1="0" y1="0" x2="1" y2="0" gradientUnits="userSpaceOnUse" gradientTransform="matrix(76.3801,-76.3801,-76.3801,-76.3801,11.8644,98.9624)">
			<stop offset="0" style="stop-color:#f7931e;stop-opacity:1"/>
			<stop offset="1" style="stop-color:#ff6b11;stop-opacity:1"/>
		</linearGradient>
		<linearGradient id="_Linear3" x1="0" y1="0" x2="1" y2="0" gradientUnits="userSpaceOnUse" gradientTransform="matrix(25.3866,43.971,-43.971,25.3866,34.2605,11.2479)">
			<stop offset="0" style="stop-color:#f7931e;stop-opacity:1"/>
			<stop offset="0.04" style="stop-color:#f7931e;stop-opacity:1"/>
			<stop offset="1" style="stop-color:#f15a24;stop-opacity:1"/>
		</linearGradient>
		<linearGradient id="_Linear4" x1="0" y1="0" x2="1" y2="0" gradientUnits="userSpaceOnUse" gradientTransform="matrix(2.36537,4.09694,-4.09694,2.36537,79.5205,11.8324)">
			<stop offset="0" style="stop-color:#f7931e;stop-opacity:1"/>
			<stop offset="0.04" style="stop-color:#f7931e;stop-opacity:1"/>
			<stop offset="1" style="stop-color:#f15a24;stop-opacity:1"/>
		</linearGradient>
		<linearGradient id="_Linear5" x1="0" y1="0" x2="1" y2="0" gradientUnits="userSpaceOnUse" gradientTransform="matrix(2.36432,4.09511,-4.09511,2.36432,74.1393,12.2988)">
			<stop offset="0" style="stop-color:#f7931e;stop-opacity:1"/>
			<stop offset="0.04" style="stop-color:#f7931e;stop-opacity:1"/>
			<stop offset="1" style="stop-color:#f15a24;stop-opacity:1"/>
		</linearGradient>
		<linearGradient id="_Linear6" x1="0" y1="0" x2="1" y2="0" gradientUnits="userSpaceOnUse" gradientTransform="matrix(1.31463,2.277,-2.277,1.31463,80.733,20.4246)">
			<stop offset="0" style="stop-color:#f7931e;stop-opacity:1"/>
			<stop offset="0.04" style="stop-color:#f7931e;stop-opacity:1"/>
			<stop offset="1" style="stop-color:#f15a24;stop-opacity:1"/>
		</linearGradient>
		<linearGradient id="_Linear7" x1="0" y1="0" x2="1" y2="0" gradientUnits="userSpaceOnUse" gradientTransform="matrix(1.26119,2.18444,-2.18444,1.26119,33.0007,17.9765)">
			<stop offset="0" style="stop-color:#f7931e;stop-opacity:1"/>
			<stop offset="0.04" style="stop-color:#f7931e;stop-opacity:1"/>
			<stop offset="1" style="stop-color:#f15a24;stop-opacity:1"/>
		</linearGradient>
		<linearGradient id="_Linear8" x1="0" y1="0" x2="1" y2="0" gradientUnits="userSpaceOnUse" gradientTransform="matrix(2.13215,3.693,-3.693,2.13215,28.4865,20.9538)">
			<stop offset="0" style="stop-color:#f7931e;stop-opacity:1"/>
			<stop offset="0.04" style="stop-color:#f7931e;stop-opacity:1"/>
			<stop offset="1" style="stop-color:#f15a24;stop-opacity:1"/>
		</linearGradient>
		<linearGradient id="_Linear9" x1="0" y1="0" x2="1" y2="0" gradientUnits="userSpaceOnUse" gradientTransform="matrix(3.24377,5.61838,-5.61838,3.24377,35.3918,9.77301)">
			<stop offset="0" style="stop-color:#f7931e;stop-opacity:1"/>
			<stop offset="0.04" style="stop-color:#f7931e;stop-opacity:1"/>
			<stop offset="1" style="stop-color:#f15a24;stop-opacity:1"/>
		</linearGradient>
	</defs>
</svg>