<svg xmlns="http://www.w3.org/2000/svg" viewBox="0 0 200 18">
	<title>MauMantenan</title>
	<path fill="url(#_Linear1)" d="M6.44,0.26c0.274,-0 0.576,0.164 0.74,0.383c0.192,0.247 0.302,0.548 0.384,0.932c0.466,1.836 0.055,5.015 -0.165,8.002c-0.109,1.507 -0.192,2.932 -0.137,4.056c0.055,0.932 0.247,1.617 0.439,1.891c0.082,-0.082 0.219,-0.192 0.356,-0.356c0.356,-0.439 0.85,-1.234 1.37,-2.138c1.069,-1.836 2.33,-4.33 3.535,-6.604c1.206,-2.275 2.302,-4.33 3.125,-5.372c0.219,-0.274 0.383,-0.493 0.603,-0.63c0.109,-0.082 0.274,-0.137 0.438,-0.137c0.164,-0 0.384,0.027 0.521,0.164c0.274,0.247 0.301,0.548 0.329,0.877c0.027,0.329 -0,0.74 -0.055,1.288c-0.822,8.331 -1.946,14.936 -1.946,14.936c-0.027,0.219 -0.247,0.411 -0.466,0.411c-0.274,-0 -0.493,-0.192 -0.493,-0.466l-0,-0.11c-0,0 1.151,-6.577 1.946,-14.853c0.054,-0.466 0.027,-0.822 0.027,-1.069c-0.055,0.055 -0.082,0.11 -0.137,0.192c-0.713,0.877 -1.864,2.96 -3.042,5.234c-1.178,2.275 -2.439,4.769 -3.535,6.632c-0.548,0.932 -1.042,1.7 -1.48,2.248c-0.219,0.274 -0.411,0.493 -0.658,0.63c-0.109,0.082 -0.246,0.137 -0.411,0.164c-0.164,0.028 -0.384,-0.054 -0.521,-0.164c-0.712,-0.548 -0.849,-1.535 -0.904,-2.741c-0.055,-1.205 0.028,-2.63 0.137,-4.138c0.219,-3.014 0.521,-6.303 0.165,-7.7l-0,-0.028c-0.055,-0.246 -0.137,-0.438 -0.192,-0.521c-0.028,0.028 -0.055,0.055 -0.082,0.11c-0.11,0.137 -0.275,0.356 -0.439,0.63c-0.63,1.151 -1.425,3.289 -2.165,5.591c-1.48,4.631 -2.768,10.003 -2.768,10.003c-0.055,0.219 -0.246,0.356 -0.466,0.356c-0.274,0 -0.493,-0.192 -0.493,-0.466c-0,-0.027 0.027,-0.11 0.027,-0.137c0,0 1.288,-5.344 2.768,-10.03c0.74,-2.329 1.535,-4.522 2.247,-5.81c0.192,-0.329 0.357,-0.575 0.549,-0.795c0.191,-0.219 0.411,-0.411 0.74,-0.465l0.109,-0Zm108.056,12.208c0.009,-1.911 0.331,-3.953 0.851,-5.823c-1.151,0.082 -2.302,0.164 -3.426,0.219l-0.027,0c-0.274,0 -0.494,-0.219 -0.494,-0.493c0,-0.274 0.192,-0.494 0.466,-0.494c1.233,-0.054 2.522,-0.137 3.782,-0.246c0.028,-0.082 0.055,-0.192 0.082,-0.274c0.466,-1.425 1.042,-2.658 1.645,-3.59c0.603,-0.932 1.26,-1.59 2.137,-1.59c0.247,0 0.493,0.165 0.603,0.357c0.11,0.191 0.11,0.356 0.11,0.548c-0,0.356 -0.082,0.767 -0.22,1.288c-0.219,0.849 -0.602,1.918 -1.041,3.069c0.384,0 0.74,-0.027 1.124,-0.027c1.589,-0 3.124,0.109 4.467,0.493c0.192,0.055 0.356,0.247 0.356,0.466c-0,0.274 -0.219,0.493 -0.493,0.493c-0.028,0 -0.11,-0.027 -0.137,-0.027c-1.59,-0.439 -3.563,-0.466 -5.701,-0.384c-1.068,2.603 -2.356,5.289 -3.096,6.55c-0,0.466 0.055,0.931 0.109,1.343c0.137,0.986 0.631,1.397 1.508,1.616c0.877,0.22 2.165,0.083 3.535,-0.246c2.74,-0.658 5.892,-2.165 7.426,-3.179c0.037,-0.036 0.108,-0.061 0.176,-0.074c0.395,-0.3 0.883,-0.575 1.441,-0.803c0.439,-0.165 0.823,-0.247 1.179,-0.247l0.164,0c0.411,0.028 0.74,0.137 1.014,0.357c0.548,0.411 0.713,1.123 0.521,1.726c-0.192,0.603 -0.795,1.096 -1.59,1.124c-0.712,0.027 -1.534,-0.274 -2.521,-1.014c-0.356,0.411 -0.493,0.794 -0.466,1.123c0.028,0.302 0.192,0.576 0.576,0.822c0.383,0.247 0.986,0.411 1.836,0.411l0.027,0c0,0 9.071,0 14.963,-3.425c0.055,-0.028 0.165,-0.082 0.247,-0.082c0.015,-0 0.029,-0 0.042,0.001c0.014,-0.001 0.026,-0.001 0.04,-0.001c0.274,-0 0.493,0.219 0.493,0.493c0,0.027 -0.027,0.11 -0.027,0.137c0,-0 -0.192,0.767 -0.274,1.562c-0.027,0.411 -0.055,0.822 -0,1.096c0.055,0.247 0.11,0.329 0.192,0.356c-0,0 0.027,0.028 0.055,0c0.082,-0.054 0.219,-0.164 0.356,-0.356c0.301,-0.356 0.603,-0.959 0.959,-1.534c0.356,-0.576 0.713,-1.151 1.124,-1.617c0.191,-0.22 0.411,-0.439 0.657,-0.576c0.165,-0.082 0.357,-0.137 0.548,-0.137l0.055,0c0.11,0 0.192,0.028 0.302,0.055c0.548,0.164 0.822,0.685 0.959,1.151c0.137,0.466 0.192,0.959 0.301,1.398c0.11,0.438 0.302,0.822 0.576,1.068c0.274,0.247 0.712,0.466 1.507,0.466c4.686,0 9.701,-3.453 9.701,-3.453c0.053,-0.035 0.116,-0.069 0.176,-0.091c1.021,-0.951 2.207,-0.97 3.058,-0.703c0.466,0.137 0.822,0.356 1.069,0.52c0.247,-0.438 0.438,-0.795 0.493,-0.932c0.055,-0.164 0.274,-0.301 0.466,-0.301c0.274,-0 0.493,0.219 0.493,0.493c-0.082,2.028 0.439,3.124 1.261,3.727c0.822,0.603 2.001,0.795 3.398,0.603c2.795,-0.356 6.166,-2.11 7.783,-3.316c0.082,-0.055 0.219,-0.109 0.302,-0.109l0.054,-0c0.274,-0 0.494,0.219 0.494,0.493c-0,0.027 -0.028,0.11 -0.028,0.137c0,-0 -0.192,0.767 -0.274,1.562c-0.027,0.411 -0.055,0.822 0,1.096c0.055,0.247 0.11,0.329 0.192,0.356c0,0 0.027,0.028 0.055,0c0.082,-0.054 0.219,-0.164 0.356,-0.356c0.302,-0.356 0.603,-0.959 0.959,-1.534c0.357,-0.576 0.713,-1.151 1.124,-1.617c0.192,-0.22 0.411,-0.439 0.658,-0.576c0.164,-0.082 0.356,-0.137 0.548,-0.137l0.055,0c0.109,0 0.191,0.028 0.301,0.055c0.548,0.164 0.822,0.685 0.959,1.151c0.137,0.466 0.192,0.959 0.302,1.398c0.109,0.438 0.301,0.822 0.575,1.068c0.274,0.247 0.713,0.466 1.507,0.466c4.687,0 9.702,-3.453 9.702,-3.453c0.082,-0.055 0.191,-0.109 0.274,-0.109c0.274,-0 0.493,0.219 0.493,0.493c0,0.137 -0.11,0.329 -0.219,0.411c-0,-0 -5.098,3.617 -10.25,3.617c-0.959,0 -1.671,-0.274 -2.165,-0.712c-0.493,-0.439 -0.712,-1.014 -0.849,-1.535c-0.137,-0.52 -0.192,-1.014 -0.302,-1.37c-0.109,-0.356 -0.164,-0.466 -0.301,-0.521c-0.027,0 -0.055,0 -0.164,0.055c-0.11,0.055 -0.22,0.165 -0.384,0.329c-0.302,0.356 -0.658,0.932 -1.014,1.507c-0.356,0.576 -0.685,1.151 -1.042,1.617c-0.191,0.219 -0.383,0.439 -0.602,0.576c-0.22,0.137 -0.576,0.219 -0.877,0.109c-0.494,-0.192 -0.74,-0.657 -0.823,-1.096c-0.082,-0.438 -0.109,-0.904 -0.054,-1.37c0.018,-0.204 0.045,-0.405 0.076,-0.594c-1.884,1.195 -4.692,2.521 -7.284,2.868c-1.534,0.192 -3.042,0.083 -4.138,-0.767c-0.795,-0.603 -1.315,-1.535 -1.535,-2.823c-0.301,0.494 -0.657,1.014 -1.068,1.535c-0.466,0.603 -0.987,1.151 -1.48,1.59c-0.493,0.438 -1.014,0.794 -1.617,0.767c-0.493,-0.028 -0.904,-0.219 -1.206,-0.548c-0.301,-0.329 -0.466,-0.74 -0.521,-1.206c-0.042,-0.354 -0.015,-0.731 0.086,-1.111c-1.883,1.071 -5.316,2.7 -8.773,2.7c-0.959,0 -1.672,-0.274 -2.165,-0.712c-0.493,-0.439 -0.712,-1.014 -0.849,-1.535c-0.137,-0.52 -0.192,-1.014 -0.302,-1.37c-0.109,-0.356 -0.164,-0.466 -0.301,-0.521c-0.028,0 -0.055,0 -0.165,0.055c-0.109,0.055 -0.219,0.165 -0.383,0.329c-0.302,0.356 -0.658,0.932 -1.014,1.507c-0.357,0.576 -0.686,1.151 -1.042,1.617c-0.192,0.219 -0.383,0.439 -0.603,0.576c-0.219,0.137 -0.575,0.219 -0.877,0.109c-0.493,-0.192 -0.74,-0.657 -0.822,-1.096c-0.082,-0.438 -0.109,-0.904 -0.055,-1.37c0.023,-0.246 0.056,-0.486 0.095,-0.708c-6.2,3.167 -14.619,3.092 -14.619,3.092c-0.987,0 -1.781,-0.219 -2.357,-0.575c-0.575,-0.357 -0.959,-0.96 -1.014,-1.563c-0.02,-0.181 -0.015,-0.365 0.015,-0.546c-1.72,0.905 -4.005,1.882 -6.154,2.41c-1.452,0.356 -2.85,0.493 -4.001,0.219c-1.151,-0.274 -2.055,-1.096 -2.247,-2.411c-0.038,-0.289 -0.063,-0.606 -0.085,-0.92c-1.169,0.765 -5.537,3.413 -9.945,3.413c-0.959,0 -1.672,-0.274 -2.165,-0.712c-0.493,-0.439 -0.712,-1.014 -0.85,-1.535c-0.137,-0.52 -0.191,-1.014 -0.301,-1.37c-0.11,-0.356 -0.164,-0.466 -0.301,-0.521c-0.028,0 -0.055,0 -0.165,0.055c-0.109,0.055 -0.219,0.165 -0.384,0.329c-0.301,0.356 -0.657,0.932 -1.014,1.507c-0.356,0.576 -0.685,1.151 -1.041,1.617c-0.192,0.219 -0.384,0.439 -0.603,0.576c-0.219,0.137 -0.575,0.219 -0.877,0.109c-0.493,-0.192 -0.74,-0.657 -0.822,-1.096c-0.082,-0.438 -0.11,-0.904 -0.055,-1.37c0.019,-0.204 0.045,-0.405 0.076,-0.594c-1.883,1.195 -4.691,2.521 -7.283,2.868c-1.535,0.192 -3.042,0.083 -4.138,-0.767c-0.795,-0.603 -1.316,-1.535 -1.535,-2.823c-0.301,0.494 -0.658,1.014 -1.069,1.535c-0.466,0.603 -0.986,1.151 -1.48,1.59c-0.493,0.438 -1.014,0.794 -1.616,0.767c-0.494,-0.028 -0.905,-0.219 -1.206,-0.548c-0.302,-0.329 -0.466,-0.74 -0.521,-1.206c-0.041,-0.339 -0.017,-0.7 0.074,-1.064c-0.531,0.322 -1.18,0.687 -1.91,1.037c-2.001,0.959 -4.604,1.89 -7.043,1.616c-0.987,-0.109 -1.672,-0.438 -2.138,-0.877c-0.466,-0.438 -0.657,-0.986 -0.74,-1.479c-0.082,-0.494 -0.109,-0.932 -0.137,-1.206c-0.027,-0.11 -0.054,-0.192 -0.054,-0.219c-0.055,-0 -0.192,0.027 -0.439,0.246c-0.274,0.219 -0.575,0.603 -0.904,0.987c-0.329,0.383 -0.685,0.74 -1.069,1.041c-0.384,0.302 -0.904,0.493 -1.425,0.356c-0.466,-0.137 -0.795,-0.493 -0.904,-0.877c-0.11,-0.383 -0.055,-0.712 -0.028,-1.014c0.028,-0.301 0.055,-0.548 0.028,-0.685c-0.028,-0.137 0.027,-0.109 -0.137,-0.164c-0.275,-0.082 -0.412,-0 -0.658,0.301c-0.247,0.302 -0.521,0.823 -0.74,1.343c-0.219,0.521 -0.439,1.069 -0.685,1.507c-0.137,0.22 -0.274,0.412 -0.494,0.576c-0.219,0.164 -0.548,0.247 -0.849,0.137c-0.493,-0.164 -0.74,-0.63 -0.85,-1.069c-0.109,-0.438 -0.137,-0.904 -0.109,-1.343c0.011,-0.194 0.03,-0.383 0.051,-0.56c-3.134,2.037 -6.292,3.094 -8.766,2.945c-1.37,-0.083 -2.549,-0.548 -3.343,-1.48c-0.439,-0.521 -0.74,-1.179 -0.905,-1.919c-0.137,0.22 -0.246,0.466 -0.383,0.713c-0.384,0.63 -0.85,1.261 -1.398,1.754c-0.548,0.493 -1.178,0.849 -1.918,0.795c-0.658,-0.055 -1.179,-0.384 -1.48,-0.823c-0.302,-0.438 -0.384,-0.931 -0.411,-1.397c-0.007,-0.227 0.005,-0.446 0.025,-0.649c-1.883,1.209 -4.738,2.571 -7.37,2.923c-1.534,0.192 -3.042,0.083 -4.138,-0.767c-0.795,-0.603 -1.315,-1.535 -1.535,-2.823c-0.301,0.494 -0.657,1.014 -1.068,1.535c-0.466,0.603 -0.987,1.151 -1.48,1.59c-0.493,0.438 -1.014,0.794 -1.617,0.767c-0.493,-0.028 -0.904,-0.219 -1.206,-0.548c-0.301,-0.329 -0.466,-0.74 -0.521,-1.206c-0.109,-0.904 0.247,-1.973 1.097,-2.823c1.041,-1.041 2.274,-1.069 3.151,-0.794c0.466,0.137 0.822,0.356 1.069,0.52c0.247,-0.438 0.438,-0.795 0.493,-0.932c0.055,-0.164 0.274,-0.301 0.466,-0.301c0.274,-0 0.493,0.219 0.493,0.493c-0.082,2.028 0.439,3.124 1.261,3.727c0.822,0.603 2.001,0.795 3.398,0.603c2.796,-0.356 6.166,-2.11 7.783,-3.316c0.082,-0.055 0.219,-0.109 0.302,-0.109c0.02,-0 0.039,0.001 0.059,0.002c0.018,-0.001 0.034,-0.002 0.05,-0.002c0.274,-0 0.494,0.219 0.494,0.493c-0,0.055 -0.028,0.11 -0.028,0.137c0,-0 -0.219,0.74 -0.192,1.452c0,0.357 0.083,0.686 0.22,0.905c0.137,0.219 0.328,0.356 0.767,0.383c0.356,0.028 0.767,-0.164 1.206,-0.548c0.438,-0.383 0.822,-0.959 1.178,-1.534c0.713,-1.179 1.178,-2.385 1.178,-2.385c0.055,-0.164 0.275,-0.301 0.439,-0.301l0.027,-0c0.274,-0 0.466,0.219 0.466,0.493l0,0.028c-0.137,1.507 0.192,2.521 0.768,3.206c0.575,0.685 1.479,1.069 2.658,1.151c2.357,0.137 5.755,-1.041 9.043,-3.371c0.083,-0.055 0.192,-0.109 0.274,-0.109l0.055,-0c0.274,-0 0.494,0.219 0.494,0.493c-0,0.027 -0.028,0.082 -0.028,0.11c0,-0 -0.164,0.767 -0.192,1.534c-0.027,0.384 -0.027,0.768 0.055,1.042c0.055,0.219 0.137,0.328 0.219,0.383c0.028,-0.027 0.11,-0.137 0.192,-0.274c0.192,-0.329 0.384,-0.849 0.631,-1.397c0.246,-0.549 0.493,-1.151 0.876,-1.59c0.302,-0.356 0.795,-0.658 1.316,-0.658l0.11,0c0.082,0 0.164,0.028 0.246,0.055c0.439,0.11 0.767,0.521 0.85,0.877c0.082,0.356 0.027,0.685 -0,0.987c-0.028,0.301 -0.028,0.548 -0,0.685c0.027,0.137 -0,0.137 0.192,0.192c0.137,0.027 0.301,-0.028 0.575,-0.22c0.274,-0.191 0.603,-0.548 0.932,-0.904c0.329,-0.356 0.658,-0.767 1.014,-1.069c0.356,-0.301 0.767,-0.575 1.288,-0.466c0.246,0.055 0.52,0.247 0.63,0.439c0.11,0.192 0.137,0.411 0.165,0.603c0.054,0.383 0.082,0.795 0.137,1.178c0.054,0.384 0.191,0.685 0.465,0.959c0.274,0.274 0.713,0.494 1.563,0.603c2.11,0.247 4.576,-0.603 6.494,-1.534c1.919,-0.932 3.262,-1.919 3.262,-1.919c0.054,-0.037 0.135,-0.074 0.206,-0.094c1.021,-0.95 2.205,-0.967 3.055,-0.7c0.466,0.137 0.822,0.356 1.069,0.52c0.246,-0.438 0.438,-0.795 0.493,-0.932c0.055,-0.164 0.274,-0.301 0.466,-0.301c0.274,-0 0.493,0.219 0.493,0.493c-0.082,2.028 0.438,3.124 1.261,3.727c0.822,0.603 2,0.795 3.398,0.603c2.795,-0.356 6.166,-2.11 7.783,-3.316c0.082,-0.055 0.219,-0.109 0.301,-0.109l0.055,-0c0.274,-0 0.493,0.219 0.493,0.493c0,0.027 -0.027,0.11 -0.027,0.137c-0,-0 -0.192,0.767 -0.274,1.562c-0.028,0.411 -0.055,0.822 -0,1.096c0.055,0.247 0.109,0.329 0.192,0.356c-0,0 0.027,0.028 0.055,0c0.082,-0.054 0.219,-0.164 0.356,-0.356c0.301,-0.356 0.603,-0.959 0.959,-1.534c0.356,-0.576 0.712,-1.151 1.124,-1.617c0.191,-0.22 0.411,-0.439 0.657,-0.576c0.165,-0.082 0.357,-0.137 0.548,-0.137l0.055,0c0.11,0 0.192,0.028 0.302,0.055c0.548,0.164 0.822,0.685 0.959,1.151c0.137,0.466 0.192,0.959 0.301,1.398c0.11,0.438 0.302,0.822 0.576,1.068c0.274,0.247 0.712,0.466 1.507,0.466c4.686,0 9.701,-3.453 9.701,-3.453c0.056,-0.038 0.126,-0.076 0.191,-0.096Zm-92.682,0.124l-0.055,-0c-0.438,-0 -0.904,0.164 -1.397,0.657c-0.658,0.658 -0.877,1.453 -0.822,2.028c0.027,0.274 0.137,0.521 0.274,0.658c0.137,0.137 0.301,0.247 0.548,0.247c0.109,-0 0.493,-0.165 0.932,-0.521c0.438,-0.356 0.904,-0.904 1.342,-1.48c0.274,-0.356 0.494,-0.712 0.74,-1.069c-0.192,-0.137 -0.493,-0.301 -0.849,-0.411c-0.22,-0.082 -0.466,-0.109 -0.713,-0.109Zm143.601,-0l-0.055,-0c-0.438,-0 -0.904,0.164 -1.397,0.657c-0.658,0.658 -0.877,1.453 -0.822,2.028c0.027,0.274 0.137,0.521 0.274,0.658c0.137,0.137 0.301,0.247 0.548,0.247c0.109,-0 0.493,-0.165 0.931,-0.521c0.439,-0.356 0.905,-0.904 1.343,-1.48c0.274,-0.356 0.494,-0.712 0.74,-1.069c-0.192,-0.137 -0.493,-0.301 -0.849,-0.411c-0.22,-0.082 -0.466,-0.109 -0.713,-0.109Zm-84.927,-0l-0.055,-0c-0.438,-0 -0.904,0.164 -1.398,0.657c-0.657,0.658 -0.877,1.453 -0.822,2.028c0.028,0.274 0.137,0.521 0.274,0.658c0.137,0.137 0.302,0.247 0.548,0.247c0.11,-0 0.494,-0.165 0.932,-0.521c0.439,-0.356 0.904,-0.904 1.343,-1.48c0.274,-0.356 0.493,-0.712 0.74,-1.069c-0.192,-0.137 -0.493,-0.301 -0.85,-0.411c-0.219,-0.082 -0.466,-0.109 -0.712,-0.109Zm50.37,-0.22c-0.219,0 -0.494,0.055 -0.822,0.192c-0.302,0.11 -0.576,0.247 -0.795,0.384c0.767,0.521 1.343,0.685 1.699,0.685c0.438,-0.027 0.603,-0.219 0.685,-0.438c0.082,-0.22 0,-0.494 -0.192,-0.658c-0.109,-0.082 -0.274,-0.165 -0.493,-0.165l-0.082,0Zm-13.374,-5.864c-0.383,0.027 -0.74,0.027 -1.123,0.055c-0.384,1.315 -0.658,2.795 -0.795,4.193c0.603,-1.206 1.288,-2.741 1.918,-4.248Zm1.782,-5.289c-0.274,0.137 -0.713,0.493 -1.097,1.096c-0.52,0.795 -1.041,1.918 -1.479,3.234l1.233,-0.083c0.52,-1.288 0.931,-2.466 1.151,-3.343c0.109,-0.384 0.164,-0.685 0.192,-0.904Z"/>
	<defs>
		<linearGradient id="_Linear1" x1="0" y1="0" x2="1" y2="0" gradientUnits="userSpaceOnUse" gradientTransform="matrix(200,0,0,200,-1.42109e-14,9.06965)">
			<stop offset="0" style="stop-color:#cfa357;stop-opacity:1"/>
			<stop offset="0.5" style="stop-color:#fdf3aa;stop-opacity:1"/>
			<stop offset="1" style="stop-color:#cfa357;stop-opacity:1"/>
		</linearGradient>
	</defs>
</svg>