<svg xmlns="http://www.w3.org/2000/svg" viewBox="0 0 100 45">
	<title>Sudah Jadi Pelanggan</title>
	<linearGradient id="gradient" gradientUnits="userSpaceOnUse" x1="7.2945" y1="3.7338" x2="93.1187" y2="53.2845">
		<stop offset="0" style="stop-color:#e4b42a"/>
		<stop offset="1" style="stop-color:#af8100"/>
	</linearGradient>
	<path fill="url(#gradient)" d="M71.671,30.238l0.156,0c0.627,0 1.191,0.101 1.691,0.303c0.5,0.201 0.922,0.462 1.265,0.783c0.344,0.321 0.657,0.646 0.941,0.975c0.284,0.328 0.594,0.649 0.929,0.962c0.336,0.314 0.676,0.538 1.019,0.672l0,2.71c-0.552,-0.089 -1.052,-0.254 -1.5,-0.493c-0.164,1.135 -0.672,2.087 -1.523,2.856c-0.851,0.769 -1.836,1.153 -2.956,1.153c-1.254,0 -2.322,-0.463 -3.202,-1.388c-0.881,-0.926 -1.322,-2.046 -1.322,-3.36l0,-12.899c0,-1.314 0.441,-2.434 1.322,-3.359c0.88,-0.926 1.948,-1.389 3.202,-1.389c1.254,0 2.322,0.463 3.202,1.389c0.881,0.925 1.322,2.045 1.322,3.359l-0,1.702l-3.024,0l0,-1.702c0,-0.478 -0.145,-0.885 -0.436,-1.221c-0.291,-0.335 -0.646,-0.503 -1.064,-0.503c-0.418,-0 -0.773,0.168 -1.064,0.503c-0.291,0.336 -0.436,0.743 -0.436,1.221l-0,12.899c-0,0.478 0.145,0.885 0.436,1.221c0.291,0.336 0.646,0.504 1.064,0.504c0.418,-0 0.773,-0.168 1.064,-0.504c0.291,-0.336 0.436,-0.743 0.436,-1.221l0,-2.06c-0.403,-0.358 -0.858,-0.537 -1.366,-0.537l-0.156,-0l-0,-2.576Zm-12.123,0l0.156,0c0.627,0 1.191,0.101 1.691,0.303c0.5,0.201 0.922,0.462 1.266,0.783c0.343,0.321 0.656,0.646 0.94,0.975c0.284,0.328 0.594,0.649 0.93,0.962c0.335,0.314 0.675,0.538 1.018,0.672l0,2.71c-0.552,-0.089 -1.052,-0.254 -1.5,-0.493c-0.164,1.135 -0.672,2.087 -1.523,2.856c-0.851,0.769 -1.836,1.153 -2.956,1.153c-1.254,0 -2.322,-0.463 -3.202,-1.388c-0.881,-0.926 -1.322,-2.046 -1.322,-3.36l0,-12.899c0,-1.314 0.441,-2.434 1.322,-3.359c0.88,-0.926 1.948,-1.389 3.202,-1.389c1.254,0 2.322,0.463 3.203,1.389c0.88,0.925 1.321,2.045 1.321,3.359l-0,1.702l-3.023,0l-0,-1.702c-0,-0.478 -0.146,-0.885 -0.437,-1.221c-0.291,-0.335 -0.646,-0.503 -1.064,-0.503c-0.418,-0 -0.773,0.168 -1.064,0.503c-0.291,0.336 -0.436,0.743 -0.436,1.221l-0,12.899c-0,0.478 0.145,0.885 0.436,1.221c0.291,0.336 0.646,0.504 1.064,0.504c0.418,-0 0.773,-0.168 1.064,-0.504c0.291,-0.336 0.437,-0.743 0.437,-1.221l-0,-2.06c-0.404,-0.358 -0.859,-0.537 -1.367,-0.537l-0.156,-0l-0,-2.576Zm-40.266,6.472l-0,3.024l-7.547,-0l-0,-21.544l6.046,-0l0,3.023l-3.023,0l0,3.001l4.524,0l-0,3.023l-4.524,0l0,9.473l4.524,0Zm2.687,-18.52l3.024,-0l-0,18.52l4.523,0l0,3.024l-7.547,-0l0,-21.544Zm-17.288,-0c1.209,0.045 2.239,0.526 3.09,1.444c0.851,0.918 1.276,2.02 1.276,3.304l0,9.047c0,1.299 -0.44,2.411 -1.321,3.337c-0.881,0.925 -1.948,1.388 -3.202,1.388l-1.501,0l0,3.024l-3.023,-0l0,-21.544l4.681,-0Zm26.918,4.322c0,-1.314 0.44,-2.434 1.321,-3.359c0.881,-0.926 1.949,-1.389 3.203,-1.389c1.254,0 2.321,0.463 3.202,1.389c0.881,0.925 1.321,2.045 1.321,3.359l0,17.222l-3.023,-0l0,-3.024l-3.001,0l0,3.024l-3.023,-0l0,-17.222Zm11.712,-4.748l6.025,8.309l-0,-7.883l3.023,-0l-0,21.544l-3.023,-0l-0,-8.533l-3.001,-4.165l-0,12.698l-3.024,-0l0,-21.97Zm35.929,4.748c0,-1.314 0.44,-2.434 1.321,-3.359c0.881,-0.926 1.949,-1.389 3.203,-1.389c1.254,0 2.321,0.463 3.202,1.389c0.881,0.925 1.322,2.045 1.322,3.359l-0,17.222l-3.024,-0l0,-3.024l-3.001,0l0,3.024l-3.023,-0l0,-17.222Zm11.713,-4.748l6.024,8.309l-0,-7.883l3.023,-0l0,21.544l-3.023,-0l-0,-8.533l-3.001,-4.165l-0,12.698l-3.023,-0l-0,-21.97Zm-87.93,3.449l0,12.496l1.501,0c0.418,0 0.772,-0.171 1.063,-0.515c0.292,-0.343 0.437,-0.746 0.437,-1.209l0,-9.047c0,-0.478 -0.145,-0.885 -0.437,-1.221c-0.291,-0.336 -0.645,-0.504 -1.063,-0.504l-1.501,0Zm34.6,12.496l0,-11.197c0,-0.478 -0.145,-0.885 -0.436,-1.221c-0.292,-0.335 -0.646,-0.503 -1.064,-0.503c-0.418,-0 -0.773,0.168 -1.064,0.503c-0.291,0.336 -0.437,0.743 -0.437,1.221l0,11.197l3.001,0Zm47.641,0l0,-11.197c0,-0.478 -0.145,-0.885 -0.436,-1.221c-0.292,-0.335 -0.646,-0.503 -1.064,-0.503c-0.418,-0 -0.773,0.168 -1.064,0.503c-0.291,0.336 -0.437,0.743 -0.437,1.221l0,11.197l3.001,0Z"/>
	<path fill="#000" d="M60.735,5.185c0.384,0 0.768,0.06 1.104,0.18c0.408,0.144 0.756,0.396 0.96,0.792c0.204,0.396 0.24,0.9 0.084,1.524c-0.516,2.136 -1.296,3.516 -2.088,4.296c-0.396,0.384 -0.804,0.636 -1.188,0.732c-0.384,0.108 -0.744,0.06 -1.02,-0.12c-0.516,-0.336 -0.672,-0.9 -0.54,-1.416c0.132,-0.516 0.492,-1.02 0.96,-1.464c0.468,-0.444 1.056,-0.804 1.644,-1.02c0.528,-0.192 1.068,-0.252 1.536,-0.096c0.096,-0.312 0.204,-0.648 0.288,-1.008c0.132,-0.552 0.084,-0.948 -0.06,-1.236c-0.144,-0.288 -0.384,-0.468 -0.72,-0.588c-0.672,-0.24 -1.68,-0.156 -2.52,0.096c-0.42,0.132 -0.792,0.3 -1.068,0.48c-0.276,0.18 -0.42,0.372 -0.444,0.48c-0.012,0.06 -0.012,0.096 0.024,0.156c0.036,0.06 0.108,0.132 0.252,0.204c0.276,0.156 0.792,0.312 1.572,0.408c0.108,0.012 0.192,0.096 0.192,0.204c-0,0.12 -0.096,0.216 -0.216,0.216l-0.024,0c-0.816,-0.096 -1.368,-0.252 -1.728,-0.456c-0.18,-0.096 -0.324,-0.216 -0.408,-0.36c-0.084,-0.144 -0.12,-0.3 -0.084,-0.456c0.06,-0.312 0.312,-0.54 0.636,-0.756c0.324,-0.216 0.72,-0.396 1.176,-0.528c0.504,-0.156 1.068,-0.252 1.608,-0.264l0.072,0Zm10.53,5.275c0.447,-0.415 0.966,-0.423 1.338,-0.307c0.192,0.06 0.372,0.156 0.48,0.228c0.024,-0.048 0.06,-0.096 0.084,-0.132c-0.048,-0.168 -0.096,-0.348 -0.12,-0.528c-0.168,-1.008 -0.024,-2.124 0.228,-3.012c0.132,-0.444 0.288,-0.828 0.456,-1.116c0.084,-0.144 0.18,-0.264 0.276,-0.36c0.096,-0.096 0.228,-0.156 0.372,-0.156c0.228,0 0.42,0.144 0.504,0.336c0.084,0.192 0.084,0.408 0.072,0.66c-0.036,0.504 -0.204,1.128 -0.408,1.764c-0.204,0.636 -0.444,1.26 -0.636,1.74c-0.096,0.24 -0.192,0.456 -0.252,0.6c-0.012,0.036 -0.024,0.06 -0.036,0.096c0.216,0.612 0.6,1.068 1.248,1.272c0.852,0.264 2.244,0.06 4.32,-1.068c0.024,-0.012 0.06,-0.024 0.096,-0.024c0.006,0 0.012,0.001 0.018,0.001c0.006,-0 0.012,-0.001 0.018,-0.001c0.12,0 0.216,0.096 0.216,0.216c-0,0.012 -0.012,0.048 -0.012,0.06c-0.084,0.312 -0.06,0.54 -0,0.696c0.06,0.156 0.168,0.264 0.336,0.348c0.336,0.168 0.924,0.204 1.596,0.096c1.344,-0.204 2.988,-0.888 3.624,-1.368c0.036,-0.024 0.096,-0.048 0.132,-0.048c0.12,0 0.216,0.096 0.216,0.216c-0,0.06 -0.048,0.132 -0.096,0.168c-0.744,0.564 -2.388,1.236 -3.816,1.452c-0.708,0.108 -1.356,0.12 -1.848,-0.132c-0.24,-0.12 -0.456,-0.324 -0.552,-0.588c-0.058,-0.157 -0.081,-0.331 -0.07,-0.525c-1.941,0.997 -3.323,1.216 -4.298,0.909c-0.66,-0.204 -1.116,-0.648 -1.392,-1.212c-0.192,0.3 -0.432,0.66 -0.696,0.972c-0.18,0.216 -0.36,0.408 -0.552,0.552c-0.192,0.144 -0.372,0.252 -0.6,0.24c-0.216,-0.012 -0.408,-0.096 -0.54,-0.24c-0.132,-0.144 -0.204,-0.324 -0.228,-0.528c-0.019,-0.15 -0.007,-0.311 0.034,-0.473c-0.812,0.481 -1.92,0.972 -2.95,1.109c-0.672,0.084 -1.332,0.036 -1.812,-0.336c-0.348,-0.264 -0.576,-0.672 -0.672,-1.236c-0.132,0.216 -0.288,0.444 -0.468,0.672c-0.204,0.264 -0.432,0.504 -0.648,0.696c-0.216,0.192 -0.444,0.348 -0.708,0.336c-0.216,-0.012 -0.396,-0.096 -0.528,-0.24c-0.132,-0.144 -0.204,-0.324 -0.228,-0.528c-0.048,-0.396 0.108,-0.864 0.48,-1.236c0.456,-0.456 0.996,-0.468 1.38,-0.348c0.204,0.06 0.36,0.156 0.468,0.228c0.108,-0.192 0.192,-0.348 0.216,-0.408c0.024,-0.072 0.12,-0.132 0.204,-0.132c0.12,0 0.216,0.096 0.216,0.216c-0.036,0.888 0.192,1.368 0.552,1.632c0.36,0.264 0.876,0.348 1.488,0.264c1.224,-0.156 2.7,-0.924 3.408,-1.452c0.024,-0.016 0.059,-0.032 0.09,-0.041Zm-27.103,0.022c-0.006,-0.937 0.089,-1.907 0.241,-2.765c0.132,-0.708 0.3,-1.344 0.504,-1.812c0.096,-0.228 0.204,-0.432 0.336,-0.576c0.132,-0.144 0.3,-0.252 0.492,-0.252c0.18,0 0.324,0.096 0.42,0.24c0.096,0.144 0.156,0.312 0.192,0.516c0.072,0.396 0.048,0.912 -0.048,1.488c-0.192,1.152 -0.72,2.532 -1.692,3.504l-0.012,0c0.012,0.228 0.024,0.456 0.048,0.672c0.072,-0.12 0.156,-0.252 0.252,-0.384c0.384,-0.516 0.984,-1.08 1.812,-1.08c0.348,0 0.612,0.144 0.72,0.372c0.108,0.228 0.096,0.456 0.084,0.672c-0.012,0.216 -0.012,0.432 0.024,0.576c0.036,0.144 0.096,0.228 0.3,0.288l0.012,0c0.264,0.084 0.72,0.06 1.236,-0.048c0.516,-0.108 1.104,-0.312 1.644,-0.516c1.08,-0.42 2.004,-0.9 2.004,-0.9c0.024,-0.012 0.072,-0.024 0.096,-0.024c0.12,0 0.216,0.096 0.216,0.216c-0,0.072 -0.06,0.156 -0.12,0.192c-0,0 -0.936,0.48 -2.04,0.912c-0.552,0.216 -1.152,0.42 -1.704,0.54c-0.552,0.12 -1.068,0.168 -1.476,0.036c-0.324,-0.096 -0.504,-0.348 -0.576,-0.588c-0.072,-0.24 -0.048,-0.48 -0.036,-0.696c0.012,-0.216 -0.012,-0.396 -0.048,-0.48c-0.036,-0.084 -0.084,-0.12 -0.336,-0.12c-0.636,0 -1.128,0.432 -1.464,0.9c-0.336,0.468 -0.504,0.924 -0.504,0.924c-0.024,0.084 -0.12,0.144 -0.204,0.144c-0.096,0 -0.192,-0.072 -0.216,-0.168c-0.077,-0.402 -0.124,-0.836 -0.145,-1.283c-0.815,0.555 -2.161,1.226 -3.395,1.391c-0.672,0.084 -1.332,0.036 -1.812,-0.336c-0.348,-0.264 -0.576,-0.672 -0.672,-1.236c-0.132,0.216 -0.288,0.444 -0.468,0.672c-0.204,0.264 -0.432,0.504 -0.648,0.696c-0.216,0.192 -0.444,0.348 -0.708,0.336c-0.216,-0.012 -0.396,-0.096 -0.528,-0.24c-0.132,-0.144 -0.204,-0.324 -0.228,-0.528c-0.021,-0.172 -0.003,-0.359 0.054,-0.545c-1.786,0.87 -3.077,1.052 -4.002,0.761c-0.66,-0.204 -1.116,-0.648 -1.392,-1.212c-0.192,0.3 -0.432,0.66 -0.696,0.972c-0.18,0.216 -0.36,0.408 -0.552,0.552c-0.192,0.144 -0.372,0.252 -0.6,0.24c-0.216,-0.012 -0.408,-0.096 -0.54,-0.24c-0.132,-0.144 -0.204,-0.324 -0.228,-0.528c-0.018,-0.142 -0.009,-0.294 0.028,-0.447c-1.283,0.781 -2.556,1.181 -3.568,1.119c-0.6,-0.036 -1.116,-0.24 -1.464,-0.648c-0.192,-0.228 -0.324,-0.516 -0.396,-0.84c-0.06,0.096 -0.108,0.204 -0.168,0.312c-0.168,0.276 -0.372,0.552 -0.612,0.768c-0.24,0.216 -0.516,0.372 -0.84,0.348c-0.288,-0.024 -0.516,-0.168 -0.648,-0.36c-0.132,-0.192 -0.168,-0.408 -0.18,-0.612c-0.012,-0.408 0.108,-0.768 0.108,-0.768c0.024,-0.084 0.12,-0.156 0.204,-0.156c0.12,0 0.216,0.096 0.216,0.216c-0,0.024 -0.012,0.048 -0.012,0.06c-0,0 -0.096,0.324 -0.084,0.636c-0,0.156 0.036,0.3 0.096,0.396c0.06,0.096 0.144,0.156 0.336,0.168c0.156,0.012 0.336,-0.072 0.528,-0.24c0.192,-0.168 0.36,-0.42 0.516,-0.672c0.312,-0.516 0.516,-1.044 0.516,-1.044c0.024,-0.072 0.12,-0.132 0.192,-0.132l0.012,0c0.12,0 0.204,0.096 0.204,0.216l-0,0.012c-0.06,0.66 0.084,1.104 0.336,1.404c0.252,0.3 0.648,0.468 1.164,0.504c1.032,0.06 2.52,-0.456 3.96,-1.476c0.022,-0.015 0.05,-0.03 0.077,-0.039c0.447,-0.417 0.966,-0.425 1.339,-0.309c0.192,0.06 0.372,0.156 0.48,0.228c0.024,-0.048 0.06,-0.096 0.084,-0.132c-0.048,-0.168 -0.096,-0.348 -0.12,-0.528c-0.168,-1.008 -0.024,-2.124 0.228,-3.012c0.132,-0.444 0.288,-0.828 0.456,-1.116c0.084,-0.144 0.18,-0.264 0.276,-0.36c0.096,-0.096 0.228,-0.156 0.372,-0.156c0.228,0 0.42,0.144 0.504,0.336c0.084,0.192 0.084,0.408 0.072,0.66c-0.036,0.504 -0.204,1.128 -0.408,1.764c-0.204,0.636 -0.444,1.26 -0.636,1.74c-0.096,0.24 -0.192,0.456 -0.252,0.6c-0.012,0.036 -0.024,0.06 -0.036,0.096c0.216,0.612 0.6,1.068 1.248,1.272c0.852,0.264 2.244,0.06 4.32,-1.068c0.006,-0.003 0.014,-0.006 0.023,-0.009c0.448,-0.423 0.97,-0.431 1.345,-0.315c0.204,0.06 0.36,0.156 0.468,0.228c0.108,-0.192 0.192,-0.348 0.216,-0.408c0.024,-0.072 0.12,-0.132 0.204,-0.132c0.12,0 0.216,0.096 0.216,0.216c-0.036,0.888 0.192,1.368 0.552,1.632c0.36,0.264 0.876,0.348 1.488,0.264c1.224,-0.156 2.7,-0.924 3.408,-1.452c0.01,-0.006 0.022,-0.013 0.035,-0.019Zm-25.823,-5.333l0.06,0c0.252,0.012 0.504,0.096 0.696,0.276c0.252,0.24 0.36,0.624 0.36,1.14c-0,0.12 -0.084,0.204 -0.204,0.204c-0.12,0 -0.216,-0.084 -0.216,-0.204l-0,-0.012c-0,-0.444 -0.108,-0.684 -0.24,-0.816c-0.132,-0.132 -0.336,-0.18 -0.6,-0.144c-0.54,0.072 -1.296,0.504 -1.884,1.092c-0.588,0.588 -0.996,1.308 -0.984,1.848c0.012,0.264 0.096,0.492 0.336,0.696c0.24,0.204 0.636,0.372 1.248,0.456c0.648,0.048 1.116,0.132 1.452,0.252c0.336,0.12 0.564,0.288 0.636,0.54c0.072,0.252 -0.06,0.48 -0.24,0.672c-0.18,0.192 -0.42,0.36 -0.708,0.516c-0.576,0.324 -1.308,0.588 -1.956,0.708c-0.324,0.06 -0.624,0.096 -0.876,0.06c-0.252,-0.036 -0.492,-0.132 -0.6,-0.372c-0.012,-0.024 -0.024,-0.06 -0.024,-0.084c-0,-0.12 0.096,-0.216 0.216,-0.216c0.084,0 0.156,0.06 0.192,0.132c0.012,0.036 0.084,0.084 0.264,0.108c0.18,0.024 0.444,0.012 0.744,-0.048c0.588,-0.108 1.308,-0.372 1.836,-0.66c0.264,-0.144 0.48,-0.3 0.612,-0.432c0.132,-0.132 0.144,-0.228 0.132,-0.276c-0.012,-0.048 -0.096,-0.156 -0.372,-0.252c-0.276,-0.096 -0.72,-0.18 -1.344,-0.228l-0.012,0c-0.66,-0.096 -1.152,-0.276 -1.476,-0.552c-0.324,-0.276 -0.48,-0.636 -0.492,-1.008c-0.024,-0.744 0.48,-1.524 1.116,-2.16c0.636,-0.636 1.44,-1.128 2.136,-1.224c0.06,-0.012 0.132,-0.012 0.192,-0.012Zm43.272,3.78l-0.06,0c-0.24,0.012 -0.492,0.06 -0.756,0.156c-0.528,0.192 -1.056,0.528 -1.488,0.936c-0.432,0.408 -0.756,0.864 -0.852,1.26c-0.096,0.396 -0.012,0.696 0.372,0.948c0.168,0.108 0.384,0.144 0.672,0.072c0.288,-0.072 0.636,-0.276 0.996,-0.624c0.54,-0.528 1.104,-1.392 1.56,-2.676c-0.132,-0.048 -0.288,-0.072 -0.444,-0.072Zm10.56,1.584l-0.024,0c-0.192,0 -0.408,0.072 -0.624,0.288c-0.288,0.288 -0.372,0.636 -0.348,0.888c0.012,0.12 0.06,0.228 0.12,0.288c0.06,0.06 0.12,0.108 0.228,0.108c0.048,0 0.18,-0.048 0.324,-0.168c0.144,-0.12 0.324,-0.288 0.492,-0.48c0.18,-0.216 0.36,-0.468 0.516,-0.696c-0.084,-0.06 -0.216,-0.132 -0.372,-0.18c-0.096,-0.036 -0.204,-0.048 -0.312,-0.048Zm-42.984,0l-0.024,0c-0.192,0 -0.408,0.072 -0.624,0.288c-0.288,0.288 -0.372,0.636 -0.348,0.888c0.012,0.12 0.06,0.228 0.12,0.288c0.06,0.06 0.12,0.108 0.228,0.108c0.048,0 0.18,-0.048 0.324,-0.168c0.144,-0.12 0.324,-0.288 0.492,-0.48c0.18,-0.216 0.36,-0.468 0.516,-0.696c-0.084,-0.06 -0.216,-0.132 -0.372,-0.18c-0.096,-0.036 -0.204,-0.048 -0.312,-0.048Zm7.944,0l-0.024,0c-0.192,0 -0.396,0.072 -0.612,0.288c-0.288,0.288 -0.384,0.636 -0.36,0.888c0.012,0.12 0.06,0.228 0.12,0.288c0.06,0.06 0.132,0.108 0.24,0.108c0.048,0 0.216,-0.072 0.408,-0.228c0.192,-0.156 0.396,-0.396 0.588,-0.648c0.12,-0.156 0.216,-0.312 0.324,-0.468c-0.084,-0.06 -0.216,-0.132 -0.372,-0.18c-0.096,-0.036 -0.204,-0.048 -0.312,-0.048Zm27.048,0l-0.024,0c-0.192,0 -0.396,0.072 -0.612,0.288c-0.288,0.288 -0.384,0.636 -0.36,0.888c0.012,0.12 0.06,0.228 0.12,0.288c0.06,0.06 0.132,0.108 0.24,0.108c0.048,0 0.216,-0.072 0.408,-0.228c0.192,-0.156 0.396,-0.396 0.588,-0.648c0.12,-0.156 0.216,-0.312 0.324,-0.468c-0.084,-0.06 -0.216,-0.132 -0.372,-0.18c-0.096,-0.036 -0.204,-0.048 -0.312,-0.048Zm-18.444,-5.016c-0.024,0 -0.084,0.024 -0.168,0.12c-0.084,0.096 -0.168,0.252 -0.264,0.456c-0.18,0.42 -0.36,1.032 -0.48,1.716c-0.132,0.744 -0.216,1.584 -0.228,2.412c0.708,-0.864 1.128,-1.992 1.284,-2.952c0.096,-0.54 0.108,-1.02 0.048,-1.344c-0.024,-0.156 -0.084,-0.288 -0.12,-0.348c-0.036,-0.06 -0.048,-0.06 -0.072,-0.06Zm33.96,3.3l0.012,0c0.12,0 0.216,0.096 0.216,0.216c-0,0.012 -0.012,0.048 -0.012,0.06l-0.108,0.384c-0.024,0.084 -0.108,0.168 -0.204,0.168c-0.12,0 -0.216,-0.096 -0.216,-0.216c-0,-0.012 0.012,-0.048 0.012,-0.06l0.108,-0.384c0.024,-0.084 0.108,-0.168 0.192,-0.168Zm-48.3,-3.3c0.012,0 -0.024,0.012 -0.084,0.06c-0.06,0.048 -0.12,0.132 -0.192,0.252c-0.144,0.24 -0.3,0.6 -0.42,1.02c-0.24,0.816 -0.36,1.848 -0.228,2.748c0.024,-0.06 0.036,-0.096 0.06,-0.156c0.192,-0.48 0.444,-1.104 0.636,-1.716c0.192,-0.612 0.336,-1.236 0.372,-1.668c0.012,-0.216 -0,-0.372 -0.036,-0.456c-0.036,-0.084 -0.024,-0.084 -0.108,-0.084Zm42.984,0c0.012,0 -0.024,0.012 -0.084,0.06c-0.06,0.048 -0.12,0.132 -0.192,0.252c-0.144,0.24 -0.3,0.6 -0.42,1.02c-0.24,0.816 -0.36,1.848 -0.228,2.748c0.024,-0.06 0.036,-0.096 0.06,-0.156c0.192,-0.48 0.444,-1.104 0.636,-1.716c0.192,-0.612 0.336,-1.236 0.372,-1.668c0.012,-0.216 -0,-0.372 -0.036,-0.456c-0.036,-0.084 -0.024,-0.084 -0.108,-0.084Z"/>
</svg>