<svg xmlns="http://www.w3.org/2000/svg" viewBox="0 0 200 18">
	<title>MauMantenan</title>
	<path d="M64.052,0.12c0.276,0 0.58,0.166 0.746,0.387c0.193,0.248 0.304,0.552 0.386,0.939c0.47,1.85 0.056,5.054 -0.165,8.065c-0.111,1.519 -0.194,2.955 -0.138,4.088c0.055,0.939 0.248,1.629 0.441,1.906c0.083,-0.083 0.221,-0.194 0.36,-0.359c0.359,-0.442 0.856,-1.243 1.381,-2.155c1.077,-1.85 2.347,-4.364 3.563,-6.656c1.215,-2.293 2.32,-4.364 3.148,-5.414c0.221,-0.276 0.387,-0.497 0.608,-0.635c0.11,-0.083 0.276,-0.138 0.442,-0.138c0.166,-0 0.387,0.027 0.525,0.165c0.276,0.249 0.304,0.553 0.331,0.884c0.028,0.332 0,0.746 -0.055,1.298c-0.829,8.397 -1.961,15.054 -1.961,15.054c-0.028,0.221 -0.249,0.414 -0.47,0.414c-0.276,-0 -0.497,-0.193 -0.497,-0.47l0,-0.11c0,-0 1.16,-6.629 1.961,-14.97c0.055,-0.47 0.028,-0.829 0.028,-1.078c-0.055,0.056 -0.083,0.111 -0.138,0.194c-0.718,0.884 -1.878,2.983 -3.066,5.275c-1.188,2.293 -2.458,4.806 -3.563,6.684c-0.553,0.939 -1.05,1.713 -1.492,2.265c-0.221,0.276 -0.414,0.497 -0.663,0.635c-0.11,0.083 -0.248,0.139 -0.414,0.166c-0.166,0.028 -0.387,-0.055 -0.525,-0.166c-0.718,-0.552 -0.856,-1.546 -0.911,-2.762c-0.055,-1.215 0.027,-2.651 0.138,-4.17c0.221,-3.039 0.525,-6.353 0.166,-7.762l-0,-0.027c-0.056,-0.249 -0.138,-0.442 -0.194,-0.525c-0.027,0.028 -0.055,0.055 -0.083,0.11c-0.11,0.139 -0.276,0.36 -0.441,0.636c-0.636,1.16 -1.437,3.314 -2.183,5.634c-1.491,4.668 -2.789,10.082 -2.789,10.082c-0.055,0.221 -0.249,0.359 -0.47,0.359c-0.276,-0 -0.497,-0.193 -0.497,-0.47c0,-0.027 0.028,-0.11 0.028,-0.138c-0,0 1.298,-5.386 2.789,-10.109c0.746,-2.348 1.547,-4.557 2.265,-5.855c0.194,-0.332 0.359,-0.58 0.553,-0.801c0.193,-0.221 0.414,-0.415 0.745,-0.47l0.111,0Zm49.771,12.305c0.009,-1.926 0.334,-3.985 0.857,-5.869c-1.16,0.082 -2.32,0.165 -3.452,0.221l-0.028,-0c-0.276,-0 -0.497,-0.221 -0.497,-0.498c-0,-0.276 0.193,-0.497 0.469,-0.497c1.243,-0.055 2.542,-0.138 3.812,-0.248c0.028,-0.083 0.055,-0.194 0.083,-0.277c0.47,-1.436 1.05,-2.679 1.657,-3.618c0.608,-0.939 1.271,-1.602 2.155,-1.602c0.248,0 0.497,0.166 0.607,0.359c0.111,0.194 0.111,0.359 0.111,0.553c-0,0.359 -0.083,0.773 -0.221,1.298c-0.221,0.856 -0.608,1.933 -1.05,3.093c0.387,0 0.746,-0.027 1.133,-0.027c1.602,-0 3.148,0.11 4.502,0.497c0.193,0.055 0.359,0.248 0.359,0.469c-0,0.277 -0.221,0.498 -0.497,0.498c-0.028,-0 -0.111,-0.028 -0.138,-0.028c-1.602,-0.442 -3.591,-0.47 -5.745,-0.387c-1.078,2.624 -2.376,5.331 -3.122,6.602c0,0.469 0.056,0.939 0.111,1.353c0.138,0.994 0.635,1.409 1.519,1.63c0.884,0.221 2.182,0.082 3.563,-0.249c2.762,-0.663 5.938,-2.182 7.485,-3.204c0.037,-0.036 0.108,-0.062 0.177,-0.074c0.398,-0.303 0.89,-0.58 1.453,-0.81c0.442,-0.166 0.828,-0.248 1.187,-0.248l0.166,-0c0.415,0.027 0.746,0.138 1.022,0.359c0.553,0.414 0.718,1.132 0.525,1.74c-0.193,0.607 -0.801,1.105 -1.602,1.132c-0.718,0.028 -1.547,-0.276 -2.541,-1.022c-0.359,0.414 -0.497,0.801 -0.47,1.133c0.028,0.303 0.194,0.58 0.58,0.828c0.387,0.249 0.995,0.415 1.851,0.415l0.028,-0c-0,-0 9.142,-0 15.08,-3.453c0.056,-0.028 0.166,-0.083 0.249,-0.083c0.015,0 0.029,0 0.043,0.001c0.013,-0.001 0.026,-0.001 0.04,-0.001c0.276,0 0.497,0.221 0.497,0.497c-0,0.028 -0.028,0.111 -0.028,0.138c0,0 -0.193,0.774 -0.276,1.575c-0.027,0.414 -0.055,0.828 0,1.105c0.055,0.248 0.111,0.331 0.193,0.359c0,-0 0.028,0.027 0.056,-0c0.083,-0.056 0.221,-0.166 0.359,-0.359c0.304,-0.359 0.607,-0.967 0.967,-1.547c0.359,-0.58 0.718,-1.16 1.132,-1.63c0.193,-0.221 0.414,-0.442 0.663,-0.58c0.166,-0.083 0.359,-0.138 0.552,-0.138l0.055,0c0.111,0 0.194,0.028 0.304,0.055c0.553,0.166 0.829,0.691 0.967,1.16c0.138,0.47 0.193,0.967 0.304,1.409c0.11,0.442 0.304,0.829 0.58,1.077c0.276,0.249 0.718,0.47 1.519,0.47c4.723,-0 9.778,-3.48 9.778,-3.48c0.052,-0.036 0.116,-0.071 0.177,-0.092c1.029,-0.959 2.224,-0.978 3.082,-0.709c0.469,0.138 0.829,0.359 1.077,0.524c0.249,-0.442 0.442,-0.801 0.497,-0.939c0.056,-0.165 0.276,-0.304 0.47,-0.304c0.276,0 0.497,0.221 0.497,0.498c-0.083,2.044 0.442,3.148 1.271,3.756c0.828,0.608 2.016,0.801 3.424,0.608c2.818,-0.359 6.215,-2.127 7.845,-3.342c0.083,-0.056 0.221,-0.111 0.304,-0.111l0.055,0c0.276,0 0.497,0.221 0.497,0.497c-0,0.028 -0.028,0.111 -0.028,0.138c0,0 -0.193,0.774 -0.276,1.575c-0.028,0.414 -0.055,0.828 0,1.105c0.055,0.248 0.111,0.331 0.193,0.359c0,-0 0.028,0.027 0.056,-0c0.083,-0.056 0.221,-0.166 0.359,-0.359c0.304,-0.359 0.607,-0.967 0.966,-1.547c0.36,-0.58 0.719,-1.16 1.133,-1.63c0.193,-0.221 0.414,-0.442 0.663,-0.58c0.166,-0.083 0.359,-0.138 0.552,-0.138l0.055,0c0.111,0 0.194,0.028 0.304,0.055c0.553,0.166 0.829,0.691 0.967,1.16c0.138,0.47 0.193,0.967 0.304,1.409c0.11,0.442 0.304,0.829 0.58,1.077c0.276,0.249 0.718,0.47 1.519,0.47c4.723,-0 9.778,-3.48 9.778,-3.48c0.082,-0.056 0.193,-0.111 0.276,-0.111c0.276,0 0.497,0.221 0.497,0.497c-0,0.138 -0.11,0.332 -0.221,0.415c0,-0 -5.137,3.646 -10.33,3.646c-0.967,-0 -1.685,-0.277 -2.182,-0.719c-0.497,-0.442 -0.718,-1.022 -0.856,-1.546c-0.138,-0.525 -0.194,-1.022 -0.304,-1.381c-0.111,-0.359 -0.166,-0.47 -0.304,-0.525c-0.028,-0 -0.055,-0 -0.166,0.055c-0.11,0.055 -0.221,0.166 -0.386,0.332c-0.304,0.359 -0.663,0.939 -1.022,1.519c-0.359,0.58 -0.691,1.16 -1.05,1.629c-0.193,0.221 -0.387,0.442 -0.608,0.58c-0.22,0.138 -0.58,0.221 -0.883,0.111c-0.498,-0.194 -0.746,-0.663 -0.829,-1.105c-0.083,-0.442 -0.11,-0.912 -0.055,-1.381c0.019,-0.206 0.045,-0.408 0.076,-0.599c-1.898,1.205 -4.728,2.541 -7.34,2.891c-1.547,0.194 -3.066,0.083 -4.171,-0.773c-0.801,-0.608 -1.326,-1.547 -1.547,-2.845c-0.304,0.497 -0.663,1.022 -1.077,1.547c-0.47,0.608 -0.994,1.16 -1.492,1.602c-0.497,0.442 -1.022,0.801 -1.629,0.773c-0.497,-0.027 -0.912,-0.221 -1.215,-0.552c-0.304,-0.332 -0.47,-0.746 -0.525,-1.215c-0.043,-0.357 -0.015,-0.737 0.086,-1.12c-1.898,1.079 -5.358,2.722 -8.842,2.722c-0.967,-0 -1.685,-0.277 -2.182,-0.719c-0.497,-0.442 -0.718,-1.022 -0.856,-1.546c-0.138,-0.525 -0.194,-1.022 -0.304,-1.381c-0.111,-0.359 -0.166,-0.47 -0.304,-0.525c-0.028,-0 -0.055,-0 -0.166,0.055c-0.11,0.055 -0.221,0.166 -0.386,0.332c-0.304,0.359 -0.663,0.939 -1.022,1.519c-0.359,0.58 -0.691,1.16 -1.05,1.629c-0.193,0.221 -0.387,0.442 -0.607,0.58c-0.221,0.138 -0.581,0.221 -0.884,0.111c-0.498,-0.194 -0.746,-0.663 -0.829,-1.105c-0.083,-0.442 -0.11,-0.912 -0.055,-1.381c0.022,-0.247 0.056,-0.49 0.095,-0.713c-6.248,3.191 -14.734,3.116 -14.734,3.116c-0.994,-0 -1.795,-0.221 -2.375,-0.58c-0.58,-0.359 -0.967,-0.967 -1.022,-1.575c-0.02,-0.183 -0.015,-0.367 0.015,-0.551c-1.734,0.913 -4.037,1.897 -6.202,2.43c-1.464,0.359 -2.873,0.497 -4.033,0.221c-1.16,-0.277 -2.071,-1.105 -2.265,-2.431c-0.039,-0.291 -0.064,-0.61 -0.085,-0.926c-1.179,0.77 -5.581,3.44 -10.024,3.44c-0.967,-0 -1.685,-0.277 -2.182,-0.719c-0.497,-0.442 -0.718,-1.022 -0.856,-1.546c-0.138,-0.525 -0.194,-1.022 -0.304,-1.381c-0.111,-0.359 -0.166,-0.47 -0.304,-0.525c-0.027,-0 -0.055,-0 -0.166,0.055c-0.11,0.055 -0.221,0.166 -0.386,0.332c-0.304,0.359 -0.663,0.939 -1.022,1.519c-0.359,0.58 -0.691,1.16 -1.05,1.629c-0.193,0.221 -0.386,0.442 -0.607,0.58c-0.221,0.138 -0.58,0.221 -0.884,0.111c-0.497,-0.194 -0.746,-0.663 -0.829,-1.105c-0.083,-0.442 -0.11,-0.912 -0.055,-1.381c0.019,-0.206 0.045,-0.408 0.076,-0.599c-1.898,1.205 -4.728,2.541 -7.34,2.891c-1.547,0.194 -3.066,0.083 -4.171,-0.773c-0.801,-0.608 -1.326,-1.547 -1.547,-2.845c-0.304,0.497 -0.663,1.022 -1.077,1.547c-0.47,0.608 -0.994,1.16 -1.491,1.602c-0.498,0.442 -1.022,0.801 -1.63,0.773c-0.497,-0.027 -0.912,-0.221 -1.215,-0.552c-0.304,-0.332 -0.47,-0.746 -0.525,-1.215c-0.111,-0.912 0.248,-1.989 1.105,-2.845c1.049,-1.05 2.292,-1.078 3.176,-0.801c0.47,0.138 0.829,0.359 1.077,0.524c0.249,-0.442 0.442,-0.801 0.497,-0.939c0.056,-0.165 0.277,-0.304 0.47,-0.304c0.276,0 0.497,0.221 0.497,0.498c-0.083,2.044 0.442,3.148 1.271,3.756c0.828,0.608 2.016,0.801 3.425,0.608c2.817,-0.359 6.214,-2.127 7.844,-3.342c0.083,-0.056 0.221,-0.111 0.304,-0.111l0.055,0c0.276,0 0.497,0.221 0.497,0.497c0,0.028 -0.028,0.111 -0.028,0.138c0,0 -0.193,0.774 -0.276,1.575c-0.027,0.414 -0.055,0.828 0,1.105c0.055,0.248 0.111,0.331 0.194,0.359c-0,-0 0.027,0.027 0.055,-0c0.083,-0.056 0.221,-0.166 0.359,-0.359c0.304,-0.359 0.607,-0.967 0.967,-1.547c0.359,-0.58 0.718,-1.16 1.132,-1.63c0.193,-0.221 0.414,-0.442 0.663,-0.58c0.166,-0.083 0.359,-0.138 0.552,-0.138l0.056,0c0.11,0 0.193,0.028 0.303,0.055c0.553,0.166 0.829,0.691 0.967,1.16c0.138,0.47 0.193,0.967 0.304,1.409c0.11,0.442 0.304,0.829 0.58,1.077c0.276,0.249 0.718,0.47 1.519,0.47c4.723,-0 9.778,-3.48 9.778,-3.48c0.056,-0.039 0.127,-0.077 0.192,-0.097Zm-34.276,0.124l-0.055,0c-0.442,0 -0.912,0.166 -1.409,0.663c-0.663,0.663 -0.884,1.464 -0.828,2.044c0.027,0.276 0.138,0.525 0.276,0.663c0.138,0.138 0.304,0.249 0.552,0.249c0.111,-0 0.497,-0.166 0.939,-0.525c0.442,-0.359 0.912,-0.912 1.354,-1.492c0.276,-0.359 0.497,-0.718 0.745,-1.077c-0.193,-0.138 -0.497,-0.304 -0.856,-0.414c-0.221,-0.083 -0.469,-0.111 -0.718,-0.111Zm85.596,0l-0.055,0c-0.442,0 -0.912,0.166 -1.409,0.663c-0.663,0.663 -0.884,1.464 -0.829,2.044c0.028,0.276 0.139,0.525 0.277,0.663c0.138,0.138 0.303,0.249 0.552,0.249c0.111,-0 0.497,-0.166 0.939,-0.525c0.442,-0.359 0.912,-0.912 1.354,-1.492c0.276,-0.359 0.497,-0.718 0.745,-1.077c-0.193,-0.138 -0.497,-0.304 -0.856,-0.414c-0.221,-0.083 -0.469,-0.111 -0.718,-0.111Zm-34.83,-0.221c-0.22,0 -0.497,0.056 -0.828,0.194c-0.304,0.11 -0.58,0.248 -0.801,0.386c0.773,0.525 1.353,0.691 1.712,0.691c0.442,-0.028 0.608,-0.221 0.691,-0.442c0.083,-0.221 -0,-0.497 -0.193,-0.663c-0.111,-0.083 -0.277,-0.166 -0.498,-0.166l-0.083,0Zm-13.478,-5.911c-0.387,0.028 -0.746,0.028 -1.133,0.056c-0.386,1.326 -0.663,2.817 -0.801,4.226c0.608,-1.216 1.298,-2.762 1.934,-4.282Zm1.795,-5.33c-0.276,0.138 -0.718,0.497 -1.105,1.105c-0.525,0.801 -1.049,1.933 -1.491,3.259l1.243,-0.083c0.524,-1.298 0.939,-2.486 1.16,-3.37c0.11,-0.386 0.165,-0.69 0.193,-0.911Z" style="fill:url(#_Linear1);fill-rule:nonzero;"/>
	<path d="M6.491,0.12c0.276,0 0.58,0.166 0.746,0.387c0.193,0.248 0.303,0.552 0.386,0.939c0.47,1.85 0.055,5.054 -0.165,8.065c-0.111,1.519 -0.194,2.955 -0.139,4.088c0.056,0.939 0.249,1.629 0.442,1.906c0.083,-0.083 0.221,-0.194 0.359,-0.359c0.359,-0.442 0.857,-1.243 1.381,-2.155c1.078,-1.85 2.348,-4.364 3.563,-6.656c1.216,-2.293 2.321,-4.364 3.149,-5.414c0.221,-0.276 0.387,-0.497 0.608,-0.635c0.11,-0.083 0.276,-0.138 0.442,-0.138c0.166,-0 0.386,0.027 0.525,0.165c0.276,0.249 0.303,0.553 0.331,0.884c0.028,0.332 0,0.746 -0.055,1.298c-0.829,8.397 -1.961,15.054 -1.961,15.054c-0.028,0.221 -0.249,0.414 -0.47,0.414c-0.276,-0 -0.497,-0.193 -0.497,-0.47l0,-0.11c0,-0 1.16,-6.629 1.961,-14.97c0.055,-0.47 0.028,-0.829 0.028,-1.078c-0.056,0.056 -0.083,0.111 -0.138,0.194c-0.719,0.884 -1.879,2.983 -3.066,5.275c-1.188,2.293 -2.458,4.806 -3.563,6.684c-0.553,0.939 -1.05,1.713 -1.492,2.265c-0.221,0.276 -0.414,0.497 -0.663,0.635c-0.11,0.083 -0.248,0.139 -0.414,0.166c-0.166,0.028 -0.387,-0.055 -0.525,-0.166c-0.718,-0.552 -0.856,-1.546 -0.911,-2.762c-0.056,-1.215 0.027,-2.651 0.138,-4.17c0.221,-3.039 0.525,-6.353 0.166,-7.762l-0,-0.027c-0.056,-0.249 -0.139,-0.442 -0.194,-0.525c-0.027,0.028 -0.055,0.055 -0.083,0.11c-0.11,0.139 -0.276,0.36 -0.442,0.636c-0.635,1.16 -1.436,3.314 -2.182,5.634c-1.491,4.668 -2.789,10.082 -2.789,10.082c-0.056,0.221 -0.249,0.359 -0.47,0.359c-0.276,-0 -0.497,-0.193 -0.497,-0.47c0,-0.027 0.028,-0.11 0.028,-0.138c-0,0 1.298,-5.386 2.789,-10.109c0.746,-2.348 1.547,-4.557 2.265,-5.855c0.194,-0.332 0.359,-0.58 0.553,-0.801c0.193,-0.221 0.414,-0.415 0.745,-0.47l0.111,0Zm31.962,12.294c0.016,-0.002 0.034,-0.003 0.05,-0.003c0.276,0 0.497,0.221 0.497,0.497c0,0.056 -0.027,0.111 -0.027,0.138c-0,0 -0.221,0.746 -0.194,1.464c0,0.359 0.083,0.691 0.221,0.912c0.138,0.221 0.332,0.359 0.774,0.386c0.359,0.028 0.773,-0.165 1.215,-0.552c0.442,-0.387 0.828,-0.967 1.187,-1.547c0.719,-1.187 1.188,-2.403 1.188,-2.403c0.055,-0.165 0.276,-0.304 0.442,-0.304l0.028,0c0.276,0 0.469,0.221 0.469,0.498l0,0.027c-0.138,1.519 0.194,2.541 0.774,3.232c0.58,0.69 1.491,1.077 2.679,1.16c2.375,0.138 5.8,-1.05 9.115,-3.397c0.082,-0.056 0.193,-0.111 0.276,-0.111c0.276,0 0.497,0.221 0.497,0.497c-0,0.138 -0.083,0.332 -0.193,0.415c-3.453,2.458 -7.016,3.756 -9.75,3.59c-1.381,-0.083 -2.569,-0.552 -3.37,-1.491c-0.442,-0.525 -0.746,-1.188 -0.912,-1.934c-0.138,0.221 -0.248,0.47 -0.386,0.718c-0.387,0.636 -0.857,1.271 -1.409,1.768c-0.552,0.497 -1.188,0.856 -1.933,0.801c-0.663,-0.055 -1.188,-0.387 -1.492,-0.828c-0.304,-0.442 -0.387,-0.94 -0.414,-1.409c-0.006,-0.229 0.005,-0.45 0.025,-0.654c-1.897,1.219 -4.775,2.591 -7.427,2.946c-1.547,0.194 -3.066,0.083 -4.171,-0.773c-0.801,-0.608 -1.326,-1.547 -1.547,-2.845c-0.304,0.497 -0.663,1.022 -1.077,1.547c-0.47,0.608 -0.994,1.16 -1.492,1.602c-0.497,0.442 -1.022,0.801 -1.629,0.773c-0.497,-0.027 -0.912,-0.221 -1.216,-0.552c-0.303,-0.332 -0.469,-0.746 -0.524,-1.215c-0.111,-0.912 0.248,-1.989 1.105,-2.845c1.049,-1.05 2.292,-1.078 3.176,-0.801c0.469,0.138 0.828,0.359 1.077,0.524c0.249,-0.442 0.442,-0.801 0.497,-0.939c0.055,-0.165 0.276,-0.304 0.47,-0.304c0.276,0 0.497,0.221 0.497,0.498c-0.083,2.044 0.442,3.148 1.271,3.756c0.828,0.608 2.016,0.801 3.424,0.608c2.818,-0.359 6.215,-2.127 7.845,-3.342c0.083,-0.056 0.221,-0.111 0.303,-0.111c0.021,0 0.041,0.001 0.061,0.003Zm-16.467,0.135l-0.055,0c-0.442,0 -0.912,0.166 -1.409,0.663c-0.663,0.663 -0.884,1.464 -0.829,2.044c0.028,0.276 0.139,0.525 0.277,0.663c0.138,0.138 0.303,0.249 0.552,0.249c0.111,-0 0.497,-0.166 0.939,-0.525c0.442,-0.359 0.912,-0.912 1.354,-1.492c0.276,-0.359 0.497,-0.718 0.745,-1.077c-0.193,-0.138 -0.497,-0.304 -0.856,-0.414c-0.221,-0.083 -0.47,-0.111 -0.718,-0.111Z" style="fill:url(#_Linear2);fill-rule:nonzero;"/>
	<defs>
		<linearGradient id="_Linear1" x1="0" y1="0" x2="1" y2="0" gradientUnits="userSpaceOnUse" gradientTransform="matrix(142.439,0,0,142.439,57.5611,8.9995)">
			<stop offset="0" style="stop-color:#cfa357;stop-opacity:1"/>
			<stop offset="0.5" style="stop-color:#fdf3aa;stop-opacity:1"/>
			<stop offset="1" style="stop-color:#cfa357;stop-opacity:1"/>
		</linearGradient>
		<linearGradient id="_Linear2" x1="0" y1="0" x2="1" y2="0" gradientUnits="userSpaceOnUse" gradientTransform="matrix(57.644,0,0,57.644,0,9.04093)">
			<stop offset="0" style="stop-color:#cfa357;stop-opacity:1"/>
			<stop offset="0.5" style="stop-color:#fdf3aa;stop-opacity:1"/>
			<stop offset="1" style="stop-color:#cfa357;stop-opacity:1"/>
		</linearGradient>
	</defs>
</svg>