<svg xmlns="http://www.w3.org/2000/svg" viewBox="0 0 100 30">
	<title>Kenapa memilih MauMantenan?</title>
	<path fill="#eac92a" d="M96.936,18.304c0.192,-0.096 0.349,-0.248 0.472,-0.456c0.123,-0.208 0.184,-0.44 0.184,-0.696l0,-1.216c0,-0.341 -0.104,-0.632 -0.312,-0.872c-0.208,-0.24 -0.461,-0.36 -0.76,-0.36c-0.299,-0 -0.552,0.12 -0.76,0.36c-0.208,0.24 -0.312,0.531 -0.312,0.872l0,1.216l-2.16,0l0,-1.216c0,-0.938 0.315,-1.738 0.944,-2.4c0.629,-0.661 1.392,-0.992 2.288,-0.992c0.896,0 1.659,0.331 2.288,0.992c0.629,0.662 0.944,1.462 0.944,2.4l0,1.216c0,0.715 -0.192,1.36 -0.576,1.936c-0.384,0.576 -0.885,0.987 -1.504,1.232l-0.016,0.016c-0.203,0.086 -0.365,0.232 -0.488,0.44c-0.123,0.208 -0.184,0.44 -0.184,0.696l0,2.48l-2.16,0l0,-2.48c0,-0.714 0.195,-1.362 0.584,-1.944c0.389,-0.581 0.899,-0.989 1.528,-1.224Zm-1.792,9.616c-0.213,-0.213 -0.32,-0.466 -0.32,-0.76c0,-0.293 0.107,-0.546 0.32,-0.76c0.213,-0.213 0.467,-0.32 0.76,-0.32c0.293,0 0.547,0.107 0.76,0.32c0.213,0.214 0.32,0.467 0.32,0.76c0,0.294 -0.107,0.547 -0.32,0.76c-0.213,0.214 -0.467,0.32 -0.76,0.32c-0.293,-0 -0.547,-0.106 -0.76,-0.32Z"/>
	<path fill="#000" d="M18.504,12.848l2.16,0l0,12.304c0,0.342 0.104,0.632 0.312,0.872c0.208,0.24 0.461,0.36 0.76,0.36c0.299,0 0.552,-0.12 0.76,-0.36c0.208,-0.24 0.312,-0.53 0.312,-0.872l0,-12.304l2.16,0l0,12.304c0,0.939 -0.315,1.739 -0.944,2.4c-0.629,0.662 -1.392,0.992 -2.288,0.992c-0.896,0 -1.659,-0.33 -2.288,-0.992c-0.629,-0.661 -0.944,-1.461 -0.944,-2.4l0,-12.304Zm-9.648,15.392l-2.16,0l-0,-9.072l-2.144,2.976l-2.16,-2.976l-0,9.072l-2.144,0l-0,-15.696l4.304,5.936l4.304,-5.936l-0,15.696Zm50.544,-15.392l-0,2.16l-1.616,0l-0,13.232l-2.16,0l-0,-13.232l-1.616,0l-0,-2.16l5.392,0Zm7.312,13.232l-0,2.16l-5.392,0l-0,-15.392l4.32,0l-0,2.16l-2.16,0l-0,2.144l3.232,0l-0,2.16l-3.232,0l-0,6.768l3.232,0Zm-29.456,-10.144c-0,-0.938 0.315,-1.738 0.944,-2.4c0.629,-0.661 1.392,-0.992 2.288,-0.992c0.896,0 1.659,0.331 2.288,0.992c0.629,0.662 0.944,1.462 0.944,2.4l-0,12.304l-2.16,0l-0,-2.16l-2.144,0l-0,2.16l-2.16,0l-0,-12.304Zm8.368,-3.392l4.304,5.936l-0,-5.632l2.16,0l-0,15.392l-2.16,0l-0,-6.096l-2.144,-2.976l-0,9.072l-2.16,0l-0,-15.696Zm-35.008,3.392c-0,-0.938 0.315,-1.738 0.944,-2.4c0.629,-0.661 1.392,-0.992 2.288,-0.992c0.896,0 1.659,0.331 2.288,0.992c0.629,0.662 0.944,1.462 0.944,2.4l-0,12.304l-2.16,0l-0,-2.16l-2.144,0l-0,2.16l-2.16,0l-0,-12.304Zm58.016,-3.392l4.304,5.936l-0,-5.632l2.16,0l-0,15.392l-2.16,0l-0,-6.096l-2.144,-2.976l-0,9.072l-2.16,0l-0,-15.696Zm7.904,3.392c-0,-0.938 0.315,-1.738 0.944,-2.4c0.629,-0.661 1.392,-0.992 2.288,-0.992c0.896,0 1.659,0.331 2.288,0.992c0.629,0.662 0.944,1.462 0.944,2.4l-0,12.304l-2.16,0l-0,-2.16l-2.144,0l-0,2.16l-2.16,0l-0,-12.304Zm8.368,-3.392l4.304,5.936l-0,-5.632l2.16,0l-0,15.392l-2.16,0l-0,-6.096l-2.144,-2.976l-0,9.072l-2.16,0l-0,-15.696Zm-49.408,15.696l-2.16,0l-0,-9.072l-2.144,2.976l-2.16,-2.976l-0,9.072l-2.144,0l-0,-15.696l4.304,5.936l4.304,-5.936l-0,15.696Zm6.064,-4.304l-0,-8c-0,-0.341 -0.104,-0.632 -0.312,-0.872c-0.208,-0.24 -0.461,-0.36 -0.76,-0.36c-0.299,0 -0.552,0.12 -0.76,0.36c-0.208,0.24 -0.312,0.531 -0.312,0.872l-0,8l2.144,0Zm-26.64,0l-0,-8c-0,-0.341 -0.104,-0.632 -0.312,-0.872c-0.208,-0.24 -0.461,-0.36 -0.76,-0.36c-0.299,0 -0.552,0.12 -0.76,0.36c-0.208,0.24 -0.312,0.531 -0.312,0.872l-0,8l2.144,0Zm65.92,0l-0,-8c-0,-0.341 -0.104,-0.632 -0.312,-0.872c-0.208,-0.24 -0.461,-0.36 -0.76,-0.36c-0.299,0 -0.552,0.12 -0.76,0.36c-0.208,0.24 -0.312,0.531 -0.312,0.872l-0,8l2.144,0Z"/>
	<path fill="#000" d="M27.961,5.527c0.335,-0.309 0.722,-0.315 1.001,-0.228c0.153,0.045 0.27,0.117 0.351,0.171c0.081,-0.144 0.144,-0.261 0.162,-0.306c0.018,-0.054 0.09,-0.099 0.153,-0.099c0.09,0 0.162,0.072 0.162,0.162c-0.027,0.666 0.144,1.026 0.414,1.224c0.27,0.198 0.657,0.261 1.116,0.198c0.918,-0.117 2.025,-0.693 2.556,-1.089c0.027,-0.018 0.072,-0.036 0.099,-0.036c0.09,0 0.162,0.072 0.162,0.162c-0,0.045 -0.036,0.099 -0.072,0.126c-0.585,0.432 -1.692,1.017 -2.7,1.152c-0.504,0.063 -0.999,0.027 -1.359,-0.252c-0.261,-0.198 -0.432,-0.504 -0.504,-0.927c-0.099,0.162 -0.216,0.333 -0.351,0.504c-0.153,0.198 -0.324,0.378 -0.486,0.522c-0.162,0.144 -0.333,0.261 -0.531,0.252c-0.162,-0.009 -0.297,-0.072 -0.396,-0.18c-0.099,-0.108 -0.153,-0.243 -0.171,-0.396c-0.016,-0.125 -0.004,-0.259 0.036,-0.394c-1.461,0.784 -2.774,0.875 -3.726,0.826c-0.216,-0.009 -0.405,-0.027 -0.576,-0.045c-0.117,0.198 -0.261,0.369 -0.441,0.45c-0.117,0.054 -0.27,0.054 -0.396,-0.027c-0.126,-0.081 -0.207,-0.207 -0.27,-0.387l-0.009,-0.018c-0.018,-0.063 -0.027,-0.126 -0,-0.198c0.027,-0.072 0.09,-0.135 0.144,-0.162c0.117,-0.054 0.225,-0.045 0.369,-0.036c0.117,0.009 0.261,0.018 0.423,0.036c0.117,-0.243 0.189,-0.522 0.189,-0.702c-0,-0.09 -0.027,-0.153 -0.045,-0.18c-0.018,-0.027 -0.027,-0.036 -0.099,-0.027c-0.405,0.045 -0.729,0.252 -0.981,0.558c-0.063,0.081 -0.135,0.171 -0.189,0.261c-0.009,0.405 -0.009,0.855 -0.018,1.26c-0.009,0.342 -0.027,0.639 -0.09,0.882c-0.027,0.117 -0.072,0.225 -0.135,0.315c-0.063,0.09 -0.189,0.162 -0.306,0.162c-0.081,0 -0.153,-0.054 -0.189,-0.099c-0.036,-0.045 -0.054,-0.108 -0.072,-0.162c-0.036,-0.117 -0.054,-0.252 -0.054,-0.414c-0,-0.324 0.063,-0.747 0.189,-1.179c0.09,-0.288 0.198,-0.585 0.36,-0.855c0.004,-0.122 0.009,-0.243 0.015,-0.358c-0.618,0.4 -1.564,0.853 -2.436,0.97c-0.504,0.063 -0.999,0.027 -1.359,-0.252c-0.261,-0.198 -0.432,-0.504 -0.504,-0.927c-0.099,0.162 -0.216,0.333 -0.351,0.504c-0.153,0.198 -0.324,0.378 -0.486,0.522c-0.162,0.144 -0.333,0.261 -0.531,0.252c-0.162,-0.009 -0.297,-0.072 -0.396,-0.18c-0.099,-0.108 -0.153,-0.243 -0.171,-0.396c-0.014,-0.116 -0.005,-0.24 0.028,-0.365c-0.619,0.352 -1.746,0.887 -2.881,0.887c-0.315,0 -0.549,-0.09 -0.711,-0.234c-0.162,-0.144 -0.234,-0.333 -0.279,-0.504c-0.045,-0.171 -0.063,-0.333 -0.099,-0.45c-0.036,-0.117 -0.054,-0.153 -0.099,-0.171c-0.009,0 -0.018,0 -0.054,0.018c-0.036,0.018 -0.072,0.054 -0.126,0.108c-0.099,0.117 -0.216,0.306 -0.333,0.495c-0.117,0.189 -0.225,0.378 -0.342,0.531c-0.063,0.072 -0.126,0.144 -0.198,0.189c-0.072,0.045 -0.189,0.072 -0.288,0.036c-0.162,-0.063 -0.243,-0.216 -0.27,-0.36c-0.027,-0.144 -0.036,-0.297 -0.018,-0.45c0.007,-0.08 0.018,-0.159 0.031,-0.232c-2.036,1.04 -4.801,1.015 -4.801,1.015c-0.324,0 -0.585,-0.072 -0.774,-0.189c-0.189,-0.117 -0.315,-0.315 -0.333,-0.513c-0.027,-0.252 0.09,-0.513 0.333,-0.72c0.009,-0.009 0.027,-0.018 0.036,-0.027c0.135,-0.108 0.306,-0.207 0.504,-0.288c0.144,-0.054 0.27,-0.081 0.387,-0.081l0.054,0c0.135,0.009 0.243,0.045 0.333,0.117c0.18,0.135 0.234,0.369 0.171,0.567c-0.063,0.198 -0.261,0.36 -0.522,0.369c-0.234,0.009 -0.504,-0.09 -0.828,-0.333c-0.117,0.135 -0.162,0.261 -0.153,0.369c0.009,0.099 0.063,0.189 0.189,0.27c0.126,0.081 0.324,0.135 0.603,0.135l0.009,0c-0,0 2.979,0 4.914,-1.125c0.018,-0.009 0.054,-0.027 0.081,-0.027c0.004,0 0.009,0 0.014,0.001c0.004,-0.001 0.008,-0.001 0.013,-0.001c0.09,0 0.162,0.072 0.162,0.162c-0,0.009 -0.009,0.036 -0.009,0.045c-0,0 -0.063,0.252 -0.09,0.513c-0.009,0.135 -0.018,0.27 -0,0.36c0.018,0.081 0.036,0.108 0.063,0.117c-0,0 0.009,0.009 0.018,0c0.027,-0.018 0.072,-0.054 0.117,-0.117c0.099,-0.117 0.198,-0.315 0.315,-0.504c0.117,-0.189 0.234,-0.378 0.369,-0.531c0.063,-0.072 0.135,-0.144 0.216,-0.189c0.054,-0.027 0.117,-0.045 0.18,-0.045l0.018,0c0.036,0 0.063,0.009 0.099,0.018c0.18,0.054 0.27,0.225 0.315,0.378c0.045,0.153 0.063,0.315 0.099,0.459c0.036,0.144 0.099,0.27 0.189,0.351c0.09,0.081 0.234,0.153 0.495,0.153c1.539,0 3.186,-1.134 3.186,-1.134c0.017,-0.011 0.037,-0.023 0.057,-0.029c0.336,-0.313 0.725,-0.319 1.005,-0.232c0.153,0.045 0.27,0.117 0.351,0.171c0.081,-0.144 0.144,-0.261 0.162,-0.306c0.018,-0.054 0.09,-0.099 0.153,-0.099c0.09,0 0.162,0.072 0.162,0.162c-0.027,0.666 0.144,1.026 0.414,1.224c0.27,0.198 0.657,0.261 1.116,0.198c0.918,-0.117 2.025,-0.693 2.556,-1.089c0.027,-0.018 0.072,-0.036 0.099,-0.036c0.003,0 0.006,0 0.009,0.001c0.003,-0.001 0.006,-0.001 0.009,-0.001c0.09,0 0.162,0.072 0.162,0.162l-0,0.027c-0.009,0.054 -0.009,0.099 -0.018,0.162c0.288,-0.306 0.648,-0.522 1.107,-0.567c0.018,0 0.027,-0.009 0.045,-0.009l0.009,0c0.126,0 0.252,0.063 0.324,0.153c0.081,0.108 0.108,0.243 0.108,0.378c-0,0.234 -0.063,0.495 -0.171,0.738c0.135,0.009 0.288,0.027 0.441,0.036c1.017,0.054 2.43,-0.063 4.005,-1.053c0.012,-0.012 0.038,-0.021 0.061,-0.024Zm-6.289,1.626c-0.018,0.045 -0.027,0.099 -0.045,0.144c-0.117,0.405 -0.171,0.801 -0.171,1.089c-0,0.144 0.018,0.261 0.036,0.324c0.027,-0.036 0.054,-0.099 0.081,-0.198c0.045,-0.198 0.081,-0.486 0.09,-0.819c0.009,-0.171 0.009,-0.36 0.009,-0.54Zm-17.764,-5.697c0.089,0.001 0.16,0.073 0.16,0.162c-0,0.045 -0.018,0.099 -0.054,0.126c-1.233,1.044 -2.79,3.366 -3.177,3.951c0.162,0.099 0.567,0.333 1.08,0.621c0.315,0.18 0.648,0.351 0.918,0.486c0.135,0.063 0.261,0.126 0.36,0.162c0.099,0.036 0.171,0.054 0.171,0.054c0.09,0 0.162,0.063 0.162,0.153c-0,0.09 -0.072,0.162 -0.162,0.162c-0.099,0 -0.18,-0.027 -0.288,-0.072c-0.108,-0.045 -0.234,-0.099 -0.378,-0.171c-0.279,-0.135 -0.612,-0.315 -0.936,-0.495c-0.459,-0.261 -0.9,-0.513 -1.107,-0.639c-0.063,0.531 -0.099,0.972 -0.072,1.197l-0,0.027c-0,0.09 -0.072,0.153 -0.162,0.153c-0.081,0 -0.153,-0.063 -0.162,-0.144c-0.036,-0.306 0.009,-0.792 0.09,-1.368c0.081,-0.576 0.189,-1.233 0.306,-1.863c0.234,-1.26 0.477,-2.376 0.477,-2.376c0.018,-0.072 0.09,-0.126 0.162,-0.126c0.09,0 0.162,0.072 0.162,0.162c-0,0.004 -0.002,0.008 -0.003,0.013l-0.004,0.01c-0.001,0.005 -0.002,0.01 -0.002,0.013c-0,0 -0.243,1.116 -0.477,2.367c-0.072,0.396 -0.144,0.801 -0.207,1.188c0.576,-0.864 1.908,-2.745 3.042,-3.708c0.027,-0.018 0.072,-0.045 0.099,-0.045l0.002,0Zm18.772,5.355l-0.081,0c-0.045,0 -0.081,0.009 -0.099,0.009c0.054,0.126 0.117,0.198 0.144,0.216c0.036,0.018 0.045,0.018 0.09,0c0.054,-0.027 0.126,-0.099 0.207,-0.198c-0.099,-0.009 -0.189,-0.027 -0.261,-0.027Zm47.816,-1.261c-0.005,-0.704 0.067,-1.433 0.181,-2.078c0.099,-0.531 0.225,-1.008 0.378,-1.359c0.072,-0.171 0.153,-0.324 0.252,-0.432c0.099,-0.108 0.225,-0.189 0.369,-0.189c0.135,0 0.243,0.072 0.315,0.18c0.072,0.108 0.117,0.234 0.144,0.387c0.054,0.297 0.036,0.684 -0.036,1.116c-0.144,0.864 -0.54,1.899 -1.269,2.628l-0.009,0c0.009,0.171 0.018,0.342 0.036,0.504c0.054,-0.09 0.117,-0.189 0.189,-0.288c0.288,-0.387 0.738,-0.81 1.359,-0.81c0.261,0 0.459,0.108 0.54,0.279c0.081,0.171 0.072,0.342 0.063,0.504c-0.009,0.162 -0.009,0.324 0.018,0.432c0.027,0.108 0.072,0.171 0.225,0.216l0.009,0c0.198,0.063 0.54,0.045 0.927,-0.036c0.387,-0.081 0.828,-0.234 1.233,-0.387c0.81,-0.315 1.503,-0.675 1.503,-0.675c0.018,-0.009 0.054,-0.018 0.072,-0.018c0.09,0 0.162,0.072 0.162,0.162c-0,0.054 -0.045,0.117 -0.09,0.144c-0,0 -0.702,0.36 -1.53,0.684c-0.414,0.162 -0.864,0.315 -1.278,0.405c-0.414,0.09 -0.801,0.126 -1.107,0.027c-0.243,-0.072 -0.378,-0.261 -0.432,-0.441c-0.054,-0.18 -0.036,-0.36 -0.027,-0.522c0.009,-0.162 -0.009,-0.297 -0.036,-0.36c-0.027,-0.063 -0.063,-0.09 -0.252,-0.09c-0.477,0 -0.846,0.324 -1.098,0.675c-0.252,0.351 -0.378,0.693 -0.378,0.693c-0.018,0.063 -0.09,0.108 -0.153,0.108c-0.072,0 -0.144,-0.054 -0.162,-0.126c-0.058,-0.3 -0.093,-0.624 -0.108,-0.958c-0.612,0.396 -1.723,0.828 -2.7,0.976c-0.531,0.081 -1.017,0.09 -1.386,-0.099c-0.18,-0.09 -0.342,-0.243 -0.414,-0.441c-0.043,-0.118 -0.061,-0.249 -0.052,-0.394c-0.58,0.333 -1.469,0.74 -2.297,0.943c-0.477,0.117 -0.936,0.162 -1.314,0.072c-0.378,-0.09 -0.675,-0.36 -0.738,-0.792c-0.012,-0.087 -0.02,-0.182 -0.027,-0.277c-0.607,0.399 -1.731,0.839 -2.718,0.988c-0.531,0.081 -1.017,0.09 -1.386,-0.099c-0.18,-0.09 -0.342,-0.243 -0.414,-0.441c-0.041,-0.112 -0.059,-0.236 -0.053,-0.373c-0.198,0.13 -0.502,0.316 -0.865,0.49c-0.657,0.315 -1.512,0.621 -2.313,0.531c-0.324,-0.036 -0.549,-0.144 -0.702,-0.288c-0.153,-0.144 -0.216,-0.324 -0.243,-0.486c-0.027,-0.162 -0.036,-0.306 -0.045,-0.396c-0.009,-0.036 -0.018,-0.063 -0.018,-0.072c-0.018,0 -0.063,0.009 -0.144,0.081c-0.09,0.072 -0.189,0.198 -0.297,0.324c-0.108,0.126 -0.225,0.243 -0.351,0.342c-0.126,0.099 -0.297,0.162 -0.468,0.117c-0.153,-0.045 -0.261,-0.162 -0.297,-0.288c-0.036,-0.126 -0.018,-0.234 -0.009,-0.333c0.009,-0.099 0.018,-0.18 0.009,-0.225c-0.009,-0.045 0.009,-0.036 -0.045,-0.054c-0.09,-0.027 -0.135,0 -0.216,0.099c-0.081,0.099 -0.171,0.27 -0.243,0.441c-0.072,0.171 -0.144,0.351 -0.225,0.495c-0.045,0.072 -0.09,0.135 -0.162,0.189c-0.072,0.054 -0.18,0.081 -0.279,0.045c-0.162,-0.054 -0.243,-0.207 -0.279,-0.351c-0.036,-0.144 -0.045,-0.297 -0.036,-0.441c0.005,-0.082 0.013,-0.161 0.022,-0.232c-2.038,1.049 -4.819,1.024 -4.819,1.024c-0.324,0 -0.585,-0.072 -0.774,-0.189c-0.189,-0.117 -0.315,-0.315 -0.333,-0.513c-0.006,-0.048 -0.006,-0.097 -0,-0.146c-0.17,0.103 -0.375,0.217 -0.603,0.326c-0.657,0.315 -1.512,0.621 -2.313,0.531c-0.324,-0.036 -0.549,-0.144 -0.702,-0.288c-0.153,-0.144 -0.216,-0.324 -0.243,-0.486c-0.027,-0.162 -0.036,-0.306 -0.045,-0.396c-0.009,-0.036 -0.018,-0.063 -0.018,-0.072c-0.018,0 -0.063,0.009 -0.144,0.081c-0.09,0.072 -0.189,0.198 -0.297,0.324c-0.108,0.126 -0.225,0.243 -0.351,0.342c-0.126,0.099 -0.297,0.162 -0.468,0.117c-0.153,-0.045 -0.261,-0.162 -0.297,-0.288c-0.036,-0.126 -0.018,-0.234 -0.009,-0.333c0.009,-0.099 0.018,-0.18 0.009,-0.225c-0.009,-0.045 0.009,-0.036 -0.045,-0.054c-0.09,-0.027 -0.135,0 -0.216,0.099c-0.081,0.099 -0.171,0.27 -0.243,0.441c-0.072,0.171 -0.144,0.351 -0.225,0.495c-0.045,0.072 -0.09,0.135 -0.162,0.189c-0.072,0.054 -0.18,0.081 -0.279,0.045c-0.162,-0.054 -0.243,-0.207 -0.279,-0.351c-0.036,-0.144 -0.045,-0.297 -0.036,-0.441c0.018,-0.297 0.081,-0.558 0.081,-0.558c0.018,-0.072 0.081,-0.126 0.153,-0.126c0.09,0 0.162,0.072 0.162,0.162c-0,0.009 -0.009,0.027 -0.009,0.036c-0,0 -0.054,0.252 -0.063,0.504c-0.009,0.126 -0.009,0.252 0.018,0.342c0.018,0.072 0.045,0.108 0.072,0.126c0.009,-0.009 0.036,-0.045 0.063,-0.09c0.063,-0.108 0.126,-0.279 0.207,-0.459c0.081,-0.18 0.162,-0.378 0.288,-0.522c0.099,-0.117 0.261,-0.216 0.432,-0.216l0.036,0c0.027,0 0.054,0.009 0.081,0.018c0.144,0.036 0.252,0.171 0.279,0.288c0.027,0.117 0.009,0.225 -0,0.324c-0.009,0.099 -0.009,0.18 -0,0.225c0.009,0.045 -0,0.045 0.063,0.063c0.045,0.009 0.099,-0.009 0.189,-0.072c0.09,-0.063 0.198,-0.18 0.306,-0.297c0.108,-0.117 0.216,-0.252 0.333,-0.351c0.117,-0.099 0.252,-0.189 0.423,-0.153c0.081,0.018 0.171,0.081 0.207,0.144c0.036,0.063 0.045,0.135 0.054,0.198c0.018,0.126 0.027,0.261 0.045,0.387c0.018,0.126 0.063,0.225 0.153,0.315c0.09,0.09 0.234,0.162 0.513,0.198c0.693,0.081 1.503,-0.198 2.133,-0.504c0.63,-0.306 1.071,-0.63 1.071,-0.63c0.02,-0.013 0.05,-0.027 0.075,-0.033c0.13,-0.098 0.29,-0.189 0.474,-0.264c0.144,-0.054 0.27,-0.081 0.387,-0.081l0.054,0c0.135,0.009 0.243,0.045 0.333,0.117c0.18,0.135 0.234,0.369 0.171,0.567c-0.063,0.198 -0.261,0.36 -0.522,0.369c-0.234,0.009 -0.504,-0.09 -0.828,-0.333c-0.117,0.135 -0.162,0.261 -0.153,0.369c0.009,0.099 0.063,0.189 0.189,0.27c0.126,0.081 0.324,0.135 0.603,0.135l0.009,0c-0,0 2.979,0 4.914,-1.125c0.018,-0.009 0.054,-0.027 0.081,-0.027c0.004,0 0.009,0 0.014,0.001c0.004,-0.001 0.008,-0.001 0.013,-0.001c0.09,0 0.162,0.072 0.162,0.162c-0,0.009 -0.009,0.027 -0.009,0.036c-0,0 -0.054,0.252 -0.063,0.504c-0.009,0.126 -0.009,0.252 0.018,0.342c0.018,0.072 0.045,0.108 0.072,0.126c0.009,-0.009 0.036,-0.045 0.063,-0.09c0.063,-0.108 0.126,-0.279 0.207,-0.459c0.081,-0.18 0.162,-0.378 0.288,-0.522c0.099,-0.117 0.261,-0.216 0.432,-0.216l0.036,0c0.027,0 0.054,0.009 0.081,0.018c0.144,0.036 0.252,0.171 0.279,0.288c0.027,0.117 0.009,0.225 -0,0.324c-0.009,0.099 -0.009,0.18 -0,0.225c0.009,0.045 -0,0.045 0.063,0.063c0.045,0.009 0.099,-0.009 0.189,-0.072c0.09,-0.063 0.198,-0.18 0.306,-0.297c0.108,-0.117 0.216,-0.252 0.333,-0.351c0.117,-0.099 0.252,-0.189 0.423,-0.153c0.081,0.018 0.171,0.081 0.207,0.144c0.036,0.063 0.045,0.135 0.054,0.198c0.018,0.126 0.027,0.261 0.045,0.387c0.018,0.126 0.063,0.225 0.153,0.315c0.09,0.09 0.234,0.162 0.513,0.198c0.693,0.081 1.503,-0.198 2.133,-0.504c0.63,-0.306 1.071,-0.63 1.071,-0.63c0.027,-0.018 0.072,-0.036 0.099,-0.036c0.007,0 0.015,0.001 0.023,0.002c0.007,-0.001 0.014,-0.002 0.022,-0.002c0.09,0 0.162,0.072 0.162,0.162c-0,0.009 -0.009,0.036 -0.009,0.045c-0.063,0.234 -0.045,0.405 -0,0.522c0.045,0.117 0.126,0.198 0.252,0.261c0.252,0.126 0.693,0.153 1.197,0.072c1.008,-0.153 2.241,-0.666 2.718,-1.026c0.007,-0.005 0.016,-0.01 0.026,-0.015c0.004,-0.778 0.171,-1.632 0.406,-2.352c0.153,-0.468 0.342,-0.873 0.54,-1.179c0.198,-0.306 0.414,-0.522 0.702,-0.522c0.135,0 0.252,0.099 0.306,0.216c0.054,0.117 0.072,0.252 0.072,0.405c0.009,0.315 -0.054,0.72 -0.18,1.161c-0.252,0.855 -0.747,1.854 -1.521,2.475c0.009,0.135 0.018,0.27 0.036,0.396c0.045,0.324 0.216,0.459 0.504,0.531c0.288,0.072 0.702,0.027 1.152,-0.081c0.9,-0.216 1.935,-0.711 2.439,-1.044c0.018,-0.018 0.063,-0.027 0.09,-0.027c0.009,0 0.018,0.001 0.028,0.003c0.008,-0.002 0.017,-0.003 0.026,-0.003c0.09,0 0.162,0.072 0.162,0.162c-0,0.009 -0.009,0.036 -0.009,0.045c-0.063,0.234 -0.045,0.405 -0,0.522c0.045,0.117 0.126,0.198 0.252,0.261c0.252,0.126 0.693,0.153 1.197,0.072c1.008,-0.153 2.241,-0.666 2.718,-1.026c0.005,-0.003 0.011,-0.007 0.017,-0.01Zm-53.972,0.019l-0.018,0c-0.144,0 -0.297,0.054 -0.459,0.216c-0.216,0.216 -0.288,0.477 -0.27,0.666c0.009,0.09 0.045,0.171 0.09,0.216c0.045,0.045 0.099,0.081 0.18,0.081c0.036,0 0.162,-0.054 0.306,-0.171c0.144,-0.117 0.297,-0.297 0.441,-0.486c0.09,-0.117 0.162,-0.234 0.243,-0.351c-0.063,-0.045 -0.162,-0.099 -0.279,-0.135c-0.072,-0.027 -0.153,-0.036 -0.234,-0.036Zm12.105,0l-0.018,0c-0.144,0 -0.297,0.054 -0.459,0.216c-0.216,0.216 -0.288,0.477 -0.27,0.666c0.009,0.09 0.045,0.171 0.09,0.216c0.045,0.045 0.099,0.081 0.18,0.081c0.036,0 0.162,-0.054 0.306,-0.171c0.144,-0.117 0.297,-0.297 0.441,-0.486c0.09,-0.117 0.162,-0.234 0.243,-0.351c-0.063,-0.045 -0.162,-0.099 -0.279,-0.135c-0.072,-0.027 -0.153,-0.036 -0.234,-0.036Zm-23.454,-0.072c-0.072,0 -0.162,0.018 -0.27,0.063c-0.099,0.036 -0.189,0.081 -0.261,0.126c0.252,0.171 0.441,0.225 0.558,0.225c0.144,-0.009 0.198,-0.072 0.225,-0.144c0.027,-0.072 -0,-0.162 -0.063,-0.216c-0.036,-0.027 -0.09,-0.054 -0.162,-0.054l-0.027,0Zm39.96,0c-0.072,0 -0.162,0.018 -0.27,0.063c-0.099,0.036 -0.189,0.081 -0.261,0.126c0.252,0.171 0.441,0.225 0.558,0.225c0.144,-0.009 0.198,-0.072 0.225,-0.144c0.027,-0.072 -0,-0.162 -0.063,-0.216c-0.036,-0.027 -0.09,-0.054 -0.162,-0.054l-0.027,0Zm26.541,-3.69c-0.018,0 -0.063,0.018 -0.126,0.09c-0.063,0.072 -0.126,0.189 -0.198,0.342c-0.135,0.315 -0.27,0.774 -0.36,1.287c-0.099,0.558 -0.162,1.188 -0.171,1.809c0.531,-0.648 0.846,-1.494 0.963,-2.214c0.072,-0.405 0.081,-0.765 0.036,-1.008c-0.018,-0.117 -0.063,-0.216 -0.09,-0.261c-0.027,-0.045 -0.036,-0.045 -0.054,-0.045Zm-8.469,0c-0.081,0 -0.252,0.117 -0.432,0.387c-0.18,0.27 -0.36,0.657 -0.504,1.098c-0.207,0.621 -0.351,1.359 -0.378,2.034c0.585,-0.567 0.99,-1.413 1.206,-2.142c0.126,-0.423 0.18,-0.801 0.171,-1.062c-0,-0.135 -0.027,-0.234 -0.045,-0.279l-0.018,-0.036Zm3.231,2.475l0.009,0c0.09,0 0.162,0.072 0.162,0.162c-0,0.009 -0.009,0.036 -0.009,0.045l-0.081,0.288c-0.018,0.063 -0.081,0.126 -0.153,0.126c-0.09,0 -0.162,-0.072 -0.162,-0.162c-0,-0.009 0.009,-0.036 0.009,-0.045l0.081,-0.288c0.018,-0.063 0.081,-0.126 0.144,-0.126Zm-8.946,0l0.009,0c0.09,0 0.162,0.072 0.162,0.162c-0,0.009 -0.009,0.036 -0.009,0.045l-0.081,0.288c-0.018,0.063 -0.081,0.126 -0.153,0.126c-0.09,0 -0.162,-0.072 -0.162,-0.162c-0,-0.009 0.009,-0.036 0.009,-0.045l0.081,-0.288c0.018,-0.063 0.081,-0.126 0.144,-0.126Z"/>
</svg>