<svg xmlns="http://www.w3.org/2000/svg" viewBox="0 0 100 45">
	<title>Ikuti Media Sosial Kami</title>
	<linearGradient id="gradient-1" gradientUnits="userSpaceOnUse" x1="7.2945" y1="3.7338" x2="93.1187" y2="53.2845">
		<stop offset="0" style="stop-color:#2aa4f4"/>
		<stop offset="1" style="stop-color:#007ad9"/>
	</linearGradient>
	<linearGradient id="gradient-2" gradientUnits="userSpaceOnUse" x1="7.2945" y1="3.7338" x2="93.1187" y2="53.2845">
		<stop offset="0" style="stop-color:#007ad9"/>
		<stop offset="1" style="stop-color:#2aa4f4"/>
	</linearGradient>
	<path fill="url(#gradient-2)" d="M35.88,28.136l-2.7,-0l-0,-11.34l-2.68,3.72l-2.7,-3.72l-0,11.34l-2.68,-0l-0,-19.62l5.38,7.42l5.38,-7.42l-0,19.62Zm24.82,-19.24l2.7,-0l-0,19.24l-2.7,-0l-0,-19.24Zm-14.88,16.54l-0,2.7l-6.74,-0l0,-19.24l5.4,-0l0,2.7l-2.7,-0l0,2.68l4.04,-0l0,2.7l-4.04,-0l0,8.46l4.04,-0Zm7.56,-16.54c1.093,0.04 2.02,0.47 2.78,1.29c0.76,0.82 1.14,1.803 1.14,2.95l-0,10.76c-0,1.173 -0.393,2.173 -1.18,3c-0.787,0.826 -1.74,1.24 -2.86,1.24l-4.04,-0l-0,-19.24l4.16,-0Zm13.42,3.86c-0,-1.174 0.393,-2.174 1.18,-3c0.787,-0.827 1.74,-1.24 2.86,-1.24c1.12,-0 2.073,0.413 2.86,1.24c0.787,0.826 1.18,1.826 1.18,3l-0,15.38l-2.7,-0l-0,-2.7l-2.68,-0l-0,2.7l-2.7,-0l-0,-15.38Zm-14.88,-1.16l-0,13.84l1.34,-0c0.373,-0 0.69,-0.15 0.95,-0.45c0.26,-0.3 0.39,-0.664 0.39,-1.09l-0,-10.76c-0,-0.427 -0.13,-0.79 -0.39,-1.09c-0.26,-0.3 -0.577,-0.45 -0.95,-0.45l-1.34,-0Zm20.26,11.16l-0,-10c-0,-0.427 -0.13,-0.79 -0.39,-1.09c-0.26,-0.3 -0.577,-0.45 -0.95,-0.45c-0.373,-0 -0.69,0.15 -0.95,0.45c-0.26,0.3 -0.39,0.663 -0.39,1.09l-0,10l2.68,-0Z"/>
	<path fill="url(#gradient-1)" d="M29.16,32.3c1.12,0 2.073,0.413 2.86,1.24c0.787,0.827 1.18,1.827 1.18,3l-0,4.22c-0,1.173 -0.393,2.173 -1.18,3c-0.787,0.827 -1.74,1.24 -2.86,1.24c-1.12,0 -2.073,-0.413 -2.86,-1.24c-0.787,-0.827 -1.18,-1.827 -1.18,-3l-0,-1.52l2.7,0l-0,1.52c-0,0.427 0.13,0.79 0.39,1.09c0.26,0.3 0.577,0.45 0.95,0.45c0.373,-0 0.69,-0.15 0.95,-0.45c0.26,-0.3 0.39,-0.663 0.39,-1.09l-0,-4.22c-0,-0.427 -0.13,-0.79 -0.39,-1.09c-0.26,-0.3 -0.577,-0.45 -0.95,-0.45c-1.12,0 -2.073,-0.413 -2.86,-1.24c-0.787,-0.827 -1.18,-1.827 -1.18,-3l-0,-1.52c-0,-1.173 0.393,-2.173 1.18,-3c0.787,-0.827 1.74,-1.24 2.86,-1.24c1.12,0 2.073,0.413 2.86,1.24c0.787,0.827 1.18,1.827 1.18,3l-0,1.52l-2.7,0l-0,-1.52c-0,-0.427 -0.13,-0.79 -0.39,-1.09c-0.26,-0.3 -0.577,-0.45 -0.95,-0.45c-0.373,0 -0.69,0.15 -0.95,0.45c-0.26,0.3 -0.39,0.663 -0.39,1.09l-0,1.52c-0,0.427 0.13,0.79 0.39,1.09c0.26,0.3 0.577,0.45 0.95,0.45Zm5.64,-3.06c-0,-1.173 0.393,-2.173 1.18,-3c0.787,-0.827 1.74,-1.24 2.86,-1.24c1.12,0 2.073,0.413 2.86,1.24c0.787,0.827 1.18,1.827 1.18,3l-0,11.52c-0,1.173 -0.393,2.173 -1.18,3c-0.787,0.827 -1.74,1.24 -2.86,1.24c-1.12,0 -2.073,-0.413 -2.86,-1.24c-0.787,-0.827 -1.18,-1.827 -1.18,-3l-0,-11.52Zm13.72,3.06c1.12,0 2.073,0.413 2.86,1.24c0.787,0.827 1.18,1.827 1.18,3l0,4.22c0,1.173 -0.393,2.173 -1.18,3c-0.787,0.827 -1.74,1.24 -2.86,1.24c-1.12,0 -2.073,-0.413 -2.86,-1.24c-0.787,-0.827 -1.18,-1.827 -1.18,-3l0,-1.52l2.7,0l-0,1.52c-0,0.427 0.13,0.79 0.39,1.09c0.26,0.3 0.577,0.45 0.95,0.45c0.373,0 0.69,-0.15 0.95,-0.45c0.26,-0.3 0.39,-0.663 0.39,-1.09l-0,-4.22c-0,-0.427 -0.13,-0.79 -0.39,-1.09c-0.26,-0.3 -0.577,-0.45 -0.95,-0.45c-1.12,0 -2.073,-0.413 -2.86,-1.24c-0.787,-0.827 -1.18,-1.827 -1.18,-3l-0,-1.52c-0,-1.173 0.393,-2.173 1.18,-3c0.787,-0.827 1.74,-1.24 2.86,-1.24c1.12,0 2.073,0.413 2.86,1.24c0.787,0.827 1.18,1.827 1.18,3l-0,1.52l-2.7,0l-0,-1.52c-0,-0.427 -0.13,-0.79 -0.39,-1.09c-0.26,-0.3 -0.577,-0.45 -0.95,-0.45c-0.373,0 -0.69,0.15 -0.95,0.45c-0.26,0.3 -0.39,0.663 -0.39,1.09l0,1.52c0,0.427 0.13,0.79 0.39,1.09c0.26,0.3 0.577,0.45 0.95,0.45Zm5.64,-6.92l2.7,0l0,19.24l-2.7,0l0,-19.24Zm13.96,0l2.7,0l0,16.54l4.04,0l0,2.7l-6.74,0l0,-19.24Zm-9.66,3.86c0,-1.173 0.393,-2.173 1.18,-3c0.787,-0.827 1.74,-1.24 2.86,-1.24c1.12,0 2.073,0.413 2.86,1.24c0.787,0.827 1.18,1.827 1.18,3l-0,15.38l-2.7,0l-0,-2.7l-2.68,0l-0,2.7l-2.7,0l-0,-15.38Zm-20.96,0l-0,11.52c-0,0.427 0.13,0.79 0.39,1.09c0.26,0.3 0.577,0.45 0.95,0.45c0.373,0 0.69,-0.15 0.95,-0.45c0.26,-0.3 0.39,-0.663 0.39,-1.09l-0,-11.52c-0,-0.427 -0.13,-0.79 -0.39,-1.09c-0.26,-0.3 -0.577,-0.45 -0.95,-0.45c-0.373,0 -0.69,0.15 -0.95,0.45c-0.26,0.3 -0.39,0.663 -0.39,1.09Zm26.34,10l-0,-10c-0,-0.427 -0.13,-0.79 -0.39,-1.09c-0.26,-0.3 -0.577,-0.45 -0.95,-0.45c-0.373,0 -0.69,0.15 -0.95,0.45c-0.26,0.3 -0.39,0.663 -0.39,1.09l-0,10l2.68,0Z"/>
	<path d="M36.223,21.312c0.13,0 0.234,0.104 0.234,0.234c-0,0.013 -0.013,0.039 -0.013,0.052c-0,0 -0.351,1.612 -0.689,3.419c-0.104,0.572 -0.208,1.157 -0.299,1.716c0.832,-1.248 2.756,-3.965 4.394,-5.356c0.039,-0.026 0.104,-0.065 0.143,-0.065c0.13,0 0.234,0.104 0.234,0.234c-0,0.065 -0.026,0.143 -0.078,0.182c-1.781,1.508 -4.03,4.862 -4.589,5.707c0.234,0.143 0.819,0.481 1.56,0.897c0.455,0.26 0.936,0.507 1.326,0.702c0.195,0.091 0.377,0.182 0.52,0.234c0.143,0.052 0.247,0.078 0.247,0.078c0.13,0 0.234,0.091 0.234,0.221c-0,0.13 -0.104,0.234 -0.234,0.234c-0.143,0 -0.26,-0.039 -0.416,-0.104c-0.156,-0.065 -0.338,-0.143 -0.546,-0.247c-0.403,-0.195 -0.884,-0.455 -1.352,-0.715c-0.663,-0.377 -1.3,-0.741 -1.599,-0.923c-0.091,0.767 -0.143,1.404 -0.104,1.729l-0,0.039c-0,0.13 -0.104,0.221 -0.234,0.221c-0.117,0 -0.221,-0.091 -0.234,-0.208c-0.052,-0.442 0.013,-1.144 0.13,-1.976c0.117,-0.832 0.273,-1.781 0.442,-2.691c0.338,-1.82 0.689,-3.432 0.689,-3.432c0.026,-0.104 0.13,-0.182 0.234,-0.182Zm12.754,6.577c-0.894,0.572 -2.242,1.213 -3.485,1.379c-0.728,0.091 -1.443,0.039 -1.963,-0.364c-0.377,-0.286 -0.624,-0.728 -0.728,-1.339c-0.143,0.234 -0.312,0.481 -0.507,0.728c-0.221,0.286 -0.468,0.546 -0.702,0.754c-0.234,0.208 -0.481,0.377 -0.767,0.364c-0.234,-0.013 -0.429,-0.104 -0.572,-0.26c-0.143,-0.156 -0.221,-0.351 -0.247,-0.572c-0.052,-0.429 0.117,-0.936 0.52,-1.339c0.494,-0.494 1.079,-0.507 1.495,-0.377c0.221,0.065 0.39,0.169 0.507,0.247c0.117,-0.208 0.208,-0.377 0.234,-0.442c0.026,-0.078 0.13,-0.143 0.221,-0.143c0.13,0 0.234,0.104 0.234,0.234c-0.039,0.962 0.208,1.482 0.598,1.768c0.39,0.286 0.949,0.377 1.612,0.286c1.326,-0.169 2.925,-1.001 3.692,-1.573c0.039,-0.026 0.104,-0.052 0.143,-0.052c0.004,0 0.009,0 0.013,0.001c0.004,-0.001 0.009,-0.001 0.013,-0.001c0.13,0 0.234,0.104 0.234,0.234c-0,0.013 -0.013,0.039 -0.013,0.052c-0,0 -0.078,0.364 -0.091,0.728c-0.013,0.182 -0.013,0.364 0.026,0.494c0.026,0.104 0.065,0.156 0.104,0.182c0.013,-0.013 0.052,-0.065 0.091,-0.13c0.091,-0.156 0.182,-0.403 0.299,-0.663c0.117,-0.26 0.234,-0.546 0.416,-0.754c0.143,-0.169 0.377,-0.312 0.624,-0.312l0.052,0c0.039,0 0.078,0.013 0.117,0.026c0.208,0.052 0.364,0.247 0.403,0.416c0.039,0.169 0.013,0.325 -0,0.468c-0.013,0.143 -0.013,0.26 -0,0.325c0.013,0.065 -0,0.065 0.091,0.091c0.065,0.013 0.143,-0.013 0.273,-0.104c0.13,-0.091 0.286,-0.26 0.442,-0.429c0.156,-0.169 0.312,-0.364 0.481,-0.507c0.169,-0.143 0.364,-0.273 0.611,-0.221c0.117,0.026 0.247,0.117 0.299,0.208c0.052,0.091 0.065,0.195 0.078,0.286c0.026,0.182 0.039,0.377 0.065,0.559c0.026,0.182 0.091,0.325 0.221,0.455c0.13,0.13 0.338,0.234 0.741,0.286c1.001,0.117 2.171,-0.286 3.081,-0.728c0.91,-0.442 1.547,-0.91 1.547,-0.91c0.039,-0.026 0.104,-0.052 0.143,-0.052c0.011,0 0.022,0.001 0.033,0.003c0.011,-0.002 0.021,-0.003 0.032,-0.003c0.13,0 0.234,0.104 0.234,0.234c-0,0.013 -0.013,0.052 -0.013,0.065c-0.091,0.338 -0.065,0.585 -0,0.754c0.065,0.169 0.182,0.286 0.364,0.377c0.364,0.182 1.001,0.221 1.729,0.104c1.456,-0.221 3.237,-0.962 3.926,-1.482c0.039,-0.026 0.104,-0.052 0.143,-0.052c0.13,0 0.234,0.104 0.234,0.234c-0,0.065 -0.052,0.143 -0.104,0.182c-0.806,0.611 -2.587,1.339 -4.134,1.573c-0.767,0.117 -1.469,0.13 -2.002,-0.143c-0.26,-0.13 -0.494,-0.351 -0.598,-0.637c-0.059,-0.162 -0.085,-0.341 -0.077,-0.54c-0.286,0.189 -0.724,0.457 -1.249,0.709c-0.949,0.455 -2.184,0.897 -3.341,0.767c-0.468,-0.052 -0.793,-0.208 -1.014,-0.416c-0.221,-0.208 -0.312,-0.468 -0.351,-0.702c-0.039,-0.234 -0.052,-0.442 -0.065,-0.572c-0.013,-0.052 -0.026,-0.091 -0.026,-0.104c-0.026,0 -0.091,0.013 -0.208,0.117c-0.13,0.104 -0.273,0.286 -0.429,0.468c-0.156,0.182 -0.325,0.351 -0.507,0.494c-0.182,0.143 -0.429,0.234 -0.676,0.169c-0.221,-0.065 -0.377,-0.234 -0.429,-0.416c-0.052,-0.182 -0.026,-0.338 -0.013,-0.481c0.013,-0.143 0.026,-0.26 0.013,-0.325c-0.013,-0.065 0.013,-0.052 -0.065,-0.078c-0.13,-0.039 -0.195,0 -0.312,0.143c-0.117,0.143 -0.247,0.39 -0.351,0.637c-0.104,0.247 -0.208,0.507 -0.325,0.715c-0.065,0.104 -0.13,0.195 -0.234,0.273c-0.104,0.078 -0.26,0.117 -0.403,0.065c-0.234,-0.078 -0.351,-0.299 -0.403,-0.507c-0.052,-0.208 -0.065,-0.429 -0.052,-0.637c0.006,-0.1 0.015,-0.197 0.027,-0.287Zm-7.437,-0.636l-0.026,0c-0.208,0 -0.429,0.078 -0.663,0.312c-0.312,0.312 -0.416,0.689 -0.39,0.962c0.013,0.13 0.065,0.247 0.13,0.312c0.065,0.065 0.143,0.117 0.26,0.117c0.052,0 0.234,-0.078 0.442,-0.247c0.208,-0.169 0.429,-0.429 0.637,-0.702c0.13,-0.169 0.234,-0.338 0.351,-0.507c-0.091,-0.065 -0.234,-0.143 -0.403,-0.195c-0.104,-0.039 -0.221,-0.052 -0.338,-0.052Zm18.551,-1.859l0.013,0c0.13,0 0.234,0.104 0.234,0.234c-0,0.013 -0.013,0.052 -0.013,0.065l-0.117,0.416c-0.026,0.091 -0.117,0.182 -0.221,0.182c-0.13,0 -0.234,-0.104 -0.234,-0.234c-0,-0.013 0.013,-0.052 0.013,-0.065l0.117,-0.416c0.026,-0.091 0.117,-0.182 0.208,-0.182Z"/>
	<path d="M38.665,0l0.05,0c0.13,0 0.27,0.02 0.4,0.07c0.06,0.02 0.11,0.1 0.11,0.17c-0,0.1 -0.08,0.18 -0.18,0.18c-0.02,-0 -0.04,-0.01 -0.06,-0.02c-0.08,-0.03 -0.19,-0.04 -0.3,-0.04c-0.04,0.19 -0.28,1.32 -0.52,2.59c-0.13,0.69 -0.26,1.42 -0.34,2.05c-0.07,0.52 -0.1,0.98 -0.1,1.27c0.12,0 0.25,0.01 0.4,0.03c0.09,0.01 0.16,0.09 0.16,0.18c-0,0.1 -0.08,0.17 -0.18,0.17l-0.02,0c-0.2,-0.02 -0.37,-0.02 -0.51,-0.02l-0.03,0c-0.12,0.01 -0.22,0.02 -0.29,0.03c-0.16,0.03 -0.2,0.06 -0.2,0.06c-0.02,0.01 -0.06,0.03 -0.09,0.03c-0.1,0 -0.18,-0.08 -0.18,-0.18c0,-0.06 0.04,-0.12 0.09,-0.15c0,0 0.12,-0.06 0.32,-0.1c0.05,-0.01 0.1,-0.02 0.17,-0.03c-0.01,-0.34 0.04,-0.8 0.11,-1.34c0.09,-0.64 0.21,-1.37 0.34,-2.07c0.21,-1.12 0.42,-2.13 0.5,-2.49c-0.17,0.03 -0.28,0.07 -0.28,0.07c-0.01,0 -0.04,0.01 -0.06,0.01c-0.1,0 -0.18,-0.08 -0.18,-0.18c0,-0.07 0.06,-0.15 0.13,-0.17c-0,-0 0.18,-0.06 0.41,-0.09c0.1,-0.02 0.21,-0.03 0.33,-0.03Zm14.369,4.629c0.003,-0.699 0.121,-1.445 0.311,-2.129c-0.42,0.03 -0.84,0.06 -1.25,0.08l-0.01,-0c-0.1,-0 -0.18,-0.08 -0.18,-0.18c0,-0.1 0.07,-0.18 0.17,-0.18c0.45,-0.02 0.92,-0.05 1.38,-0.09c0.01,-0.03 0.02,-0.07 0.03,-0.1c0.17,-0.52 0.38,-0.97 0.6,-1.31c0.22,-0.34 0.46,-0.58 0.78,-0.58c0.09,0 0.18,0.06 0.22,0.13c0.04,0.07 0.04,0.13 0.04,0.2c0,0.13 -0.03,0.28 -0.08,0.47c-0.08,0.31 -0.22,0.7 -0.38,1.12c0.14,0 0.27,-0.01 0.41,-0.01c0.58,-0 1.14,0.04 1.63,0.18c0.07,0.02 0.13,0.09 0.13,0.17c0,0.1 -0.08,0.18 -0.18,0.18c-0.01,-0 -0.04,-0.01 -0.05,-0.01c-0.58,-0.16 -1.3,-0.17 -2.08,-0.14c-0.39,0.95 -0.86,1.93 -1.13,2.39c0,0.17 0.02,0.34 0.04,0.49c0.05,0.36 0.23,0.51 0.55,0.59c0.32,0.08 0.79,0.03 1.29,-0.09c1,-0.24 2.15,-0.79 2.71,-1.16c0.02,-0.02 0.07,-0.03 0.1,-0.03c0.007,-0 0.014,0 0.021,0.001c0.006,-0.001 0.012,-0.001 0.019,-0.001c0.1,-0 0.18,0.08 0.18,0.18c0,0.01 -0.01,0.04 -0.01,0.05c-0.07,0.26 -0.05,0.45 0,0.58c0.05,0.13 0.14,0.22 0.28,0.29c0.28,0.14 0.77,0.17 1.33,0.08c1.12,-0.17 2.49,-0.74 3.02,-1.14c0.03,-0.02 0.08,-0.04 0.11,-0.04c0.1,0 0.18,0.08 0.18,0.18c0,0.05 -0.04,0.11 -0.08,0.14c-0.62,0.47 -1.99,1.03 -3.18,1.21c-0.59,0.09 -1.13,0.1 -1.54,-0.11c-0.2,-0.1 -0.38,-0.27 -0.46,-0.49c-0.047,-0.128 -0.066,-0.269 -0.058,-0.426c-0.645,0.368 -1.621,0.813 -2.532,1.036c-0.53,0.13 -1.04,0.18 -1.46,0.08c-0.42,-0.1 -0.75,-0.4 -0.82,-0.88c-0.013,-0.1 -0.022,-0.21 -0.03,-0.319c-1.209,0.831 -2.444,1.267 -3.4,1.209c-0.5,-0.03 -0.93,-0.2 -1.22,-0.54c-0.16,-0.19 -0.27,-0.43 -0.33,-0.7c-0.05,0.08 -0.09,0.17 -0.14,0.26c-0.14,0.23 -0.31,0.46 -0.51,0.64c-0.2,0.18 -0.43,0.31 -0.7,0.29c-0.24,-0.02 -0.43,-0.14 -0.54,-0.3c-0.11,-0.16 -0.14,-0.34 -0.15,-0.51c-0.003,-0.096 0.003,-0.188 0.013,-0.272c-2.513,1.328 -4.954,1.152 -4.983,1.152c-0.61,0 -0.95,-0.26 -1.09,-0.54c-0.03,-0.06 -0.05,-0.12 -0.07,-0.17c-0.28,0.36 -0.48,0.64 -0.48,0.64c-0.03,0.04 -0.09,0.07 -0.14,0.07c-0.08,0 -0.16,-0.06 -0.18,-0.14c-0.07,-0.39 -0.11,-0.82 -0.12,-1.26c-0.01,-0.02 -0.01,-0.05 -0.01,-0.07c-0,-0.02 -0,-0.04 0.01,-0.06c-0,-0.82 0.1,-1.66 0.27,-2.41c0.14,-0.59 0.32,-1.13 0.54,-1.52c0.22,-0.39 0.51,-0.67 0.87,-0.67c0.16,0 0.31,0.06 0.4,0.18c0.09,0.12 0.13,0.27 0.14,0.43c0.01,0.32 -0.09,0.71 -0.25,1.17c-0.32,0.89 -0.92,1.99 -1.61,2.92c-0,0.28 0.02,0.54 0.05,0.8c0.2,-0.27 0.48,-0.64 0.81,-1c0.29,-0.32 0.6,-0.62 0.88,-0.81c0.14,-0.1 0.27,-0.17 0.42,-0.19c0.15,-0.02 0.33,0.03 0.43,0.15c0.14,0.16 0.12,0.38 0.03,0.55c-0.09,0.17 -0.24,0.32 -0.43,0.46c-0.35,0.25 -0.82,0.46 -1.31,0.55c0.01,0.06 0.02,0.13 0.06,0.21c0.09,0.17 0.27,0.36 0.79,0.36l0.01,0c-0,0 2.56,0.19 5.08,-1.27c0.02,-0.01 0.06,-0.03 0.09,-0.03c0.007,0 0.015,0 0.022,0.001c0.006,-0.001 0.012,-0.001 0.018,-0.001c0.1,0 0.18,0.08 0.18,0.18c-0,0.02 -0.01,0.04 -0.01,0.05c-0,0 -0.08,0.27 -0.07,0.53c-0,0.13 0.03,0.25 0.08,0.33c0.05,0.08 0.12,0.13 0.28,0.14c0.13,0.01 0.28,-0.06 0.44,-0.2c0.16,-0.14 0.3,-0.35 0.43,-0.56c0.26,-0.43 0.43,-0.87 0.43,-0.87c0.02,-0.06 0.1,-0.11 0.16,-0.11l0.01,0c0.1,0 0.17,0.08 0.17,0.18l-0,0.01c-0.05,0.55 0.07,0.92 0.28,1.17c0.21,0.25 0.54,0.39 0.97,0.42c0.86,0.05 2.1,-0.38 3.3,-1.23c0.018,-0.012 0.039,-0.024 0.059,-0.031Zm-11.399,-0.649l-0.01,0c-0.01,0 -0.01,0.01 -0.03,0.01c-0.06,0.01 -0.16,0.05 -0.28,0.13c-0.24,0.16 -0.53,0.45 -0.81,0.76l-0.05,0.05c0.34,-0.1 0.67,-0.25 0.9,-0.42c0.16,-0.12 0.28,-0.25 0.33,-0.34c0.05,-0.09 0.05,-0.1 0.01,-0.15l-0.01,-0.01c-0.02,-0.02 -0.03,-0.03 -0.05,-0.03Zm-0.94,-3.49c-0.15,0 -0.36,0.16 -0.56,0.5c-0.2,0.34 -0.37,0.85 -0.5,1.42c-0.13,0.56 -0.22,1.18 -0.25,1.8c0.54,-0.8 1.01,-1.69 1.27,-2.41c0.16,-0.43 0.23,-0.81 0.22,-1.04c-0.01,-0.12 -0.03,-0.19 -0.06,-0.22c-0.03,-0.03 -0.04,-0.05 -0.12,-0.05Zm13.43,1.96c-0.14,0.01 -0.27,0.01 -0.41,0.02c-0.14,0.48 -0.24,1.02 -0.29,1.53c0.22,-0.44 0.47,-1 0.7,-1.55Zm4.31,0.79l0.01,0c0.1,0 0.18,0.08 0.18,0.18c-0,0.01 -0.01,0.04 -0.01,0.05l-0.09,0.32c-0.02,0.07 -0.09,0.14 -0.17,0.14c-0.1,0 -0.18,-0.08 -0.18,-0.18c0,-0.01 0.01,-0.04 0.01,-0.05l0.09,-0.32c0.02,-0.07 0.09,-0.14 0.16,-0.14Zm-3.66,-2.72c-0.1,0.05 -0.26,0.18 -0.4,0.4c-0.19,0.29 -0.38,0.7 -0.54,1.18l0.45,-0.03c0.19,-0.47 0.34,-0.9 0.42,-1.22c0.04,-0.14 0.06,-0.25 0.07,-0.33Z"/>
</svg>