<svg xmlns="http://www.w3.org/2000/svg" viewBox="0 0 100 45">
	<title>Sudah Jadi Manten</title>
	<linearGradient id="gradient" gradientUnits="userSpaceOnUse" x1="7.2945" y1="3.7338" x2="93.1187" y2="53.2845">
		<stop offset="0" style="stop-color:#e4b42a"/>
		<stop offset="1" style="stop-color:#af8100"/>
	</linearGradient>
	<path fill="url(#gradient)" d="M20.945,43.297l-4.05,0l-0,-17.01l-4.02,5.58l-4.05,-5.58l-0,17.01l-4.02,0l-0,-29.43l8.07,11.13l8.07,-11.13l-0,29.43Zm44.82,-28.86l0,4.05l-3.03,0l0,24.81l-4.05,0l0,-24.81l-3.03,0l0,-4.05l10.11,0Zm13.71,24.81l0,4.05l-10.11,0l0,-28.86l8.1,0l0,4.05l-4.05,0l0,4.02l6.06,0l0,4.05l-6.06,0l0,12.69l6.06,0Zm-55.23,-19.02c0,-1.76 0.59,-3.26 1.77,-4.5c1.18,-1.24 2.61,-1.86 4.29,-1.86c1.68,0 3.11,0.62 4.29,1.86c1.18,1.24 1.77,2.74 1.77,4.5l0,23.07l-4.05,0l0,-4.05l-4.02,0l-0,4.05l-4.05,0l-0,-23.07Zm15.69,-6.36l8.07,11.13l0,-10.56l4.05,0l0,28.86l-4.05,0l0,-11.43l-4.02,-5.58l0,17.01l-4.05,0l-0,-29.43Zm43.14,0l8.07,11.13l0,-10.56l4.05,0l0,28.86l-4.05,0l0,-11.43l-4.02,-5.58l0,17.01l-4.05,0l0,-29.43Zm-50.76,21.36l0,-15c0,-0.64 -0.195,-1.185 -0.585,-1.635c-0.39,-0.45 -0.865,-0.675 -1.425,-0.675c-0.56,0 -1.035,0.225 -1.425,0.675c-0.39,0.45 -0.585,0.995 -0.585,1.635l0,15l4.02,0Z"/>
	<path d="M60.735,1.289c0.384,-0 0.768,0.06 1.104,0.18c0.408,0.144 0.756,0.396 0.96,0.792c0.204,0.396 0.24,0.9 0.084,1.524c-0.516,2.136 -1.296,3.516 -2.088,4.296c-0.396,0.384 -0.804,0.636 -1.188,0.732c-0.384,0.108 -0.744,0.06 -1.02,-0.12c-0.516,-0.336 -0.672,-0.9 -0.54,-1.416c0.132,-0.516 0.492,-1.02 0.96,-1.464c0.468,-0.444 1.056,-0.804 1.644,-1.02c0.528,-0.192 1.068,-0.252 1.536,-0.096c0.096,-0.312 0.204,-0.648 0.288,-1.008c0.132,-0.552 0.084,-0.948 -0.06,-1.236c-0.144,-0.288 -0.384,-0.468 -0.72,-0.588c-0.672,-0.24 -1.68,-0.156 -2.52,0.096c-0.42,0.132 -0.792,0.3 -1.068,0.48c-0.276,0.18 -0.42,0.372 -0.444,0.48c-0.012,0.06 -0.012,0.096 0.024,0.156c0.036,0.06 0.108,0.132 0.252,0.204c0.276,0.156 0.792,0.312 1.572,0.408c0.108,0.012 0.192,0.096 0.192,0.204c-0,0.12 -0.096,0.216 -0.216,0.216l-0.024,-0c-0.816,-0.096 -1.368,-0.252 -1.728,-0.456c-0.18,-0.096 -0.324,-0.216 -0.408,-0.36c-0.084,-0.144 -0.12,-0.3 -0.084,-0.456c0.06,-0.312 0.312,-0.54 0.636,-0.756c0.324,-0.216 0.72,-0.396 1.176,-0.528c0.504,-0.156 1.068,-0.252 1.608,-0.264l0.072,-0Zm10.53,5.274c0.447,-0.415 0.966,-0.423 1.338,-0.306c0.192,0.06 0.372,0.156 0.48,0.228c0.024,-0.048 0.06,-0.096 0.084,-0.132c-0.048,-0.168 -0.096,-0.348 -0.12,-0.528c-0.168,-1.008 -0.024,-2.124 0.228,-3.012c0.132,-0.444 0.288,-0.828 0.456,-1.116c0.084,-0.144 0.18,-0.264 0.276,-0.36c0.096,-0.096 0.228,-0.156 0.372,-0.156c0.228,-0 0.42,0.144 0.504,0.336c0.084,0.192 0.084,0.408 0.072,0.66c-0.036,0.504 -0.204,1.128 -0.408,1.764c-0.204,0.636 -0.444,1.26 -0.636,1.74c-0.096,0.24 -0.192,0.456 -0.252,0.6c-0.012,0.036 -0.024,0.06 -0.036,0.096c0.216,0.612 0.6,1.068 1.248,1.272c0.852,0.264 2.244,0.06 4.32,-1.068c0.024,-0.012 0.06,-0.024 0.096,-0.024c0.006,-0 0.012,-0 0.018,0c0.006,-0 0.012,-0 0.018,-0c0.12,-0 0.216,0.096 0.216,0.216c-0,0.012 -0.012,0.048 -0.012,0.06c-0.084,0.312 -0.06,0.54 -0,0.696c0.06,0.156 0.168,0.264 0.336,0.348c0.336,0.168 0.924,0.204 1.596,0.096c1.344,-0.204 2.988,-0.888 3.624,-1.368c0.036,-0.024 0.096,-0.048 0.132,-0.048c0.12,-0 0.216,0.096 0.216,0.216c-0,0.06 -0.048,0.132 -0.096,0.168c-0.744,0.564 -2.388,1.236 -3.816,1.452c-0.708,0.108 -1.356,0.12 -1.848,-0.132c-0.24,-0.12 -0.456,-0.324 -0.552,-0.588c-0.058,-0.158 -0.081,-0.332 -0.07,-0.526c-1.941,0.997 -3.323,1.216 -4.298,0.91c-0.66,-0.204 -1.116,-0.648 -1.392,-1.212c-0.192,0.3 -0.432,0.66 -0.696,0.972c-0.18,0.216 -0.36,0.408 -0.552,0.552c-0.192,0.144 -0.372,0.252 -0.6,0.24c-0.216,-0.012 -0.408,-0.096 -0.54,-0.24c-0.132,-0.144 -0.204,-0.324 -0.228,-0.528c-0.019,-0.151 -0.007,-0.312 0.034,-0.474c-0.812,0.481 -1.92,0.972 -2.95,1.11c-0.672,0.084 -1.332,0.036 -1.812,-0.336c-0.348,-0.264 -0.576,-0.672 -0.672,-1.236c-0.132,0.216 -0.288,0.444 -0.468,0.672c-0.204,0.264 -0.432,0.504 -0.648,0.696c-0.216,0.192 -0.444,0.348 -0.708,0.336c-0.216,-0.012 -0.396,-0.096 -0.528,-0.24c-0.132,-0.144 -0.204,-0.324 -0.228,-0.528c-0.048,-0.396 0.108,-0.864 0.48,-1.236c0.456,-0.456 0.996,-0.468 1.38,-0.348c0.204,0.06 0.36,0.156 0.468,0.228c0.108,-0.192 0.192,-0.348 0.216,-0.408c0.024,-0.072 0.12,-0.132 0.204,-0.132c0.12,-0 0.216,0.096 0.216,0.216c-0.036,0.888 0.192,1.368 0.552,1.632c0.36,0.264 0.876,0.348 1.488,0.264c1.224,-0.156 2.7,-0.924 3.408,-1.452c0.024,-0.017 0.059,-0.033 0.09,-0.042Zm-27.103,0.022c-0.006,-0.937 0.089,-1.907 0.241,-2.764c0.132,-0.708 0.3,-1.344 0.504,-1.812c0.096,-0.228 0.204,-0.432 0.336,-0.576c0.132,-0.144 0.3,-0.252 0.492,-0.252c0.18,-0 0.324,0.096 0.42,0.24c0.096,0.144 0.156,0.312 0.192,0.516c0.072,0.396 0.048,0.912 -0.048,1.488c-0.192,1.152 -0.72,2.532 -1.692,3.504l-0.012,-0c0.012,0.228 0.024,0.456 0.048,0.672c0.072,-0.12 0.156,-0.252 0.252,-0.384c0.384,-0.516 0.984,-1.08 1.812,-1.08c0.348,-0 0.612,0.144 0.72,0.372c0.108,0.228 0.096,0.456 0.084,0.672c-0.012,0.216 -0.012,0.432 0.024,0.576c0.036,0.144 0.096,0.228 0.3,0.288l0.012,-0c0.264,0.084 0.72,0.06 1.236,-0.048c0.516,-0.108 1.104,-0.312 1.644,-0.516c1.08,-0.42 2.004,-0.9 2.004,-0.9c0.024,-0.012 0.072,-0.024 0.096,-0.024c0.12,-0 0.216,0.096 0.216,0.216c-0,0.072 -0.06,0.156 -0.12,0.192c-0,-0 -0.936,0.48 -2.04,0.912c-0.552,0.216 -1.152,0.42 -1.704,0.54c-0.552,0.12 -1.068,0.168 -1.476,0.036c-0.324,-0.096 -0.504,-0.348 -0.576,-0.588c-0.072,-0.24 -0.048,-0.48 -0.036,-0.696c0.012,-0.216 -0.012,-0.396 -0.048,-0.48c-0.036,-0.084 -0.084,-0.12 -0.336,-0.12c-0.636,-0 -1.128,0.432 -1.464,0.9c-0.336,0.468 -0.504,0.924 -0.504,0.924c-0.024,0.084 -0.12,0.144 -0.204,0.144c-0.096,-0 -0.192,-0.072 -0.216,-0.168c-0.077,-0.403 -0.124,-0.836 -0.145,-1.284c-0.815,0.555 -2.161,1.226 -3.395,1.392c-0.672,0.084 -1.332,0.036 -1.812,-0.336c-0.348,-0.264 -0.576,-0.672 -0.672,-1.236c-0.132,0.216 -0.288,0.444 -0.468,0.672c-0.204,0.264 -0.432,0.504 -0.648,0.696c-0.216,0.192 -0.444,0.348 -0.708,0.336c-0.216,-0.012 -0.396,-0.096 -0.528,-0.24c-0.132,-0.144 -0.204,-0.324 -0.228,-0.528c-0.021,-0.173 -0.003,-0.36 0.054,-0.546c-1.786,0.87 -3.077,1.052 -4.002,0.762c-0.66,-0.204 -1.116,-0.648 -1.392,-1.212c-0.192,0.3 -0.432,0.66 -0.696,0.972c-0.18,0.216 -0.36,0.408 -0.552,0.552c-0.192,0.144 -0.372,0.252 -0.6,0.24c-0.216,-0.012 -0.408,-0.096 -0.54,-0.24c-0.132,-0.144 -0.204,-0.324 -0.228,-0.528c-0.018,-0.143 -0.009,-0.294 0.028,-0.448c-1.283,0.781 -2.556,1.181 -3.568,1.12c-0.6,-0.036 -1.116,-0.24 -1.464,-0.648c-0.192,-0.228 -0.324,-0.516 -0.396,-0.84c-0.06,0.096 -0.108,0.204 -0.168,0.312c-0.168,0.276 -0.372,0.552 -0.612,0.768c-0.24,0.216 -0.516,0.372 -0.84,0.348c-0.288,-0.024 -0.516,-0.168 -0.648,-0.36c-0.132,-0.192 -0.168,-0.408 -0.18,-0.612c-0.012,-0.408 0.108,-0.768 0.108,-0.768c0.024,-0.084 0.12,-0.156 0.204,-0.156c0.12,-0 0.216,0.096 0.216,0.216c-0,0.024 -0.012,0.048 -0.012,0.06c-0,-0 -0.096,0.324 -0.084,0.636c-0,0.156 0.036,0.3 0.096,0.396c0.06,0.096 0.144,0.156 0.336,0.168c0.156,0.012 0.336,-0.072 0.528,-0.24c0.192,-0.168 0.36,-0.42 0.516,-0.672c0.312,-0.516 0.516,-1.044 0.516,-1.044c0.024,-0.072 0.12,-0.132 0.192,-0.132l0.012,-0c0.12,-0 0.204,0.096 0.204,0.216l-0,0.012c-0.06,0.66 0.084,1.104 0.336,1.404c0.252,0.3 0.648,0.468 1.164,0.504c1.032,0.06 2.52,-0.456 3.96,-1.476c0.022,-0.016 0.05,-0.031 0.077,-0.04c0.447,-0.417 0.966,-0.425 1.339,-0.308c0.192,0.06 0.372,0.156 0.48,0.228c0.024,-0.048 0.06,-0.096 0.084,-0.132c-0.048,-0.168 -0.096,-0.348 -0.12,-0.528c-0.168,-1.008 -0.024,-2.124 0.228,-3.012c0.132,-0.444 0.288,-0.828 0.456,-1.116c0.084,-0.144 0.18,-0.264 0.276,-0.36c0.096,-0.096 0.228,-0.156 0.372,-0.156c0.228,-0 0.42,0.144 0.504,0.336c0.084,0.192 0.084,0.408 0.072,0.66c-0.036,0.504 -0.204,1.128 -0.408,1.764c-0.204,0.636 -0.444,1.26 -0.636,1.74c-0.096,0.24 -0.192,0.456 -0.252,0.6c-0.012,0.036 -0.024,0.06 -0.036,0.096c0.216,0.612 0.6,1.068 1.248,1.272c0.852,0.264 2.244,0.06 4.32,-1.068c0.006,-0.004 0.014,-0.007 0.023,-0.01c0.448,-0.423 0.97,-0.431 1.345,-0.314c0.204,0.06 0.36,0.156 0.468,0.228c0.108,-0.192 0.192,-0.348 0.216,-0.408c0.024,-0.072 0.12,-0.132 0.204,-0.132c0.12,-0 0.216,0.096 0.216,0.216c-0.036,0.888 0.192,1.368 0.552,1.632c0.36,0.264 0.876,0.348 1.488,0.264c1.224,-0.156 2.7,-0.924 3.408,-1.452c0.01,-0.007 0.022,-0.014 0.035,-0.02Zm-25.823,-5.332l0.06,-0c0.252,0.012 0.504,0.096 0.696,0.276c0.252,0.24 0.36,0.624 0.36,1.14c-0,0.12 -0.084,0.204 -0.204,0.204c-0.12,-0 -0.216,-0.084 -0.216,-0.204l-0,-0.012c-0,-0.444 -0.108,-0.684 -0.24,-0.816c-0.132,-0.132 -0.336,-0.18 -0.6,-0.144c-0.54,0.072 -1.296,0.504 -1.884,1.092c-0.588,0.588 -0.996,1.308 -0.984,1.848c0.012,0.264 0.096,0.492 0.336,0.696c0.24,0.204 0.636,0.372 1.248,0.456c0.648,0.048 1.116,0.132 1.452,0.252c0.336,0.12 0.564,0.288 0.636,0.54c0.072,0.252 -0.06,0.48 -0.24,0.672c-0.18,0.192 -0.42,0.36 -0.708,0.516c-0.576,0.324 -1.308,0.588 -1.956,0.708c-0.324,0.06 -0.624,0.096 -0.876,0.06c-0.252,-0.036 -0.492,-0.132 -0.6,-0.372c-0.012,-0.024 -0.024,-0.06 -0.024,-0.084c-0,-0.12 0.096,-0.216 0.216,-0.216c0.084,-0 0.156,0.06 0.192,0.132c0.012,0.036 0.084,0.084 0.264,0.108c0.18,0.024 0.444,0.012 0.744,-0.048c0.588,-0.108 1.308,-0.372 1.836,-0.66c0.264,-0.144 0.48,-0.3 0.612,-0.432c0.132,-0.132 0.144,-0.228 0.132,-0.276c-0.012,-0.048 -0.096,-0.156 -0.372,-0.252c-0.276,-0.096 -0.72,-0.18 -1.344,-0.228l-0.012,-0c-0.66,-0.096 -1.152,-0.276 -1.476,-0.552c-0.324,-0.276 -0.48,-0.636 -0.492,-1.008c-0.024,-0.744 0.48,-1.524 1.116,-2.16c0.636,-0.636 1.44,-1.128 2.136,-1.224c0.06,-0.012 0.132,-0.012 0.192,-0.012Zm43.272,3.78l-0.06,-0c-0.24,0.012 -0.492,0.06 -0.756,0.156c-0.528,0.192 -1.056,0.528 -1.488,0.936c-0.432,0.408 -0.756,0.864 -0.852,1.26c-0.096,0.396 -0.012,0.696 0.372,0.948c0.168,0.108 0.384,0.144 0.672,0.072c0.288,-0.072 0.636,-0.276 0.996,-0.624c0.54,-0.528 1.104,-1.392 1.56,-2.676c-0.132,-0.048 -0.288,-0.072 -0.444,-0.072Zm10.56,1.584l-0.024,-0c-0.192,-0 -0.408,0.072 -0.624,0.288c-0.288,0.288 -0.372,0.636 -0.348,0.888c0.012,0.12 0.06,0.228 0.12,0.288c0.06,0.06 0.12,0.108 0.228,0.108c0.048,-0 0.18,-0.048 0.324,-0.168c0.144,-0.12 0.324,-0.288 0.492,-0.48c0.18,-0.216 0.36,-0.468 0.516,-0.696c-0.084,-0.06 -0.216,-0.132 -0.372,-0.18c-0.096,-0.036 -0.204,-0.048 -0.312,-0.048Zm-42.984,-0l-0.024,-0c-0.192,-0 -0.408,0.072 -0.624,0.288c-0.288,0.288 -0.372,0.636 -0.348,0.888c0.012,0.12 0.06,0.228 0.12,0.288c0.06,0.06 0.12,0.108 0.228,0.108c0.048,-0 0.18,-0.048 0.324,-0.168c0.144,-0.12 0.324,-0.288 0.492,-0.48c0.18,-0.216 0.36,-0.468 0.516,-0.696c-0.084,-0.06 -0.216,-0.132 -0.372,-0.18c-0.096,-0.036 -0.204,-0.048 -0.312,-0.048Zm7.944,-0l-0.024,-0c-0.192,-0 -0.396,0.072 -0.612,0.288c-0.288,0.288 -0.384,0.636 -0.36,0.888c0.012,0.12 0.06,0.228 0.12,0.288c0.06,0.06 0.132,0.108 0.24,0.108c0.048,-0 0.216,-0.072 0.408,-0.228c0.192,-0.156 0.396,-0.396 0.588,-0.648c0.12,-0.156 0.216,-0.312 0.324,-0.468c-0.084,-0.06 -0.216,-0.132 -0.372,-0.18c-0.096,-0.036 -0.204,-0.048 -0.312,-0.048Zm27.048,-0l-0.024,-0c-0.192,-0 -0.396,0.072 -0.612,0.288c-0.288,0.288 -0.384,0.636 -0.36,0.888c0.012,0.12 0.06,0.228 0.12,0.288c0.06,0.06 0.132,0.108 0.24,0.108c0.048,-0 0.216,-0.072 0.408,-0.228c0.192,-0.156 0.396,-0.396 0.588,-0.648c0.12,-0.156 0.216,-0.312 0.324,-0.468c-0.084,-0.06 -0.216,-0.132 -0.372,-0.18c-0.096,-0.036 -0.204,-0.048 -0.312,-0.048Zm-18.444,-5.016c-0.024,-0 -0.084,0.024 -0.168,0.12c-0.084,0.096 -0.168,0.252 -0.264,0.456c-0.18,0.42 -0.36,1.032 -0.48,1.716c-0.132,0.744 -0.216,1.584 -0.228,2.412c0.708,-0.864 1.128,-1.992 1.284,-2.952c0.096,-0.54 0.108,-1.02 0.048,-1.344c-0.024,-0.156 -0.084,-0.288 -0.12,-0.348c-0.036,-0.06 -0.048,-0.06 -0.072,-0.06Zm33.96,3.3l0.012,-0c0.12,-0 0.216,0.096 0.216,0.216c-0,0.012 -0.012,0.048 -0.012,0.06l-0.108,0.384c-0.024,0.084 -0.108,0.168 -0.204,0.168c-0.12,-0 -0.216,-0.096 -0.216,-0.216c-0,-0.012 0.012,-0.048 0.012,-0.06l0.108,-0.384c0.024,-0.084 0.108,-0.168 0.192,-0.168Zm-48.3,-3.3c0.012,-0 -0.024,0.012 -0.084,0.06c-0.06,0.048 -0.12,0.132 -0.192,0.252c-0.144,0.24 -0.3,0.6 -0.42,1.02c-0.24,0.816 -0.36,1.848 -0.228,2.748c0.024,-0.06 0.036,-0.096 0.06,-0.156c0.192,-0.48 0.444,-1.104 0.636,-1.716c0.192,-0.612 0.336,-1.236 0.372,-1.668c0.012,-0.216 -0,-0.372 -0.036,-0.456c-0.036,-0.084 -0.024,-0.084 -0.108,-0.084Zm42.984,-0c0.012,-0 -0.024,0.012 -0.084,0.06c-0.06,0.048 -0.12,0.132 -0.192,0.252c-0.144,0.24 -0.3,0.6 -0.42,1.02c-0.24,0.816 -0.36,1.848 -0.228,2.748c0.024,-0.06 0.036,-0.096 0.06,-0.156c0.192,-0.48 0.444,-1.104 0.636,-1.716c0.192,-0.612 0.336,-1.236 0.372,-1.668c0.012,-0.216 -0,-0.372 -0.036,-0.456c-0.036,-0.084 -0.024,-0.084 -0.108,-0.084Z"/>
</svg>