<svg xmlns="http://www.w3.org/2000/svg" viewBox="0 0 100 45">
	<title>Undangan Website</title>
	<linearGradient id="gradient" gradientUnits="userSpaceOnUse" x1="7.2945" y1="3.7338" x2="93.1187" y2="53.2845">
		<stop offset="0" style="stop-color:#28A745"/>
		<stop offset="1" style="stop-color:#217B38"/>
	</linearGradient>
	<path fill="url(#gradient)" d="M5.195,14.437l2.58,16.26l-0.06,0.27l0.09,0l2.22,-4.38l2.25,4.38l2.61,-16.53l4.08,0l-3.6,22.65l-1.05,6.78l-3.12,-6.12l-1.17,-2.25l-1.14,2.25l-3.12,6.12l-1.08,-6.78l-3.57,-22.65l4.08,0Zm52.56,10.38c1.68,0 3.11,0.62 4.29,1.86c1.18,1.24 1.77,2.74 1.77,4.5l-0,6.33c-0,1.76 -0.59,3.26 -1.77,4.5c-1.18,1.24 -2.61,1.86 -4.29,1.86c-1.68,0 -3.11,-0.62 -4.29,-1.86c-1.18,-1.24 -1.77,-2.74 -1.77,-4.5l-0,-2.28l4.05,0l-0,2.28c-0,0.64 0.195,1.185 0.585,1.635c0.39,0.45 0.865,0.675 1.425,0.675c0.56,0 1.035,-0.225 1.425,-0.675c0.39,-0.45 0.585,-0.995 0.585,-1.635l-0,-6.33c-0,-0.64 -0.195,-1.185 -0.585,-1.635c-0.39,-0.45 -0.865,-0.675 -1.425,-0.675c-1.68,0 -3.11,-0.62 -4.29,-1.86c-1.18,-1.24 -1.77,-2.74 -1.77,-4.5l-0,-2.28c-0,-1.76 0.59,-3.26 1.77,-4.5c1.18,-1.24 2.61,-1.86 4.29,-1.86c1.68,0 3.11,0.62 4.29,1.86c1.18,1.24 1.77,2.74 1.77,4.5l-0,2.28l-4.05,0l-0,-2.28c-0,-0.64 -0.195,-1.185 -0.585,-1.635c-0.39,-0.45 -0.865,-0.675 -1.425,-0.675c-0.56,0 -1.035,0.225 -1.425,0.675c-0.39,0.45 -0.585,0.995 -0.585,1.635l-0,2.28c-0,0.64 0.195,1.185 0.585,1.635c0.39,0.45 0.865,0.675 1.425,0.675Zm9.66,-10.38l4.05,0l0,28.86l-4.05,0l0,-28.86Zm17.76,0l-0,4.05l-3.03,0l-0,24.81l-4.05,0l-0,-24.81l-3.03,0l-0,-4.05l10.11,0Zm13.71,24.81l0,4.05l-10.11,0l0,-28.86l8.1,0l0,4.05l-4.05,0l0,4.02l6.06,0l0,4.05l-6.06,0l0,12.69l6.06,0Zm-66.51,0l-0,4.05l-10.11,0l-0,-28.86l8.1,0l-0,4.05l-4.05,0l-0,4.02l6.06,0l-0,4.05l-6.06,0l-0,12.69l6.06,0Zm3.6,-24.81l6.24,0c0.06,0 0.12,0.01 0.18,0.03c1.58,0.08 2.925,0.705 4.035,1.875c1.11,1.17 1.665,2.555 1.665,4.155c-0,1.58 -0.53,2.94 -1.59,4.08c1.06,1.22 1.59,2.65 1.59,4.29l-0,8.07c-0,1.76 -0.59,3.26 -1.77,4.5c-1.18,1.24 -2.61,1.86 -4.29,1.86l-6.06,0l-0,-28.86Zm4.05,12.12l0,12.69l2.01,0c0.56,0 1.035,-0.225 1.425,-0.675c0.39,-0.45 0.585,-0.995 0.585,-1.635l0,-8.07c0,-0.64 -0.195,-1.185 -0.585,-1.635c-0.39,-0.45 -0.865,-0.675 -1.425,-0.675l-2.01,0Zm0,-8.07l0,4.02l2.31,0c0.48,-0.08 0.885,-0.31 1.215,-0.69c0.33,-0.38 0.495,-0.82 0.495,-1.32c0,-0.56 -0.195,-1.035 -0.585,-1.425c-0.39,-0.39 -0.865,-0.585 -1.425,-0.585l-2.01,0Z"/>
	<path d="M33.127,6.56c0.446,-0.412 0.963,-0.419 1.334,-0.303c0.192,0.06 0.372,0.156 0.48,0.228c0.024,-0.048 0.06,-0.096 0.084,-0.132c-0.048,-0.168 -0.096,-0.348 -0.12,-0.528c-0.168,-1.008 -0.024,-2.124 0.228,-3.012c0.132,-0.444 0.288,-0.828 0.456,-1.116c0.084,-0.144 0.18,-0.264 0.276,-0.36c0.096,-0.096 0.228,-0.156 0.372,-0.156c0.228,-0 0.42,0.144 0.504,0.336c0.084,0.192 0.084,0.408 0.072,0.66c-0.036,0.504 -0.204,1.128 -0.408,1.764c-0.204,0.636 -0.444,1.26 -0.636,1.74c-0.096,0.24 -0.192,0.456 -0.252,0.6c-0.012,0.036 -0.024,0.06 -0.036,0.096c0.216,0.612 0.6,1.068 1.248,1.272c0.852,0.264 2.244,0.06 4.32,-1.068c0.006,-0.004 0.014,-0.007 0.023,-0.01c0.448,-0.423 0.97,-0.431 1.345,-0.314c0.204,0.06 0.36,0.156 0.468,0.228c0.108,-0.192 0.192,-0.348 0.216,-0.408c0.024,-0.072 0.12,-0.132 0.204,-0.132c0.12,-0 0.216,0.096 0.216,0.216c-0.036,0.888 0.192,1.368 0.552,1.632c0.36,0.264 0.876,0.348 1.488,0.264c1.224,-0.156 2.7,-0.924 3.408,-1.452c0.036,-0.024 0.096,-0.048 0.132,-0.048c0.004,-0 0.008,-0 0.012,-0c0.004,-0 0.008,-0 0.012,-0c0.12,-0 0.216,0.096 0.216,0.216c-0,0.012 -0.012,0.048 -0.012,0.06c-0,-0 -0.084,0.336 -0.12,0.684c-0.012,0.18 -0.024,0.36 -0,0.48c0.024,0.108 0.048,0.144 0.084,0.156c-0,-0 0.012,0.012 0.024,-0c0.036,-0.024 0.096,-0.072 0.156,-0.156c0.132,-0.156 0.264,-0.42 0.42,-0.672c0.156,-0.252 0.312,-0.504 0.492,-0.708c0.084,-0.096 0.18,-0.192 0.288,-0.252c0.072,-0.036 0.156,-0.06 0.24,-0.06l0.024,-0c0.048,-0 0.084,0.012 0.132,0.024c0.24,0.072 0.36,0.3 0.42,0.504c0.06,0.204 0.084,0.42 0.132,0.612c0.048,0.192 0.132,0.36 0.252,0.468c0.12,0.108 0.312,0.204 0.66,0.204c2.052,-0 4.248,-1.512 4.248,-1.512c0.017,-0.012 0.038,-0.024 0.058,-0.033c0.041,-0.05 0.085,-0.099 0.134,-0.147c0.432,-0.432 0.972,-0.48 1.38,-0.432c0.408,0.048 0.72,0.204 0.72,0.204c0.06,0.024 0.096,0.096 0.108,0.156c0.108,-0.168 0.18,-0.288 0.192,-0.336c0.024,-0.072 0.12,-0.144 0.204,-0.144c0.108,-0 0.204,0.084 0.216,0.192c-0,-0 0.084,0.804 0.048,1.764c0.444,-0.096 0.888,-0.144 1.332,-0.168c1.248,-0.06 2.46,-0.048 3.708,-1.056c0.014,-0.01 0.032,-0.019 0.051,-0.027c0.45,-0.43 0.976,-0.439 1.353,-0.321c0.204,0.06 0.36,0.156 0.468,0.228c0.108,-0.192 0.192,-0.348 0.216,-0.408c0.024,-0.072 0.12,-0.132 0.204,-0.132c0.12,-0 0.216,0.096 0.216,0.216c-0.036,0.888 0.192,1.368 0.552,1.632c0.36,0.264 0.876,0.348 1.488,0.264c1.224,-0.156 2.7,-0.924 3.408,-1.452c0.036,-0.024 0.096,-0.048 0.132,-0.048c0.004,-0 0.008,-0 0.012,-0c0.004,-0 0.008,-0 0.012,-0c0.12,-0 0.216,0.096 0.216,0.216c-0,0.012 -0.012,0.048 -0.012,0.06c-0,-0 -0.084,0.336 -0.12,0.684c-0.012,0.18 -0.024,0.36 -0,0.48c0.024,0.108 0.048,0.144 0.084,0.156c-0,-0 0.012,0.012 0.024,-0c0.036,-0.024 0.096,-0.072 0.156,-0.156c0.132,-0.156 0.264,-0.42 0.42,-0.672c0.156,-0.252 0.312,-0.504 0.492,-0.708c0.084,-0.096 0.18,-0.192 0.288,-0.252c0.072,-0.036 0.156,-0.06 0.24,-0.06l0.024,-0c0.048,-0 0.084,0.012 0.132,0.024c0.24,0.072 0.36,0.3 0.42,0.504c0.06,0.204 0.084,0.42 0.132,0.612c0.048,0.192 0.132,0.36 0.252,0.468c0.12,0.108 0.312,0.204 0.66,0.204c2.052,-0 4.248,-1.512 4.248,-1.512c0.036,-0.024 0.084,-0.048 0.12,-0.048c0.12,-0 0.216,0.096 0.216,0.216c-0,0.06 -0.048,0.144 -0.096,0.18c-0,-0 -2.232,1.584 -4.488,1.584c-0.42,-0 -0.732,-0.12 -0.948,-0.312c-0.216,-0.192 -0.312,-0.444 -0.372,-0.672c-0.06,-0.228 -0.084,-0.444 -0.132,-0.6c-0.048,-0.156 -0.072,-0.204 -0.132,-0.228c-0.012,-0 -0.024,-0 -0.072,0.024c-0.048,0.024 -0.096,0.072 -0.168,0.144c-0.132,0.156 -0.288,0.408 -0.444,0.66c-0.156,0.252 -0.3,0.504 -0.456,0.708c-0.084,0.096 -0.168,0.192 -0.264,0.252c-0.096,0.06 -0.252,0.096 -0.384,0.048c-0.216,-0.084 -0.324,-0.288 -0.36,-0.48c-0.036,-0.192 -0.048,-0.396 -0.024,-0.6c0.008,-0.09 0.019,-0.177 0.033,-0.26c-0.825,0.523 -2.054,1.104 -3.189,1.256c-0.672,0.084 -1.332,0.036 -1.812,-0.336c-0.348,-0.264 -0.576,-0.672 -0.672,-1.236c-0.132,0.216 -0.288,0.444 -0.468,0.672c-0.204,0.264 -0.432,0.504 -0.648,0.696c-0.216,0.192 -0.444,0.348 -0.708,0.336c-0.216,-0.012 -0.396,-0.096 -0.528,-0.24c-0.132,-0.144 -0.204,-0.324 -0.228,-0.528c-0.017,-0.135 -0.009,-0.278 0.022,-0.423c-1.12,0.616 -2.23,0.625 -3.25,0.675c-0.48,0.024 -0.936,0.06 -1.38,0.168c-0.012,0.096 -0.012,0.192 -0.024,0.288c-0.072,0.624 -0.216,1.26 -0.48,1.764c-0.264,0.504 -0.696,0.888 -1.308,0.912c-0.408,0.012 -0.708,-0.06 -0.888,-0.252c-0.18,-0.192 -0.204,-0.456 -0.156,-0.672c0.096,-0.444 0.432,-0.84 0.552,-0.996c0.6,-0.744 1.236,-1.14 1.896,-1.356c0.024,-0.432 0.012,-0.84 -0,-1.164c-0.156,0.228 -0.348,0.492 -0.564,0.732c-0.228,0.264 -0.468,0.504 -0.708,0.696c-0.24,0.192 -0.456,0.336 -0.72,0.324c-0.42,-0.012 -0.768,-0.324 -0.888,-0.732c-0.048,-0.161 -0.058,-0.34 -0.025,-0.526c-0.79,0.464 -2.375,1.258 -3.971,1.258c-0.42,-0 -0.732,-0.12 -0.948,-0.312c-0.216,-0.192 -0.312,-0.444 -0.372,-0.672c-0.06,-0.228 -0.084,-0.444 -0.132,-0.6c-0.048,-0.156 -0.072,-0.204 -0.132,-0.228c-0.012,-0 -0.024,-0 -0.072,0.024c-0.048,0.024 -0.096,0.072 -0.168,0.144c-0.132,0.156 -0.288,0.408 -0.444,0.66c-0.156,0.252 -0.3,0.504 -0.456,0.708c-0.084,0.096 -0.168,0.192 -0.264,0.252c-0.096,0.06 -0.252,0.096 -0.384,0.048c-0.216,-0.084 -0.324,-0.288 -0.36,-0.48c-0.036,-0.192 -0.048,-0.396 -0.024,-0.6c0.008,-0.09 0.019,-0.177 0.033,-0.26c-0.825,0.523 -2.054,1.104 -3.189,1.256c-0.672,0.084 -1.332,0.036 -1.812,-0.336c-0.348,-0.264 -0.576,-0.672 -0.672,-1.236c-0.132,0.216 -0.288,0.444 -0.468,0.672c-0.204,0.264 -0.432,0.504 -0.648,0.696c-0.216,0.192 -0.444,0.348 -0.708,0.336c-0.216,-0.012 -0.396,-0.096 -0.528,-0.24c-0.132,-0.144 -0.204,-0.324 -0.228,-0.528c-0.021,-0.173 -0.003,-0.36 0.054,-0.546c-1.786,0.87 -3.077,1.052 -4.002,0.762c-0.66,-0.204 -1.116,-0.648 -1.392,-1.212c-0.192,0.3 -0.432,0.66 -0.696,0.972c-0.18,0.216 -0.36,0.408 -0.552,0.552c-0.192,0.144 -0.372,0.252 -0.6,0.24c-0.216,-0.012 -0.408,-0.096 -0.54,-0.24c-0.132,-0.144 -0.204,-0.324 -0.228,-0.528c-0.019,-0.157 -0.006,-0.326 0.039,-0.495c-0.822,0.469 -2.333,1.191 -3.855,1.191c-0.42,-0 -0.732,-0.12 -0.948,-0.312c-0.216,-0.192 -0.312,-0.444 -0.372,-0.672c-0.06,-0.228 -0.084,-0.444 -0.132,-0.6c-0.048,-0.156 -0.072,-0.204 -0.132,-0.228c-0.012,-0 -0.024,-0 -0.072,0.024c-0.048,0.024 -0.096,0.072 -0.168,0.144c-0.132,0.156 -0.288,0.408 -0.444,0.66c-0.156,0.252 -0.3,0.504 -0.456,0.708c-0.084,0.096 -0.168,0.192 -0.264,0.252c-0.096,0.06 -0.252,0.096 -0.384,0.048c-0.216,-0.084 -0.324,-0.288 -0.36,-0.48c-0.036,-0.192 -0.048,-0.396 -0.024,-0.6c0.036,-0.396 0.144,-0.768 0.144,-0.768c0.024,-0.084 0.108,-0.156 0.204,-0.156c0.12,-0 0.216,0.096 0.216,0.216c-0,0.012 -0.012,0.048 -0.012,0.06c-0,-0 -0.084,0.336 -0.12,0.684c-0.012,0.18 -0.024,0.36 -0,0.48c0.024,0.108 0.048,0.144 0.084,0.156c-0,-0 0.012,0.012 0.024,-0c0.036,-0.024 0.096,-0.072 0.156,-0.156c0.132,-0.156 0.264,-0.42 0.42,-0.672c0.156,-0.252 0.312,-0.504 0.492,-0.708c0.084,-0.096 0.18,-0.192 0.288,-0.252c0.072,-0.036 0.156,-0.06 0.24,-0.06l0.024,-0c0.048,-0 0.084,0.012 0.132,0.024c0.24,0.072 0.36,0.3 0.42,0.504c0.06,0.204 0.084,0.42 0.132,0.612c0.048,0.192 0.132,0.36 0.252,0.468c0.12,0.108 0.312,0.204 0.66,0.204c2.052,-0 4.248,-1.512 4.248,-1.512c0.028,-0.019 0.063,-0.038 0.094,-0.045Zm26.246,1.833c-0.528,0.204 -1.044,0.564 -1.536,1.188c-0.108,0.144 -0.396,0.528 -0.456,0.816c-0.036,0.144 -0.024,0.216 0.036,0.276c0.06,0.06 0.216,0.132 0.576,0.12c0.444,-0.012 0.72,-0.264 0.948,-0.684c0.228,-0.42 0.36,-1.008 0.42,-1.608c-0,-0.036 0.012,-0.072 0.012,-0.108Zm-34.752,-7.26c0.12,-0 0.204,0.096 0.204,0.216l-0,0.012c-0.06,0.984 -0.432,2.832 -0.792,4.452c-0.36,1.62 -0.72,3 -0.72,3c-0.024,0.096 -0.108,0.156 -0.204,0.156c-0.12,-0 -0.216,-0.084 -0.216,-0.204c-0,-0.012 0.012,-0.048 0.012,-0.06c-0,-0 0.348,-1.38 0.708,-2.988c0.072,-0.312 0.132,-0.648 0.204,-0.972c-0.576,1.272 -1.488,2.676 -2.88,3.708c-0.432,0.324 -0.78,0.468 -1.104,0.432c-0.324,-0.036 -0.564,-0.276 -0.672,-0.588c-0.228,-0.624 -0.156,-1.56 -0,-2.58c0.3,-2.052 1.008,-4.392 1.008,-4.392c0.024,-0.084 0.12,-0.156 0.204,-0.156c0.12,-0 0.216,0.096 0.216,0.216c-0,0.024 -0.012,0.048 -0.012,0.06c-0,-0 -0.696,2.328 -0.996,4.332c-0.144,0.996 -0.18,1.932 -0.012,2.376c0.084,0.228 0.168,0.3 0.312,0.312c0.144,0.012 0.42,-0.072 0.804,-0.36c3.18,-2.364 3.708,-6.78 3.708,-6.78c0.012,-0.108 0.108,-0.192 0.216,-0.192l0.012,-0Zm9.408,5.484l-0.024,-0c-0.192,-0 -0.408,0.072 -0.624,0.288c-0.288,0.288 -0.372,0.636 -0.348,0.888c0.012,0.12 0.06,0.228 0.12,0.288c0.06,0.06 0.12,0.108 0.228,0.108c0.048,-0 0.18,-0.048 0.324,-0.168c0.144,-0.12 0.324,-0.288 0.492,-0.48c0.18,-0.216 0.36,-0.468 0.516,-0.696c-0.084,-0.06 -0.216,-0.132 -0.372,-0.18c-0.096,-0.036 -0.204,-0.048 -0.312,-0.048Zm7.944,-0l-0.024,-0c-0.192,-0 -0.396,0.072 -0.612,0.288c-0.288,0.288 -0.384,0.636 -0.36,0.888c0.012,0.12 0.06,0.228 0.12,0.288c0.06,0.06 0.132,0.108 0.24,0.108c0.048,-0 0.216,-0.072 0.408,-0.228c0.192,-0.156 0.396,-0.396 0.588,-0.648c0.12,-0.156 0.216,-0.312 0.324,-0.468c-0.084,-0.06 -0.216,-0.132 -0.372,-0.18c-0.096,-0.036 -0.204,-0.048 -0.312,-0.048Zm23.868,-0l-0.024,-0c-0.192,-0 -0.396,0.072 -0.612,0.288c-0.288,0.288 -0.384,0.636 -0.36,0.888c0.012,0.12 0.06,0.228 0.12,0.288c0.06,0.06 0.132,0.108 0.24,0.108c0.048,-0 0.216,-0.072 0.408,-0.228c0.192,-0.156 0.396,-0.396 0.588,-0.648c0.12,-0.156 0.216,-0.312 0.324,-0.468c-0.084,-0.06 -0.216,-0.132 -0.372,-0.18c-0.096,-0.036 -0.204,-0.048 -0.312,-0.048Zm-7.764,-0.216l-0.024,-0c-0.264,0.012 -0.54,0.096 -0.78,0.336c-0.36,0.36 -0.408,0.696 -0.336,0.948c0.072,0.252 0.276,0.42 0.492,0.432c0.048,-0 0.24,-0.072 0.444,-0.24c0.204,-0.168 0.432,-0.396 0.648,-0.648c0.18,-0.216 0.36,-0.432 0.504,-0.636c-0.012,-0 -0.036,0.012 -0.048,0.012c-0.024,-0 -0.072,-0.012 -0.096,-0.024c-0,-0 -0.24,-0.132 -0.576,-0.168c-0.072,-0.012 -0.156,-0.012 -0.228,-0.012Zm-21.84,-4.8c0.012,-0 -0.024,0.012 -0.084,0.06c-0.06,0.048 -0.12,0.132 -0.192,0.252c-0.144,0.24 -0.3,0.6 -0.42,1.02c-0.24,0.816 -0.36,1.848 -0.228,2.748c0.024,-0.06 0.036,-0.096 0.06,-0.156c0.192,-0.48 0.444,-1.104 0.636,-1.716c0.192,-0.612 0.336,-1.236 0.372,-1.668c0.012,-0.216 -0,-0.372 -0.036,-0.456c-0.036,-0.084 -0.024,-0.084 -0.108,-0.084Z"/>
</svg>