<svg xmlns="http://www.w3.org/2000/svg" viewBox="0 0 100 100">
	<title>Mantenan</title>
	<path fill="#FFBC0E" d="M100,27.9C100,12.5,87.5,0,72.1,0H27.9C12.5,0,0,12.5,0,27.9v44.1C0,87.5,12.5,100,27.9,100h44.1 c15.4,0,27.9-12.5,27.9-27.9V27.9z"/>
	<path fill="#222222" d="M70.5,7.6c-0.4,0.5-0.9,1-1.3,1.5c-4.5,5.8-8.6,11.7-12.3,17.9c-5.3,8.9-9.7,18.3-14.2,27.6 c-0.1,0.3-0.2,0.6-0.5,0.8c-0.2-0.2,0.1-0.5,0.1-0.6c0.5-1.9,1.2-3.8,1.7-5.7c2.5-8.1,5.2-16.3,7.1-24.6c0.8-3.7,1.6-7.6,1.3-11.4 c-0.1-2.5-1-4.6-3.7-5.5C47,7,45.3,6.8,43.5,7.2C41,7.8,38.9,9,36.8,10.5c-4.2,3.1-7.7,6.7-10.9,10.7c-6.5,8-11.5,16.6-14.2,26.3 c-1,3.5-1.6,7.1-1.2,10.8c0.3,2.9,2.1,4.7,5.1,5c1,0.1,1.9,0.1,2.9,0.1c0.3-0.1,0.6,0,0.7-0.3c0.1-0.4-0.3-0.5-0.5-0.6 c-0.7-0.3-1.6-0.1-2.4-0.2c-1.3-0.1-1.6-0.3-2-1.4c-0.4-1.2-0.5-2.3-0.3-3.5c0.2-2.9,0.8-5.8,1.7-8.6c4-12.9,11.6-23.8,21.7-33.2 c2.4-2.2,5-3.8,6.7-4.4c1-0.3,2-0.1,2.2,0.9c0.5,1.3-0.1,3.7-0.3,6.1c-0.6,5.4-2.1,10.3-3.7,15.6c-2.9,10.2-6.4,20.2-9.3,30.4 c-2.5,8.9-5,17.3-6.2,26.5c-0.1,1.2,0,1.5,1.2,2c0.6,0.2,2.3,0.7,3,0.7c1.2-0.1,1.6-0.2,1.8-1.4c1.5-5.3,3.2-10.6,5.2-15.8 c4.2-10.8,8.9-21.4,13.9-31.9c4.3-9.2,9-18.3,15-26.7c1.5-2.1,1.9-2.7,3.7-4.6c-0.2,0.7-0.3,1.6-0.5,2.3c-1.8,9.9-4.5,17.6-7.5,27.2 c-2.8,8.8-4.8,17.7-7.5,26.8c-0.9,3.2-1.6,6.2-2.1,9.5c-0.1,0.9,1.3,2.5,2.2,2.8c2.4,0.9,3.8,0,4.8-1.8c2.2-3.9,4.2-7.8,6.3-11.8 c2.9-5.3,11.2-23.6,15.2-28.3c0.3-0.3,0.5-0.5,0.8-0.9c0.2,0.5,0.1,0.8,0,1.1c-1.4,8.2-8.6,35.5-9.1,38.4c-0.2,1.3,2.5,1.9,2.9,0.9 c0.5-1.3,8.8-28.1,10.1-34c0.7-2.8,1.2-5.7,1.2-8.6c0-0.7-0.1-1.5-0.7-2c-1.3-1.1-3.5-1.2-4.9-0.2c-1.4,1-2.8,2-3.6,3.4 c-5.2,8-12.3,23.1-15.4,28.4c-0.2,0.3-0.3,0.7-0.7,0.9c0.1-0.4,0.2-0.7,0.2-1c1.6-5.4,3.1-10.7,4.6-16c3.5-11.9,7-23.7,8.8-35.9 c0.2-1.6,0.5-3.2,0.5-4.8c-0.1-0.9-0.2-1.7-1-2.3C73.9,6.1,71.8,6.2,70.5,7.6z"/>
</svg>